<svg xmlns="http://www.w3.org/2000/svg" xmlns:dc="http://purl.org/dc/elements/1.1/" xmlns:ns2="http://creativecommons.org/ns#" xmlns:rdf="http://www.w3.org/1999/02/22-rdf-syntax-ns#" width="16" version="1.1" id="svg7384" height="16.000036">
  <metadata id="metadata90">
    <rdf:RDF>
      <ns2:Work rdf:about="">
        <dc:format>image/svg+xml</dc:format>
        <dc:type rdf:resource="http://purl.org/dc/dcmitype/StillImage" />
        <dc:title>Gnome Symbolic Icons</dc:title>
        <ns2:license rdf:resource="http://creativecommons.org/licenses/by-sa/4.0/" />
      </ns2:Work>
      <ns2:License rdf:about="http://creativecommons.org/licenses/by-sa/4.0/">
        <ns2:permits rdf:resource="http://creativecommons.org/ns#Reproduction" />
        <ns2:permits rdf:resource="http://creativecommons.org/ns#Distribution" />
        <ns2:requires rdf:resource="http://creativecommons.org/ns#Notice" />
        <ns2:requires rdf:resource="http://creativecommons.org/ns#Attribution" />
        <ns2:permits rdf:resource="http://creativecommons.org/ns#DerivativeWorks" />
        <ns2:requires rdf:resource="http://creativecommons.org/ns#ShareAlike" />
      </ns2:License>
    </rdf:RDF>
  </metadata>
  <title id="title8473">Gnome Symbolic Icons</title>
  <defs id="defs7386" />
  <g transform="translate(-52,-91.999995)" id="layer10" />
  <g transform="translate(-52,-27.999995)" id="layer1" />
  <g transform="translate(-52,-91.999995)" id="layer11" />
  <g transform="translate(-52,-27.999995)" id="layer7" />
  <g transform="translate(-52,-27.999995)" id="layer6" />
  <g transform="translate(-52,-27.999995)" id="layer5" />
  <g transform="translate(-52,-27.999995)" id="layer9" />
  <g transform="translate(-52,-27.999995)" id="layer2">
    <path class="success" d="m 57,32.999995 v 3 3 2 h 3 v -2 l 3,-3 v -3 z" id="rect6060-6" />
    <path id="path12867-5" d="m 57.46875,28.011719 c -0.490327,0 -0.796069,0.214784 -1.03125,0.455078 C 56.202319,28.707091 56,29.023351 56,29.496094 V 30 h -2 v 14 h 8 V 42 H 56 V 32 h 2 v -1.988281 h 4 V 32 h 2 v 3 h 2 v -5 h -2 v -0.394531 l -0.002,-0.02734 C 63.974117,29.147522 63.81805,28.843418 63.582031,28.564453 63.346013,28.285489 62.96153,27.979557 62.382812,28.011719 Z" />
    <path id="path12871-5" d="m 64.957031,36.001953 a 1.0001,1.0001 0 0 0 -0.664062,0.291016 l -3,3 A 1.0001,1.0001 0 0 0 62,41 h 1 1.103516 l -0.958985,1.404297 a 1.0001,1.0001 0 0 0 1.523438,1.279297 l 3.03125,-2.96875 A 1.0001,1.0001 0 0 0 67,39 h -1 -1.130859 l 0.96289,-1.445312 a 1.0001,1.0001 0 0 0 -0.875,-1.552735 z" />
    <path id="rect12873-6" d="m 67,38.999996 h 1 v 1 h -1 z" />
    <path id="rect12875-2" d="m 61,39.999996 h 1 v 1 h -1 z" />
    <path id="rect12877-9" d="m 65,35.999996 h 1 v 1 h -1 z" />
    <path id="rect12879-1" d="m 62.968994,42.968494 h 1 v 1 h -1 z" />
  </g>
  <g transform="translate(-52,-27.999995)" id="layer8" />
  <g transform="translate(-52,-27.999995)" id="layer3" />
  <g transform="translate(-52,-27.999995)" id="layer4" />
</svg>