<svg xmlns="http://www.w3.org/2000/svg" width="16" height="16"><g fill="currentColor"><path d="M3.5 8A3.515 3.515 0 000 11.5C0 13.421 1.579 15 3.5 15S7 13.421 7 11.5 5.421 8 3.5 8zm0 2c.84 0 1.5.66 1.5 1.5S4.34 13 3.5 13 2 12.34 2 11.5 2.66 10 3.5 10zm8-2A3.515 3.515 0 008 11.5c0 1.921 1.579 3.5 3.5 3.5s3.5-1.579 3.5-3.5S13.421 8 11.5 8zm0 2c.84 0 1.5.66 1.5 1.5s-.66 1.5-1.5 1.5-1.5-.66-1.5-1.5.66-1.5 1.5-1.5z" overflow="visible" /><path d="M5 2v9.5h2V4h6v7.5h2V2z" overflow="visible" /></g></svg>