<svg xmlns="http://www.w3.org/2000/svg" width="16" height="16"><g fill="currentColor"><path d="M9.98 8.99a1 1 0 00-.687.303L6.586 12l2.707 2.707a1 1 0 101.414-1.414L9.414 12l1.293-1.293a1 1 0 00-.726-1.717z" overflow="visible" /><path d="M1 9.005V10c0 1.645 1.356 3 3 3h1v-2H4c-.571 0-1-.429-1-1v-.983zM9.008 5H12c.572 0 1 .429 1 1v4c0 .571-.428 1-1 1H8v2h4c1.645 0 3-1.355 3-3V6c0-1.645-1.355-3-3-3H9.02z" overflow="visible" /><path d="M10 9h1v1h-1zm0 5h1v1h-1zM4 0a4 4 0 100 8 4 4 0 000-8zM3 2h2v4H3V4H2V3z" overflow="visible" /></g></svg>