<svg xmlns="http://www.w3.org/2000/svg" width="16" height="16.014"><g fill="currentColor"><path d="M5.04 1.815a1 1 0 00-.546.14 7.009 7.009 0 00-3.254 7.87 7.006 7.006 0 006.75 5.19 7.007 7.007 0 006.766-5.17 7.01 7.01 0 00-3.233-7.88 1 1 0 10-1.007 1.729 4.991 4.991 0 012.308 5.627 4.99 4.99 0 01-4.832 3.693 4.989 4.989 0 01-4.82-3.707 4.992 4.992 0 012.324-5.62 1 1 0 00-.457-1.872z" overflow="visible" /><path d="M7.984 0A1 1 0 007 1.015v5a1 1 0 102 0v-5A1 1 0 007.984.001z" overflow="visible" /></g></svg>