<svg xmlns="http://www.w3.org/2000/svg" width="16" height="16"><g fill="currentColor"><path d="M3.197 0A2.217 2.217 0 001 2.201V13.8c0 1.199.995 2.2 2.197 2.2h9.607A2.215 2.215 0 0015 13.799V2.2c0-1.199-.994-2.2-2.196-2.2zm0 2h9.607c.124 0 .196.07.196.201V13.8c0 .13-.072.201-.196.201H3.197C3.073 14 3 13.93 3 13.799V2.2c0-.13.073-.201.197-.201z" overflow="visible" /><path d="M5 4h6v7H5z" overflow="visible" /><path d="M4.047 5v1H12V5H4.547zm0 2v1H12V7H4.547zm0 2v1H12V9H4.547z" overflow="visible" /><path d="M6 3v9h1V3zm2 0v9h1V3zm2 0v9h1V3z" overflow="visible" /></g></svg>