<svg xmlns="http://www.w3.org/2000/svg" height="16px" viewBox="0 0 16 16" width="16px">
    <g fill="currentColor">
        <path d="m 10 12 v 1 h 0.003906 c 0 0.710938 0.382813 1.367188 1 1.726562 c 0.617188 0.355469 1.375 0.355469 1.996094 0 c 0.613281 -0.359374 0.996094 -1.015624 0.996094 -1.726562 h 0.003906 v -1 z m 0 0" />
        <path d="m 12 3 c 0.558594 0 1.117188 0.160156 1.589844 0.460938 c 0.46875 0.300781 0.847656 0.742187 1.082031 1.246093 c 0.234375 0.507813 0.328125 1.074219 0.3125 1.632813 c -0.019531 0.558594 -0.140625 1.109375 -0.269531 1.652344 l -0.714844 3.007812 h -4 l -0.714844 -2.847656 c -0.140625 -0.554688 -0.273437 -1.117188 -0.300781 -1.691406 c -0.027344 -0.570313 0.058594 -1.15625 0.292969 -1.679688 s 0.617187 -0.984375 1.09375 -1.296875 c 0.480468 -0.316406 1.054687 -0.484375 1.628906 -0.484375 z m 0 0" />
        <path d="m 2 10 v 1 h 0.003906 c 0 0.710938 0.382813 1.367188 1 1.726562 c 0.617188 0.355469 1.375 0.355469 1.996094 0 c 0.613281 -0.359374 0.996094 -1.015624 0.996094 -1.726562 h 0.003906 v -1 z m 0 0" />
        <path d="m 4 1 c 0.558594 0 1.117188 0.160156 1.589844 0.460938 c 0.46875 0.300781 0.847656 0.742187 1.082031 1.246093 c 0.234375 0.507813 0.328125 1.074219 0.3125 1.632813 c -0.019531 0.558594 -0.140625 1.109375 -0.269531 1.652344 l -0.714844 3.007812 h -4 l -0.714844 -2.847656 c -0.140625 -0.554688 -0.273437 -1.117188 -0.300781 -1.691406 c -0.027344 -0.570313 0.058594 -1.15625 0.292969 -1.679688 s 0.617187 -0.984375 1.09375 -1.296875 c 0.480468 -0.316406 1.054687 -0.484375 1.628906 -0.484375 z m 0 0" />
    </g>
</svg>