<svg xmlns="http://www.w3.org/2000/svg" height="16px" viewBox="0 0 16 16" width="16px">
    <g fill="currentColor">
        <path d="m 9 1 v 15 h 6 v -15 z m 2 1 h 3 v 13 h -3 z m 0 0" />
        <path d="m 12 3 h 2.5 v 1 h -2.5 z m 0 0" />
        <path d="m 12 11 h 2.5 v 1 h -2.5 z m 0 0" />
        <path d="m 13 5 h 1.5 v 1 h -1.5 z m 0 0" />
        <path d="m 13 7 h 1.5 v 1 h -1.5 z m 0 0" />
        <path d="m 13 9 h 1.5 v 1 h -1.5 z m 0 0" />
        <path d="m 13 13 h 1.5 v 1 h -1.5 z m 0 0" />
        <path d="m 1 1 v 11 l 2.5 4 l 2.5 -4 v -11 z m 1 11 h 3 l -1 1.5 h -1 z m 0 0" />
    </g>
</svg>