<svg xmlns="http://www.w3.org/2000/svg" height="16px" viewBox="0 0 16 16" width="16px">
    <g fill="currentColor">
        <path d="m 7 2 h 8 v 2 h -8 z m 0 0" />
        <path d="m 7 7 h 8 v 2 h -8 z m 0 0" />
        <path d="m 1.382812 1 h 3.234376 c 0.210937 0 0.382812 0.167969 0.382812 0.378906 v 3.242188 c 0 0.210937 -0.171875 0.378906 -0.382812 0.378906 h -3.234376 c -0.210937 0 -0.382812 -0.167969 -0.382812 -0.378906 v -3.242188 c 0 -0.210937 0.171875 -0.378906 0.382812 -0.378906 z m 0 0" />
        <path d="m 1.382812 6.015625 h 3.234376 c 0.210937 0 0.382812 0.167969 0.382812 0.378906 v 3.222657 c 0 0.207031 -0.171875 0.378906 -0.382812 0.378906 h -3.234376 c -0.210937 0 -0.382812 -0.171875 -0.382812 -0.378906 v -3.222657 c 0 -0.210937 0.171875 -0.378906 0.382812 -0.378906 z m 0 0" />
        <path d="m 7 11.984375 h 8 v 2 h -8 z m 0 0" />
        <path d="m 1.382812 11 h 3.234376 c 0.210937 0 0.382812 0.167969 0.382812 0.378906 v 3.222656 c 0 0.207032 -0.171875 0.378907 -0.382812 0.378907 h -3.234376 c -0.210937 0 -0.382812 -0.171875 -0.382812 -0.378907 v -3.222656 c 0 -0.210937 0.171875 -0.378906 0.382812 -0.378906 z m 0 0" />
    </g>
</svg>