<svg xmlns="http://www.w3.org/2000/svg" width="16" height="16"><g><path d="M8 1C5.797 1 4 2.797 4 5c0 2.203 1.797 4 4 4 2.203 0 4-1.797 4-4 0-2.203-1.797-4-4-4zm0 1.066A2.926 2.926 0 0110.934 5 2.926 2.926 0 018 7.934 2.926 2.926 0 015.067 5 2.926 2.926 0 018 2.066z" overflow="visible" /><path d="M4 8c-2.203 0-4 1.797-4 4 0 2.203 1.797 4 4 4 2.203 0 4-1.797 4-4 0-2.203-1.797-4-4-4zm0 1.066A2.926 2.926 0 016.934 12 2.926 2.926 0 014 14.934 2.926 2.926 0 011.067 12 2.926 2.926 0 014 9.066z" overflow="visible" /><path d="M15.998 12A4 4 0 0112 16a4 4 0 01-4-4 4 4 0 014-4 4 4 0 013.998 4z" overflow="visible" /><path d="M7.467 12A3.467 3.467 0 014 15.467 3.467 3.467 0 01.534 12 3.467 3.467 0 014 8.533 3.467 3.467 0 017.467 12z" overflow="visible" opacity=".5" /></g></svg>