<svg xmlns="http://www.w3.org/2000/svg" height="16px" viewBox="0 0 16 16" width="16px">
    <g fill="currentColor">
        <path d="m 0.46875 14 h 3.0625 c 0.257812 0 0.46875 0.230469 0.46875 0.515625 v 0.96875 c 0 0.285156 -0.210938 0.515625 -0.46875 0.515625 h -3.0625 c -0.257812 0 -0.46875 -0.230469 -0.46875 -0.515625 v -0.96875 c 0 -0.285156 0.210938 -0.515625 0.46875 -0.515625 z m 0 0" />
        <path d="m 6.832031 0 c -0.460937 0 -0.832031 0.382812 -0.832031 0.855469 v 4.289062 c 0 0.472657 0.371094 0.855469 0.832031 0.855469 h 8.335938 c 0.460937 0 0.832031 -0.382812 0.832031 -0.855469 v -4.289062 c 0 -0.472657 -0.371094 -0.855469 -0.832031 -0.855469 z m 0 0" />
        <path d="m 6 8 l 2 2 l -3 3 l 1 1 l 3 -3 l 2 2 v -5 z m 0 0" />
    </g>
</svg>