<svg xmlns="http://www.w3.org/2000/svg" height="16px" viewBox="0 0 16 16" width="16px">
    <g fill="currentColor">
        <path d="m 2 7 c 0.550781 0 1 0.449219 1 1 s -0.449219 1 -1 1 s -1 -0.449219 -1 -1 s 0.449219 -1 1 -1 z m 0 0" />
        <path d="m 14 4 c 0.550781 0 1 0.449219 1 1 v 6 c 0 0.550781 -0.449219 1 -1 1 s -1 -0.449219 -1 -1 v -6 c 0 -0.550781 0.449219 -1 1 -1 z m 0 0" />
        <path d="m 11 6 c 0.550781 0 1 0.449219 1 1 v 2 c 0 0.550781 -0.449219 1 -1 1 s -1 -0.449219 -1 -1 v -2 c 0 -0.550781 0.449219 -1 1 -1 z m 0 0" />
        <path d="m 8 2 c 0.550781 0 1 0.449219 1 1 v 10 c 0 0.550781 -0.449219 1 -1 1 s -1 -0.449219 -1 -1 v -10 c 0 -0.550781 0.449219 -1 1 -1 z m 0 0" />
        <path d="m 5 5 c 0.550781 0 1 0.449219 1 1 v 4 c 0 0.550781 -0.449219 1 -1 1 s -1 -0.449219 -1 -1 v -4 c 0 -0.550781 0.449219 -1 1 -1 z m 0 0" />
    </g>
</svg>