<svg xmlns="http://www.w3.org/2000/svg" height="16px" viewBox="0 0 16 16" width="16px">
    <g fill="currentColor">
        <path d="m 1.179688 8 h 13.640624 c 0.652344 0 1.179688 0.449219 1.179688 1 s -0.527344 1 -1.179688 1 h -13.640624 c -0.652344 0 -1.179688 -0.449219 -1.179688 -1 s 0.527344 -1 1.179688 -1 z m 0 0" />
        <path d="m 3 5 c 0.550781 0 1 0.449219 1 1 v 6 c 0 0.550781 -0.449219 1 -1 1 s -1 -0.449219 -1 -1 v -6 c 0 -0.550781 0.449219 -1 1 -1 z m 0 0" />
        <path d="m 13 5 c 0.550781 0 1 0.449219 1 1 v 6 c 0 0.550781 -0.449219 1 -1 1 s -1 -0.449219 -1 -1 v -6 c 0 -0.550781 0.449219 -1 1 -1 z m 0 0" />
        <path d="m 11 3 c 0.550781 0 1 0.449219 1 1 v 10 c 0 0.550781 -0.449219 1 -1 1 s -1 -0.449219 -1 -1 v -10 c 0 -0.550781 0.449219 -1 1 -1 z m 0 0" />
        <path d="m 5 3 c 0.550781 0 1 0.449219 1 1 v 10 c 0 0.550781 -0.449219 1 -1 1 s -1 -0.449219 -1 -1 v -10 c 0 -0.550781 0.449219 -1 1 -1 z m 0 0" />
    </g>
</svg>