<svg xmlns="http://www.w3.org/2000/svg" height="16px" viewBox="0 0 16 16" width="16px">
    <g fill="currentColor">
        <path d="m 1 1 h 4 v 4 h -4 z m 0 0" />
        <path d="m 6 1 h 4 v 4 h -4 z m 0 0" />
        <path d="m 11 1 h 4 v 4 h -4 z m 0 0" />
        <path d="m 1 6 h 4 v 4 h -4 z m 0 0" />
        <path d="m 6 6 h 4 v 4 h -4 z m 0 0" />
        <path d="m 11 6 h 4 v 4 h -4 z m 0 0" />
        <path d="m 1 11 h 4 v 4 h -4 z m 0 0" />
        <path d="m 6 11 h 4 v 4 h -4 z m 0 0" />
        <path d="m 11 11 h 4 v 4 h -4 z m 0 0" />
    </g>
</svg>