<svg xmlns="http://www.w3.org/2000/svg" width="16" height="16"><path d="M6.5 0C2.922 0 0 2.922 0 6.5S2.922 13 6.5 13c.17 0 .333-.018.5-.031v-2.031c-.167.018-.327.062-.5.062A4.485 4.485 0 012 6.5C2 4.003 4.003 2 6.5 2S11 4.003 11 6.5c0 .173-.044.333-.063.5h2.032c.013-.167.031-.33.031-.5C13 2.922 10.078 0 6.5 0z" overflow="visible" fill="currentColor" /><path d="M6.492 2.992A.5.5 0 006 3.5V6H4.5a.5.5 0 100 1h2a.5.5 0 00.5-.5v-3a.5.5 0 00-.508-.508z" overflow="visible" fill="currentColor" /><path class="warning" d="M8.875 8.068a.861.861 0 00-.875.87v6.195a.86.86 0 00.875.867h6.25a.86.86 0 00.875-.867V8.938a.861.861 0 00-.875-.87zM11 9h2v2.5s0 .5-.5.5h-1c-.5 0-.5-.5-.5-.5zm.5 4h1c.277 0 .5.223.5.5v1c0 .277-.223.5-.5.5h-1a.499.499 0 01-.5-.5v-1c0-.277.223-.5.5-.5z" overflow="visible" fill="#f57900" /></svg>