<svg xmlns="http://www.w3.org/2000/svg" xmlns:dc="http://purl.org/dc/elements/1.1/" xmlns:ns2="http://creativecommons.org/ns#" xmlns:rdf="http://www.w3.org/1999/02/22-rdf-syntax-ns#" width="16" version="1.1" id="svg7384" height="16.000036">
  <metadata id="metadata90">
    <rdf:RDF>
      <ns2:Work rdf:about="">
        <dc:format>image/svg+xml</dc:format>
        <dc:type rdf:resource="http://purl.org/dc/dcmitype/StillImage" />
        <dc:title>Gnome Symbolic Icons</dc:title>
        <ns2:license rdf:resource="http://creativecommons.org/licenses/by-sa/4.0/" />
      </ns2:Work>
      <ns2:License rdf:about="http://creativecommons.org/licenses/by-sa/4.0/">
        <ns2:permits rdf:resource="http://creativecommons.org/ns#Reproduction" />
        <ns2:permits rdf:resource="http://creativecommons.org/ns#Distribution" />
        <ns2:requires rdf:resource="http://creativecommons.org/ns#Notice" />
        <ns2:requires rdf:resource="http://creativecommons.org/ns#Attribution" />
        <ns2:permits rdf:resource="http://creativecommons.org/ns#DerivativeWorks" />
        <ns2:requires rdf:resource="http://creativecommons.org/ns#ShareAlike" />
      </ns2:License>
    </rdf:RDF>
  </metadata>
  <title id="title8473">Gnome Symbolic Icons</title>
  <defs id="defs7386" />
  <g transform="translate(-72,-91.999995)" id="layer10" />
  <g transform="translate(-72,-27.999995)" id="layer1" />
  <g transform="translate(-72,-91.999995)" id="layer11" />
  <g transform="translate(-72,-27.999995)" id="layer7" />
  <g transform="translate(-72,-27.999995)" id="layer6" />
  <g transform="translate(-72,-27.999995)" id="layer5" />
  <g transform="translate(-72,-27.999995)" id="layer9" />
  <g transform="translate(-72,-27.999995)" id="layer2">
    <path class="success" d="m 77,33.999995 v 2 3 2 h 3 v -2 l 3,-3 v -2 z" id="path3875" />
    <path id="path3879" d="m 77.46875,28.011719 c -0.490327,0 -0.796069,0.214784 -1.03125,0.455078 C 76.202319,28.707091 76,29.023351 76,29.496094 V 30 h -2 v 14 h 8 V 42 H 76 V 32 h 2 v -1.988281 h 4 V 32 h 2 v 3 h 2 v -5 h -2 v -0.394531 l -0.002,-0.02734 C 83.974117,29.147522 83.81805,28.843418 83.582031,28.564453 83.346013,28.285489 82.96153,27.979557 82.382812,28.011719 Z" />
    <path id="path3883" d="m 84.957031,36.001953 a 1.0001,1.0001 0 0 0 -0.664062,0.291016 l -3,3 A 1.0001,1.0001 0 0 0 82,41 h 1 1.103516 l -0.958985,1.404297 a 1.0001,1.0001 0 0 0 1.523438,1.279297 l 3.03125,-2.96875 A 1.0001,1.0001 0 0 0 87,39 h -1 -1.130859 l 0.96289,-1.445312 a 1.0001,1.0001 0 0 0 -0.875,-1.552735 z" />
    <path id="rect3885" d="m 87,38.999996 h 1 v 1 h -1 z" />
    <path id="rect3887" d="m 81,39.999996 h 1 v 1 h -1 z" />
    <path id="rect3889" d="m 85,35.999996 h 1 v 1 h -1 z" />
    <path id="rect3891" d="m 82.968994,42.968494 h 1 v 1 h -1 z" />
  </g>
  <g transform="translate(-72,-27.999995)" id="layer8" />
  <g transform="translate(-72,-27.999995)" id="layer3" />
  <g transform="translate(-72,-27.999995)" id="layer4" />
</svg>