<svg xmlns="http://www.w3.org/2000/svg" width="16" height="16"><path class="error" d="M5 12v1h2v-1z" fill="#c00" /><path d="M5.469.012c-.49 0-.796.215-1.032.455C4.202.707 4 1.023 4 1.497V2H2v14h5v-2H4V4h2V2.012h4V4h2v3h2V2h-2v-.395l-.002-.027a1.622 1.622 0 00-.416-1.014c-.236-.278-.62-.584-1.2-.552z" overflow="visible" fill="currentColor" /><path class="warning" d="M8.875 8A.863.863 0 008 8.875v6.25c0 .492.383.875.875.875h6.25a.863.863 0 00.875-.875v-6.25A.863.863 0 0015.125 8zM11 9h2v2.5s0 .5-.5.5h-1c-.5 0-.5-.5-.5-.5zm.5 4h1c.277 0 .5.223.5.5v1c0 .277-.223.5-.5.5h-1a.499.499 0 01-.5-.5v-1c0-.277.223-.5.5-.5z" overflow="visible" fill="#f57900" /></svg>