<svg xmlns="http://www.w3.org/2000/svg" height="16px" viewBox="0 0 16 16" width="16px">
    <filter id="a" height="100%" width="100%" x="0%" y="0%">
        <feColorMatrix in="SourceGraphic" type="matrix" values="0 0 0 0 1 0 0 0 0 1 0 0 0 0 1 0 0 0 1 0" />
    </filter>
    <mask id="b">
        <g filter="url(#a)">
            <path d="m 0 0 h 16 v 16 h -16 z" fill-opacity="0.3" />
        </g>
    </mask>
    <clipPath id="c">
        <path d="m 0 0 h 1600 v 1200 h -1600 z" />
    </clipPath>
    <path d="m 10 3 c -1.5625 0.003906 -2.980469 0.914062 -3.628906 2.332031 c -0.425782 -0.214843 -0.894532 -0.332031 -1.371094 -0.332031 c -0.308594 0.007812 -0.613281 0.058594 -0.90625 0.160156 l 8.84375 8.839844 h 0.0625 c 1.65625 0 3 -1.34375 3 -3 c 0 -1.332031 -0.882812 -2.503906 -2.160156 -2.875 c 0.105468 -0.367188 0.160156 -0.746094 0.160156 -1.125 c 0 -2.210938 -1.789062 -4 -4 -4 z m -7.203125 2.984375 c -0.507813 0.550781 -0.792969 1.269531 -0.796875 2.015625 c 0 0.347656 0.0625 0.695312 0.183594 1.023438 c -1.25 0.160156 -2.183594 1.21875 -2.183594 2.476562 c 0 1.378906 1.121094 2.5 2.5 2.5 h 8.3125 z m 0 0" fill="currentColor" />
    <path d="m 1.519531 0.460938 l -1.0625 1.0625 l 14 14 l 1.0625 -1.0625 z m 0 0" fill="currentColor" />
    <g clip-path="url(#c)" mask="url(#b)" transform="matrix(1 0 0 1 -680 -480)">
        <path d="m 580.9375 215.75 v -2.1875 l 4.21875 -1.128906 l 2.34375 0.59375 l 2.386719 -0.667969 l 3.742187 1 v 2.453125 z m 0 0" fill="currentColor" />
    </g>
</svg>