<svg xmlns="http://www.w3.org/2000/svg" xmlns:ns1="http://sodipodi.sourceforge.net/DTD/sodipodi-0.dtd" xmlns:ns2="http://www.inkscape.org/namespaces/inkscape" height="16px" viewBox="0 0 16 16" width="16px" version="1.1" id="svg8" ns1:docname="document-new-symbolic.svg" ns2:version="1.1.1 (3bf5ae0d25, 2021-09-20)">
  <defs id="defs12" />
  <ns1:namedview id="namedview10" pagecolor="#ffffff" bordercolor="#666666" borderopacity="1.0" ns2:pageshadow="2" ns2:pageopacity="0.0" ns2:pagecheckerboard="0" showgrid="false" ns2:zoom="46.5625" ns2:cx="8" ns2:cy="8" ns2:window-width="1920" ns2:window-height="1123" ns2:window-x="0" ns2:window-y="0" ns2:window-maximized="1" ns2:current-layer="svg8" />
  <path d="m 261,735 v 1 6 1 h 2 v -1 -6 -1 z" id="path2" transform="matrix(0 1 1 0 -727.999878 -250)" />
  <path d="m 1 1 c 0 -0.550781 0.449219 -1 1 -1 h 9 c 0.265625 0 0.519531 0.105469 0.707031 0.292969 l 3 3 c 0.1875 0.1875 0.292969 0.441406 0.292969 0.707031 v 4 h -2 v -3.585938 l -2.414062 -2.414062 h -7.585938 v 12 h 4 v 2 h -5 c -0.550781 0 -1 -0.449219 -1 -1 z m 0 0" fill="currentColor" fill-rule="evenodd" id="path4" />
  <path d="m 258,738 v 2 h 1 6 1 v -2 h -1 -6 z" id="path6" transform="matrix(0 1 1 0 -727.999878 -250)" />
</svg>