<svg xmlns="http://www.w3.org/2000/svg" width="16" height="16"><g fill="currentColor"><path d="M5.5 0C2.475 0 0 2.478 0 5.5c0 1.999 1.09 3.75 2.7 4.71l1.363-1.523A3.468 3.468 0 012 5.5C2 3.559 3.556 2 5.5 2a3.48 3.48 0 013.156 1.969L10.125 2.5A5.54 5.54 0 005.5 0zm4.906 8.969L9 10.375l3.281 3.313c.368.376 1.046.384 1.422.015.377-.368.384-1.045.016-1.422z" overflow="visible" /><path d="M3.002 11L12 2c1 0 2 1 2 2l-9 9H3z" fill-rule="evenodd" /><path d="M13 1c1 0 2 1 2 2l1-1c0-1-.752-2-2-2z" overflow="visible" /></g></svg>