<svg xmlns="http://www.w3.org/2000/svg" height="16px" viewBox="0 0 16 16" width="16px">
    <path d="m -12 -19.5 c -4.117188 0 -7.5 3.382812 -7.5 7.5 s 3.382812 7.5 7.5 7.5 c 4.117187 0 7.5 -3.382812 7.5 -7.5 s -3.382813 -7.5 -7.5 -7.5 z m 0 0" fill="none" stroke="currentColor" stroke-opacity="0.25" />
    <path d="m -7 -12 c 0 2.761719 -2.238282 5 -5 5 c -2.761719 0 -5 -2.238281 -5 -5 s 2.238281 -5 5 -5 c 2.761718 0 5 2.238281 5 5 z m 0 0" fill="none" stroke="currentColor" stroke-linecap="round" stroke-opacity="0.5" stroke-width="2" />
    <path d="m 4 0 v 1 h 8.003906 v -1 z m 0 2 v 2 h 0.003906 l 1.996094 1.996094 v 10.003906 h 4.003906 v -10 l 2 -2 v -2 z m 4 5.5 c 0.554688 0 1 0.445312 1 1 v 2 c 0 0.554688 -0.445312 1 -1 1 s -1 -0.445312 -1 -1 v -2 c 0 -0.554688 0.445312 -1 1 -1 z m 0 0" fill="currentColor" />
</svg>