<svg xmlns="http://www.w3.org/2000/svg" width="16" height="16"><g fill="currentColor"><path d="M7 6v2h2.994s.791.014 1.553.395c.761.38 1.447.938 1.447 2.605v2h2v-2c0-2.333-1.314-3.775-2.553-4.395C11.203 5.986 9.994 6 9.994 6z" overflow="visible" /><path d="M6 3.022v1c0 .257-.13.529-.313.719l-2.28 2.281 2.28 2.281c.183.19.313.462.313.72v1H5c-.31 0-.552-.091-.75-.282L.594 7.022 4.25 3.303c.198-.19.44-.28.75-.28z" overflow="visible" /><path d="M10 3.022v1c0 .257-.13.529-.313.719l-2.28 2.281 2.28 2.281c.183.19.313.462.313.72v1H9c-.31 0-.552-.091-.75-.282L4.594 7.022 8.25 3.303c.198-.19.44-.28.75-.28z" overflow="visible" /></g></svg>