<svg xmlns="http://www.w3.org/2000/svg" width="16.002" height="16"><g fill="currentColor"><path d="M8.04 4A1 1 0 007 5v6a1 1 0 001.514.857l5-3a1 1 0 000-1.714l-5-3A1 1 0 008.04 4zM9 6.768L11.055 8 9 9.232z" overflow="visible" /><path d="M14.002 3.998l-.002 1-.013 6-.004 1 2 .004.004-1 .013-6 .002-1z" overflow="visible" /><path d="M8 11H7v1h1zm0-7H7v1h1z" overflow="visible" /><path d="M1.04 4A1 1 0 000 5v6a1 1 0 001.514.857l5-3a1 1 0 000-1.714l-5-3A1 1 0 001.04 4zM2 6.768L4.055 8 2 9.232z" overflow="visible" /><path d="M1 11H0v1h1zm0-7H0v1h1zm7 1l5 3-5 3zM1 5l5 3-5 3z" overflow="visible" /></g></svg>