<svg xmlns="http://www.w3.org/2000/svg" width="16" height="16"><g fill="currentColor"><path d="M9.98 8.99a1 1 0 00-.687.303L6.586 12l2.707 2.707a1 1 0 101.414-1.414L9.414 12l1.293-1.293a1 1 0 00-.726-1.717z" overflow="visible" /><path d="M4 3C2.356 3 1 4.355 1 6v4c0 1.645 1.356 3 3 3h1v-2H4c-.571 0-1-.429-1-1V6c0-.571.429-1 1-1h8c.572 0 1 .429 1 1v4c0 .571-.428 1-1 1H8v2h4c1.645 0 3-1.355 3-3V6c0-1.645-1.355-3-3-3z" overflow="visible" /><path d="M10 9h1v1h-1zm0 5h1v1h-1z" overflow="visible" /></g></svg>