<svg xmlns="http://www.w3.org/2000/svg" xmlns:dc="http://purl.org/dc/elements/1.1/" xmlns:ns1="http://sodipodi.sourceforge.net/DTD/sodipodi-0.dtd" xmlns:ns2="http://www.inkscape.org/namespaces/inkscape" xmlns:ns4="http://creativecommons.org/ns#" xmlns:rdf="http://www.w3.org/1999/02/22-rdf-syntax-ns#" ns1:docname="night-light-disabled-symbolic.svg" ns2:export-filename="/home/sam/source-symbolic.png" ns2:export-xdpi="270" ns2:export-ydpi="270" height="16" id="svg7384" version="1.1" ns2:version="1.0.2 (e86c870879, 2021-01-15)" width="16">
  <ns1:namedview ns2:bbox-nodes="true" ns2:bbox-paths="false" bordercolor="#000000" borderlayer="false" borderopacity="0.50196078" ns2:current-layer="layer1" ns2:cx="165.14999" ns2:cy="183.13664" ns2:document-rotation="0" gridtolerance="10" ns2:guide-bbox="true" guidetolerance="10" id="namedview88" ns2:measure-end="0,0" ns2:measure-start="0,0" ns2:object-nodes="true" ns2:object-paths="true" objecttolerance="10" ns2:pagecheckerboard="1" pagecolor="#e2e2e2" ns2:pageopacity="0" ns2:pageshadow="2" showborder="false" showgrid="false" showguides="false" ns2:showpageshadow="false" ns2:snap-bbox="true" ns2:snap-bbox-edge-midpoints="false" ns2:snap-bbox-midpoints="true" ns2:snap-center="false" ns2:snap-global="true" ns2:snap-grids="true" ns2:snap-intersection-paths="false" ns2:snap-midpoints="true" ns2:snap-nodes="true" ns2:snap-object-midpoints="true" ns2:snap-others="true" ns2:snap-page="false" ns2:snap-smooth-nodes="true" ns2:snap-to-guides="true" ns2:window-height="1376" ns2:window-maximized="0" ns2:window-width="2560" ns2:window-x="26" ns2:window-y="23" ns2:zoom="1">
    <ns2:grid dotted="false" empcolor="#0800ff" empopacity="0.4627451" empspacing="4" enabled="true" id="grid4866" opacity="0.16470588" originx="-191.99974" originy="-172" snapvisiblegridlinesonly="true" spacingx="1" spacingy="1" type="xygrid" visible="true" />
    <ns2:grid dotted="true" empcolor="#3f3fff" empopacity="0" empspacing="4" id="grid3540" originx="-191.99974" originy="-172" spacingx="0.5" spacingy="0.5" type="xygrid" />
  </ns1:namedview>
  <metadata id="metadata90">
    <rdf:RDF>
      <ns4:Work rdf:about="">
        <dc:format>image/svg+xml</dc:format>
        <dc:type rdf:resource="http://purl.org/dc/dcmitype/StillImage" />
        <dc:title>Gnome Symbolic Icons</dc:title>
        <ns4:license rdf:resource="http://creativecommons.org/licenses/by-sa/4.0/" />
      </ns4:Work>
      <ns4:License rdf:about="http://creativecommons.org/licenses/by-sa/4.0/">
        <ns4:permits rdf:resource="http://creativecommons.org/ns#Reproduction" />
        <ns4:permits rdf:resource="http://creativecommons.org/ns#Distribution" />
        <ns4:requires rdf:resource="http://creativecommons.org/ns#Notice" />
        <ns4:requires rdf:resource="http://creativecommons.org/ns#Attribution" />
        <ns4:permits rdf:resource="http://creativecommons.org/ns#DerivativeWorks" />
        <ns4:requires rdf:resource="http://creativecommons.org/ns#ShareAlike" />
      </ns4:License>
    </rdf:RDF>
  </metadata>
  <title id="title8473">Gnome Symbolic Icons</title>
  <defs id="defs7386" />
  <g ns2:groupmode="layer" id="layer10" ns2:label="ui" transform="translate(-191.99974,-172)" />
  <g ns2:groupmode="layer" id="layer1" ns2:label="status" transform="translate(-191.99974,-108)">
    <path d="m 196.95703,108.60156 c 0,0 -0.53968,1.31683 -0.16406,2.23047 l 0.42187,1.02344 c -0.52895,0.35723 -0.98584,0.81085 -1.3457,1.33789 l -1.02148,-0.42578 c -0.91011,-0.38523 -2.23047,0.15234 -2.23047,0.15234 0,0 0.54929,1.31291 1.46093,1.69336 l 1.01758,0.42383 C 195.0341,115.34922 195,115.67054 195,116 c 0,0.32063 0.0334,0.63322 0.0918,0.9375 l -1.02149,0.41992 c -0.91594,0.37114 -1.46875,1.68555 -1.46875,1.68555 0,0 1.31683,0.53968 2.23047,0.16406 l 1.02344,-0.42187 c 0.357,0.5286 0.81129,0.98399 1.33789,1.34375 l -0.42774,1.02343 c -0.38043,0.91165 0.1543,2.23047 0.1543,2.23047 0,0 1.31543,-0.54696 1.69141,-1.46093 l 0.42578,-1.01758 C 199.34922,120.9659 199.67054,121 200,121 c 0.32063,0 0.63322,-0.0334 0.9375,-0.0918 l 0.41992,1.02149 c 0.37115,0.91595 1.6836,1.46875 1.6836,1.46875 0,0 0.54163,-1.31487 0.16601,-2.22852 l -0.42187,-1.02344 c 0.52893,-0.35708 0.98381,-0.81298 1.34375,-1.33984 l 1.02343,0.42774 c 0.91011,0.38522 2.23047,-0.1543 2.23047,-0.1543 0,0 -0.54929,-1.31097 -1.46093,-1.69141 l -1.01758,-0.42578 C 204.9659,116.65078 205,116.32946 205,116 c 0,-0.32063 -0.0334,-0.63322 -0.0918,-0.9375 l 1.02149,-0.41992 c 0.91594,-0.37114 1.46875,-1.6836 1.46875,-1.6836 0,0 -1.31487,-0.54163 -2.22852,-0.16601 l -1.02344,0.42187 c -0.35708,-0.52893 -0.81298,-0.98381 -1.33984,-1.34375 l 0.42774,-1.02343 c 0.38522,-0.91011 -0.1543,-2.23047 -0.1543,-2.23047 0,0 -1.31096,0.54929 -1.69141,1.46093 l -0.42578,1.01758 C 200.65078,111.0341 200.32946,111 200,111 c -0.32063,0 -0.63322,0.0334 -0.9375,0.0918 l -0.41992,-1.02149 c -0.37115,-0.91594 -1.68555,-1.46875 -1.68555,-1.46875 z M 197,113 h 2 v 6 h -2 z m 4,0 h 2 v 6 h -2 z" id="path3331" />
  </g>
  <g ns2:groupmode="layer" id="layer11" ns2:label="legacy" transform="translate(-191.99974,-172)" />
  <g ns2:groupmode="layer" id="layer7" ns2:label="places" transform="translate(-191.99974,-108)" />
  <g ns2:groupmode="layer" id="layer6" ns2:label="mimetypes" transform="translate(-191.99974,-108)" />
  <g ns2:groupmode="layer" id="layer5" ns2:label="emotes" transform="translate(-191.99974,-108)" />
  <g ns2:groupmode="layer" id="layer9" ns2:label="emblems" transform="translate(-191.99974,-108)" />
  <g ns2:groupmode="layer" id="layer2" ns2:label="devices" transform="translate(-191.99974,-108)" />
  <g ns2:groupmode="layer" id="layer8" ns2:label="categories" transform="translate(-191.99974,-108)" />
  <g ns2:groupmode="layer" id="layer3" ns2:label="apps" transform="translate(-191.99974,-108)" />
  <g ns2:groupmode="layer" id="layer4" ns2:label="actions" transform="translate(-191.99974,-108)" />
</svg>