<svg xmlns="http://www.w3.org/2000/svg" height="16px" viewBox="0 0 16 16" width="16px">
    <filter id="a" height="100%" width="100%" x="0%" y="0%">
        <feColorMatrix in="SourceGraphic" type="matrix" values="0 0 0 0 1 0 0 0 0 1 0 0 0 0 1 0 0 0 1 0" />
    </filter>
    <mask id="b">
        <g filter="url(#a)">
            <path d="m 0 0 h 16 v 16 h -16 z" fill-opacity="0.3" />
        </g>
    </mask>
    <clipPath id="c">
        <path d="m 0 0 h 1600 v 1200 h -1600 z" />
    </clipPath>
    <g fill="currentColor">
        <path d="m 4.5 6 c -0.277344 0 -0.5 0.222656 -0.5 0.5 s 0.222656 0.5 0.5 0.5 h 6 c 0.277344 0 0.5 -0.222656 0.5 -0.5 s -0.222656 -0.5 -0.5 -0.5 z m 0 2 c -0.277344 0 -0.5 0.222656 -0.5 0.5 s 0.222656 0.5 0.5 0.5 h 5 c 0.277344 0 0.5 -0.222656 0.5 -0.5 s -0.222656 -0.5 -0.5 -0.5 z m 0 2 c -0.277344 0 -0.5 0.222656 -0.5 0.5 s 0.222656 0.5 0.5 0.5 h 6 c 0.277344 0 0.5 -0.222656 0.5 -0.5 s -0.222656 -0.5 -0.5 -0.5 z m 0 2 c -0.277344 0 -0.5 0.222656 -0.5 0.5 s 0.222656 0.5 0.5 0.5 h 3 c 0.277344 0 0.5 -0.222656 0.5 -0.5 s -0.222656 -0.5 -0.5 -0.5 z m 0 0" />
        <path d="m 3 1 c -1.089844 0 -2 0.910156 -2 2 v 11 c 0 1.089844 0.910156 2 2 2 h 9 c 1.089844 0 2 -0.910156 2 -2 v -11 c 0 -1.089844 -0.910156 -2 -2 -2 v 13 h -9 z m 0 0" />
        <path d="m 4.492188 -0.0078125 c -0.277344 0.00390625 -0.496094 0.2304685 -0.492188 0.5078125 v 3 c 0 0.273438 0.222656 0.5 0.5 0.5 s 0.5 -0.226562 0.5 -0.5 v -3 c 0 -0.136719 -0.050781 -0.265625 -0.148438 -0.359375 c -0.09375 -0.0976562 -0.222656 -0.1484375 -0.359374 -0.1484375 z m 2 0 c -0.277344 0.00390625 -0.496094 0.2304685 -0.492188 0.5078125 v 3 c 0 0.273438 0.222656 0.5 0.5 0.5 s 0.5 -0.226562 0.5 -0.5 v -3 c 0 -0.136719 -0.050781 -0.265625 -0.148438 -0.359375 c -0.09375 -0.0976562 -0.222656 -0.1484375 -0.359374 -0.1484375 z m 2 0 c -0.277344 0.00390625 -0.496094 0.2304685 -0.492188 0.5078125 v 3 c 0 0.273438 0.222656 0.5 0.5 0.5 s 0.5 -0.226562 0.5 -0.5 v -3 c 0 -0.136719 -0.050781 -0.265625 -0.148438 -0.359375 c -0.09375 -0.0976562 -0.222656 -0.1484375 -0.359374 -0.1484375 z m 2 0 c -0.277344 0.00390625 -0.496094 0.2304685 -0.492188 0.5078125 v 3 c 0 0.273438 0.222656 0.5 0.5 0.5 s 0.5 -0.226562 0.5 -0.5 v -3 c 0 -0.136719 -0.050781 -0.265625 -0.148438 -0.359375 c -0.09375 -0.0976562 -0.222656 -0.1484375 -0.359374 -0.1484375 z m 0 0" />
    </g>
    <g clip-path="url(#c)" mask="url(#b)" transform="matrix(1 0 0 1 -640 -201)">
        <path d="m 580.9375 215.75 v -2.1875 l 4.21875 -1.128906 l 2.34375 0.59375 l 2.386719 -0.667969 l 3.742187 1 v 2.453125 z m 0 0" fill="currentColor" />
    </g>
</svg>