<svg xmlns="http://www.w3.org/2000/svg" width="16.001" height="16.047"><g fill="currentColor"><path d="M9.003.09v2.04a4.98 4.98 0 013.566 2.888h-1.568c-.554 0-1 .446-1 1v1h6v-6h-1c-.554 0-1 .446-1 1v1.396A7.037 7.037 0 009.003.09zm0 12.781v.3a1 1 0 000-.3z" overflow="visible" fill-rule="evenodd" /><path d="M9.74 16.047c.515 0 1.021-.177 1.407-.562l4.25-4.25c.77-.772.756-2.074 0-2.844l-.472-.373H12.08l1.91 1.81-4.25 4.22-7.72-7.782c-.015-.016-.043-.02-.03-.031l4.25-4.25 1.735 1.899V1.07L7.678.61 7.647.578a1.999 1.999 0 00-2.813 0l-4.25 4.25a2.004 2.004 0 000 2.813l7.75 7.844c.386.388.892.563 1.407.562z" overflow="visible" /></g></svg>