<svg xmlns="http://www.w3.org/2000/svg" width="16.014" height="16.01"><g fill="currentColor"><path d="M12 1.006l-2 .008.018 4.996H15v-2h-2.99z" overflow="visible" /><path d="M14.979 0a1 1 0 00-.688.305l-3.984 4a1 1 0 101.416 1.41l3.986-4A1 1 0 0014.979 0zM1.014 6.01a1 1 0 00-1 1v8a1 1 0 001 1h8a1 1 0 001-1v-8a1 1 0 00-1-1zm1 2h6v6h-6z" overflow="visible" /><path d="M1.014 8.01a1 1 0 100 2h8a1 1 0 100-2z" overflow="visible" fill-rule="evenodd" /><path d="M15 5.01h1v1h-1zm-5-5h1v1h-1zm-.986 15h1v1h-1zm-9 0h1v1h-1z" overflow="visible" /><path d="M11 .01c.554 0 1 .446 1 1s-.446 1-1 1-1-.446-1-1 .446-1 1-1zm4 4c.554 0 1 .446 1 1s-.446 1-1 1-1-.446-1-1 .446-1 1-1z" overflow="visible" /></g></svg>