<svg xmlns="http://www.w3.org/2000/svg" xmlns:ns1="http://www.w3.org/1999/xlink" width="16" height="16"><g transform="translate(-332 -88)"><path id="a" d="M339.492 88.492A.5.5 0 00339 89v1.533l-1.252-.717a.5.5 0 10-.496.868l1.748 1v8.683l-1.746.987a.5.5 0 10.492.87l1.254-.708V103a.5.5 0 101 0v-1.484l1.254.709a.5.5 0 10.492-.871l-1.746-.987v-8.683l1.748-1a.5.5 0 10-.496-.868l-1.252.717V89a.5.5 0 00-.508-.508z" overflow="visible" fill="currentColor" stroke-linecap="round" /><use height="100%" ns1:href="#a" transform="rotate(-60 339.5 96)" width="100%" /><use height="100%" ns1:href="#a" transform="rotate(-120 339.5 96)" width="100%" /></g></svg>