<svg xmlns="http://www.w3.org/2000/svg" height="16px" viewBox="0 0 16 16" width="16px">
    <g fill="currentColor">
        <path d="m 3 10 v 2 c 0 1.105469 0.894531 2 2 2 h 2 v -2 c 0 -1.105469 -0.894531 -2 -2 -2 z m 0 0" />
        <path d="m 14 10 v 2 c 0 1.105469 -0.894531 2 -2 2 h -2 v -2 c 0 -1.105469 0.894531 -2 2 -2 z m 0 0" />
        <path d="m 4 6 v 1.5 c 0 0.828125 0.671875 1.5 1.5 1.5 h 1.5 v -1.5 c 0 -0.828125 -0.671875 -1.5 -1.5 -1.5 z m 0 0" />
        <path d="m 13 6 v 1.5 c 0 0.828125 -0.671875 1.5 -1.5 1.5 h -1.5 v -1.5 c 0 -0.828125 0.671875 -1.5 1.5 -1.5 z m 0 0" />
        <path d="m 6 0 v 1 c 0 0.550781 0.449219 1 1 1 h 1 v -1 c 0 -0.550781 -0.449219 -1 -1 -1 z m 0 0" />
        <path d="m 11 0 v 1 c 0 0.550781 -0.449219 1 -1 1 h -1 v -1 c 0 -0.550781 0.449219 -1 1 -1 z m 0 0" />
        <path d="m 5 3 v 1 c 0 0.550781 0.449219 1 1 1 h 1 v -1 c 0 -0.550781 -0.449219 -1 -1 -1 z m 0 0" />
        <path d="m 12 3 v 1 c 0 0.550781 -0.449219 1 -1 1 h -1 v -1 c 0 -0.550781 0.449219 -1 1 -1 z m 0 0" />
        <path d="m 8.5 2 c 0.277344 0 0.5 0.222656 0.5 0.5 v 13 c 0 0.277344 -0.222656 0.5 -0.5 0.5 s -0.5 -0.222656 -0.5 -0.5 v -13 c 0 -0.277344 0.222656 -0.5 0.5 -0.5 z m 0 0" />
    </g>
</svg>