<svg xmlns="http://www.w3.org/2000/svg" height="16px" viewBox="0 0 16 16" width="16px">
    <g fill="currentColor">
        <path d="m 1 4 h 2 v 2 h -2 z m 0 0" />
        <path d="m 4 4 h 2 v 2 h -2 z m 0 0" />
        <path d="m 7 4 h 2 v 2 h -2 z m 0 0" />
        <path d="m 10 4 h 2 v 2 h -2 z m 0 0" />
        <path d="m 1 7 h 2 v 2 h -2 z m 0 0" />
        <path d="m 4 7 h 2 v 2 h -2 z m 0 0" />
        <path d="m 7 7 h 2 v 2 h -2 z m 0 0" />
        <path d="m 10 7 h 2 v 2 h -2 z m 0 0" />
        <path d="m 1 10 h 2 v 2 h -2 z m 0 0" />
        <path d="m 4 10 h 2 v 2 h -2 z m 0 0" />
        <path d="m 7 10 h 2 v 2 h -2 z m 0 0" />
        <path d="m 10 10 h 2 v 2 h -2 z m 0 0" />
        <path d="m 13 1 h 1 v 13 h -1 z m 0 0" />
    </g>
</svg>