<svg xmlns="http://www.w3.org/2000/svg" width="16" height="16"><g fill="currentColor"><path d="M6 12a2 2 0 01-2 2 2 2 0 01-2-2 2 2 0 012-2 2 2 0 012 2z" overflow="visible" /><path d="M2 6h1.014v1.014H2zm7.014 7.014H10V14h-.986zm4 0H14V14h-.986zM2 2h1.014v1.014H2z" /><path d="M3.014 8.014c2.774 0 5 2.227 5 5h2c0-3.854-3.145-7-7-7z" overflow="visible" /><path d="M3.014 4.028a8.972 8.972 0 018.987 8.986h2C14 6.96 9.07 2.028 3.014 2.028z" overflow="visible" /><path d="M4 7a1 1 0 01-1 1 1 1 0 01-1-1 1 1 0 011-1 1 1 0 011 1zm0-4a1 1 0 01-1 1 1 1 0 01-1-1 1 1 0 011-1 1 1 0 011 1zm6 10a1 1 0 01-1 1 1 1 0 01-1-1 1 1 0 011-1 1 1 0 011 1zm4 0a1 1 0 01-1 1 1 1 0 01-1-1 1 1 0 011-1 1 1 0 011 1z" overflow="visible" /></g></svg>