<svg xmlns="http://www.w3.org/2000/svg" width="16" height="16">
    <path d="m 40,328 c -1.662,0 -3,1.338 -3,3 v 5 c 0,1.662 1.338,3 3,3 1.662,0 3,-1.338 3,-3 v -5 c 0,-1.662 -1.338,-3 -3,-3 z m -6,6 v 2.00977 c 0,2.96574 2.165383,5.4238 5,5.90039 V 344 h 2 v -2.08984 c 2.834617,-0.47659 5,-2.93465 5,-5.90039 V 334 h -1.5 v 2.00977 c 0,2.50009 -1.993312,4.49023 -4.5,4.49023 -2.506688,0 -4.5,-1.99014 -4.5,-4.49023 V 334 Z" overflow="visible" fill="currentColor" transform="translate(-32 -328)" />
</svg>