<svg xmlns="http://www.w3.org/2000/svg" xmlns:dc="http://purl.org/dc/elements/1.1/" xmlns:ns2="http://creativecommons.org/ns#" xmlns:rdf="http://www.w3.org/1999/02/22-rdf-syntax-ns#" width="16" version="1.1" id="svg7384" height="16.000036">
  <metadata id="metadata90">
    <rdf:RDF>
      <ns2:Work rdf:about="">
        <dc:format>image/svg+xml</dc:format>
        <dc:type rdf:resource="http://purl.org/dc/dcmitype/StillImage" />
        <dc:title>Gnome Symbolic Icons</dc:title>
        <ns2:license rdf:resource="http://creativecommons.org/licenses/by-sa/4.0/" />
      </ns2:Work>
      <ns2:License rdf:about="http://creativecommons.org/licenses/by-sa/4.0/">
        <ns2:permits rdf:resource="http://creativecommons.org/ns#Reproduction" />
        <ns2:permits rdf:resource="http://creativecommons.org/ns#Distribution" />
        <ns2:requires rdf:resource="http://creativecommons.org/ns#Notice" />
        <ns2:requires rdf:resource="http://creativecommons.org/ns#Attribution" />
        <ns2:permits rdf:resource="http://creativecommons.org/ns#DerivativeWorks" />
        <ns2:requires rdf:resource="http://creativecommons.org/ns#ShareAlike" />
      </ns2:License>
    </rdf:RDF>
  </metadata>
  <title id="title8473">Gnome Symbolic Icons</title>
  <defs id="defs7386" />
  <g transform="translate(-212,-91.999995)" id="layer10" />
  <g transform="translate(-212,-27.999995)" id="layer1" />
  <g transform="translate(-212,-91.999995)" id="layer11" />
  <g transform="translate(-212,-27.999995)" id="layer7" />
  <g transform="translate(-212,-27.999995)" id="layer6" />
  <g transform="translate(-212,-27.999995)" id="layer5" />
  <g transform="translate(-212,-27.999995)" id="layer9" />
  <g transform="translate(-212,-27.999995)" id="layer2">
    <path class="success" d="m 217,39.999995 v 1 h 3 v -1 z" id="path3966" />
    <path id="path3968" d="m 217.46875,28.011719 c -0.49033,0 -0.79607,0.214784 -1.03125,0.455078 C 216.20232,28.707091 216,29.023351 216,29.496094 V 30 h -2 v 14 h 8 v -2 h -6 V 32 h 2 v -1.988281 h 4 V 32 h 2 v 3 h 2 v -5 h -2 v -0.394531 l -0.002,-0.02734 c -0.0239,-0.430603 -0.18,-0.734707 -0.41602,-1.013672 -0.23602,-0.278964 -0.6205,-0.584896 -1.19922,-0.552734 z" />
    <path id="path3972" d="m 224.95703,36.001953 a 1.0001,1.0001 0 0 0 -0.66406,0.291016 l -3,3 A 1.0001,1.0001 0 0 0 222,41 h 1 1.10352 l -0.95899,1.404297 a 1.0001,1.0001 0 0 0 1.52344,1.279297 l 3.03125,-2.96875 A 1.0001,1.0001 0 0 0 227,39 h -1 -1.13086 l 0.96289,-1.445312 a 1.0001,1.0001 0 0 0 -0.875,-1.552735 z" />
    <path id="rect3974" d="m 227,38.999996 h 1 v 1 h -1 z" />
    <path id="rect3976" d="m 221,39.999996 h 1 v 1 h -1 z" />
    <path id="rect3978" d="m 225,35.999996 h 1 v 1 h -1 z" />
    <path id="rect3980" d="m 222.96899,42.968494 h 1 v 1 h -1 z" />
  </g>
  <g transform="translate(-212,-27.999995)" id="layer8" />
  <g transform="translate(-212,-27.999995)" id="layer3" />
  <g transform="translate(-212,-27.999995)" id="layer4" />
</svg>