<svg xmlns="http://www.w3.org/2000/svg" xmlns:dc="http://purl.org/dc/elements/1.1/" xmlns:ns1="http://sodipodi.sourceforge.net/DTD/sodipodi-0.dtd" xmlns:ns2="http://www.inkscape.org/namespaces/inkscape" xmlns:ns4="http://creativecommons.org/ns#" xmlns:rdf="http://www.w3.org/1999/02/22-rdf-syntax-ns#" ns1:docname="bluetooth-disconnected-symbolic.svg" ns2:export-filename="/home/sam/source-symbolic.png" ns2:export-xdpi="270" ns2:export-ydpi="270" height="16.000107" id="svg7384" version="1.1" ns2:version="1.0.1 (3bc2e813f5, 2020-09-07)" width="16">
  <ns1:namedview ns2:bbox-nodes="true" ns2:bbox-paths="false" bordercolor="#000000" borderlayer="false" borderopacity="0.50196078" ns2:current-layer="layer1" ns2:cx="165.14999" ns2:cy="183.13664" ns2:document-rotation="0" gridtolerance="10" ns2:guide-bbox="true" guidetolerance="10" id="namedview88" ns2:measure-end="0,0" ns2:measure-start="0,0" ns2:object-nodes="true" ns2:object-paths="true" objecttolerance="10" pagecolor="#e2e2e2" ns2:pageopacity="0" ns2:pageshadow="2" showborder="false" showgrid="false" showguides="false" ns2:showpageshadow="false" ns2:snap-bbox="true" ns2:snap-bbox-edge-midpoints="false" ns2:snap-bbox-midpoints="true" ns2:snap-center="false" ns2:snap-global="true" ns2:snap-grids="true" ns2:snap-intersection-paths="false" ns2:snap-midpoints="true" ns2:snap-nodes="true" ns2:snap-object-midpoints="true" ns2:snap-others="true" ns2:snap-page="false" ns2:snap-smooth-nodes="true" ns2:snap-to-guides="true" ns2:window-height="1376" ns2:window-maximized="0" ns2:window-width="2560" ns2:window-x="26" ns2:window-y="23" ns2:zoom="1">
    <ns2:grid dotted="false" empcolor="#0800ff" empopacity="0.4627451" empspacing="4" enabled="true" id="grid4866" opacity="0.16470588" originx="-212" originy="-271.99989" snapvisiblegridlinesonly="true" spacingx="1" spacingy="1" type="xygrid" visible="true" />
    <ns2:grid dotted="true" empcolor="#3f3fff" empopacity="0" empspacing="4" id="grid3540" originx="-212" originy="-271.99989" spacingx="0.5" spacingy="0.5" type="xygrid" />
  </ns1:namedview>
  <metadata id="metadata90">
    <rdf:RDF>
      <ns4:Work rdf:about="">
        <dc:format>image/svg+xml</dc:format>
        <dc:type rdf:resource="http://purl.org/dc/dcmitype/StillImage" />
        <dc:title>Gnome Symbolic Icons</dc:title>
        <ns4:license rdf:resource="http://creativecommons.org/licenses/by-sa/4.0/" />
      </ns4:Work>
      <ns4:License rdf:about="http://creativecommons.org/licenses/by-sa/4.0/">
        <ns4:permits rdf:resource="http://creativecommons.org/ns#Reproduction" />
        <ns4:permits rdf:resource="http://creativecommons.org/ns#Distribution" />
        <ns4:requires rdf:resource="http://creativecommons.org/ns#Notice" />
        <ns4:requires rdf:resource="http://creativecommons.org/ns#Attribution" />
        <ns4:permits rdf:resource="http://creativecommons.org/ns#DerivativeWorks" />
        <ns4:requires rdf:resource="http://creativecommons.org/ns#ShareAlike" />
      </ns4:License>
    </rdf:RDF>
  </metadata>
  <title id="title8473">Gnome Symbolic Icons</title>
  <defs id="defs7386" />
  <g ns2:groupmode="layer" id="layer10" ns2:label="ui" transform="translate(-212,-271.99989)" />
  <g ns2:groupmode="layer" id="layer1" ns2:label="status" transform="translate(-212,-207.99989)">
    
    <path d="m 218,208 v 0.99805 0.002 3.58594 l -1.29297,-1.29297 A 1,1 0 0 0 216,211 h -1 V 211.9707 212 a 1,1 0 0 0 0.29297,0.70703 L 218,215.41406 v 1.17188 l -2.70703,2.70703 A 1,1 0 0 0 215,220 v 1 h 0.9707 a 1,1 0 0 0 0.0293,0 1,1 0 0 0 0.70703,-0.29297 L 218,219.41406 V 223 v 1 h 1 a 1.0001,1.0001 0 0 0 0.70703,-0.29297 l 2.56641,-2.56641 a 0.98884003,0.98884003 0 0 1 -0.26172,-0.67187 V 219 A 0.98884003,0.98884003 0 0 1 223,218.01172 h 0.42578 L 221.41406,216 l 2.29297,-2.29297 a 1.0001,1.0001 0 0 0 0,-1.41406 l -4,-4 A 1.0001,1.0001 0 0 0 219.0293,208 1.0001,1.0001 0 0 0 219,208 Z m 2,3.41406 L 221.58594,213 220,214.58594 Z m 0,6 L 221.58594,219 220,220.58594 Z" id="path3359" />
    <path ns2:connector-curvature="0" d="m 222.99975,219 h 1.375 l 1.125,1.09375 L 226.5935,219 h 1.40625 v 1.46875 l -1.09375,1.0625 1.09375,1.0625 V 224 h -1.4375 l -1.0625,-1.0625 -1.0625,1.0625 h -1.4375 v -1.40625 l 1.0625,-1.0625 -1.0625,-1.0625 z" id="path3761-2-3-5-4-8-9-8-0-1-6-3" ns1:nodetypes="ccccccccccccccccc" />
  </g>
  <g ns2:groupmode="layer" id="layer11" ns2:label="legacy" transform="translate(-212,-271.99989)" />
  <g ns2:groupmode="layer" id="layer7" ns2:label="places" transform="translate(-212,-207.99989)" />
  <g ns2:groupmode="layer" id="layer6" ns2:label="mimetypes" transform="translate(-212,-207.99989)" />
  <g ns2:groupmode="layer" id="layer5" ns2:label="emotes" transform="translate(-212,-207.99989)" />
  <g ns2:groupmode="layer" id="layer9" ns2:label="emblems" transform="translate(-212,-207.99989)" />
  <g ns2:groupmode="layer" id="layer2" ns2:label="devices" transform="translate(-212,-207.99989)" />
  <g ns2:groupmode="layer" id="layer8" ns2:label="categories" transform="translate(-212,-207.99989)" />
  <g ns2:groupmode="layer" id="layer3" ns2:label="apps" transform="translate(-212,-207.99989)" />
  <g ns2:groupmode="layer" id="layer4" ns2:label="actions" transform="translate(-212,-207.99989)" />
</svg>