<svg xmlns="http://www.w3.org/2000/svg" xmlns:dc="http://purl.org/dc/elements/1.1/" xmlns:ns1="http://sodipodi.sourceforge.net/DTD/sodipodi-0.dtd" xmlns:ns2="http://www.inkscape.org/namespaces/inkscape" xmlns:ns4="http://creativecommons.org/ns#" xmlns:rdf="http://www.w3.org/1999/02/22-rdf-syntax-ns#" ns1:docname="display-brightness-symbolic.svg" ns2:export-filename="/home/sam/source-symbolic.png" ns2:export-xdpi="270" ns2:export-ydpi="270" height="16" id="svg7384" version="1.1" ns2:version="1.0.1 (3bc2e813f5, 2020-09-07)" width="16">
  <ns1:namedview ns2:bbox-nodes="true" ns2:bbox-paths="false" bordercolor="#000000" borderlayer="false" borderopacity="0.50196078" ns2:current-layer="layer1" ns2:cx="113.15019" ns2:cy="-8.86336" ns2:document-rotation="0" gridtolerance="10" ns2:guide-bbox="true" guidetolerance="10" id="namedview88" ns2:measure-end="0,0" ns2:measure-start="0,0" ns2:object-nodes="true" ns2:object-paths="true" objecttolerance="10" pagecolor="#e2e2e2" ns2:pageopacity="0" ns2:pageshadow="2" showborder="false" showgrid="false" showguides="false" ns2:showpageshadow="false" ns2:snap-bbox="true" ns2:snap-bbox-edge-midpoints="false" ns2:snap-bbox-midpoints="true" ns2:snap-center="false" ns2:snap-global="true" ns2:snap-grids="true" ns2:snap-intersection-paths="false" ns2:snap-midpoints="true" ns2:snap-nodes="true" ns2:snap-object-midpoints="true" ns2:snap-others="true" ns2:snap-page="false" ns2:snap-smooth-nodes="true" ns2:snap-to-guides="true" ns2:window-height="1205" ns2:window-maximized="0" ns2:window-width="1553" ns2:window-x="26" ns2:window-y="23" ns2:zoom="1">
    <ns2:grid dotted="false" empcolor="#0800ff" empopacity="0.4627451" empspacing="4" enabled="true" id="grid4866" opacity="0.16470588" originx="-51.9998" originy="-192" snapvisiblegridlinesonly="true" spacingx="1" spacingy="1" type="xygrid" visible="true" />
    <ns2:grid dotted="true" empcolor="#3f3fff" empopacity="0" empspacing="4" id="grid3540" originx="-51.9998" originy="-192" spacingx="0.5" spacingy="0.5" type="xygrid" />
  </ns1:namedview>
  <metadata id="metadata90">
    <rdf:RDF>
      <ns4:Work rdf:about="">
        <dc:format>image/svg+xml</dc:format>
        <dc:type rdf:resource="http://purl.org/dc/dcmitype/StillImage" />
        <dc:title>Gnome Symbolic Icons</dc:title>
        <ns4:license rdf:resource="http://creativecommons.org/licenses/by-sa/4.0/" />
      </ns4:Work>
      <ns4:License rdf:about="http://creativecommons.org/licenses/by-sa/4.0/">
        <ns4:permits rdf:resource="http://creativecommons.org/ns#Reproduction" />
        <ns4:permits rdf:resource="http://creativecommons.org/ns#Distribution" />
        <ns4:requires rdf:resource="http://creativecommons.org/ns#Notice" />
        <ns4:requires rdf:resource="http://creativecommons.org/ns#Attribution" />
        <ns4:permits rdf:resource="http://creativecommons.org/ns#DerivativeWorks" />
        <ns4:requires rdf:resource="http://creativecommons.org/ns#ShareAlike" />
      </ns4:License>
    </rdf:RDF>
  </metadata>
  <title id="title8473">Gnome Symbolic Icons</title>
  <defs id="defs7386" />
  <g ns2:groupmode="layer" id="layer10" ns2:label="ui" transform="translate(-51.9998,-192)" />
  <g ns2:groupmode="layer" id="layer1" ns2:label="status" transform="translate(-51.9998,-128)">
    
    <path d="m 52.4998,135 h 2.000203 c 0.276999,0 0.499999,0.223 0.499999,0.5 v 1 c 0,0.277 -0.223,0.5 -0.499999,0.5 H 52.4998 c -0.276999,0 -0.499998,-0.223 -0.499998,-0.5 v -1 c 0,-0.277 0.222999,-0.5 0.499998,-0.5 z" id="rect4906-43-6" />
    <path d="M 65.4998,135 H 67.5 c 0.276889,0 0.4998,0.223 0.4998,0.5 v 1 c 0,0.277 -0.222911,0.5 -0.4998,0.5 H 65.4998 C 65.222911,137 65,136.777 65,136.5 v -1 c 0,-0.277 0.222911,-0.5 0.4998,-0.5 z" id="rect4906-4-6-6" />
    <path d="m -61.240255,137.5928 h 2.000203 c 0.276999,0 0.499999,0.223 0.499999,0.5 v 1 c 0,0.277 -0.223,0.5 -0.499999,0.5 h -2.000203 c -0.276999,0 -0.499998,-0.223 -0.499998,-0.5 v -1 c 0,-0.277 0.222999,-0.5 0.499998,-0.5 z" id="rect8386" transform="rotate(-45)" />
    <path d="m -48.240255,137.5928 h 2.0002 c 0.276889,0 0.4998,0.223 0.4998,0.5 v 1 c 0,0.277 -0.222911,0.5 -0.4998,0.5 h -2.0002 c -0.276889,0 -0.4998,-0.223 -0.4998,-0.5 v -1 c 0,-0.277 0.222911,-0.5 0.4998,-0.5 z" id="rect8388" transform="rotate(-45)" />
    <path d="m -143.5,58.999832 h 2.0002 c 0.277,0 0.5,0.223 0.5,0.5 v 1 c 0,0.277 -0.223,0.5 -0.5,0.5 H -143.5 c -0.277,0 -0.5,-0.223 -0.5,-0.5 v -1 c 0,-0.277 0.223,-0.5 0.5,-0.5 z" id="rect8390" transform="rotate(-90)" />
    <path d="m -130.50002,58.999832 h 2.0002 c 0.27689,0 0.4998,0.223 0.4998,0.5 v 1 c 0,0.277 -0.22291,0.5 -0.4998,0.5 h -2.0002 c -0.27689,0 -0.4998,-0.223 -0.4998,-0.5 v -1 c 0,-0.277 0.22291,-0.5 0.4998,-0.5 z" id="rect8392" transform="rotate(-90)" />
    <path d="m -146.09281,-54.740238 h 2.00021 c 0.277,0 0.5,0.223 0.5,0.5 v 1 c 0,0.277 -0.223,0.5 -0.5,0.5 h -2.00021 c -0.27699,0 -0.49999,-0.223 -0.49999,-0.5 v -1 c 0,-0.277 0.223,-0.5 0.49999,-0.5 z" id="rect8394" transform="rotate(-135)" />
    <path d="m -133.09282,-54.740238 h 2.0002 c 0.27689,0 0.4998,0.223 0.4998,0.5 v 1 c 0,0.277 -0.22291,0.5 -0.4998,0.5 h -2.0002 c -0.27689,0 -0.4998,-0.223 -0.4998,-0.5 v -1 c 0,-0.277 0.22291,-0.5 0.4998,-0.5 z" id="rect8396" transform="rotate(-135)" />
    <g id="g3424">
      <path d="m 64,136 c 0,2.20914 -1.790861,4 -4,4 -2.209139,0 -4,-1.79086 -4,-4 0,-2.20914 1.790861,-4 4,-4 2.209139,0 4,1.79086 4,4 z" id="path3426" />
      <path d="M 60 131.75 C 57.655751 131.75 55.75 133.65575 55.75 136 C 55.75 138.34425 57.655751 140.25 60 140.25 C 62.344249 140.25 64.25 138.34425 64.25 136 C 64.25 133.65575 62.344249 131.75 60 131.75 z M 60 132.25 C 62.074029 132.25 63.75 133.92597 63.75 136 C 63.75 138.07403 62.074029 139.75 60 139.75 C 57.925971 139.75 56.25 138.07403 56.25 136 C 56.25 133.92597 57.925971 132.25 60 132.25 z " id="path3428" />
    </g>
  </g>
  <g ns2:groupmode="layer" id="layer11" ns2:label="legacy" transform="translate(-51.9998,-192)" />
  <g ns2:groupmode="layer" id="layer7" ns2:label="places" transform="translate(-51.9998,-128)" />
  <g ns2:groupmode="layer" id="layer6" ns2:label="mimetypes" transform="translate(-51.9998,-128)" />
  <g ns2:groupmode="layer" id="layer5" ns2:label="emotes" transform="translate(-51.9998,-128)" />
  <g ns2:groupmode="layer" id="layer9" ns2:label="emblems" transform="translate(-51.9998,-128)" />
  <g ns2:groupmode="layer" id="layer2" ns2:label="devices" transform="translate(-51.9998,-128)" />
  <g ns2:groupmode="layer" id="layer8" ns2:label="categories" transform="translate(-51.9998,-128)" />
  <g ns2:groupmode="layer" id="layer3" ns2:label="apps" transform="translate(-51.9998,-128)" />
  <g ns2:groupmode="layer" id="layer4" ns2:label="actions" transform="translate(-51.9998,-128)" />
</svg>