<svg xmlns="http://www.w3.org/2000/svg" width="16" height="16"><g fill="currentColor"><path d="M4 7.028v1c0 .265.093.53.281.718l3 3 .282.282h.875l.28-.282 3-3A1.01 1.01 0 0012 8.028v-1h-1c-.265 0-.53.093-.719.281L8 9.59 5.719 7.31A1.015 1.015 0 005 7.028z" overflow="visible" /><path d="M7 3.027v7h2v-7z" overflow="visible" /><path d="M2 13v2h12v-2z" overflow="visible" fill-rule="evenodd" /><path d="M5.994 1a1 1 0 01-1 1 1 1 0 01-1-1 1 1 0 011-1 1 1 0 011 1zm3 0a1 1 0 01-1 1 1 1 0 01-1-1 1 1 0 011-1 1 1 0 011 1zm3 0a1 1 0 01-1 1 1 1 0 01-1-1 1 1 0 011-1 1 1 0 011 1z" /></g></svg>