<svg xmlns="http://www.w3.org/2000/svg" width="16" height="16"><g fill="currentColor"><path d="M6.97 4a1 1 0 00-.484.143l-5 3a1 1 0 000 1.714l5 3A1 1 0 008 11V5a1 1 0 00-1.03-1zM6 6.766v2.468L3.943 8z" overflow="visible" /><path d="M7 11h1v1H7zm0-7h1v1H7z" overflow="visible" /><path d="M13.97 4a1 1 0 00-.484.143l-5 3a1 1 0 000 1.714l5 3A1 1 0 0015 11V5a1 1 0 00-1.03-1zM13 6.766v2.468L10.943 8z" overflow="visible" /><path d="M14 11h1v1h-1zm0-7h1v1h-1zM7 5L2 8l5 3zm7 0L9 8l5 3z" overflow="visible" /></g></svg>