<svg xmlns="http://www.w3.org/2000/svg" width="16" height="16"><g fill="currentColor"><path d="M1 3v2h3c.572 0 1 .429 1 1v4c0 1.645 1.356 3 3 3h6v-2H8c-.571 0-1-.429-1-1V6c0-1.645-1.355-3-3-3z" overflow="visible" /><path d="M11.99 8.99a1 1 0 00-.697 1.717L12.586 12l-1.293 1.293a1 1 0 101.414 1.414L15.414 12l-2.707-2.707a1 1 0 00-.717-.303zm0-8a1 1 0 00-.697 1.717L12.586 4l-1.293 1.293a1 1 0 101.414 1.414L15.414 4l-2.707-2.707A1 1 0 0011.99.99z" overflow="visible" /><path d="M8 3c-.23 0-.44.044-.656.094.481.55.861 1.177 1.031 1.906H14V3H8zm-7 8v2h3c.23 0 .44-.044.656-.094-.481-.55-.861-1.177-1.031-1.906z" overflow="visible" /><path d="M11 9h1v1h-1zm0 5h1v1h-1zm0-13h1v1h-1zm0 5h1v1h-1z" overflow="visible" /></g></svg>