<svg xmlns="http://www.w3.org/2000/svg" width="16" height="16"><g fill="currentColor"><path d="M9.04 4A1 1 0 008 5v6a1 1 0 001.514.857l5-3a1 1 0 000-1.714l-5-3A1 1 0 009.04 4zM10 6.768L12.055 8 10 9.232z" overflow="visible" /><path d="M9 11H8v1h1zm0-7H8v1h1z" overflow="visible" /><path d="M2.04 4A1 1 0 001 5v6a1 1 0 001.514.857l5-3a1 1 0 000-1.714l-5-3A1 1 0 002.04 4zM3 6.768L5.055 8 3 9.232z" overflow="visible" /><path d="M2 11H1v1h1zm0-7H1v1h1zm7 1l5 3-5 3zM2 5l5 3-5 3z" overflow="visible" /></g></svg>