<svg xmlns="http://www.w3.org/2000/svg" width="16" height="16">
    <g fill="currentColor">
        <path d="m 220,248 c -1.662,0 -3,1.338 -3,3 v 4 h 6 v -4 c 0,-1.662 -1.338,-3 -3,-3 z m -6,6 v 1 h 1.5 v -1 z m 10.5,0 v 1 h 1.5 v -1 z m -8.95312,6 c 0.88748,0.98341 2.08853,1.68073 3.45312,1.91016 V 264 h 2 v -2.08984 c 1.36459,-0.22943 2.56564,-0.92675 3.45312,-1.91016 h -2.41406 c -0.61304,0.30957 -1.29807,0.5 -2.03906,0.5 -0.74099,0 -1.42602,-0.19043 -2.03906,-0.5 z" overflow="visible" opacity=".35" transform="translate(-212 -248)" />
        <path d="m 212,256.00012 h 16.00001 V 259 H 212 Z" transform="translate(-212 -248)" />
    </g>
</svg>