<svg xmlns="http://www.w3.org/2000/svg" xmlns:dc="http://purl.org/dc/elements/1.1/" xmlns:ns1="http://sodipodi.sourceforge.net/DTD/sodipodi-0.dtd" xmlns:ns2="http://www.inkscape.org/namespaces/inkscape" xmlns:ns4="http://creativecommons.org/ns#" xmlns:rdf="http://www.w3.org/1999/02/22-rdf-syntax-ns#" width="16.009901" version="1.1" id="svg7384" height="16.014242" ns1:docname="preferences-system-parental-controls-symbolic.svg" ns2:version="0.92.4 5da689c313, 2019-01-14">
  <ns1:namedview pagecolor="#ffffff" bordercolor="#666666" borderopacity="1" objecttolerance="10" gridtolerance="10" guidetolerance="10" ns2:pageopacity="0" ns2:pageshadow="2" ns2:window-width="2560" ns2:window-height="1403" id="namedview837" showgrid="true" ns2:zoom="16" ns2:cx="-2.4820407" ns2:cy="-7.6171829" ns2:window-x="3440" ns2:window-y="0" ns2:window-maximized="1" ns2:current-layer="svg7384">
    <ns2:grid type="xygrid" id="grid839" />
  </ns1:namedview>
  <metadata id="metadata90">
    <rdf:RDF>
      <ns4:Work rdf:about="">
        <dc:format>image/svg+xml</dc:format>
        <dc:type rdf:resource="http://purl.org/dc/dcmitype/StillImage" />
        <dc:title>Gnome Symbolic Icons</dc:title>
        <ns4:license rdf:resource="http://creativecommons.org/licenses/by-sa/4.0/" />
      </ns4:Work>
      <ns4:License rdf:about="http://creativecommons.org/licenses/by-sa/4.0/">
        <ns4:permits rdf:resource="http://creativecommons.org/ns#Reproduction" />
        <ns4:permits rdf:resource="http://creativecommons.org/ns#Distribution" />
        <ns4:requires rdf:resource="http://creativecommons.org/ns#Notice" />
        <ns4:requires rdf:resource="http://creativecommons.org/ns#Attribution" />
        <ns4:permits rdf:resource="http://creativecommons.org/ns#DerivativeWorks" />
        <ns4:requires rdf:resource="http://creativecommons.org/ns#ShareAlike" />
      </ns4:License>
    </rdf:RDF>
  </metadata>
  <title id="title8473">Gnome Symbolic Icons</title>
  <defs id="defs7386" />
  <g transform="translate(-191.9899,-552)" id="layer10" />
  <g transform="translate(-191.9899,-488)" id="layer1" />
  <g transform="translate(-191.9899,-552)" id="layer11" />
  <g transform="translate(-191.9899,-488)" id="layer7" />
  <g transform="translate(-191.9899,-488)" id="layer6" />
  <g transform="translate(-191.9899,-488)" id="layer5" />
  <g transform="translate(-191.9899,-488)" id="layer9" />
  <g transform="translate(-191.9899,-488)" id="layer2" />
  <g transform="translate(-191.9899,-488)" id="layer8" />
  <g transform="translate(-191.9899,-488)" id="layer3">
    <path id="path4042" d="m 200,490.5 a 2.5,2.5 0 0 1 -2.5,2.5 2.5,2.5 0 0 1 -2.5,-2.5 2.5,2.5 0 0 1 2.5,-2.5 2.5,2.5 0 0 1 2.5,2.5 z" />
    <path id="rect4002" d="m 204.5,493 c 1.385,0 2.5,1.115 2.5,2.5 0,1.385 -1.115,2.5 -2.5,2.5 -1.385,0 -2.5,-1.115 -2.5,-2.5 0,-1.385 1.115,-2.5 2.5,-2.5 z" />
    <path d="m 202,499 c -1.35232,-0.0191 -1.35232,2.01913 0,2 h 1 v 2 c -1.2e-4,0.77087 0.83516,1.25205 1.50195,0.86523 0.66593,0.38233 1.49645,-0.0974 1.49805,-0.86523 v -0.13477 c 0.86619,0.49882 1.8477,-0.44122 1.38672,-1.32812 l -0.90474,-1.72832 C 206.16814,499.2652 205.8993,499 205,499 h -1 z" id="path4048" ns2:connector-curvature="0" ns1:nodetypes="cccccccccccc" />
    <path id="path4051" d="m 196.5293,494.48633 a 1.0001,1.0001 0 0 0 -1.01953,0.87305 L 195,498.92969 V 503 a 1.0001,1.0001 0 1 0 2,0 v -3.92969 l 0.49023,-3.42969 a 1.0001,1.0001 0 0 0 -0.96093,-1.15429 z" />
    <path id="path4053" d="m 198.54102,494.48633 a 1.0001,1.0001 0 0 0 -1.03125,1.15429 L 198,499.07031 V 503 a 1.0001,1.0001 0 1 0 2,0 v -4.07031 l -0.50977,-3.57031 a 1.0001,1.0001 0 0 0 -0.94921,-0.87305 z" />
    <path d="m 196,495 h 3 v 7 h -1 v -1.5 c 0,0 0,-0.5 -0.5,-0.5 -0.5,0 -0.5,0.5 -0.5,0.5 v 1.5 h -1 z" id="path4055" />
    <path id="path4057" d="m 196,494 a 1.0001,1.0001 0 0 0 -0.70703,0.29297 l -3,3 a 1.0001,1.0001 0 1 0 1.41406,1.41406 L 196.41406,496 h 1.93555 l 1.73633,3.90625 a 1.0002723,1.0002723 0 1 0 1.82812,-0.8125 l -2,-4.5 A 1.0001,1.0001 0 0 0 199,494 Z" />
  </g>
  <g transform="translate(-191.9899,-488)" id="layer4" />
</svg>