<svg xmlns="http://www.w3.org/2000/svg" xmlns:dc="http://purl.org/dc/elements/1.1/" xmlns:ns1="http://sodipodi.sourceforge.net/DTD/sodipodi-0.dtd" xmlns:ns2="http://www.inkscape.org/namespaces/inkscape" xmlns:ns4="http://creativecommons.org/ns#" xmlns:rdf="http://www.w3.org/1999/02/22-rdf-syntax-ns#" width="16" height="16" version="1.1" id="svg9" ns1:docname="weather-snow-symbolic.svg" ns2:version="1.0 (4035a4fb49, 2020-05-01)">
  <metadata id="metadata15">
    <rdf:RDF>
      <ns4:Work rdf:about="">
        <dc:format>image/svg+xml</dc:format>
        <dc:type rdf:resource="http://purl.org/dc/dcmitype/StillImage" />
      </ns4:Work>
    </rdf:RDF>
  </metadata>
  <defs id="defs13" />
  <ns1:namedview ns2:document-rotation="0" pagecolor="#ffffff" bordercolor="#666666" borderopacity="1" objecttolerance="10" gridtolerance="10" guidetolerance="10" ns2:pageopacity="0" ns2:pageshadow="2" ns2:window-width="1920" ns2:window-height="1129" id="namedview11" showgrid="false" ns2:zoom="45.9375" ns2:cx="3.722449" ns2:cy="8" ns2:window-x="0" ns2:window-y="0" ns2:window-maximized="1" ns2:current-layer="svg9" />
  <path stroke-linecap="round" fill="currentColor" overflow="visible" d="M 7.492,0.492 A 0.5,0.5 0 0 0 7,1 V 2.533 L 5.748,1.816 A 0.5,0.5 0 1 0 5.252,2.684 l 1.748,1 v 8.683 l -1.746,0.987 a 0.5,0.5 0 1 0 0.492,0.87 L 7,13.516 V 15 a 0.5,0.5 0 1 0 1,0 v -1.484 l 1.254,0.709 A 0.50017622,0.50017622 0 1 0 9.746,13.354 L 8,12.367 V 3.684 l 1.748,-1 A 0.5,0.5 0 1 0 9.252,1.816 L 8,2.533 V 1 A 0.5,0.5 0 0 0 7.492,0.492 Z" id="a" />
  <path id="use3" d="M 0.99387997,4.2529342 A 0.5,0.5 0 0 0 1.1878209,4.9330186 l 1.3276169,0.7665 -1.2469402,0.7257639 a 0.5,0.5 0 1 0 0.5037101,0.8635486 l 1.7400254,-1.0138125 7.5196989,4.3415004 -0.01823,2.00558 a 0.5,0.5 0 1 0 0.999442,0.0089 l 0.01385,-1.439996 1.285182,0.742 a 0.5,0.5 0 1 0 0.5,-0.866026 l -1.285182,-0.742 1.241012,-0.7314956 A 0.50017622,0.50017622 0 1 0 13.259699,8.7319129 l -1.727767,1.0185803 -7.5196989,-4.3415 0.00797,-2.0138124 a 0.5,0.5 0 1 0 -0.9997101,-0.00445 l -0.00506,1.4427638 -1.3276169,-0.7665 a 0.5,0.5 0 0 0 -0.69394093,0.185941 z" overflow="visible" fill="currentColor" stroke-linecap="round" />
  <path id="use5" d="m 1.0018788,11.760926 a 0.5,0.5 0 0 0 0.6859409,0.172085 l 1.327617,-0.7665 0.00506,1.442763 a 0.5,0.5 0 1 0 0.99971,-0.0045 L 4.0122319,10.591011 11.53193,6.2495107 13.259698,7.268091 A 0.5,0.5 0 1 0 13.76714,6.4070065 l -1.240146,-0.7319958 1.285181,-0.742 a 0.5,0.5 0 1 0 -0.5,-0.8660254 l -1.285181,0.742 -0.01299,-1.4404959 a 0.50017622,0.50017622 0 1 0 -1.000308,0.00942 l 0.01823,2.0055804 -7.5196981,4.3415 -1.7400254,-1.0138124 a 0.5,0.5 0 1 0 -0.50371,0.8635486 l 1.2469402,0.7257635 -1.327617,0.7665 a 0.5,0.5 0 0 0 -0.1859409,0.693941 z" overflow="visible" fill="currentColor" stroke-linecap="round" />
</svg>