<svg gpa:rendering="symbolic" xmlns="http://www.w3.org/2000/svg" xmlns:cc="http://creativecommons.org/ns#" xmlns:dc="http://purl.org/dc/elements/1.1/" xmlns:gpa="https://www.gtk.org/grappa" xmlns:rdf="http://www.w3.org/1999/02/22-rdf-syntax-ns#" width="16" height="16" gpa:version="1" gpa:state="0" gpa:state-names="outline empty">
  <defs id="defs1" fill="url(&quot;#gpa:foreground&quot;) rgb(0,0,0)" stroke="none" class="foreground foreground-fill" gpa:states="none" gpa:animation-repeat="0" gpa:animation-segment="0" gpa:fill="foreground">
    </defs>
  <path id="path2" fill="none" stroke="url(&quot;#gpa:foreground&quot;) rgb(0,0,0)" stroke-opacity="1" stroke-width="2" stroke-linecap="round" stroke-linejoin="round" stroke-miterlimit="10" d="M 6 7 L 6 6 C 6 4.89543056, 6.89543056 4, 8 4 C 9.10456944 4, 10 4.89543056, 10 6 L 10 7 M 5 11 L 11 11 L 11 7 L 5 7 Z M 2.96612692 1 L 13.0338726 1 C 14.123107 1, 15 1.87689257, 15 2.96612692 L 15 13.0338726 C 15 14.123107, 14.123107 15, 13.0338726 15 L 2.96612692 15 C 1.87689257 15, 1 14.123107, 1 13.0338726 L 1 2.96612692 C 1 1.87689257, 1.87689257 1, 2.96612692 1 Z" class="transparent-fill foreground-stroke" gpa:stroke="foreground" gpa:fill="none" gpa:states="outline" gpa:stroke-minwidth="25%" gpa:stroke-maxwidth="150%" >
    </path>
  <metadata>
    <rdf:RDF>
      <cc:Work>
        <cc:license rdf:resource="https://creativecommons.org/publicdomain/zero/1.0/"></cc:license>
        <dc:subject>
          <rdf:Bag>
            <rdf:li>emblem inaccessible read only</rdf:li>
          </rdf:Bag>
        </dc:subject>
        <dc:creator>
          <cc:Agent>
            <dc:title>Jakub Steiner</dc:title>
          </cc:Agent>
        </dc:creator>
      </cc:Work>
    </rdf:RDF>
  </metadata>
</svg>