<svg xmlns="http://www.w3.org/2000/svg" width="16px" height="16px" viewBox="0 0 16 16"><g fill="#222"><path d="m12.246094 2.339844-.707032.707031c-.390624.390625-.390624 1.023437 0 1.414063.390626.390624 1.023438.390624 1.414063 0l.707031-.707032c.390625-.390625.390625-1.023437 0-1.414062s-1.023437-.390625-1.414062 0M7.003906.992188v1c0 .550781.449219 1 1 1 .554688 0 1-.449219 1-1v-1c0-.554688-.445312-1-1-1-.550781 0-1 .445312-1 1m-4.660156 2.75.707031.707031c.253907.253906.621094.355469.964844.261719.347656-.09375.617187-.363282.710937-.707032.089844-.347656-.007812-.714844-.261718-.96875l-.707032-.707031c-.253906-.25-.621093-.351563-.964843-.257813-.347657.089844-.617188.363282-.710938.707032-.089843.34375.007813.714844.261719.964844M.996094 8.984375h1c.550781 0 1-.445313 1-1 0-.550781-.449219-1-1-1h-1c-.554688 0-1 .449219-1 1 0 .554687.445312 1 1 1m0 0"/><path d="M6.132812 8.71875c-.378906-.980469.054688-2.070312 1.003907-2.523438.953125-.453124 2.070312-.109374 2.59375.804688.277343.480469.890625.644531 1.367187.367188.480469-.277344.644532-.890626.367188-1.367188-1.042969-1.808594-3.304688-2.507812-5.191406-1.609375-1.882813.902344-2.757813 3.101563-2.003907 5.050781.199219.511719.777344.769532 1.292969.570313s.769531-.777344.570312-1.292969m0 0"/><path d="m8.113281 11.097656 1.515625-.613281C9.144531 10.167969 8.578125 10 8 10c-1.65625 0-3 1.34375-3 3s1.34375 3 3 3h4c2.207031 0 4-1.792969 4-4s-1.792969-4-4-4c-1.863281 0-3.46875 1.285156-3.886719 3.097656M14 12c0 1.117188-.882812 2-2 2H8c-.5625 0-1-.4375-1-1s.4375-1 1-1c.191406 0 .378906.054688.542969.160156.273437.179688.613281.210938.917969.089844.300781-.121094.527343-.382812.597656-.703125C10.269531 10.636719 11.070312 10 12 10c1.117188 0 2 .882812 2 2m0 0"/></g></svg>