<?xml version="1.0" encoding="UTF-8"?>
<svg height="16px" viewBox="0 0 16 16" width="16px" xmlns="http://www.w3.org/2000/svg" xmlns:xlink="http://www.w3.org/1999/xlink">
    <filter id="a" height="100%" width="100%" x="0%" y="0%">
        <feColorMatrix color-interpolation-filters="sRGB" values="0 0 0 0 1 0 0 0 0 1 0 0 0 0 1 0 0 0 1 0"/>
    </filter>
    <mask id="b">
        <g filter="url(#a)">
            <path d="m -1.6 -1.6 h 19.2 v 19.2 h -19.2 z" fill-opacity="0.5"/>
        </g>
    </mask>
    <clipPath id="c">
        <path d="m 0 0 h 1600 v 1200 h -1600 z"/>
    </clipPath>
    <mask id="d">
        <g filter="url(#a)">
            <path d="m -1.6 -1.6 h 19.2 v 19.2 h -19.2 z" fill-opacity="0.7"/>
        </g>
    </mask>
    <clipPath id="e">
        <path d="m 0 0 h 1600 v 1200 h -1600 z"/>
    </clipPath>
    <mask id="f">
        <g filter="url(#a)">
            <path d="m -1.6 -1.6 h 19.2 v 19.2 h -19.2 z" fill-opacity="0.35"/>
        </g>
    </mask>
    <clipPath id="g">
        <path d="m 0 0 h 1600 v 1200 h -1600 z"/>
    </clipPath>
    <g mask="url(#b)">
        <g clip-path="url(#c)" transform="matrix(1 0 0 1 -40 -496)">
            <path d="m 550 182 c -0.351562 0.003906 -0.695312 0.101562 -1 0.28125 v 3.4375 c 0.304688 0.179688 0.648438 0.277344 1 0.28125 c 1.105469 0 2 -0.894531 2 -2 s -0.894531 -2 -2 -2 z m 0 5 c -0.339844 0 -0.679688 0.058594 -1 0.175781 v 6.824219 h 4 v -4 c 0 -1.65625 -1.34375 -3 -3 -3 z m 0 0"/>
        </g>
    </g>
    <g mask="url(#d)">
        <g clip-path="url(#e)" transform="matrix(1 0 0 1 -40 -496)">
            <path d="m 569 182 v 4 c 1.105469 0 2 -0.894531 2 -2 s -0.894531 -2 -2 -2 z m 0 5 v 7 h 3 v -4 c 0 -1.65625 -1.34375 -3 -3 -3 z m 0 0"/>
        </g>
    </g>
    <g mask="url(#f)">
        <g clip-path="url(#g)" transform="matrix(1 0 0 1 -40 -496)">
            <path d="m 573 182.269531 v 3.449219 c 0.613281 -0.355469 0.996094 -1.007812 1 -1.71875 c 0 -0.714844 -0.382812 -1.375 -1 -1.730469 z m 0 4.90625 v 6.824219 h 2 v -4 c 0 -1.269531 -0.800781 -2.402344 -2 -2.824219 z m 0 0"/>
        </g>
    </g>
    <path d="m 4.027344 4.992188 c -1.664063 0 -3.03125 1.371093 -3.027344 3.03125 v 4.964843 c 0 1.660157 1.367188 3.03125 3.027344 3.03125 h 7.945312 c 1.664063 0 3.027344 -1.371093 3.027344 -3.03125 v -4.964843 c 0 -1.660157 -1.367188 -3.03125 -3.027344 -3.03125 z m -0.027344 2.007812 h 8 c 0.554688 0 1 0.445312 1 1 s -0.445312 1 -1 1 h -8 c -0.554688 0 -1 -0.445312 -1 -1 s 0.445312 -1 1 -1 z m -1 2.730469 c 0.292969 0.171875 0.636719 0.269531 1 0.269531 h 8 c 0.367188 0 0.707031 -0.097656 1 -0.269531 v 3.257812 c 0 0.585938 -0.4375 1.03125 -1.027344 1.03125 h -7.945312 c -0.585938 0 -1.027344 -0.445312 -1.027344 -1.03125 z m 0 0" fill="#2e3434"/>
    <path d="m 7 6 h 2 v 6.988281 l -2 -0.988281 z m 0 0" fill="#2e3434"/>
    <path d="m 5.011719 3.984375 l 1.988281 0.015625 v 2 h 2 v -2 l 2.011719 -0.015625 v -1 h -0.003907 c 0 -0.261719 -0.101562 -0.515625 -0.289062 -0.707031 l -2 -2 c -0.390625 -0.386719 -1.023438 -0.386719 -1.414062 0 l -2 2 c -0.183594 0.191406 -0.289063 0.445312 -0.285157 0.707031 h -0.007812 z m 0 0" fill="#2e3436"/>
</svg>
