<?xml version="1.0" encoding="UTF-8"?>
<svg height="16px" viewBox="0 0 16 16" width="16px" xmlns="http://www.w3.org/2000/svg">
    <path d="m 1.5 0 c -0.277344 0 -0.5 0.222656 -0.5 0.5 s 0.222656 0.5 0.5 0.5 h 13 c 0.277344 0 0.5 -0.222656 0.5 -0.5 s -0.222656 -0.5 -0.5 -0.5 z m 0 2 c -0.277344 0 -0.5 0.222656 -0.5 0.5 s 0.222656 0.5 0.5 0.5 h 13 c 0.277344 0 0.5 -0.222656 0.5 -0.5 s -0.222656 -0.5 -0.5 -0.5 z m 0.6875 2 c -1.207031 0 -2.1875 0.800781 -2.1875 2 v 7.976562 c 0 1.199219 0.980469 2 2.1875 2 h 11.625 c 1.207031 0 2.1875 -1.019531 2.1875 -2.21875 v -7.539062 c 0 -1.199219 -0.980469 -2.21875 -2.1875 -2.21875 z m 0.644531 2 h 10.085938 l -4.925781 3.867188 z m 11.167969 0.421875 v 7.578125 h -12 v -7.375 l 6.007812 4.507812 z m 0 0" fill="#222222"/>
</svg>
