<?xml version="1.0" encoding="UTF-8"?>
<svg height="16px" viewBox="0 0 16 16" width="16px" xmlns="http://www.w3.org/2000/svg" xmlns:xlink="http://www.w3.org/1999/xlink">
    <filter id="a" height="100%" width="100%" x="0%" y="0%">
        <feColorMatrix color-interpolation-filters="sRGB" values="0 0 0 0 1 0 0 0 0 1 0 0 0 0 1 0 0 0 1 0"/>
    </filter>
    <mask id="b">
        <g filter="url(#a)">
            <path d="m -1.6 -1.6 h 19.2 v 19.2 h -19.2 z" fill-opacity="0.5"/>
        </g>
    </mask>
    <clipPath id="c">
        <path d="m 0 0 h 1600 v 1200 h -1600 z"/>
    </clipPath>
    <mask id="d">
        <g filter="url(#a)">
            <path d="m -1.6 -1.6 h 19.2 v 19.2 h -19.2 z" fill-opacity="0.7"/>
        </g>
    </mask>
    <clipPath id="e">
        <path d="m 0 0 h 1600 v 1200 h -1600 z"/>
    </clipPath>
    <mask id="f">
        <g filter="url(#a)">
            <path d="m -1.6 -1.6 h 19.2 v 19.2 h -19.2 z" fill-opacity="0.35"/>
        </g>
    </mask>
    <clipPath id="g">
        <path d="m 0 0 h 1600 v 1200 h -1600 z"/>
    </clipPath>
    <g fill="#222222">
        <path d="m 10.707031 1.152344 c -1.488281 -1.488282 -3.925781 -1.488282 -5.414062 0 l -4.140625 4.140625 c -1.488282 1.488281 -1.488282 3.925781 0 5.414062 l 4.140625 4.140625 c 1.488281 1.488282 3.925781 1.488282 5.414062 0 l 4.140625 -4.140625 c 1.488282 -1.488281 1.488282 -3.925781 0 -5.414062 z m -1.414062 1.414062 l 4.140625 4.140625 c 0.726562 0.730469 0.726562 1.855469 0 2.585938 l -4.140625 4.140625 c -0.730469 0.726562 -1.855469 0.726562 -2.585938 0 l -4.140625 -4.140625 c -0.726562 -0.730469 -0.726562 -1.855469 0 -2.585938 l 4.140625 -4.140625 c 0.730469 -0.726562 1.855469 -0.726562 2.585938 0 z m 0 0"/>
        <path d="m 4.003906 8 c -0.277344 0 -0.5 0.222656 -0.5 0.5 c 0 0.582031 0.382813 1.082031 0.914063 1.328125 c 0.527343 0.242187 1.140625 0.242187 1.667969 0 c 0.527343 -0.246094 0.914062 -0.746094 0.914062 -1.328125 c 0 -0.277344 -0.222656 -0.5 -0.5 -0.5 s -0.5 0.222656 -0.5 0.5 c 0 0.136719 -0.089844 0.304688 -0.332031 0.417969 c -0.246094 0.113281 -0.585938 0.113281 -0.828125 0 c -0.246094 -0.113281 -0.335938 -0.28125 -0.335938 -0.417969 c 0 -0.277344 -0.226562 -0.5 -0.5 -0.5 z m 0 0" fill-rule="evenodd"/>
        <path d="m 9.484375 8 c -0.273437 0 -0.5 0.222656 -0.5 0.5 c 0 0.582031 0.386719 1.082031 0.914063 1.328125 c 0.53125 0.242187 1.140624 0.242187 1.671874 0 c 0.527344 -0.246094 0.914063 -0.746094 0.914063 -1.328125 c 0 -0.277344 -0.222656 -0.5 -0.5 -0.5 s -0.5 0.222656 -0.5 0.5 c 0 0.136719 -0.089844 0.304688 -0.335937 0.417969 c -0.242188 0.113281 -0.582032 0.113281 -0.828126 0 c -0.242187 -0.113281 -0.335937 -0.28125 -0.335937 -0.417969 c 0 -0.277344 -0.222656 -0.5 -0.5 -0.5 z m 0 0" fill-rule="evenodd"/>
    </g>
    <g mask="url(#b)">
        <g clip-path="url(#c)" transform="matrix(1 0 0 1 -580 -884)">
            <path d="m 550 182 c -0.351562 0.003906 -0.695312 0.101562 -1 0.28125 v 3.4375 c 0.304688 0.179688 0.648438 0.277344 1 0.28125 c 1.105469 0 2 -0.894531 2 -2 s -0.894531 -2 -2 -2 z m 0 5 c -0.339844 0 -0.679688 0.058594 -1 0.175781 v 6.824219 h 4 v -4 c 0 -1.65625 -1.34375 -3 -3 -3 z m 0 0"/>
        </g>
    </g>
    <g mask="url(#d)">
        <g clip-path="url(#e)" transform="matrix(1 0 0 1 -580 -884)">
            <path d="m 569 182 v 4 c 1.105469 0 2 -0.894531 2 -2 s -0.894531 -2 -2 -2 z m 0 5 v 7 h 3 v -4 c 0 -1.65625 -1.34375 -3 -3 -3 z m 0 0"/>
        </g>
    </g>
    <g mask="url(#f)">
        <g clip-path="url(#g)" transform="matrix(1 0 0 1 -580 -884)">
            <path d="m 573 182.269531 v 3.449219 c 0.613281 -0.355469 0.996094 -1.007812 1 -1.71875 c 0 -0.714844 -0.382812 -1.375 -1 -1.730469 z m 0 4.90625 v 6.824219 h 2 v -4 c 0 -1.269531 -0.800781 -2.402344 -2 -2.824219 z m 0 0"/>
        </g>
    </g>
</svg>
