<?xml version="1.0" encoding="UTF-8"?>
<svg height="16px" viewBox="0 0 16 16" width="16px" xmlns="http://www.w3.org/2000/svg" xmlns:xlink="http://www.w3.org/1999/xlink">
    <filter id="a" height="100%" width="100%" x="0%" y="0%">
        <feColorMatrix color-interpolation-filters="sRGB" values="0 0 0 0 1 0 0 0 0 1 0 0 0 0 1 0 0 0 1 0"/>
    </filter>
    <mask id="b">
        <g filter="url(#a)">
            <path d="m -1.6 -1.6 h 19.2 v 19.2 h -19.2 z" fill-opacity="0.5"/>
        </g>
    </mask>
    <clipPath id="c">
        <path d="m 0 0 h 1600 v 1200 h -1600 z"/>
    </clipPath>
    <mask id="d">
        <g filter="url(#a)">
            <path d="m -1.6 -1.6 h 19.2 v 19.2 h -19.2 z" fill-opacity="0.7"/>
        </g>
    </mask>
    <clipPath id="e">
        <path d="m 0 0 h 1600 v 1200 h -1600 z"/>
    </clipPath>
    <mask id="f">
        <g filter="url(#a)">
            <path d="m -1.6 -1.6 h 19.2 v 19.2 h -19.2 z" fill-opacity="0.35"/>
        </g>
    </mask>
    <clipPath id="g">
        <path d="m 0 0 h 1600 v 1200 h -1600 z"/>
    </clipPath>
    <g fill="#222222">
        <path d="m 1 2.007812 c -0.550781 0 -1 0.449219 -1 1 v 9 c 0 0.550782 0.449219 1 1 1 h 4 v -2 h -3 v -7 h 10 v 3 h 2 v -4 c 0 -0.550781 -0.449219 -1 -1 -1 z m 0 0" fill-opacity="0.34902"/>
        <path d="m 3.132812 5.140625 c 0.171876 -0.164063 0.496094 -0.1875 0.757813 0.015625 l 3.109375 3.089844 v 0.753906 h -0.753906 l -3.109375 -3.089844 c -0.191407 -0.191406 -0.179688 -0.597656 -0.003907 -0.769531 z m 0 0"/>
        <path d="m 4.5 9 h 3 c 0.277344 0 0.5 0.222656 0.5 0.5 s -0.222656 0.5 -0.5 0.5 h -3 c -0.277344 0 -0.5 -0.222656 -0.5 -0.5 s 0.222656 -0.5 0.5 -0.5 z m 0 0"/>
        <path d="m 7.5 6 c 0.277344 0 0.5 0.222656 0.5 0.5 v 3 c 0 0.277344 -0.222656 0.5 -0.5 0.5 s -0.5 -0.222656 -0.5 -0.5 v -3 c 0 -0.277344 0.222656 -0.5 0.5 -0.5 z m 0 0"/>
    </g>
    <path d="m 10.839844 9.691406 v 1.183594 l -0.871094 -0.871094 c -0.261719 -0.261718 -0.683594 -0.261718 -0.945312 0 c -0.257813 0.261719 -0.253907 0.683594 0.007812 0.941406 l 0.867188 0.867188 h -1.226563 c -0.371094 0 -0.671875 0.300781 -0.671875 0.671875 c 0.003906 0.363281 0.304688 0.660156 0.671875 0.65625 h 1.226563 l -0.867188 0.867187 c -0.261719 0.261719 -0.261719 0.6875 0 0.949219 c 0.261719 0.257813 0.683594 0.253907 0.9375 -0.007812 l 0.871094 -0.871094 v 1.230469 c 0 0.371094 0.300781 0.671875 0.667968 0.671875 c 0.367188 -0.003907 0.660157 -0.304688 0.65625 -0.671875 v -1.230469 l 0.871094 0.871094 c 0.261719 0.261719 0.6875 0.261719 0.949219 0 c 0.253906 -0.261719 0.25 -0.683594 -0.011719 -0.941407 l -0.867187 -0.867187 h 1.230469 c 0.367187 0 0.667968 -0.300781 0.667968 -0.671875 c -0.003906 -0.363281 -0.304687 -0.660156 -0.667968 -0.65625 h -1.230469 l 0.867187 -0.867188 c 0.261719 -0.261718 0.261719 -0.6875 0 -0.949218 c -0.261718 -0.257813 -0.679687 -0.253906 -0.9375 0.007812 l -0.871094 0.871094 v -1.183594 c 0 -0.394531 -0.320312 -0.71875 -0.714843 -0.71875 c -0.367188 0.03125 -0.640625 0.351563 -0.609375 0.71875 z m 0 0" fill-rule="evenodd"/>
    <g mask="url(#b)">
        <g clip-path="url(#c)" transform="matrix(1 0 0 1 -540 -884)">
            <path d="m 550 182 c -0.351562 0.003906 -0.695312 0.101562 -1 0.28125 v 3.4375 c 0.304688 0.179688 0.648438 0.277344 1 0.28125 c 1.105469 0 2 -0.894531 2 -2 s -0.894531 -2 -2 -2 z m 0 5 c -0.339844 0 -0.679688 0.058594 -1 0.175781 v 6.824219 h 4 v -4 c 0 -1.65625 -1.34375 -3 -3 -3 z m 0 0"/>
        </g>
    </g>
    <g mask="url(#d)">
        <g clip-path="url(#e)" transform="matrix(1 0 0 1 -540 -884)">
            <path d="m 569 182 v 4 c 1.105469 0 2 -0.894531 2 -2 s -0.894531 -2 -2 -2 z m 0 5 v 7 h 3 v -4 c 0 -1.65625 -1.34375 -3 -3 -3 z m 0 0"/>
        </g>
    </g>
    <g mask="url(#f)">
        <g clip-path="url(#g)" transform="matrix(1 0 0 1 -540 -884)">
            <path d="m 573 182.269531 v 3.449219 c 0.613281 -0.355469 0.996094 -1.007812 1 -1.71875 c 0 -0.714844 -0.382812 -1.375 -1 -1.730469 z m 0 4.90625 v 6.824219 h 2 v -4 c 0 -1.269531 -0.800781 -2.402344 -2 -2.824219 z m 0 0"/>
        </g>
    </g>
</svg>
