<?xml version="1.0" encoding="UTF-8"?>
<svg height="16px" viewBox="0 0 16 16" width="16px" xmlns="http://www.w3.org/2000/svg">
    <g fill="#2e3436">
        <path d="m 5 5 v 2 h 6 v -2 z m 0 0"/>
        <path d="m 14 2 h -2 v -0.433594 c -0.027344 -0.429687 -0.183594 -0.734375 -0.417969 -1.011718 c -0.234375 -0.277344 -0.621093 -0.585938 -1.199219 -0.55078175 l 0.054688 -0.00390625 h -4.96875 c -0.488281 0 -0.796875 0.214844 -1.03125 0.457031 c -0.234375 0.238281 -0.4375 0.554688 -0.4375 1.027344 v 0.515625 h -2 v 14 h 12 z m -2 2 v 10 h -8 v -10 h 2 v -2 h 4 v 2 z m 0 0"/>
        <path d="m 5 8 v 2 h 6 v -2 z m 0 0"/>
        <path d="m 5 11 v 2 h 6 v -2 z m 0 0"/>
    </g>
</svg>
