<?xml version="1.0" encoding="UTF-8"?>
<svg height="16px" viewBox="0 0 16 16" width="16px" xmlns="http://www.w3.org/2000/svg" xmlns:xlink="http://www.w3.org/1999/xlink">
    <filter id="a" height="100%" width="100%" x="0%" y="0%">
        <feColorMatrix color-interpolation-filters="sRGB" values="0 0 0 0 1 0 0 0 0 1 0 0 0 0 1 0 0 0 1 0"/>
    </filter>
    <mask id="b">
        <g filter="url(#a)">
            <path d="m -1.6 -1.6 h 19.2 v 19.2 h -19.2 z" fill-opacity="0.5"/>
        </g>
    </mask>
    <clipPath id="c">
        <path d="m 0 0 h 1600 v 1200 h -1600 z"/>
    </clipPath>
    <mask id="d">
        <g filter="url(#a)">
            <path d="m -1.6 -1.6 h 19.2 v 19.2 h -19.2 z" fill-opacity="0.7"/>
        </g>
    </mask>
    <clipPath id="e">
        <path d="m 0 0 h 1600 v 1200 h -1600 z"/>
    </clipPath>
    <mask id="f">
        <g filter="url(#a)">
            <path d="m -1.6 -1.6 h 19.2 v 19.2 h -19.2 z" fill-opacity="0.35"/>
        </g>
    </mask>
    <clipPath id="g">
        <path d="m 0 0 h 1600 v 1200 h -1600 z"/>
    </clipPath>
    <g mask="url(#b)">
        <g clip-path="url(#c)" transform="matrix(1 0 0 1 -320 -160)">
            <path d="m 550 182 c -0.351562 0.003906 -0.695312 0.101562 -1 0.28125 v 3.4375 c 0.304688 0.179688 0.648438 0.277344 1 0.28125 c 1.105469 0 2 -0.894531 2 -2 s -0.894531 -2 -2 -2 z m 0 5 c -0.339844 0 -0.679688 0.058594 -1 0.175781 v 6.824219 h 4 v -4 c 0 -1.65625 -1.34375 -3 -3 -3 z m 0 0"/>
        </g>
    </g>
    <g mask="url(#d)">
        <g clip-path="url(#e)" transform="matrix(1 0 0 1 -320 -160)">
            <path d="m 569 182 v 4 c 1.105469 0 2 -0.894531 2 -2 s -0.894531 -2 -2 -2 z m 0 5 v 7 h 3 v -4 c 0 -1.65625 -1.34375 -3 -3 -3 z m 0 0"/>
        </g>
    </g>
    <g mask="url(#f)">
        <g clip-path="url(#g)" transform="matrix(1 0 0 1 -320 -160)">
            <path d="m 573 182.269531 v 3.449219 c 0.613281 -0.355469 0.996094 -1.007812 1 -1.71875 c 0 -0.714844 -0.382812 -1.375 -1 -1.730469 z m 0 4.90625 v 6.824219 h 2 v -4 c 0 -1.269531 -0.800781 -2.402344 -2 -2.824219 z m 0 0"/>
        </g>
    </g>
    <path d="m 2 1.5 c -0.292969 0 -0.585938 0.085938 -0.832031 0.25 c -0.6875 0.460938 -0.875 1.394531 -0.417969 2.082031 l 0.542969 0.808594 c -0.804688 0.886719 -1.292969 2.0625 -1.292969 3.359375 v 2 c 0 2.769531 2.230469 5 5 5 h 6 c 2.769531 0 5 -2.230469 5 -5 v -2 c 0 -1.296875 -0.488281 -2.472656 -1.292969 -3.359375 l 0.542969 -0.808594 c 0.457031 -0.6875 0.269531 -1.621093 -0.417969 -2.082031 c -0.332031 -0.21875 -0.738281 -0.300781 -1.125 -0.222656 c -0.390625 0.082031 -0.734375 0.308594 -0.957031 0.640625 l -0.636719 0.957031 c -0.359375 -0.082031 -0.730469 -0.125 -1.113281 -0.125 h -6 c -0.382812 0 -0.753906 0.042969 -1.113281 0.125 l -0.636719 -0.957031 c -0.222656 -0.332031 -0.566406 -0.558594 -0.957031 -0.640625 c -0.09375 -0.015625 -0.191407 -0.027344 -0.292969 -0.027344 z m 6 4.5 c 1.949219 0.335938 3.027344 3.070312 3 5 c 0 2 -2.113281 3.039062 -3 3 c -0.886719 0.039062 -3 -1 -3 -3 c -0.027344 -1.929688 1.050781 -4.664062 3 -5 z m -5 1 c 0.550781 0 1 0.449219 1 1 s -0.449219 1 -1 1 s -1 -0.449219 -1 -1 s 0.449219 -1 1 -1 z m 10 0 c 0.550781 0 1 0.449219 1 1 s -0.449219 1 -1 1 s -1 -0.449219 -1 -1 s 0.449219 -1 1 -1 z m -5 1 c -0.828125 0 -1.5 0.214844 -1.5 0.765625 s 0.671875 1.234375 1.5 1.234375 s 1.5 -0.683594 1.5 -1.234375 s -0.671875 -0.765625 -1.5 -0.765625 z m 0 0" fill="#222222"/>
</svg>
