<?xml version="1.0" encoding="UTF-8"?>
<svg height="16px" viewBox="0 0 16 16" width="16px" xmlns="http://www.w3.org/2000/svg">
    <g fill="#2e3436">
        <path d="m 12 6.5 c 0 2.210938 -1.789062 4 -4 4 s -4 -1.789062 -4 -4 s 1.789062 -4 4 -4 s 4 1.789062 4 4 z m 0 0"/>
        <path d="m 4 6.5 h 8 v 5 h -8 z m 0 0"/>
        <path d="m 3.5 12 h 9 c 0.550781 0 1 -0.449219 1 -1 s -0.449219 -1 -1 -1 h -9 c -0.550781 0 -1 0.449219 -1 1 s 0.449219 1 1 1 z m 0 0"/>
        <path d="m 10 13 c 0 0.714844 -0.382812 1.375 -1 1.730469 c -0.617188 0.359375 -1.382812 0.359375 -2 0 c -0.617188 -0.355469 -1 -1.015625 -1 -1.730469"/>
        <path d="m 9.5 2.5 c 0 0.828125 -0.671875 1.5 -1.5 1.5 s -1.5 -0.671875 -1.5 -1.5 s 0.671875 -1.5 1.5 -1.5 s 1.5 0.671875 1.5 1.5 z m 0 0"/>
    </g>
</svg>
