<?xml version="1.0" encoding="UTF-8"?>
<svg height="16px" viewBox="0 0 16 16" width="16px" xmlns="http://www.w3.org/2000/svg" xmlns:xlink="http://www.w3.org/1999/xlink">
    <filter id="a" height="100%" width="100%" x="0%" y="0%">
        <feColorMatrix color-interpolation-filters="sRGB" values="0 0 0 0 1 0 0 0 0 1 0 0 0 0 1 0 0 0 1 0"/>
    </filter>
    <mask id="b">
        <g filter="url(#a)">
            <path d="m -1.6 -1.6 h 19.2 v 19.2 h -19.2 z" fill-opacity="0.5"/>
        </g>
    </mask>
    <clipPath id="c">
        <path d="m 0 0 h 1600 v 1200 h -1600 z"/>
    </clipPath>
    <mask id="d">
        <g filter="url(#a)">
            <path d="m -1.6 -1.6 h 19.2 v 19.2 h -19.2 z" fill-opacity="0.7"/>
        </g>
    </mask>
    <clipPath id="e">
        <path d="m 0 0 h 1600 v 1200 h -1600 z"/>
    </clipPath>
    <mask id="f">
        <g filter="url(#a)">
            <path d="m -1.6 -1.6 h 19.2 v 19.2 h -19.2 z" fill-opacity="0.35"/>
        </g>
    </mask>
    <clipPath id="g">
        <path d="m 0 0 h 1600 v 1200 h -1600 z"/>
    </clipPath>
    <path d="m 8 0 c -0.828125 0 -1.5 0.671875 -1.5 1.5 c 0 0.074219 0.007812 0.148438 0.015625 0.222656 c -1.375 0.4375 -2.496094 1.445313 -3.074219 2.765625 l 1.601563 1.605469 c 0.203125 -1.480469 1.464843 -2.585938 2.957031 -2.59375 c 1.65625 0 3 1.34375 3 3 v 4.5 h -1.046875 l 2 2 h 1.546875 c 0.554688 0 1 -0.445312 1 -1 s -0.445312 -1 -1 -1 h -0.503906 v -4.40625 c 0.003906 -0.03125 0.003906 -0.0625 0.003906 -0.09375 c 0 -2.191406 -1.425781 -4.125 -3.519531 -4.777344 c 0.015625 -0.074218 0.019531 -0.148437 0.019531 -0.222656 c 0 -0.828125 -0.667969 -1.5 -1.5 -1.5 z m -4.972656 6.199219 c -0.011719 0.101562 -0.019532 0.199219 -0.027344 0.300781 v 4.5 h -0.5 c -0.554688 0 -1 0.445312 -1 1 s 0.445312 1 1 1 h 7.328125 l -2 -2 h -2.828125 v -2.828125 z m 2.972656 7.800781 c 0 0.714844 0.382812 1.375 1 1.730469 c 0.617188 0.359375 1.382812 0.359375 2 0 c 0.617188 -0.355469 1 -1.015625 1 -1.730469 z m 0 0" fill="#222222"/>
    <path d="m 1.53125 0.457031 l -1.0625 1.0625 l 14 14 l 1.0625 -1.0625 z m 0 0" fill="#222222"/>
    <g mask="url(#b)">
        <g clip-path="url(#c)" transform="matrix(1 0 0 1 -580 -282)">
            <path d="m 550 182 c -0.351562 0.003906 -0.695312 0.101562 -1 0.28125 v 3.4375 c 0.304688 0.179688 0.648438 0.277344 1 0.28125 c 1.105469 0 2 -0.894531 2 -2 s -0.894531 -2 -2 -2 z m 0 5 c -0.339844 0 -0.679688 0.058594 -1 0.175781 v 6.824219 h 4 v -4 c 0 -1.65625 -1.34375 -3 -3 -3 z m 0 0"/>
        </g>
    </g>
    <g mask="url(#d)">
        <g clip-path="url(#e)" transform="matrix(1 0 0 1 -580 -282)">
            <path d="m 569 182 v 4 c 1.105469 0 2 -0.894531 2 -2 s -0.894531 -2 -2 -2 z m 0 5 v 7 h 3 v -4 c 0 -1.65625 -1.34375 -3 -3 -3 z m 0 0"/>
        </g>
    </g>
    <g mask="url(#f)">
        <g clip-path="url(#g)" transform="matrix(1 0 0 1 -580 -282)">
            <path d="m 573 182.269531 v 3.449219 c 0.613281 -0.355469 0.996094 -1.007812 1 -1.71875 c 0 -0.714844 -0.382812 -1.375 -1 -1.730469 z m 0 4.90625 v 6.824219 h 2 v -4 c 0 -1.269531 -0.800781 -2.402344 -2 -2.824219 z m 0 0"/>
        </g>
    </g>
</svg>
