<?xml version="1.0" encoding="UTF-8"?>
<svg height="16px" viewBox="0 0 16 16" width="16px" xmlns="http://www.w3.org/2000/svg" xmlns:xlink="http://www.w3.org/1999/xlink">
    <filter id="a" height="100%" width="100%" x="0%" y="0%">
        <feColorMatrix color-interpolation-filters="sRGB" values="0 0 0 0 1 0 0 0 0 1 0 0 0 0 1 0 0 0 1 0"/>
    </filter>
    <mask id="b">
        <g filter="url(#a)">
            <path d="m -1.6 -1.6 h 19.2 v 19.2 h -19.2 z" fill-opacity="0.5"/>
        </g>
    </mask>
    <clipPath id="c">
        <path d="m 0 0 h 1600 v 1200 h -1600 z"/>
    </clipPath>
    <mask id="d">
        <g filter="url(#a)">
            <path d="m -1.6 -1.6 h 19.2 v 19.2 h -19.2 z" fill-opacity="0.7"/>
        </g>
    </mask>
    <clipPath id="e">
        <path d="m 0 0 h 1600 v 1200 h -1600 z"/>
    </clipPath>
    <mask id="f">
        <g filter="url(#a)">
            <path d="m -1.6 -1.6 h 19.2 v 19.2 h -19.2 z" fill-opacity="0.35"/>
        </g>
    </mask>
    <clipPath id="g">
        <path d="m 0 0 h 1600 v 1200 h -1600 z"/>
    </clipPath>
    <g mask="url(#b)">
        <g clip-path="url(#c)" transform="matrix(1 0 0 1 -380 -40)">
            <path d="m 550 182 c -0.351562 0.003906 -0.695312 0.101562 -1 0.28125 v 3.4375 c 0.304688 0.179688 0.648438 0.277344 1 0.28125 c 1.105469 0 2 -0.894531 2 -2 s -0.894531 -2 -2 -2 z m 0 5 c -0.339844 0 -0.679688 0.058594 -1 0.175781 v 6.824219 h 4 v -4 c 0 -1.65625 -1.34375 -3 -3 -3 z m 0 0"/>
        </g>
    </g>
    <g mask="url(#d)">
        <g clip-path="url(#e)" transform="matrix(1 0 0 1 -380 -40)">
            <path d="m 569 182 v 4 c 1.105469 0 2 -0.894531 2 -2 s -0.894531 -2 -2 -2 z m 0 5 v 7 h 3 v -4 c 0 -1.65625 -1.34375 -3 -3 -3 z m 0 0"/>
        </g>
    </g>
    <g mask="url(#f)">
        <g clip-path="url(#g)" transform="matrix(1 0 0 1 -380 -40)">
            <path d="m 573 182.269531 v 3.449219 c 0.613281 -0.355469 0.996094 -1.007812 1 -1.71875 c 0 -0.714844 -0.382812 -1.375 -1 -1.730469 z m 0 4.90625 v 6.824219 h 2 v -4 c 0 -1.269531 -0.800781 -2.402344 -2 -2.824219 z m 0 0"/>
        </g>
    </g>
    <path d="m 6.949219 0.0625 c -1.085938 0.0273438 -1.953125 0.914062 -1.949219 2 c 0 1.105469 0.894531 2 2 2 c 1.101562 0 2 -0.894531 2 -2 s -0.898438 -2 -2 -2 c -0.019531 0 -0.035156 0 -0.054688 0 z m -1.449219 4.9375 c -0.347656 0 -0.667969 0.179688 -0.851562 0.46875 l -2.5 4 c -0.289063 0.46875 -0.148438 1.085938 0.320312 1.378906 c 0.46875 0.292969 1.085938 0.148438 1.375 -0.316406 l 1.15625 -1.84375 l -0.003906 3.953125 l -0.894532 1.785156 c -0.246093 0.496094 -0.042968 1.097657 0.449219 1.34375 c 0.492188 0.246094 1.09375 0.046875 1.339844 -0.445312 l 1 -2 c 0.070313 -0.140625 0.109375 -0.292969 0.109375 -0.449219 v -1.988281 c 0 0.105469 0.015625 0.207031 0.050781 0.304687 l 0.480469 1.441406 l 0.488281 2.4375 c 0.105469 0.542969 0.632813 0.894532 1.175781 0.785157 c 0.539063 -0.109375 0.890626 -0.632813 0.785157 -1.175781 l -0.5 -2.5 c -0.011719 -0.039063 -0.019531 -0.082032 -0.03125 -0.121094 l -0.449219 -1.34375 v -2.300782 l 1.292969 1.292969 c 0.261719 0.265625 0.65625 0.359375 1.011719 0.246094 l 1.714843 5.566406 c 0.039063 0.128907 0.125 0.234375 0.242188 0.296875 c 0.117187 0.0625 0.257812 0.074219 0.382812 0.039063 c 0.128907 -0.039063 0.234375 -0.128907 0.296875 -0.246094 s 0.074219 -0.253906 0.035156 -0.378906 l -2 -6.5 c -0.015624 -0.050781 -0.035156 -0.09375 -0.0625 -0.136719 c -0.050781 -0.109375 -0.121093 -0.214844 -0.207031 -0.300781 l -2.96875 -2.964844 l -0.011719 -0.015625 c -0.007812 -0.007812 -0.015624 -0.011719 -0.019531 -0.019531 c -0.023437 -0.019531 -0.042969 -0.039063 -0.0625 -0.054688 c -0.023437 -0.019531 -0.042969 -0.035156 -0.066406 -0.050781 c 0 -0.003906 0 -0.003906 -0.003906 -0.003906 c 0 0 0 0 -0.003907 -0.003906 c -0.019531 -0.011719 -0.042968 -0.027344 -0.066406 -0.042969 c -0.023437 -0.011719 -0.046875 -0.023438 -0.074218 -0.039063 c -0.023438 -0.011718 -0.046876 -0.019531 -0.074219 -0.03125 c -0.027344 -0.011718 -0.050781 -0.019531 -0.078125 -0.027344 c 0 0 0 0 -0.003906 0 c -0.015626 -0.003906 -0.035157 -0.007812 -0.050782 -0.015624 c -0.011718 0 -0.019531 -0.003907 -0.03125 -0.003907 c -0.015625 -0.003906 -0.035156 -0.007812 -0.050781 -0.011719 c -0.003906 0 -0.007813 0 -0.015625 0 c -0.019531 -0.003906 -0.042969 -0.003906 -0.066406 -0.007812 c 0 0 0 0 -0.003906 0 c -0.015626 0 -0.035157 0 -0.054688 0 c 0 0 0 0 -0.003906 0 z m 0 0" fill="#222222"/>
</svg>
