<?xml version="1.0" encoding="UTF-8"?>
<svg height="16px" viewBox="0 0 16 16" width="16px" xmlns="http://www.w3.org/2000/svg" xmlns:xlink="http://www.w3.org/1999/xlink">
    <filter id="a" height="100%" width="100%" x="0%" y="0%">
        <feColorMatrix color-interpolation-filters="sRGB" values="0 0 0 0 1 0 0 0 0 1 0 0 0 0 1 0 0 0 1 0"/>
    </filter>
    <mask id="b">
        <g filter="url(#a)">
            <path d="m -1.6 -1.6 h 19.2 v 19.2 h -19.2 z" fill-opacity="0.5"/>
        </g>
    </mask>
    <clipPath id="c">
        <path d="m 0 0 h 1600 v 1200 h -1600 z"/>
    </clipPath>
    <mask id="d">
        <g filter="url(#a)">
            <path d="m -1.6 -1.6 h 19.2 v 19.2 h -19.2 z" fill-opacity="0.7"/>
        </g>
    </mask>
    <clipPath id="e">
        <path d="m 0 0 h 1600 v 1200 h -1600 z"/>
    </clipPath>
    <mask id="f">
        <g filter="url(#a)">
            <path d="m -1.6 -1.6 h 19.2 v 19.2 h -19.2 z" fill-opacity="0.35"/>
        </g>
    </mask>
    <clipPath id="g">
        <path d="m 0 0 h 1600 v 1200 h -1600 z"/>
    </clipPath>
    <g mask="url(#b)">
        <g clip-path="url(#c)" transform="matrix(1 0 0 1 -360 -260)">
            <path d="m 550 182 c -0.351562 0.003906 -0.695312 0.101562 -1 0.28125 v 3.4375 c 0.304688 0.179688 0.648438 0.277344 1 0.28125 c 1.105469 0 2 -0.894531 2 -2 s -0.894531 -2 -2 -2 z m 0 5 c -0.339844 0 -0.679688 0.058594 -1 0.175781 v 6.824219 h 4 v -4 c 0 -1.65625 -1.34375 -3 -3 -3 z m 0 0"/>
        </g>
    </g>
    <g mask="url(#d)">
        <g clip-path="url(#e)" transform="matrix(1 0 0 1 -360 -260)">
            <path d="m 569 182 v 4 c 1.105469 0 2 -0.894531 2 -2 s -0.894531 -2 -2 -2 z m 0 5 v 7 h 3 v -4 c 0 -1.65625 -1.34375 -3 -3 -3 z m 0 0"/>
        </g>
    </g>
    <g mask="url(#f)">
        <g clip-path="url(#g)" transform="matrix(1 0 0 1 -360 -260)">
            <path d="m 573 182.269531 v 3.449219 c 0.613281 -0.355469 0.996094 -1.007812 1 -1.71875 c 0 -0.714844 -0.382812 -1.375 -1 -1.730469 z m 0 4.90625 v 6.824219 h 2 v -4 c 0 -1.269531 -0.800781 -2.402344 -2 -2.824219 z m 0 0"/>
        </g>
    </g>
    <g fill="#222222">
        <path d="m 5.976562 2 c 0.546876 0 1 0.453125 1 1 v 10 c 0 0.546875 -0.453124 1 -1 1 h -0.976562 c -1.652344 0 -3 -1.347656 -3 -3 v -6 c 0 -1.652344 1.347656 -3 3 -3 z m -5.976562 3 v 6 c 0 2.765625 2.234375 5 5 5 h 0.976562 c 1.660157 0 3 -1.339844 3 -3 v -10 c 0 -1.660156 -1.339843 -3 -3 -3 h -0.976562 c -2.765625 0 -5 2.234375 -5 5 z m 0 0"/>
        <path d="m 7.5 9.992188 h -1.511719 c -1.101562 0 -1.988281 0.886718 -1.988281 1.984374 v 0.515626 c 0 0.273437 0.222656 0.5 0.5 0.5 s 0.5 -0.226563 0.5 -0.5 v -0.515626 c 0 -0.539062 0.445312 -0.984374 0.988281 -0.984374 h 1.511719 c 0.277344 0 0.5 -0.226563 0.5 -0.5 c 0 -0.277344 -0.222656 -0.5 -0.5 -0.5 z m 0 0"/>
        <path d="m 4.496094 4.980469 h 3 c 0.277344 0 0.5 -0.226563 0.5 -0.5 c 0 -0.277344 -0.222656 -0.5 -0.5 -0.5 h -3 c -0.277344 0 -0.5 0.222656 -0.5 0.5 c 0 0.273437 0.222656 0.5 0.5 0.5 z m 0 0"/>
        <path d="m 9.980469 14 c -0.546875 0 -1 -0.453125 -1 -1 v -10 c 0 -0.546875 0.453125 -1 1 -1 h 1.019531 c 1.652344 0 3 1.347656 3 3 v 6 c 0 1.652344 -1.347656 3 -3 3 z m 6.019531 -3 v -6 c 0 -2.765625 -2.234375 -5 -5 -5 h -1.019531 c -1.664063 0 -3 1.339844 -3 3 v 10 c 0 1.660156 1.335937 3 3 3 h 1.019531 c 2.765625 0 5 -2.234375 5 -5 z m 0 0"/>
        <path d="m 8.523438 6.015625 h 1.511718 c 1.101563 0 1.988282 -0.886719 1.988282 -1.988281 v -0.511719 c 0 -0.277344 -0.222657 -0.5 -0.5 -0.5 c -0.277344 0 -0.5 0.222656 -0.5 0.5 v 0.511719 c 0 0.542968 -0.445313 0.988281 -0.988282 0.988281 h -1.511718 c -0.277344 0 -0.5 0.222656 -0.5 0.5 c 0 0.273437 0.222656 0.5 0.5 0.5 z m 0 0"/>
        <path d="m 8.488281 10 h 1.511719 c 0.542969 0 0.988281 0.445312 0.988281 0.988281 v 0.511719 c 0 0.277344 0.222657 0.5 0.5 0.5 c 0.273438 0 0.5 -0.222656 0.5 -0.5 v -0.511719 c 0 -1.101562 -0.886719 -1.988281 -1.988281 -1.988281 h -1.511719 c -0.277343 0 -0.5 0.222656 -0.5 0.5 s 0.222657 0.5 0.5 0.5 z m 0 0"/>
        <path d="m 15 10 h -1.523438 c -0.277343 0 -0.5 0.222656 -0.5 0.5 s 0.222657 0.5 0.5 0.5 h 1.523438 c 0.277344 0 0.5 -0.222656 0.5 -0.5 s -0.222656 -0.5 -0.5 -0.5 z m 0 0"/>
        <path d="m 6.488281 8 h 5.042969 c 0.273438 0 0.5 -0.222656 0.5 -0.5 s -0.226562 -0.5 -0.5 -0.5 h -5.042969 c -0.277343 0 -0.5 0.222656 -0.5 0.5 s 0.222657 0.5 0.5 0.5 z m 0 0"/>
        <path d="m 15.089844 6.015625 h -1.59375 c -0.277344 0 -0.5 0.222656 -0.5 0.5 c 0 0.273437 0.222656 0.5 0.5 0.5 h 1.59375 c 0.273437 0 0.5 -0.226563 0.5 -0.5 c 0 -0.277344 -0.226563 -0.5 -0.5 -0.5 z m 0 0"/>
        <path d="m 1.488281 9.992188 h 1.511719 c 1.101562 0 1.988281 -0.886719 1.988281 -1.988282 v -0.511718 c 0 -0.277344 -0.222656 -0.5 -0.5 -0.5 c -0.277343 0 -0.5 0.222656 -0.5 0.5 v 0.511718 c 0 0.542969 -0.445312 0.988282 -0.988281 0.988282 h -1.511719 c -0.277343 0 -0.5 0.222656 -0.5 0.5 c 0 0.273437 0.222657 0.5 0.5 0.5 z m 0 0"/>
    </g>
</svg>
