<?xml version="1.0" encoding="UTF-8"?>
<svg height="16px" viewBox="0 0 16 16" width="16px" xmlns="http://www.w3.org/2000/svg" xmlns:xlink="http://www.w3.org/1999/xlink">
    <filter id="a" height="100%" width="100%" x="0%" y="0%">
        <feColorMatrix color-interpolation-filters="sRGB" values="0 0 0 0 1 0 0 0 0 1 0 0 0 0 1 0 0 0 1 0"/>
    </filter>
    <mask id="b">
        <g filter="url(#a)">
            <path d="m -1.6 -1.6 h 19.2 v 19.2 h -19.2 z" fill-opacity="0.5"/>
        </g>
    </mask>
    <clipPath id="c">
        <path d="m 0 0 h 1600 v 1200 h -1600 z"/>
    </clipPath>
    <mask id="d">
        <g filter="url(#a)">
            <path d="m -1.6 -1.6 h 19.2 v 19.2 h -19.2 z" fill-opacity="0.7"/>
        </g>
    </mask>
    <clipPath id="e">
        <path d="m 0 0 h 1600 v 1200 h -1600 z"/>
    </clipPath>
    <mask id="f">
        <g filter="url(#a)">
            <path d="m -1.6 -1.6 h 19.2 v 19.2 h -19.2 z" fill-opacity="0.35"/>
        </g>
    </mask>
    <clipPath id="g">
        <path d="m 0 0 h 1600 v 1200 h -1600 z"/>
    </clipPath>
    <g mask="url(#b)">
        <g clip-path="url(#c)" transform="matrix(1 0 0 1 -260 -760)">
            <path d="m 550 182 c -0.351562 0.003906 -0.695312 0.101562 -1 0.28125 v 3.4375 c 0.304688 0.179688 0.648438 0.277344 1 0.28125 c 1.105469 0 2 -0.894531 2 -2 s -0.894531 -2 -2 -2 z m 0 5 c -0.339844 0 -0.679688 0.058594 -1 0.175781 v 6.824219 h 4 v -4 c 0 -1.65625 -1.34375 -3 -3 -3 z m 0 0"/>
        </g>
    </g>
    <g mask="url(#d)">
        <g clip-path="url(#e)" transform="matrix(1 0 0 1 -260 -760)">
            <path d="m 569 182 v 4 c 1.105469 0 2 -0.894531 2 -2 s -0.894531 -2 -2 -2 z m 0 5 v 7 h 3 v -4 c 0 -1.65625 -1.34375 -3 -3 -3 z m 0 0"/>
        </g>
    </g>
    <g mask="url(#f)">
        <g clip-path="url(#g)" transform="matrix(1 0 0 1 -260 -760)">
            <path d="m 573 182.269531 v 3.449219 c 0.613281 -0.355469 0.996094 -1.007812 1 -1.71875 c 0 -0.714844 -0.382812 -1.375 -1 -1.730469 z m 0 4.90625 v 6.824219 h 2 v -4 c 0 -1.269531 -0.800781 -2.402344 -2 -2.824219 z m 0 0"/>
        </g>
    </g>
    <path d="m 3.5 1 c -1.921875 0 -3.5 1.578125 -3.5 3.5 c 0 1.347656 0.875 2.363281 2 2.949219 v 5.550781 c 0 1.089844 0.910156 2 2 2 h 8 c 1.089844 0 2 -0.910156 2 -2 v -5.550781 c 1.125 -0.585938 2 -1.601563 2 -2.949219 c 0 -1.921875 -1.578125 -3.5 -3.5 -3.5 h -4.5 s -0.667969 0 -1 0 s -1 0 -1 0 z m 0 2 h 7 c 0.847656 0 1.5 0.652344 1.5 1.5 c 0 0.742188 -0.511719 1.332031 -1.199219 1.46875 c -0.464843 0.097656 -0.800781 0.507812 -0.800781 0.980469 v 6.050781 h -6 v -6.050781 c 0 -0.472657 -0.335938 -0.882813 -0.800781 -0.980469 c -0.6875 -0.136719 -1.199219 -0.726562 -1.199219 -1.46875 c 0 -0.847656 0.652344 -1.5 1.5 -1.5 z m 4.96875 3 c -0.042969 0.003906 -0.085938 0.011719 -0.125 0.027344 l -3 1 c -0.265625 0.085937 -0.40625 0.367187 -0.320312 0.632812 c 0.089843 0.261719 0.371093 0.402344 0.632812 0.316406 l 3 -1 c 0.265625 -0.089843 0.40625 -0.371093 0.320312 -0.632812 c -0.074218 -0.21875 -0.28125 -0.355469 -0.507812 -0.34375 z m 0 2 c -0.042969 0.003906 -0.085938 0.011719 -0.125 0.027344 l -3 1 c -0.265625 0.085937 -0.40625 0.367187 -0.320312 0.632812 c 0.089843 0.261719 0.371093 0.402344 0.632812 0.316406 l 3 -1 c 0.265625 -0.089843 0.40625 -0.371093 0.320312 -0.632812 c -0.074218 -0.21875 -0.28125 -0.355469 -0.507812 -0.34375 z m 0 2 c -0.042969 0.003906 -0.085938 0.011719 -0.125 0.027344 l -3 1 c -0.265625 0.085937 -0.40625 0.367187 -0.320312 0.632812 c 0.089843 0.261719 0.371093 0.402344 0.632812 0.316406 l 3 -1 c 0.265625 -0.089843 0.40625 -0.371093 0.320312 -0.632812 c -0.074218 -0.21875 -0.28125 -0.355469 -0.507812 -0.34375 z m 0 0" fill="#222222"/>
</svg>
