<?xml version="1.0" encoding="UTF-8"?>
<svg height="16px" viewBox="0 0 16 16" width="16px" xmlns="http://www.w3.org/2000/svg" xmlns:xlink="http://www.w3.org/1999/xlink">
    <filter id="a" height="100%" width="100%" x="0%" y="0%">
        <feColorMatrix color-interpolation-filters="sRGB" values="0 0 0 0 1 0 0 0 0 1 0 0 0 0 1 0 0 0 1 0"/>
    </filter>
    <mask id="b">
        <g filter="url(#a)">
            <path d="m -1.6 -1.6 h 19.2 v 19.2 h -19.2 z" fill-opacity="0.5"/>
        </g>
    </mask>
    <clipPath id="c">
        <path d="m 0 0 h 1600 v 1200 h -1600 z"/>
    </clipPath>
    <mask id="d">
        <g filter="url(#a)">
            <path d="m -1.6 -1.6 h 19.2 v 19.2 h -19.2 z" fill-opacity="0.7"/>
        </g>
    </mask>
    <clipPath id="e">
        <path d="m 0 0 h 1600 v 1200 h -1600 z"/>
    </clipPath>
    <mask id="f">
        <g filter="url(#a)">
            <path d="m -1.6 -1.6 h 19.2 v 19.2 h -19.2 z" fill-opacity="0.35"/>
        </g>
    </mask>
    <clipPath id="g">
        <path d="m 0 0 h 1600 v 1200 h -1600 z"/>
    </clipPath>
    <g fill="#222222">
        <path d="m 3.941406 9.035156 c -0.539062 0.117188 -0.882812 0.644532 -0.769531 1.1875 l 0.851563 3.988282 c 0.054687 0.257812 0.210937 0.484374 0.433593 0.628906 c 0.222657 0.144531 0.492188 0.195312 0.753907 0.140625 c 0.257812 -0.058594 0.484374 -0.214844 0.628906 -0.4375 c 0.144531 -0.222657 0.195312 -0.492188 0.140625 -0.75 l -0.851563 -3.988281 c -0.054687 -0.257813 -0.210937 -0.488282 -0.433594 -0.628907 c -0.222656 -0.144531 -0.496093 -0.195312 -0.753906 -0.140625 z m 0 0"/>
        <path d="m 13.292969 0.0429688 c -0.421875 -0.1289063 -0.878907 0.0351562 -1.121094 0.4023432 c -1.4375 2.140626 -4.976563 3.269532 -7.128906 3.503907 c -0.433594 0.042969 -1.339844 0.050781 -1.890625 0.050781 h -1.152344 c -1.09375 0 -2 0.90625 -2 2 v 3 c 0 1.09375 0.902344 2 1.996094 2.003906 l 1.152344 0.003906 c 0.554687 0.003907 1.457031 0.011719 1.894531 0.058594 c 2.15625 0.230469 5.691406 1.347656 7.128906 3.492188 c 0.242187 0.363281 0.699219 0.523437 1.121094 0.398437 c 0.417969 -0.128906 0.707031 -0.515625 0.707031 -0.957031 v -13 c 0 -0.441406 -0.289062 -0.828125 -0.707031 -0.9570312 z m -1.292969 3.4335932 v 8.054688 c -2.105469 -1.601562 -4.835938 -2.25 -6.746094 -2.453125 c -0.660156 -0.070313 -1.550781 -0.066406 -2.097656 -0.066406 l -1.152344 -0.007813 c -0.015625 0 -0.003906 0.011719 -0.003906 -0.003906 v -3 h 1.148438 c 0.554687 0 1.441406 0.007812 2.105468 -0.066406 c 1.910156 -0.203125 4.640625 -0.859375 6.746094 -2.460938 z m 0 0"/>
        <path d="m 13.734375 5.742188 v 3.515624 l 2 -0.796874 c 0.160156 -0.066407 0.265625 -0.21875 0.265625 -0.394532 v -1.132812 c 0 -0.175782 -0.105469 -0.328125 -0.265625 -0.394532 z m 0 0"/>
        <path d="m 4 4.523438 h 1 v 5.476562 h -1 z m 0 0"/>
    </g>
    <g mask="url(#b)">
        <g clip-path="url(#c)" transform="matrix(1 0 0 1 -896 -330)">
            <path d="m 550 182 c -0.351562 0.003906 -0.695312 0.101562 -1 0.28125 v 3.4375 c 0.304688 0.179688 0.648438 0.277344 1 0.28125 c 1.105469 0 2 -0.894531 2 -2 s -0.894531 -2 -2 -2 z m 0 5 c -0.339844 0 -0.679688 0.058594 -1 0.175781 v 6.824219 h 4 v -4 c 0 -1.65625 -1.34375 -3 -3 -3 z m 0 0"/>
        </g>
    </g>
    <g mask="url(#d)">
        <g clip-path="url(#e)" transform="matrix(1 0 0 1 -896 -330)">
            <path d="m 569 182 v 4 c 1.105469 0 2 -0.894531 2 -2 s -0.894531 -2 -2 -2 z m 0 5 v 7 h 3 v -4 c 0 -1.65625 -1.34375 -3 -3 -3 z m 0 0"/>
        </g>
    </g>
    <g mask="url(#f)">
        <g clip-path="url(#g)" transform="matrix(1 0 0 1 -896 -330)">
            <path d="m 573 182.269531 v 3.449219 c 0.613281 -0.355469 0.996094 -1.007812 1 -1.71875 c 0 -0.714844 -0.382812 -1.375 -1 -1.730469 z m 0 4.90625 v 6.824219 h 2 v -4 c 0 -1.269531 -0.800781 -2.402344 -2 -2.824219 z m 0 0"/>
        </g>
    </g>
</svg>
