<?xml version="1.0" encoding="UTF-8"?>
<svg height="16px" viewBox="0 0 16 16" width="16px" xmlns="http://www.w3.org/2000/svg" xmlns:xlink="http://www.w3.org/1999/xlink">
    <filter id="a" height="100%" width="100%" x="0%" y="0%">
        <feColorMatrix color-interpolation-filters="sRGB" values="0 0 0 0 1 0 0 0 0 1 0 0 0 0 1 0 0 0 1 0"/>
    </filter>
    <mask id="b">
        <g filter="url(#a)">
            <path d="m -1.6 -1.6 h 19.2 v 19.2 h -19.2 z" fill-opacity="0.5"/>
        </g>
    </mask>
    <clipPath id="c">
        <path d="m 0 0 h 1600 v 1200 h -1600 z"/>
    </clipPath>
    <mask id="d">
        <g filter="url(#a)">
            <path d="m -1.6 -1.6 h 19.2 v 19.2 h -19.2 z" fill-opacity="0.7"/>
        </g>
    </mask>
    <clipPath id="e">
        <path d="m 0 0 h 1600 v 1200 h -1600 z"/>
    </clipPath>
    <mask id="f">
        <g filter="url(#a)">
            <path d="m -1.6 -1.6 h 19.2 v 19.2 h -19.2 z" fill-opacity="0.35"/>
        </g>
    </mask>
    <clipPath id="g">
        <path d="m 0 0 h 1600 v 1200 h -1600 z"/>
    </clipPath>
    <g mask="url(#b)">
        <g clip-path="url(#c)" transform="matrix(1 0 0 1 -56 -896)">
            <path d="m 550 182 c -0.351562 0.003906 -0.695312 0.101562 -1 0.28125 v 3.4375 c 0.304688 0.179688 0.648438 0.277344 1 0.28125 c 1.105469 0 2 -0.894531 2 -2 s -0.894531 -2 -2 -2 z m 0 5 c -0.339844 0 -0.679688 0.058594 -1 0.175781 v 6.824219 h 4 v -4 c 0 -1.65625 -1.34375 -3 -3 -3 z m 0 0"/>
        </g>
    </g>
    <g mask="url(#d)">
        <g clip-path="url(#e)" transform="matrix(1 0 0 1 -56 -896)">
            <path d="m 569 182 v 4 c 1.105469 0 2 -0.894531 2 -2 s -0.894531 -2 -2 -2 z m 0 5 v 7 h 3 v -4 c 0 -1.65625 -1.34375 -3 -3 -3 z m 0 0"/>
        </g>
    </g>
    <g mask="url(#f)">
        <g clip-path="url(#g)" transform="matrix(1 0 0 1 -56 -896)">
            <path d="m 573 182.269531 v 3.449219 c 0.613281 -0.355469 0.996094 -1.007812 1 -1.71875 c 0 -0.714844 -0.382812 -1.375 -1 -1.730469 z m 0 4.90625 v 6.824219 h 2 v -4 c 0 -1.269531 -0.800781 -2.402344 -2 -2.824219 z m 0 0"/>
        </g>
    </g>
    <path d="m 13.078125 0 c -0.929687 0 -1.726563 0.660156 -1.902344 1.570312 l -7.488281 1.359376 c -0.367188 -0.578126 -1.007812 -0.929688 -1.695312 -0.929688 c -1.109376 0 -2.007813 0.898438 -2.007813 2.007812 c 0 0.820313 0.5 1.5625 1.265625 1.867188 v 6.257812 c -0.761719 0.292969 -1.265625 1.027344 -1.265625 1.84375 c 0 1.089844 0.886719 1.976563 1.976563 1.976563 c 1.089843 0 1.976562 -0.886719 1.976562 -1.976563 c 0 -0.1875 -0.027344 -0.371093 -0.082031 -0.550781 l 3.144531 -2.613281 c 0.316406 0.183594 0.671875 0.28125 1.039062 0.28125 c 0.511719 0 1.007813 -0.195312 1.382813 -0.542969 l 2.691406 1.34375 c -0.003906 0.039063 -0.003906 0.082031 -0.003906 0.121094 c 0 1.078125 0.875 1.953125 1.953125 1.953125 s 1.953125 -0.875 1.953125 -1.953125 c 0 -0.882813 -0.59375 -1.65625 -1.445313 -1.882813 l -0.648437 -6.453124 c 0.667969 -0.324219 1.09375 -1 1.09375 -1.742188 c 0 -1.070312 -0.867187 -1.9375 -1.9375 -1.9375 z m -1.59375 3.039062 c 0.230469 0.332032 0.558594 0.582032 0.9375 0.722657 l 0.65625 6.566406 c -0.105469 0.0625 -0.210937 0.136719 -0.304687 0.222656 l -2.699219 -1.351562 c 0 -0.050781 0.003906 -0.097657 0.003906 -0.144531 c 0 -1.125 -0.914063 -2.039063 -2.039063 -2.039063 s -2.039062 0.914063 -2.039062 2.039063 c 0 0.191406 0.027344 0.382812 0.082031 0.570312 l -3.15625 2.625 c -0.058593 -0.03125 -0.117187 -0.058594 -0.175781 -0.085938 v -6.296874 c 0.621094 -0.253907 1.074219 -0.800782 1.207031 -1.460938 z m 0 0" fill="#222222"/>
</svg>
