<?xml version="1.0" encoding="UTF-8"?>
<svg height="16px" viewBox="0 0 16 16" width="16px" xmlns="http://www.w3.org/2000/svg">
    <g fill="#2e3436">
        <path d="m 10 1 h -5 c -0.550781 0 -1 0.449219 -1 1 v 5 c 0 0.550781 0.449219 1 1 1 h 5 c 0.550781 0 1 -0.449219 1 -1 v -5 c 0 -0.550781 -0.449219 -1 -1 -1 z m 0 0"/>
        <path d="m 3.734375 4.476562 l -2.371094 -2.699218 h -0.363281 v 5.445312 h 0.34375 z m 0 0"/>
        <path d="m 12.5 2.492188 c -0.277344 0.003906 -0.496094 0.230468 -0.492188 0.507812 v 4.554688 c 0 0.824218 -0.644531 1.492187 -1.523437 1.492187 h -4.484375 c -0.179688 -0.003906 -0.347656 0.09375 -0.4375 0.246094 c -0.09375 0.15625 -0.09375 0.351562 0 0.507812 c 0.089844 0.152344 0.257812 0.25 0.4375 0.246094 h 4.484375 c 1.402344 0 2.523437 -1.128906 2.523437 -2.492187 v -4.554688 c 0.003907 -0.136719 -0.050781 -0.265625 -0.144531 -0.363281 c -0.097656 -0.09375 -0.226562 -0.148438 -0.363281 -0.144531 z m 0 0"/>
        <path d="m 14.492188 4 c -0.277344 0.003906 -0.496094 0.230469 -0.492188 0.507812 v 3.507813 c 0 1.765625 -1.503906 3.007813 -3.097656 3.007813 h -3.425782 c -0.179687 -0.003907 -0.347656 0.09375 -0.4375 0.246093 c -0.09375 0.15625 -0.09375 0.351563 0 0.507813 c 0.089844 0.152344 0.257813 0.25 0.4375 0.246094 h 3.425782 c 2.117187 0 4.097656 -1.675782 4.097656 -4.007813 v -3.507813 c 0.003906 -0.136718 -0.050781 -0.265624 -0.144531 -0.363281 c -0.097657 -0.09375 -0.226563 -0.148437 -0.363281 -0.144531 z m 0 0"/>
    </g>
</svg>
