<?xml version="1.0" encoding="UTF-8"?>
<svg height="16px" viewBox="0 0 16 16" width="16px" xmlns="http://www.w3.org/2000/svg" xmlns:xlink="http://www.w3.org/1999/xlink">
    <filter id="a" height="100%" width="100%" x="0%" y="0%">
        <feColorMatrix color-interpolation-filters="sRGB" values="0 0 0 0 1 0 0 0 0 1 0 0 0 0 1 0 0 0 1 0"/>
    </filter>
    <mask id="b">
        <g filter="url(#a)">
            <path d="m -1.6 -1.6 h 19.2 v 19.2 h -19.2 z" fill-opacity="0.5"/>
        </g>
    </mask>
    <clipPath id="c">
        <path d="m 0 0 h 1600 v 1200 h -1600 z"/>
    </clipPath>
    <mask id="d">
        <g filter="url(#a)">
            <path d="m -1.6 -1.6 h 19.2 v 19.2 h -19.2 z" fill-opacity="0.7"/>
        </g>
    </mask>
    <clipPath id="e">
        <path d="m 0 0 h 1600 v 1200 h -1600 z"/>
    </clipPath>
    <mask id="f">
        <g filter="url(#a)">
            <path d="m -1.6 -1.6 h 19.2 v 19.2 h -19.2 z" fill-opacity="0.35"/>
        </g>
    </mask>
    <clipPath id="g">
        <path d="m 0 0 h 1600 v 1200 h -1600 z"/>
    </clipPath>
    <path d="m 8 0 c -4.417969 0 -8 3.582031 -8 8 s 3.582031 8 8 8 s 8 -3.582031 8 -8 s -3.582031 -8 -8 -8 z m 0 2 c 3.3125 0 6 2.6875 6 6 s -2.6875 6 -6 6 s -6 -2.6875 -6 -6 s 2.6875 -6 6 -6 z m 0 0" fill="#222222"/>
    <path d="m 7 3 v 0.929688 c -1.464844 0.261718 -2.320312 1.132812 -2.320312 2.433593 c 0 1.1875 0.726562 1.984375 2.042968 2.214844 l 1.777344 0.3125 c 0.804688 0.136719 1.117188 0.355469 1.117188 0.808594 c 0 0.496093 -0.542969 0.785156 -1.453126 0.785156 c -0.933593 0 -1.707031 -0.324219 -2.6875 -1.121094 l -1.109374 1.441407 c 0.742187 0.632812 1.671874 1.066406 2.632812 1.253906 v 0.941406 h 2 v -0.921875 c 1.605469 -0.265625 2.558594 -1.199219 2.558594 -2.574219 c 0 -1.25 -0.820313 -2.042968 -2.378906 -2.296875 l -1.671876 -0.277343 c -0.683593 -0.117188 -0.957031 -0.316407 -0.957031 -0.71875 c 0 -0.4375 0.492188 -0.703126 1.300781 -0.703126 c 0.855469 0 1.628907 0.300782 2.484376 0.957032 l 1.046874 -1.464844 c -0.644531 -0.519531 -1.5 -0.890625 -2.382812 -1.054688 v -0.945312 z m 0 0" fill="#222222"/>
    <g mask="url(#b)">
        <g clip-path="url(#c)" transform="matrix(1 0 0 1 -60 -676)">
            <path d="m 550 182 c -0.351562 0.003906 -0.695312 0.101562 -1 0.28125 v 3.4375 c 0.304688 0.179688 0.648438 0.277344 1 0.28125 c 1.105469 0 2 -0.894531 2 -2 s -0.894531 -2 -2 -2 z m 0 5 c -0.339844 0 -0.679688 0.058594 -1 0.175781 v 6.824219 h 4 v -4 c 0 -1.65625 -1.34375 -3 -3 -3 z m 0 0"/>
        </g>
    </g>
    <g mask="url(#d)">
        <g clip-path="url(#e)" transform="matrix(1 0 0 1 -60 -676)">
            <path d="m 569 182 v 4 c 1.105469 0 2 -0.894531 2 -2 s -0.894531 -2 -2 -2 z m 0 5 v 7 h 3 v -4 c 0 -1.65625 -1.34375 -3 -3 -3 z m 0 0"/>
        </g>
    </g>
    <g mask="url(#f)">
        <g clip-path="url(#g)" transform="matrix(1 0 0 1 -60 -676)">
            <path d="m 573 182.269531 v 3.449219 c 0.613281 -0.355469 0.996094 -1.007812 1 -1.71875 c 0 -0.714844 -0.382812 -1.375 -1 -1.730469 z m 0 4.90625 v 6.824219 h 2 v -4 c 0 -1.269531 -0.800781 -2.402344 -2 -2.824219 z m 0 0"/>
        </g>
    </g>
</svg>
