<?xml version="1.0" encoding="UTF-8"?>
<svg height="16px" viewBox="0 0 16 16" width="16px" xmlns="http://www.w3.org/2000/svg">
    <g fill="#2e3436">
        <path d="m 0 8 l 6 2 l 2 6 l 2 -6 l 6 -2 l -6 -2 l -2 -6 l -2 6 z m 7 0 c 0 -0.550781 0.449219 -1 1 -1 s 1 0.449219 1 1 s -0.449219 1 -1 1 s -1 -0.449219 -1 -1 z m 0 0"/>
        <g fill-opacity="0.35">
            <path d="m 2.5 2.5 l 1.5 3.5 l 1.5 -0.5 l 0.5 -1.5 z m 0 0"/>
            <path d="m 13.5 2.5 l -3.5 1.5 l 0.5 1.5 l 1.5 0.5 z m 0 0"/>
            <path d="m 13.5 13.5 l -1.5 -3.5 l -1.5 0.5 l -0.5 1.5 z m 0 0"/>
            <path d="m 2.5 13.5 l 3.5 -1.5 l -0.5 -1.5 l -1.5 -0.5 z m 0 0"/>
        </g>
    </g>
</svg>
