<?xml version="1.0" encoding="UTF-8"?>
<svg height="16px" viewBox="0 0 16 16" width="16px" xmlns="http://www.w3.org/2000/svg" xmlns:xlink="http://www.w3.org/1999/xlink">
    <filter id="a" height="100%" width="100%" x="0%" y="0%">
        <feColorMatrix color-interpolation-filters="sRGB" values="0 0 0 0 1 0 0 0 0 1 0 0 0 0 1 0 0 0 1 0"/>
    </filter>
    <mask id="b">
        <g filter="url(#a)">
            <path d="m -1.6 -1.6 h 19.2 v 19.2 h -19.2 z" fill-opacity="0.5"/>
        </g>
    </mask>
    <clipPath id="c">
        <path d="m 0 0 h 1600 v 1200 h -1600 z"/>
    </clipPath>
    <mask id="d">
        <g filter="url(#a)">
            <path d="m -1.6 -1.6 h 19.2 v 19.2 h -19.2 z" fill-opacity="0.7"/>
        </g>
    </mask>
    <clipPath id="e">
        <path d="m 0 0 h 1600 v 1200 h -1600 z"/>
    </clipPath>
    <mask id="f">
        <g filter="url(#a)">
            <path d="m -1.6 -1.6 h 19.2 v 19.2 h -19.2 z" fill-opacity="0.35"/>
        </g>
    </mask>
    <clipPath id="g">
        <path d="m 0 0 h 1600 v 1200 h -1600 z"/>
    </clipPath>
    <path d="m 1.066406 2.042969 v 2.960937 h 5.964844 v -2.960937 z m 6.96875 0 v 2.960937 h 5.964844 v -2.960937 z m -7.035156 3.992187 v 2.960938 h 2 v -2.960938 z m 3.035156 0 v 2.960938 h 2.574219 c 0.691406 -1.359375 1.921875 -2.371094 3.390625 -2.789063 v -0.171875 z m 8.09375 0 c 0.652344 0.078125 1.285156 0.269532 1.871094 0.570313 v -0.570313 z m -11.0625 4.101563 v 2.960937 h 5.179688 c -0.160156 -0.519531 -0.246094 -1.058594 -0.246094 -1.601562 c 0.003906 -0.457032 0.0625 -0.914063 0.179688 -1.359375 z m 0 0" fill="#222222"/>
    <path d="m 11.4375 7.929688 c -0.40625 0 -0.792969 0.089843 -1.15625 0.21875 l 1.90625 1.90625 c 0.394531 0.390624 0.394531 1.011718 0 1.40625 l -0.71875 0.75 c -0.394531 0.390624 -1.011719 0.390624 -1.40625 0 l -1.9375 -1.9375 c -0.125 0.359374 -0.21875 0.75 -0.21875 1.15625 c 0 1.9375 1.585938 3.53125 3.53125 3.53125 c 0.40625 0 0.792969 -0.09375 1.15625 -0.21875 l 1.21875 1.1875 h 0.0625 l 2.09375 -2.09375 l -1.21875 -1.21875 c 0.128906 -0.363282 0.21875 -0.785157 0.21875 -1.1875 c 0 -1.941407 -1.582031 -3.5 -3.53125 -3.5 z m 0 0" fill="#222222"/>
    <g mask="url(#b)">
        <g clip-path="url(#c)" transform="matrix(1 0 0 1 -200 -584)">
            <path d="m 550 182 c -0.351562 0.003906 -0.695312 0.101562 -1 0.28125 v 3.4375 c 0.304688 0.179688 0.648438 0.277344 1 0.28125 c 1.105469 0 2 -0.894531 2 -2 s -0.894531 -2 -2 -2 z m 0 5 c -0.339844 0 -0.679688 0.058594 -1 0.175781 v 6.824219 h 4 v -4 c 0 -1.65625 -1.34375 -3 -3 -3 z m 0 0"/>
        </g>
    </g>
    <g mask="url(#d)">
        <g clip-path="url(#e)" transform="matrix(1 0 0 1 -200 -584)">
            <path d="m 569 182 v 4 c 1.105469 0 2 -0.894531 2 -2 s -0.894531 -2 -2 -2 z m 0 5 v 7 h 3 v -4 c 0 -1.65625 -1.34375 -3 -3 -3 z m 0 0"/>
        </g>
    </g>
    <g mask="url(#f)">
        <g clip-path="url(#g)" transform="matrix(1 0 0 1 -200 -584)">
            <path d="m 573 182.269531 v 3.449219 c 0.613281 -0.355469 0.996094 -1.007812 1 -1.71875 c 0 -0.714844 -0.382812 -1.375 -1 -1.730469 z m 0 4.90625 v 6.824219 h 2 v -4 c 0 -1.269531 -0.800781 -2.402344 -2 -2.824219 z m 0 0"/>
        </g>
    </g>
</svg>
