<?xml version="1.0" encoding="UTF-8"?>
<svg height="16px" viewBox="0 0 16 16" width="16px" xmlns="http://www.w3.org/2000/svg" xmlns:xlink="http://www.w3.org/1999/xlink">
    <filter id="a" height="100%" width="100%" x="0%" y="0%">
        <feColorMatrix color-interpolation-filters="sRGB" values="0 0 0 0 1 0 0 0 0 1 0 0 0 0 1 0 0 0 1 0"/>
    </filter>
    <mask id="b">
        <g filter="url(#a)">
            <path d="m -1.6 -1.6 h 19.2 v 19.2 h -19.2 z" fill-opacity="0.5"/>
        </g>
    </mask>
    <clipPath id="c">
        <path d="m 0 0 h 1600 v 1200 h -1600 z"/>
    </clipPath>
    <mask id="d">
        <g filter="url(#a)">
            <path d="m -1.6 -1.6 h 19.2 v 19.2 h -19.2 z" fill-opacity="0.7"/>
        </g>
    </mask>
    <clipPath id="e">
        <path d="m 0 0 h 1600 v 1200 h -1600 z"/>
    </clipPath>
    <mask id="f">
        <g filter="url(#a)">
            <path d="m -1.6 -1.6 h 19.2 v 19.2 h -19.2 z" fill-opacity="0.35"/>
        </g>
    </mask>
    <clipPath id="g">
        <path d="m 0 0 h 1600 v 1200 h -1600 z"/>
    </clipPath>
    <g fill="#222222">
        <path d="m 14 1 l -5.207031 4.972656 l 1.566406 1.527344 l 5.640625 -5.5 v -1 z m -6.804688 6.5 l -2.976562 2.84375 l 1.6875 1.5 l 2.886719 -2.816406 z m 0 0"/>
        <path d="m 4.21875 5.65625 l 9.78125 9.34375 h 2 v -1 l -10.09375 -9.84375 z m 0 0"/>
        <path d="m 5.972656 1.019531 c -1.359375 -1.359375 -3.59375 -1.359375 -4.953125 0 c -1.359375 1.359375 -1.359375 3.59375 0 4.953125 s 3.59375 1.359375 4.953125 0 s 1.359375 -3.59375 0 -4.953125 z m -1.414062 1.414063 c 0.597656 0.59375 0.597656 1.53125 0 2.125 c -0.59375 0.597656 -1.527344 0.59375 -2.125 0 c -0.59375 -0.59375 -0.59375 -1.527344 0 -2.125 c 0.597656 -0.59375 1.53125 -0.59375 2.125 0 z m 0 0"/>
        <path d="m 5.972656 10.019531 c -1.359375 -1.359375 -3.59375 -1.359375 -4.953125 0 c -1.359375 1.359375 -1.359375 3.597657 0 4.957031 c 1.359375 1.359376 3.59375 1.355469 4.953125 -0.003906 s 1.359375 -3.589844 0 -4.949218 z m -1.414062 1.414063 c 0.597656 0.597656 0.597656 1.53125 0 2.125 c -0.59375 0.597656 -1.527344 0.597656 -2.125 0 c -0.59375 -0.59375 -0.59375 -1.53125 0 -2.125 c 0.597656 -0.59375 1.53125 -0.59375 2.125 0 z m 0 0"/>
    </g>
    <g mask="url(#b)">
        <g clip-path="url(#c)" transform="matrix(1 0 0 1 -760 -744)">
            <path d="m 550 182 c -0.351562 0.003906 -0.695312 0.101562 -1 0.28125 v 3.4375 c 0.304688 0.179688 0.648438 0.277344 1 0.28125 c 1.105469 0 2 -0.894531 2 -2 s -0.894531 -2 -2 -2 z m 0 5 c -0.339844 0 -0.679688 0.058594 -1 0.175781 v 6.824219 h 4 v -4 c 0 -1.65625 -1.34375 -3 -3 -3 z m 0 0"/>
        </g>
    </g>
    <g mask="url(#d)">
        <g clip-path="url(#e)" transform="matrix(1 0 0 1 -760 -744)">
            <path d="m 569 182 v 4 c 1.105469 0 2 -0.894531 2 -2 s -0.894531 -2 -2 -2 z m 0 5 v 7 h 3 v -4 c 0 -1.65625 -1.34375 -3 -3 -3 z m 0 0"/>
        </g>
    </g>
    <g mask="url(#f)">
        <g clip-path="url(#g)" transform="matrix(1 0 0 1 -760 -744)">
            <path d="m 573 182.269531 v 3.449219 c 0.613281 -0.355469 0.996094 -1.007812 1 -1.71875 c 0 -0.714844 -0.382812 -1.375 -1 -1.730469 z m 0 4.90625 v 6.824219 h 2 v -4 c 0 -1.269531 -0.800781 -2.402344 -2 -2.824219 z m 0 0"/>
        </g>
    </g>
</svg>
