<?xml version="1.0" encoding="UTF-8"?>
<svg height="16px" viewBox="0 0 16 16" width="16px" xmlns="http://www.w3.org/2000/svg" xmlns:xlink="http://www.w3.org/1999/xlink">
    <filter id="a" height="100%" width="100%" x="0%" y="0%">
        <feColorMatrix color-interpolation-filters="sRGB" values="0 0 0 0 1 0 0 0 0 1 0 0 0 0 1 0 0 0 1 0"/>
    </filter>
    <mask id="b">
        <g filter="url(#a)">
            <path d="m -1.6 -1.6 h 19.2 v 19.2 h -19.2 z" fill-opacity="0.5"/>
        </g>
    </mask>
    <clipPath id="c">
        <path d="m 0 0 h 1600 v 1200 h -1600 z"/>
    </clipPath>
    <mask id="d">
        <g filter="url(#a)">
            <path d="m -1.6 -1.6 h 19.2 v 19.2 h -19.2 z" fill-opacity="0.7"/>
        </g>
    </mask>
    <clipPath id="e">
        <path d="m 0 0 h 1600 v 1200 h -1600 z"/>
    </clipPath>
    <mask id="f">
        <g filter="url(#a)">
            <path d="m -1.6 -1.6 h 19.2 v 19.2 h -19.2 z" fill-opacity="0.35"/>
        </g>
    </mask>
    <clipPath id="g">
        <path d="m 0 0 h 1600 v 1200 h -1600 z"/>
    </clipPath>
    <g fill="#222222">
        <path d="m 8 1 c -2.941406 0 -5.574219 1.84375 -6.582031 4.605469 c -1.003907 2.761719 -0.171875 5.867187 2.078125 7.757812 c 2.253906 1.890625 5.457031 2.167969 8.003906 0.699219 l -1 -1.730469 c -1.824219 1.054688 -4.101562 0.855469 -5.714844 -0.5 c -1.613281 -1.355469 -2.207031 -3.5625 -1.488281 -5.542969 c 0.722656 -1.980468 2.597656 -3.289062 4.703125 -3.289062 z m 0 0"/>
        <path d="m 9.808594 1.238281 l -0.515625 1.929688 c 0.847656 0.230469 1.621093 0.675781 2.242187 1.296875 l 1.414063 -1.414063 c -0.871094 -0.871093 -1.953125 -1.496093 -3.140625 -1.8125 z m 0 0"/>
        <path d="m 8 5 c -0.550781 0 -1 0.449219 -1 1 v 2 c 0 0.265625 0.105469 0.519531 0.292969 0.707031 l 2 2 c 0.390625 0.390625 1.023437 0.390625 1.414062 0 s 0.390625 -1.023437 0 -1.414062 l -1.707031 -1.707031 v -1.585938 c 0 -0.550781 -0.449219 -1 -1 -1 z m 0 0"/>
        <path d="m 14.0625 4.5 l -1.734375 1 c 0.441406 0.761719 0.671875 1.621094 0.671875 2.5 h 2 c 0 -1.230469 -0.324219 -2.4375 -0.9375 -3.5 z m 0 0"/>
        <path d="m 12.828125 9.292969 c -0.226563 0.851562 -0.671875 1.625 -1.292969 2.246093 l 1.414063 1.410157 c 0.867187 -0.867188 1.496093 -1.949219 1.8125 -3.136719 z m 0 0"/>
    </g>
    <g mask="url(#b)">
        <g clip-path="url(#c)" transform="matrix(1 0 0 1 -640 -400)">
            <path d="m 550 182 c -0.351562 0.003906 -0.695312 0.101562 -1 0.28125 v 3.4375 c 0.304688 0.179688 0.648438 0.277344 1 0.28125 c 1.105469 0 2 -0.894531 2 -2 s -0.894531 -2 -2 -2 z m 0 5 c -0.339844 0 -0.679688 0.058594 -1 0.175781 v 6.824219 h 4 v -4 c 0 -1.65625 -1.34375 -3 -3 -3 z m 0 0"/>
        </g>
    </g>
    <g mask="url(#d)">
        <g clip-path="url(#e)" transform="matrix(1 0 0 1 -640 -400)">
            <path d="m 569 182 v 4 c 1.105469 0 2 -0.894531 2 -2 s -0.894531 -2 -2 -2 z m 0 5 v 7 h 3 v -4 c 0 -1.65625 -1.34375 -3 -3 -3 z m 0 0"/>
        </g>
    </g>
    <g mask="url(#f)">
        <g clip-path="url(#g)" transform="matrix(1 0 0 1 -640 -400)">
            <path d="m 573 182.269531 v 3.449219 c 0.613281 -0.355469 0.996094 -1.007812 1 -1.71875 c 0 -0.714844 -0.382812 -1.375 -1 -1.730469 z m 0 4.90625 v 6.824219 h 2 v -4 c 0 -1.269531 -0.800781 -2.402344 -2 -2.824219 z m 0 0"/>
        </g>
    </g>
</svg>
