<?xml version="1.0" encoding="UTF-8"?>
<svg height="16px" viewBox="0 0 16 16" width="16px" xmlns="http://www.w3.org/2000/svg">
    <g fill="#2e3436">
        <path d="m 4.332031 1.058594 c -0.859375 0.003906 -2.359375 0.914062 -2.359375 2.523437 v 9.851563 c 0 0.859375 0.707032 1.5625 1.5625 1.5625 h 9.4375 c 1.125 0.03125 0.933594 -0.988282 0.933594 -0.988282 l -9.335938 0.027344 c -2.28125 0.003906 -2.085937 -2.992187 -0.039062 -2.996094 l 9.410156 -0.011718 l 0.03125 -10 z m 0.636719 1.875 h 2.6875 c 3.316406 0 4.273438 1.265625 4.25 3.03125 c -0.03125 2.46875 -2.191406 3.011718 -4.8125 3.105468 c -0.625 0.019532 -1.507812 0.019532 -2.125 0.019532 z m 2.03125 1.0625 v 4.03125 c 1.941406 0.023437 2.996094 -0.683594 3 -2.0625 c 0.003906 -1.769532 -1.242188 -1.9375 -3 -1.96875 z m 0 0"/>
        <path d="m 2.460938 11.058594 h 10.449218 c -1.183594 0.492187 -1.296875 2.460937 0 3 h -10.449218 z m 0 0" fill-opacity="0.3"/>
    </g>
</svg>
