<?xml version="1.0" encoding="UTF-8" standalone="no"?>
<svg
   height="16px"
   viewBox="0 0 16 16"
   width="16px"
   version="1.1"
   id="svg8"
   sodipodi:docname="document-new-symbolic.svg"
   inkscape:version="1.1.1 (3bf5ae0d25, 2021-09-20)"
   xmlns:inkscape="http://www.inkscape.org/namespaces/inkscape"
   xmlns:sodipodi="http://sodipodi.sourceforge.net/DTD/sodipodi-0.dtd"
   xmlns="http://www.w3.org/2000/svg"
   xmlns:svg="http://www.w3.org/2000/svg">
  <defs
     id="defs12" />
  <sodipodi:namedview
     id="namedview10"
     pagecolor="#ffffff"
     bordercolor="#666666"
     borderopacity="1.0"
     inkscape:pageshadow="2"
     inkscape:pageopacity="0.0"
     inkscape:pagecheckerboard="0"
     showgrid="false"
     inkscape:zoom="46.5625"
     inkscape:cx="8"
     inkscape:cy="8"
     inkscape:window-width="1920"
     inkscape:window-height="1123"
     inkscape:window-x="0"
     inkscape:window-y="0"
     inkscape:window-maximized="1"
     inkscape:current-layer="svg8" />
  <path
     style="color:#000000;fill:#2e3436;stroke-linecap:square;-inkscape-stroke:none"
     d="m 261,735 v 1 6 1 h 2 v -1 -6 -1 z"
     id="path2"
     transform="matrix(0 1 1 0 -727.999878 -250)" />
  <path
     d="m 1 1 c 0 -0.550781 0.449219 -1 1 -1 h 9 c 0.265625 0 0.519531 0.105469 0.707031 0.292969 l 3 3 c 0.1875 0.1875 0.292969 0.441406 0.292969 0.707031 v 4 h -2 v -3.585938 l -2.414062 -2.414062 h -7.585938 v 12 h 4 v 2 h -5 c -0.550781 0 -1 -0.449219 -1 -1 z m 0 0"
     fill="#2e3436"
     fill-rule="evenodd"
     id="path4" />
  <path
     style="color:#000000;fill:#2e3436;stroke-linecap:square;-inkscape-stroke:none"
     d="m 258,738 v 2 h 1 6 1 v -2 h -1 -6 z"
     id="path6"
     transform="matrix(0 1 1 0 -727.999878 -250)" />
</svg>
