<?xml version="1.0" encoding="UTF-8"?>
<svg height="16px" viewBox="0 0 16 16" width="16px" xmlns="http://www.w3.org/2000/svg" xmlns:xlink="http://www.w3.org/1999/xlink">
    <filter id="a" height="100%" width="100%" x="0%" y="0%">
        <feColorMatrix color-interpolation-filters="sRGB" values="0 0 0 0 1 0 0 0 0 1 0 0 0 0 1 0 0 0 1 0"/>
    </filter>
    <mask id="b">
        <g filter="url(#a)">
            <path d="m -1.6 -1.6 h 19.2 v 19.2 h -19.2 z" fill-opacity="0.5"/>
        </g>
    </mask>
    <clipPath id="c">
        <path d="m 0 0 h 1600 v 1200 h -1600 z"/>
    </clipPath>
    <mask id="d">
        <g filter="url(#a)">
            <path d="m -1.6 -1.6 h 19.2 v 19.2 h -19.2 z" fill-opacity="0.7"/>
        </g>
    </mask>
    <clipPath id="e">
        <path d="m 0 0 h 1600 v 1200 h -1600 z"/>
    </clipPath>
    <mask id="f">
        <g filter="url(#a)">
            <path d="m -1.6 -1.6 h 19.2 v 19.2 h -19.2 z" fill-opacity="0.35"/>
        </g>
    </mask>
    <clipPath id="g">
        <path d="m 0 0 h 1600 v 1200 h -1600 z"/>
    </clipPath>
    <g mask="url(#b)">
        <g clip-path="url(#c)" transform="matrix(1 0 0 1 -260 -160)">
            <path d="m 550 182 c -0.351562 0.003906 -0.695312 0.101562 -1 0.28125 v 3.4375 c 0.304688 0.179688 0.648438 0.277344 1 0.28125 c 1.105469 0 2 -0.894531 2 -2 s -0.894531 -2 -2 -2 z m 0 5 c -0.339844 0 -0.679688 0.058594 -1 0.175781 v 6.824219 h 4 v -4 c 0 -1.65625 -1.34375 -3 -3 -3 z m 0 0"/>
        </g>
    </g>
    <g mask="url(#d)">
        <g clip-path="url(#e)" transform="matrix(1 0 0 1 -260 -160)">
            <path d="m 569 182 v 4 c 1.105469 0 2 -0.894531 2 -2 s -0.894531 -2 -2 -2 z m 0 5 v 7 h 3 v -4 c 0 -1.65625 -1.34375 -3 -3 -3 z m 0 0"/>
        </g>
    </g>
    <g mask="url(#f)">
        <g clip-path="url(#g)" transform="matrix(1 0 0 1 -260 -160)">
            <path d="m 573 182.269531 v 3.449219 c 0.613281 -0.355469 0.996094 -1.007812 1 -1.71875 c 0 -0.714844 -0.382812 -1.375 -1 -1.730469 z m 0 4.90625 v 6.824219 h 2 v -4 c 0 -1.269531 -0.800781 -2.402344 -2 -2.824219 z m 0 0"/>
        </g>
    </g>
    <path d="m 1.8125 0 c -1.003906 0 -1.8125 1.011719 -1.8125 2.265625 v 0.46875 c 0 0.890625 0.40625 1.65625 1 2.027344 v 5.238281 c 0 2.199219 1.800781 4 4 4 h 5.183594 c 0.421875 1.195312 1.550781 1.996094 2.816406 2 c 1.65625 0 3 -1.34375 3 -3 v -9 c 0 -1.65625 -1.34375 -3 -3 -3 h -4.519531 l -0.679688 0.960938 c -0.460937 0.660156 -1.214843 1.050781 -2.019531 1.050781 h -1.792969 c 0.007813 -0.09375 0.011719 -0.183594 0.011719 -0.277344 v -0.46875 c 0 -1.253906 -0.808594 -2.265625 -1.8125 -2.265625 z m 7.707031 3 h 0.480469 v 9 h -5 c -1.117188 0 -2 -0.882812 -2 -2 v -4.988281 h 2.78125 c 1.453125 0 2.816406 -0.707031 3.65625 -1.898438 z m -1.613281 2 c -0.503906 0 -0.90625 0.402344 -0.90625 0.90625 v 0.1875 c 0 0.503906 0.402344 0.90625 0.90625 0.90625 h 0.1875 c 0.503906 0 0.90625 -0.402344 0.90625 -0.90625 v -0.1875 c 0 -0.503906 -0.402344 -0.90625 -0.90625 -0.90625 z m 0 0" fill="#222222"/>
</svg>
