<?xml version="1.0" encoding="UTF-8"?>
<svg height="16px" viewBox="0 0 16 16" width="16px" xmlns="http://www.w3.org/2000/svg" xmlns:xlink="http://www.w3.org/1999/xlink">
    <filter id="a" height="100%" width="100%" x="0%" y="0%">
        <feColorMatrix color-interpolation-filters="sRGB" values="0 0 0 0 1 0 0 0 0 1 0 0 0 0 1 0 0 0 1 0"/>
    </filter>
    <mask id="b">
        <g filter="url(#a)">
            <path d="m -1.6 -1.6 h 19.2 v 19.2 h -19.2 z" fill-opacity="0.5"/>
        </g>
    </mask>
    <clipPath id="c">
        <path d="m 0 0 h 1600 v 1200 h -1600 z"/>
    </clipPath>
    <mask id="d">
        <g filter="url(#a)">
            <path d="m -1.6 -1.6 h 19.2 v 19.2 h -19.2 z" fill-opacity="0.7"/>
        </g>
    </mask>
    <clipPath id="e">
        <path d="m 0 0 h 1600 v 1200 h -1600 z"/>
    </clipPath>
    <mask id="f">
        <g filter="url(#a)">
            <path d="m -1.6 -1.6 h 19.2 v 19.2 h -19.2 z" fill-opacity="0.35"/>
        </g>
    </mask>
    <clipPath id="g">
        <path d="m 0 0 h 1600 v 1200 h -1600 z"/>
    </clipPath>
    <g mask="url(#b)">
        <g clip-path="url(#c)" transform="matrix(1 0 0 1 -80 -760)">
            <path d="m 550 182 c -0.351562 0.003906 -0.695312 0.101562 -1 0.28125 v 3.4375 c 0.304688 0.179688 0.648438 0.277344 1 0.28125 c 1.105469 0 2 -0.894531 2 -2 s -0.894531 -2 -2 -2 z m 0 5 c -0.339844 0 -0.679688 0.058594 -1 0.175781 v 6.824219 h 4 v -4 c 0 -1.65625 -1.34375 -3 -3 -3 z m 0 0"/>
        </g>
    </g>
    <g mask="url(#d)">
        <g clip-path="url(#e)" transform="matrix(1 0 0 1 -80 -760)">
            <path d="m 569 182 v 4 c 1.105469 0 2 -0.894531 2 -2 s -0.894531 -2 -2 -2 z m 0 5 v 7 h 3 v -4 c 0 -1.65625 -1.34375 -3 -3 -3 z m 0 0"/>
        </g>
    </g>
    <g mask="url(#f)">
        <g clip-path="url(#g)" transform="matrix(1 0 0 1 -80 -760)">
            <path d="m 573 182.269531 v 3.449219 c 0.613281 -0.355469 0.996094 -1.007812 1 -1.71875 c 0 -0.714844 -0.382812 -1.375 -1 -1.730469 z m 0 4.90625 v 6.824219 h 2 v -4 c 0 -1.269531 -0.800781 -2.402344 -2 -2.824219 z m 0 0"/>
        </g>
    </g>
    <path d="m 7.5 0 c -0.546875 0 -0.894531 0.09375 -1.507812 0.40625 c -2.03125 1.03125 -4.023438 3.871094 -4.722657 6.71875 c -0.402343 1.644531 -0.351562 3.382812 0.136719 4.804688 c 0.789062 2.304687 2.53125 3.796874 4.800781 4.039062 c 0.675781 0.050781 2.085938 0.039062 2.554688 -0.042969 c 0.910156 -0.152343 1.808593 -0.496093 2.539062 -0.972656 c 0.476563 -0.304687 1.203125 -1.015625 1.515625 -1.476563 c 0.480469 -0.707031 0.84375 -1.582031 1.011719 -2.4375 c 0.234375 -1.179687 0.226563 -2.308593 -0.019531 -3.523437 c -0.605469 -2.972656 -2.671875 -6.023437 -4.804688 -7.113281 c -0.613281 -0.308594 -0.960937 -0.402344 -1.503906 -0.402344 z m -0.203125 1.992188 c 0.035156 0 0.082031 0.007812 0.203125 0.007812 c 0.316406 0 0.113281 -0.058594 0.59375 0.1875 c 1.253906 0.636719 3.273438 3.363281 3.753906 5.730469 c 0.203125 0.980469 0.203125 1.796875 0.019532 2.738281 c -0.925782 2.347656 -1.949219 3.691406 -5.457032 3.320312 c -1.511718 -0.167968 -2.53125 -1 -3.113281 -2.695312 c -0.339844 -0.988281 -0.398437 -2.386719 -0.082031 -3.679688 c 0.558594 -2.292968 2.503906 -4.8125 3.6875 -5.414062 c 0.300781 -0.152344 0.332031 -0.1875 0.394531 -0.191406 z m 0 0" fill="#222222"/>
</svg>
