<?xml version="1.0" encoding="UTF-8"?>
<svg height="16px" viewBox="0 0 16 16" width="16px" xmlns="http://www.w3.org/2000/svg" xmlns:xlink="http://www.w3.org/1999/xlink">
    <filter id="a" height="100%" width="100%" x="0%" y="0%">
        <feColorMatrix color-interpolation-filters="sRGB" values="0 0 0 0 1 0 0 0 0 1 0 0 0 0 1 0 0 0 1 0"/>
    </filter>
    <mask id="b">
        <g filter="url(#a)">
            <path d="m -1.6 -1.6 h 19.2 v 19.2 h -19.2 z" fill-opacity="0.5"/>
        </g>
    </mask>
    <clipPath id="c">
        <path d="m 0 0 h 1600 v 1200 h -1600 z"/>
    </clipPath>
    <mask id="d">
        <g filter="url(#a)">
            <path d="m -1.6 -1.6 h 19.2 v 19.2 h -19.2 z" fill-opacity="0.7"/>
        </g>
    </mask>
    <clipPath id="e">
        <path d="m 0 0 h 1600 v 1200 h -1600 z"/>
    </clipPath>
    <mask id="f">
        <g filter="url(#a)">
            <path d="m -1.6 -1.6 h 19.2 v 19.2 h -19.2 z" fill-opacity="0.35"/>
        </g>
    </mask>
    <clipPath id="g">
        <path d="m 0 0 h 1600 v 1200 h -1600 z"/>
    </clipPath>
    <g mask="url(#b)">
        <g clip-path="url(#c)" transform="matrix(1 0 0 1 -60 -80)">
            <path d="m 550 182 c -0.351562 0.003906 -0.695312 0.101562 -1 0.28125 v 3.4375 c 0.304688 0.179688 0.648438 0.277344 1 0.28125 c 1.105469 0 2 -0.894531 2 -2 s -0.894531 -2 -2 -2 z m 0 5 c -0.339844 0 -0.679688 0.058594 -1 0.175781 v 6.824219 h 4 v -4 c 0 -1.65625 -1.34375 -3 -3 -3 z m 0 0"/>
        </g>
    </g>
    <g mask="url(#d)">
        <g clip-path="url(#e)" transform="matrix(1 0 0 1 -60 -80)">
            <path d="m 569 182 v 4 c 1.105469 0 2 -0.894531 2 -2 s -0.894531 -2 -2 -2 z m 0 5 v 7 h 3 v -4 c 0 -1.65625 -1.34375 -3 -3 -3 z m 0 0"/>
        </g>
    </g>
    <g mask="url(#f)">
        <g clip-path="url(#g)" transform="matrix(1 0 0 1 -60 -80)">
            <path d="m 573 182.269531 v 3.449219 c 0.613281 -0.355469 0.996094 -1.007812 1 -1.71875 c 0 -0.714844 -0.382812 -1.375 -1 -1.730469 z m 0 4.90625 v 6.824219 h 2 v -4 c 0 -1.269531 -0.800781 -2.402344 -2 -2.824219 z m 0 0"/>
        </g>
    </g>
    <g fill="#2e3436">
        <path d="m 9 14 c -0.546875 0 -1 -0.453125 -1 -1 s 0.453125 -1 1 -1 s 1 0.453125 1 1 s -0.453125 1 -1 1 z m 0 -4 c -1.660156 0 -3 1.339844 -3 3 s 1.339844 3 3 3 s 3 -1.339844 3 -3 s -1.339844 -3 -3 -3 z m 0 0"/>
        <path d="m 15 14 h -4 v -2 h 4 z m 0 0"/>
        <path d="m 7 14 h -6 c -0.550781 0 -1 -0.449219 -1 -1 s 0.449219 -1 1 -1 h 6 c 0.550781 0 1 0.449219 1 1 s -0.449219 1 -1 1 z m 0 0"/>
        <path d="m 3 13 v -6 c 0 -3.320312 2.679688 -6 6 -6 h 6 v 2 h -6 c -2.203125 0 -4 1.796875 -4 4 v 6 z m 0 0"/>
        <path d="m 3.777344 11.457031 l -2.617188 -1.339843 c -1.339844 -0.6875 -1.59375 -2.480469 -0.496094 -3.511719 l 4.238282 -3.96875 l 0.683594 0.726562 l -4.238282 3.972657 c -0.585937 0.546874 -0.449218 1.523437 0.265625 1.890624 l 2.621094 1.339844 z m 0 0"/>
        <path d="m 9.4375 9 h -1.355469 c -0.179687 0 -0.347656 -0.097656 -0.433593 -0.253906 c -0.089844 -0.160156 -0.085938 -0.351563 0.007812 -0.507813 l 1.195312 -1.957031 l 0.855469 0.523438 l -1.195312 1.957031 l -0.429688 -0.761719 h 1.355469 z m 3.304688 -1.996094 l 0.765624 1.230469 c 0.097657 0.15625 0.101563 0.351563 0.011719 0.507813 c -0.085937 0.160156 -0.253906 0.257812 -0.4375 0.257812 h -2.628906 v -1 h 2.628906 l -0.421875 0.765625 l -0.769531 -1.234375 z m -3.304688 -1.6875 l 0.644531 -1.074218 c 0.089844 -0.144532 0.246094 -0.238282 0.414063 -0.242188 c 0.171875 -0.003906 0.332031 0.078125 0.429687 0.222656 l 1.273438 1.886719 l -0.828125 0.558594 l -1.273438 -1.886719 l 0.84375 -0.023438 l -0.644531 1.074219 z m 0 0"/>
    </g>
</svg>
