<?xml version="1.0" encoding="UTF-8"?>
<svg height="16px" viewBox="0 0 16 16" width="16px" xmlns="http://www.w3.org/2000/svg" xmlns:xlink="http://www.w3.org/1999/xlink">
    <filter id="a" height="100%" width="100%" x="0%" y="0%">
        <feColorMatrix color-interpolation-filters="sRGB" values="0 0 0 0 1 0 0 0 0 1 0 0 0 0 1 0 0 0 1 0"/>
    </filter>
    <mask id="b">
        <g filter="url(#a)">
            <path d="m -1.6 -1.6 h 19.2 v 19.2 h -19.2 z" fill-opacity="0.5"/>
        </g>
    </mask>
    <clipPath id="c">
        <path d="m 0 0 h 1600 v 1200 h -1600 z"/>
    </clipPath>
    <mask id="d">
        <g filter="url(#a)">
            <path d="m -1.6 -1.6 h 19.2 v 19.2 h -19.2 z" fill-opacity="0.7"/>
        </g>
    </mask>
    <clipPath id="e">
        <path d="m 0 0 h 1600 v 1200 h -1600 z"/>
    </clipPath>
    <mask id="f">
        <g filter="url(#a)">
            <path d="m -1.6 -1.6 h 19.2 v 19.2 h -19.2 z" fill-opacity="0.35"/>
        </g>
    </mask>
    <clipPath id="g">
        <path d="m 0 0 h 1600 v 1200 h -1600 z"/>
    </clipPath>
    <g mask="url(#b)">
        <g clip-path="url(#c)" transform="matrix(1 0 0 1 -80 -80)">
            <path d="m 550 182 c -0.351562 0.003906 -0.695312 0.101562 -1 0.28125 v 3.4375 c 0.304688 0.179688 0.648438 0.277344 1 0.28125 c 1.105469 0 2 -0.894531 2 -2 s -0.894531 -2 -2 -2 z m 0 5 c -0.339844 0 -0.679688 0.058594 -1 0.175781 v 6.824219 h 4 v -4 c 0 -1.65625 -1.34375 -3 -3 -3 z m 0 0"/>
        </g>
    </g>
    <g mask="url(#d)">
        <g clip-path="url(#e)" transform="matrix(1 0 0 1 -80 -80)">
            <path d="m 569 182 v 4 c 1.105469 0 2 -0.894531 2 -2 s -0.894531 -2 -2 -2 z m 0 5 v 7 h 3 v -4 c 0 -1.65625 -1.34375 -3 -3 -3 z m 0 0"/>
        </g>
    </g>
    <g mask="url(#f)">
        <g clip-path="url(#g)" transform="matrix(1 0 0 1 -80 -80)">
            <path d="m 573 182.269531 v 3.449219 c 0.613281 -0.355469 0.996094 -1.007812 1 -1.71875 c 0 -0.714844 -0.382812 -1.375 -1 -1.730469 z m 0 4.90625 v 6.824219 h 2 v -4 c 0 -1.269531 -0.800781 -2.402344 -2 -2.824219 z m 0 0"/>
        </g>
    </g>
    <g fill="#2e3436">
        <path d="m 5.507812 9.390625 l 3.96875 -6.875 c 0.273438 -0.472656 0.894532 -0.640625 1.367188 -0.367187 l 2.652344 1.53125 c 0.472656 0.273437 0.640625 0.894531 0.367187 1.367187 l -3.96875 6.875 l 1.730469 1 l 3.96875 -6.875 c 0.832031 -1.4375 0.339844 -3.265625 -1.097656 -4.097656 l -2.652344 -1.53125 c -1.441406 -0.832031 -3.265625 -0.339844 -4.097656 1.097656 l -3.96875 6.875 z m 0 0"/>
        <path d="m 8.679688 7.796875 l 2 -3.460937 c 0.089843 -0.15625 0.089843 -0.347657 0 -0.503907 c -0.089844 -0.152343 -0.253907 -0.25 -0.433594 -0.25 c -0.179688 0 -0.34375 0.097657 -0.433594 0.253907 l -2 3.460937 c -0.089844 0.15625 -0.089844 0.347656 0 0.503906 c 0.089844 0.152344 0.253906 0.25 0.433594 0.25 c 0.179687 0 0.34375 -0.097656 0.433594 -0.253906 z m 0 0"/>
        <path d="m 10.464844 8.832031 l 2 -3.464843 c 0.089844 -0.15625 0.089844 -0.347657 0 -0.503907 c -0.089844 -0.152343 -0.253906 -0.25 -0.433594 -0.25 s -0.34375 0.097657 -0.433594 0.253907 l -2 3.464843 c -0.089844 0.152344 -0.089844 0.34375 0 0.5 c 0.089844 0.152344 0.253906 0.25 0.433594 0.25 s 0.34375 -0.097656 0.433594 -0.25 z m 0 0"/>
        <path d="m 4.269531 7.5625 l 7.792969 4.5 l -0.5 0.867188 l -7.792969 -4.5 z m 0 0"/>
        <path d="m 4 11 c 0.550781 0 1 0.449219 1 1 s -0.449219 1 -1 1 s -1 -0.449219 -1 -1 s 0.449219 -1 1 -1 z m 0 0"/>
        <path d="m 5.5 13 c 0.828125 0 1.5 0.671875 1.5 1.5 s -0.671875 1.5 -1.5 1.5 s -1.5 -0.671875 -1.5 -1.5 s 0.671875 -1.5 1.5 -1.5 z m 0 0"/>
        <path d="m 8 12 c 0.550781 0 1 0.449219 1 1 s -0.449219 1 -1 1 s -1 -0.449219 -1 -1 s 0.449219 -1 1 -1 z m 0 0"/>
        <path d="m 2.5 0 c 0.277344 0 0.5 0.222656 0.5 0.5 v 9 c 0 0.277344 -0.222656 0.5 -0.5 0.5 s -0.5 -0.222656 -0.5 -0.5 v -9 c 0 -0.277344 0.222656 -0.5 0.5 -0.5 z m 0 0"/>
        <path d="m 0 4 v 2 c 0 0.550781 0.449219 1 1 1 h 1.5 c 0.277344 0 0.5 -0.222656 0.5 -0.5 s -0.222656 -0.5 -0.5 -0.5 h -1.082031 c -0.230469 0 -0.417969 -0.1875 -0.417969 -0.417969 v -1.210937 c 0 -0.203125 0.167969 -0.371094 0.371094 -0.371094 h 1.128906 c 0.277344 0 0.5 -0.222656 0.5 -0.5 s -0.222656 -0.5 -0.5 -0.5 h -1.5 c -0.550781 0 -1 0.449219 -1 1 z m 0 0"/>
    </g>
</svg>
