<?xml version="1.0" encoding="UTF-8"?>
<svg height="16px" viewBox="0 0 16 16" width="16px" xmlns="http://www.w3.org/2000/svg" xmlns:xlink="http://www.w3.org/1999/xlink">
    <filter id="a" height="100%" width="100%" x="0%" y="0%">
        <feColorMatrix color-interpolation-filters="sRGB" values="0 0 0 0 1 0 0 0 0 1 0 0 0 0 1 0 0 0 1 0"/>
    </filter>
    <mask id="b">
        <g filter="url(#a)">
            <path d="m -1.6 -1.6 h 19.2 v 19.2 h -19.2 z" fill-opacity="0.5"/>
        </g>
    </mask>
    <clipPath id="c">
        <path d="m 0 0 h 1600 v 1200 h -1600 z"/>
    </clipPath>
    <mask id="d">
        <g filter="url(#a)">
            <path d="m -1.6 -1.6 h 19.2 v 19.2 h -19.2 z" fill-opacity="0.7"/>
        </g>
    </mask>
    <clipPath id="e">
        <path d="m 0 0 h 1600 v 1200 h -1600 z"/>
    </clipPath>
    <mask id="f">
        <g filter="url(#a)">
            <path d="m -1.6 -1.6 h 19.2 v 19.2 h -19.2 z" fill-opacity="0.35"/>
        </g>
    </mask>
    <clipPath id="g">
        <path d="m 0 0 h 1600 v 1200 h -1600 z"/>
    </clipPath>
    <path d="m 8 1 c -0.207031 0 -0.390625 0.125 -0.46875 0.320312 l -1.726562 4.488282 l -4.484376 1.722656 c -0.425781 0.167969 -0.425781 0.769531 0 0.9375 l 4.484376 1.722656 l 1.726562 4.488282 c 0.167969 0.425781 0.769531 0.425781 0.9375 0 l 1.726562 -4.488282 l 4.484376 -1.722656 c 0.425781 -0.167969 0.425781 -0.769531 0 -0.9375 l -4.484376 -1.722656 l -1.726562 -4.488282 c -0.074219 -0.191406 -0.261719 -0.320312 -0.46875 -0.320312 z m 0 6 c 0.550781 0 1 0.449219 1 1 s -0.449219 1 -1 1 s -1 -0.449219 -1 -1 s 0.449219 -1 1 -1 z m 0 0" fill="#222222"/>
    <path d="m 3.480469 3 c -0.363281 0.011719 -0.589844 0.398438 -0.429688 0.722656 l 0.871094 1.738282 l 1.109375 -0.429688 l 0.429688 -1.109375 l -1.738282 -0.871094 c -0.074218 -0.035156 -0.15625 -0.054687 -0.242187 -0.050781 z m 9.039062 0 c -0.085937 -0.003906 -0.167969 0.015625 -0.242187 0.050781 l -1.738282 0.871094 l 0.429688 1.109375 l 1.109375 0.429688 l 0.871094 -1.738282 c 0.160156 -0.324218 -0.066407 -0.710937 -0.429688 -0.722656 z m -8.597656 7.539062 l -0.871094 1.738282 c -0.210937 0.429687 0.242188 0.882812 0.671875 0.671875 l 1.738282 -0.871094 l -0.429688 -1.109375 z m 8.15625 0 l -1.109375 0.429688 l -0.429688 1.109375 l 1.738282 0.871094 c 0.429687 0.210937 0.882812 -0.242188 0.671875 -0.671875 z m 0 0" fill="#222222"/>
    <g mask="url(#b)">
        <g clip-path="url(#c)" transform="matrix(1 0 0 1 -600 -80)">
            <path d="m 550 182 c -0.351562 0.003906 -0.695312 0.101562 -1 0.28125 v 3.4375 c 0.304688 0.179688 0.648438 0.277344 1 0.28125 c 1.105469 0 2 -0.894531 2 -2 s -0.894531 -2 -2 -2 z m 0 5 c -0.339844 0 -0.679688 0.058594 -1 0.175781 v 6.824219 h 4 v -4 c 0 -1.65625 -1.34375 -3 -3 -3 z m 0 0"/>
        </g>
    </g>
    <g mask="url(#d)">
        <g clip-path="url(#e)" transform="matrix(1 0 0 1 -600 -80)">
            <path d="m 569 182 v 4 c 1.105469 0 2 -0.894531 2 -2 s -0.894531 -2 -2 -2 z m 0 5 v 7 h 3 v -4 c 0 -1.65625 -1.34375 -3 -3 -3 z m 0 0"/>
        </g>
    </g>
    <g mask="url(#f)">
        <g clip-path="url(#g)" transform="matrix(1 0 0 1 -600 -80)">
            <path d="m 573 182.269531 v 3.449219 c 0.613281 -0.355469 0.996094 -1.007812 1 -1.71875 c 0 -0.714844 -0.382812 -1.375 -1 -1.730469 z m 0 4.90625 v 6.824219 h 2 v -4 c 0 -1.269531 -0.800781 -2.402344 -2 -2.824219 z m 0 0"/>
        </g>
    </g>
</svg>
