<?xml version="1.0" encoding="UTF-8"?>
<svg height="16px" viewBox="0 0 16 16" width="16px" xmlns="http://www.w3.org/2000/svg" xmlns:xlink="http://www.w3.org/1999/xlink">
    <filter id="a" height="100%" width="100%" x="0%" y="0%">
        <feColorMatrix color-interpolation-filters="sRGB" values="0 0 0 0 1 0 0 0 0 1 0 0 0 0 1 0 0 0 1 0"/>
    </filter>
    <mask id="b">
        <g filter="url(#a)">
            <path d="m -1.6 -1.6 h 19.2 v 19.2 h -19.2 z" fill-opacity="0.5"/>
        </g>
    </mask>
    <clipPath id="c">
        <path d="m 0 0 h 1600 v 1200 h -1600 z"/>
    </clipPath>
    <mask id="d">
        <g filter="url(#a)">
            <path d="m -1.6 -1.6 h 19.2 v 19.2 h -19.2 z" fill-opacity="0.7"/>
        </g>
    </mask>
    <clipPath id="e">
        <path d="m 0 0 h 1600 v 1200 h -1600 z"/>
    </clipPath>
    <mask id="f">
        <g filter="url(#a)">
            <path d="m -1.6 -1.6 h 19.2 v 19.2 h -19.2 z" fill-opacity="0.35"/>
        </g>
    </mask>
    <clipPath id="g">
        <path d="m 0 0 h 1600 v 1200 h -1600 z"/>
    </clipPath>
    <g mask="url(#b)">
        <g clip-path="url(#c)" transform="matrix(1 0 0 1 -60 -240)">
            <path d="m 550 182 c -0.351562 0.003906 -0.695312 0.101562 -1 0.28125 v 3.4375 c 0.304688 0.179688 0.648438 0.277344 1 0.28125 c 1.105469 0 2 -0.894531 2 -2 s -0.894531 -2 -2 -2 z m 0 5 c -0.339844 0 -0.679688 0.058594 -1 0.175781 v 6.824219 h 4 v -4 c 0 -1.65625 -1.34375 -3 -3 -3 z m 0 0"/>
        </g>
    </g>
    <g mask="url(#d)">
        <g clip-path="url(#e)" transform="matrix(1 0 0 1 -60 -240)">
            <path d="m 569 182 v 4 c 1.105469 0 2 -0.894531 2 -2 s -0.894531 -2 -2 -2 z m 0 5 v 7 h 3 v -4 c 0 -1.65625 -1.34375 -3 -3 -3 z m 0 0"/>
        </g>
    </g>
    <g mask="url(#f)">
        <g clip-path="url(#g)" transform="matrix(1 0 0 1 -60 -240)">
            <path d="m 573 182.269531 v 3.449219 c 0.613281 -0.355469 0.996094 -1.007812 1 -1.71875 c 0 -0.714844 -0.382812 -1.375 -1 -1.730469 z m 0 4.90625 v 6.824219 h 2 v -4 c 0 -1.269531 -0.800781 -2.402344 -2 -2.824219 z m 0 0"/>
        </g>
    </g>
    <path d="m 6.707031 14 c -0.316406 -0.027344 -0.53125 -0.335938 -0.4375 -0.640625 l 0.425781 -1.542969 c -0.425781 -0.109375 -0.839843 -0.261718 -1.238281 -0.457031 l -1.023437 1.765625 c -0.09375 0.164062 -0.269532 0.261719 -0.457032 0.253906 c -0.378906 -0.011718 -0.605468 -0.429687 -0.410156 -0.757812 l 1.015625 -1.757813 c -0.335937 -0.214843 -0.664062 -0.449219 -0.976562 -0.703125 l -1.25 1.253906 c -0.097657 0.097657 -0.226563 0.152344 -0.363281 0.152344 c -0.445313 -0.003906 -0.664063 -0.546875 -0.347657 -0.859375 l 1.222657 -1.21875 c -0.28125 -0.265625 -0.546876 -0.523437 -0.792969 -0.792969 l -0.71875 0.71875 c -0.097657 0.097657 -0.226563 0.152344 -0.363281 0.152344 c -0.445313 -0.003906 -0.664063 -0.546875 -0.347657 -0.859375 l 0.765625 -0.761719 c -0.886718 -1.078124 -1.410156 -1.945312 -1.410156 -1.945312 h 2 s 2.132812 4 6 4 s 6 -4 6 -4 h 2 s -0.523438 0.867188 -1.410156 1.945312 l 0.765625 0.761719 c 0.324219 0.320313 0.089843 0.871094 -0.367188 0.859375 c -0.128906 -0.003906 -0.25 -0.058594 -0.34375 -0.152344 l -0.71875 -0.71875 c -0.199219 0.21875 -0.410156 0.425782 -0.632812 0.644532 l 1.101562 1.414062 c 0.269531 0.335938 0.015625 0.835938 -0.414062 0.8125 c -0.148438 -0.007812 -0.285157 -0.082031 -0.375 -0.199218 l -1.050781 -1.34375 c -0.261719 0.21875 -0.527344 0.429687 -0.808594 0.628906 l 1.074218 1.738281 c 0.21875 0.34375 -0.046874 0.789063 -0.453124 0.765625 c -0.164063 -0.007812 -0.3125 -0.097656 -0.398438 -0.242188 l -1.074219 -1.738281 c -0.367187 0.199219 -0.742187 0.371094 -1.128906 0.503907 l 0.570313 1.648437 c 0.117187 0.320313 -0.117188 0.664063 -0.460938 0.671875 c -0.21875 0.003906 -0.414062 -0.136719 -0.480469 -0.34375 l -0.601562 -1.722656 c -0.257813 0.042968 -0.523438 0.066406 -0.792969 0.066406 c -0.105469 0 -0.207031 -0.019531 -0.3125 -0.027344 l -0.457031 1.652344 c -0.054688 0.21875 -0.25 0.371094 -0.472657 0.375 c -0.019531 0 -0.035156 0 -0.054687 0 z m 0 0" fill="#222222"/>
</svg>
