<?xml version="1.0" encoding="UTF-8"?>
<svg height="16px" viewBox="0 0 16 16" width="16px" xmlns="http://www.w3.org/2000/svg" xmlns:xlink="http://www.w3.org/1999/xlink">
    <filter id="a" height="100%" width="100%" x="0%" y="0%">
        <feColorMatrix color-interpolation-filters="sRGB" values="0 0 0 0 1 0 0 0 0 1 0 0 0 0 1 0 0 0 1 0"/>
    </filter>
    <mask id="b">
        <g filter="url(#a)">
            <path d="m -1.6 -1.6 h 19.2 v 19.2 h -19.2 z" fill-opacity="0.5"/>
        </g>
    </mask>
    <clipPath id="c">
        <path d="m 0 0 h 1600 v 1200 h -1600 z"/>
    </clipPath>
    <mask id="d">
        <g filter="url(#a)">
            <path d="m -1.6 -1.6 h 19.2 v 19.2 h -19.2 z" fill-opacity="0.7"/>
        </g>
    </mask>
    <clipPath id="e">
        <path d="m 0 0 h 1600 v 1200 h -1600 z"/>
    </clipPath>
    <mask id="f">
        <g filter="url(#a)">
            <path d="m -1.6 -1.6 h 19.2 v 19.2 h -19.2 z" fill-opacity="0.35"/>
        </g>
    </mask>
    <clipPath id="g">
        <path d="m 0 0 h 1600 v 1200 h -1600 z"/>
    </clipPath>
    <g mask="url(#b)">
        <g clip-path="url(#c)" transform="matrix(1 0 0 1 -140 -260)">
            <path d="m 550 182 c -0.351562 0.003906 -0.695312 0.101562 -1 0.28125 v 3.4375 c 0.304688 0.179688 0.648438 0.277344 1 0.28125 c 1.105469 0 2 -0.894531 2 -2 s -0.894531 -2 -2 -2 z m 0 5 c -0.339844 0 -0.679688 0.058594 -1 0.175781 v 6.824219 h 4 v -4 c 0 -1.65625 -1.34375 -3 -3 -3 z m 0 0"/>
        </g>
    </g>
    <g mask="url(#d)">
        <g clip-path="url(#e)" transform="matrix(1 0 0 1 -140 -260)">
            <path d="m 569 182 v 4 c 1.105469 0 2 -0.894531 2 -2 s -0.894531 -2 -2 -2 z m 0 5 v 7 h 3 v -4 c 0 -1.65625 -1.34375 -3 -3 -3 z m 0 0"/>
        </g>
    </g>
    <g mask="url(#f)">
        <g clip-path="url(#g)" transform="matrix(1 0 0 1 -140 -260)">
            <path d="m 573 182.269531 v 3.449219 c 0.613281 -0.355469 0.996094 -1.007812 1 -1.71875 c 0 -0.714844 -0.382812 -1.375 -1 -1.730469 z m 0 4.90625 v 6.824219 h 2 v -4 c 0 -1.269531 -0.800781 -2.402344 -2 -2.824219 z m 0 0"/>
        </g>
    </g>
    <path d="m 4 1 c -0.574219 0 -1.148438 0.167969 -1.625 0.484375 c -0.480469 0.316406 -0.863281 0.773437 -1.097656 1.296875 s -0.320313 1.109375 -0.292969 1.679688 c 0.027344 0.574218 0.160156 1.136718 0.300781 1.695312 l 0.714844 2.84375 h 4 l 0.710938 -3.011719 c 0.128906 -0.542969 0.253906 -1.089843 0.269531 -1.648437 c 0.019531 -0.558594 -0.074219 -1.125 -0.308594 -1.632813 c -0.234375 -0.503906 -0.613281 -0.945312 -1.085937 -1.246093 c -0.46875 -0.300782 -1.027344 -0.460938 -1.585938 -0.460938 z m 8 2 c -0.574219 0 -1.148438 0.167969 -1.625 0.484375 c -0.480469 0.316406 -0.863281 0.773437 -1.097656 1.296875 s -0.320313 1.109375 -0.292969 1.679688 c 0.027344 0.574218 0.160156 1.136718 0.300781 1.695312 l 0.714844 2.84375 h 4 l 0.710938 -3.011719 c 0.128906 -0.542969 0.253906 -1.089843 0.269531 -1.648437 c 0.019531 -0.558594 -0.074219 -1.125 -0.308594 -1.632813 c -0.234375 -0.503906 -0.613281 -0.945312 -1.085937 -1.246093 c -0.46875 -0.300782 -1.027344 -0.460938 -1.585938 -0.460938 z m -10 7 v 1 h 0.003906 c 0 0.710938 0.382813 1.367188 1 1.726562 c 0.617188 0.355469 1.375 0.355469 1.996094 0 c 0.613281 -0.359374 0.996094 -1.015624 0.996094 -1.726562 h 0.003906 v -1 z m 8 2 v 1 h 0.003906 c 0 0.710938 0.382813 1.367188 1 1.726562 c 0.617188 0.355469 1.375 0.355469 1.996094 0 c 0.613281 -0.359374 0.996094 -1.015624 0.996094 -1.726562 h 0.003906 v -1 z m 0 0" fill="#222222"/>
</svg>
