<?xml version="1.0" encoding="UTF-8"?>
<svg height="16px" viewBox="0 0 16 16" width="16px" xmlns="http://www.w3.org/2000/svg" xmlns:xlink="http://www.w3.org/1999/xlink">
    <filter id="a" height="100%" width="100%" x="0%" y="0%">
        <feColorMatrix color-interpolation-filters="sRGB" values="0 0 0 0 1 0 0 0 0 1 0 0 0 0 1 0 0 0 1 0"/>
    </filter>
    <mask id="b">
        <g filter="url(#a)">
            <path d="m -1.6 -1.6 h 19.2 v 19.2 h -19.2 z" fill-opacity="0.5"/>
        </g>
    </mask>
    <clipPath id="c">
        <path d="m 0 0 h 1600 v 1200 h -1600 z"/>
    </clipPath>
    <mask id="d">
        <g filter="url(#a)">
            <path d="m -1.6 -1.6 h 19.2 v 19.2 h -19.2 z" fill-opacity="0.7"/>
        </g>
    </mask>
    <clipPath id="e">
        <path d="m 0 0 h 1600 v 1200 h -1600 z"/>
    </clipPath>
    <mask id="f">
        <g filter="url(#a)">
            <path d="m -1.6 -1.6 h 19.2 v 19.2 h -19.2 z" fill-opacity="0.35"/>
        </g>
    </mask>
    <clipPath id="g">
        <path d="m 0 0 h 1600 v 1200 h -1600 z"/>
    </clipPath>
    <g mask="url(#b)">
        <g clip-path="url(#c)" transform="matrix(1 0 0 1 -240 -416)">
            <path d="m 550 182 c -0.351562 0.003906 -0.695312 0.101562 -1 0.28125 v 3.4375 c 0.304688 0.179688 0.648438 0.277344 1 0.28125 c 1.105469 0 2 -0.894531 2 -2 s -0.894531 -2 -2 -2 z m 0 5 c -0.339844 0 -0.679688 0.058594 -1 0.175781 v 6.824219 h 4 v -4 c 0 -1.65625 -1.34375 -3 -3 -3 z m 0 0"/>
        </g>
    </g>
    <g mask="url(#d)">
        <g clip-path="url(#e)" transform="matrix(1 0 0 1 -240 -416)">
            <path d="m 569 182 v 4 c 1.105469 0 2 -0.894531 2 -2 s -0.894531 -2 -2 -2 z m 0 5 v 7 h 3 v -4 c 0 -1.65625 -1.34375 -3 -3 -3 z m 0 0"/>
        </g>
    </g>
    <g mask="url(#f)">
        <g clip-path="url(#g)" transform="matrix(1 0 0 1 -240 -416)">
            <path d="m 573 182.269531 v 3.449219 c 0.613281 -0.355469 0.996094 -1.007812 1 -1.71875 c 0 -0.714844 -0.382812 -1.375 -1 -1.730469 z m 0 4.90625 v 6.824219 h 2 v -4 c 0 -1.269531 -0.800781 -2.402344 -2 -2.824219 z m 0 0"/>
        </g>
    </g>
    <g fill="#222222">
        <path d="m 8.074219 0 c -1.203125 -0.0117188 -2.40625 0.285156 -3.492188 0.890625 c -0.480469 0.269531 -0.652343 0.878906 -0.382812 1.359375 c 0.269531 0.484375 0.878906 0.65625 1.359375 0.386719 c 1.550781 -0.867188 3.4375 -0.847657 4.972656 0.050781 c 1.53125 0.898438 2.46875 2.535156 2.46875 4.3125 v 1 c 0 0.550781 0.449219 1 1 1 s 1 -0.449219 1 -1 v -1 c 0 -0.039062 -0.003906 -0.078125 -0.007812 -0.113281 c -0.039063 -2.441407 -1.34375 -4.691407 -3.453126 -5.925781 c -1.070312 -0.628907 -2.265624 -0.9492192 -3.46875 -0.960938 z m -5.199219 2.832031 c -0.304688 0.011719 -0.582031 0.164063 -0.761719 0.40625 l 1.453125 1.453125 c 0.058594 -0.113281 0.121094 -0.226562 0.191406 -0.335937 c 0.289063 -0.46875 0.144532 -1.082031 -0.324218 -1.375 c -0.167969 -0.105469 -0.363282 -0.15625 -0.558594 -0.148438 z m 5.125 0.167969 c -1.648438 0 -3.0625 1.019531 -3.667969 2.457031 l 1.667969 1.667969 v -0.125 c 0 -1.117188 0.882812 -2 2 -2 s 2 0.882812 2 2 v 4.125 l 2.992188 2.992188 c 0.035156 -0.304688 -0.070313 -0.609376 -0.285157 -0.824219 c -0.382812 -0.382813 -0.550781 -0.734375 -0.632812 -0.984375 s -0.074219 -0.308594 -0.074219 -0.308594 v -5 c 0 -0.066406 -0.007812 -0.132812 -0.019531 -0.199219 c -0.105469 -2.105469 -1.851563 -3.800781 -3.980469 -3.800781 z m -6.589844 1.65625 c -0.246094 0.707031 -0.386718 1.449219 -0.398437 2.199219 v 0.003906 c -0.007813 0.046875 -0.011719 0.09375 -0.011719 0.140625 v 5.0625 c 0 0.550781 0.449219 1 1 1 s 1 -0.449219 1 -1 v -5.0625 c 0 -0.234375 0.015625 -0.472656 0.050781 -0.703125 z m 6.589844 1.34375 c -0.550781 0 -1 0.449219 -1 1 v 1.125 l 2 2 v -3.125 c 0 -0.550781 -0.449219 -1 -1 -1 z m -4 1.246094 v 0.753906 c 0 0.550781 0.449219 1 1 1 c 0.203125 -0.007812 0.394531 -0.074219 0.558594 -0.195312 z m 1 2.753906 c -0.550781 0 -1 0.449219 -1 1 v 3 c 0 0.550781 0.449219 1 1 1 s 1 -0.449219 1 -1 v -3 c 0 -0.550781 -0.449219 -1 -1 -1 z m 9 0 c -0.550781 0 -1 0.449219 -1 1 s 0.449219 1 1 1 s 1 -0.449219 1 -1 s -0.449219 -1 -1 -1 z m -7 0.246094 v 1.753906 s 0 0.59375 0.144531 1.320312 c 0.144531 0.726563 0.414063 1.652344 1.148438 2.386719 c 0.390625 0.390625 1.023437 0.390625 1.414062 0 s 0.390625 -1.023437 0 -1.414062 c -0.265625 -0.265625 -0.496093 -0.839844 -0.601562 -1.363281 c -0.054688 -0.269532 -0.078125 -0.503907 -0.09375 -0.667969 z m 0 0"/>
        <path d="m 1 0 l -1.0625 1.0625 l 14 14 l 1.0625 -1.0625 z m 0 0"/>
    </g>
</svg>
