<?xml version="1.0" encoding="UTF-8"?>
<svg height="16px" viewBox="0 0 16 16" width="16px" xmlns="http://www.w3.org/2000/svg" xmlns:xlink="http://www.w3.org/1999/xlink">
    <filter id="a" height="100%" width="100%" x="0%" y="0%">
        <feColorMatrix color-interpolation-filters="sRGB" values="0 0 0 0 1 0 0 0 0 1 0 0 0 0 1 0 0 0 1 0"/>
    </filter>
    <mask id="b">
        <g filter="url(#a)">
            <path d="m -1.6 -1.6 h 19.2 v 19.2 h -19.2 z" fill-opacity="0.5"/>
        </g>
    </mask>
    <clipPath id="c">
        <path d="m 0 0 h 1600 v 1200 h -1600 z"/>
    </clipPath>
    <mask id="d">
        <g filter="url(#a)">
            <path d="m -1.6 -1.6 h 19.2 v 19.2 h -19.2 z" fill-opacity="0.7"/>
        </g>
    </mask>
    <clipPath id="e">
        <path d="m 0 0 h 1600 v 1200 h -1600 z"/>
    </clipPath>
    <mask id="f">
        <g filter="url(#a)">
            <path d="m -1.6 -1.6 h 19.2 v 19.2 h -19.2 z" fill-opacity="0.35"/>
        </g>
    </mask>
    <clipPath id="g">
        <path d="m 0 0 h 1600 v 1200 h -1600 z"/>
    </clipPath>
    <g mask="url(#b)">
        <g clip-path="url(#c)" transform="matrix(1 0 0 1 -240 -336)">
            <path d="m 550 182 c -0.351562 0.003906 -0.695312 0.101562 -1 0.28125 v 3.4375 c 0.304688 0.179688 0.648438 0.277344 1 0.28125 c 1.105469 0 2 -0.894531 2 -2 s -0.894531 -2 -2 -2 z m 0 5 c -0.339844 0 -0.679688 0.058594 -1 0.175781 v 6.824219 h 4 v -4 c 0 -1.65625 -1.34375 -3 -3 -3 z m 0 0"/>
        </g>
    </g>
    <g mask="url(#d)">
        <g clip-path="url(#e)" transform="matrix(1 0 0 1 -240 -336)">
            <path d="m 569 182 v 4 c 1.105469 0 2 -0.894531 2 -2 s -0.894531 -2 -2 -2 z m 0 5 v 7 h 3 v -4 c 0 -1.65625 -1.34375 -3 -3 -3 z m 0 0"/>
        </g>
    </g>
    <g mask="url(#f)">
        <g clip-path="url(#g)" transform="matrix(1 0 0 1 -240 -336)">
            <path d="m 573 182.269531 v 3.449219 c 0.613281 -0.355469 0.996094 -1.007812 1 -1.71875 c 0 -0.714844 -0.382812 -1.375 -1 -1.730469 z m 0 4.90625 v 6.824219 h 2 v -4 c 0 -1.269531 -0.800781 -2.402344 -2 -2.824219 z m 0 0"/>
        </g>
    </g>
    <path d="m 7.355469 0.238281 c -0.230469 -0.003906 -0.464844 0.003907 -0.699219 0.015625 c -1.882812 0.105469 -3.84375 0.792969 -5.625 2.308594 c -0.316406 0.265625 -0.355469 0.738281 -0.089844 1.054688 c 0.265625 0.316406 0.742188 0.355468 1.054688 0.089843 c 3.09375 -2.621093 6.609375 -2.332031 9.101562 -0.953125 c 1.25 0.6875 2.210938 1.65625 2.6875 2.609375 c 0.480469 0.953125 0.507813 1.8125 -0.003906 2.601563 c -0.570312 0.878906 -2.347656 1.5 -3.828125 -0.136719 c -0.886719 -0.984375 -2.085937 -1.332031 -3.136719 -1.132813 c -1.046875 0.195313 -1.953125 0.878907 -2.476562 1.832032 c -0.523438 0.949218 -0.632813 2.191406 -0.089844 3.398437 c 0.546875 1.203125 1.707031 2.339844 3.613281 3.277344 c 0.371094 0.179687 0.820313 0.027344 1.003907 -0.34375 c 0.183593 -0.371094 0.03125 -0.820313 -0.34375 -1.003906 c -1.6875 -0.828125 -2.542969 -1.753907 -2.90625 -2.550781 c -0.363282 -0.796876 -0.273438 -1.492188 0.035156 -2.054688 c 0.3125 -0.566406 0.871094 -0.972656 1.445312 -1.082031 c 0.574219 -0.109375 1.160156 0.023437 1.742188 0.664062 c 2.03125 2.25 5.046875 1.726563 6.199218 -0.050781 c 0.824219 -1.265625 0.738282 -2.792969 0.089844 -4.089844 c -0.648437 -1.296875 -1.828125 -2.4375 -3.304687 -3.25 c -1.292969 -0.714844 -2.839844 -1.167968 -4.46875 -1.199218 z m 0.050781 3.316407 c -1.4375 0.027343 -2.851562 0.515624 -3.988281 1.363281 c -1.300781 0.96875 -2.273438 2.417969 -2.527344 4.160156 c -0.25 1.742187 0.234375 3.746094 1.683594 5.773437 c 0.117187 0.160157 0.292969 0.269532 0.488281 0.304688 c 0.195312 0.03125 0.398438 -0.015625 0.558594 -0.132812 c 0.335937 -0.238282 0.414062 -0.707032 0.171875 -1.042969 c -1.269531 -1.78125 -1.605469 -3.367188 -1.417969 -4.6875 c 0.191406 -1.320313 0.921875 -2.414063 1.9375 -3.171875 c 2.035156 -1.511719 5.089844 -1.632813 7.039062 0.785156 c 0.261719 0.324219 0.734376 0.375 1.054688 0.113281 c 0.324219 -0.257812 0.375 -0.730469 0.113281 -1.050781 c -1.226562 -1.523438 -2.851562 -2.269531 -4.496093 -2.394531 c -0.207032 -0.015625 -0.410157 -0.019531 -0.617188 -0.019531 z m 0.007812 6.15625 c -0.152343 0.003906 -0.300781 0.054687 -0.421874 0.140624 c -0.160157 0.117188 -0.269532 0.292969 -0.304688 0.488282 c -0.03125 0.195312 0.015625 0.398437 0.132812 0.558594 c 1.148438 1.605468 3.339844 2.820312 5.546876 2.519531 c 0.410156 -0.054688 0.699218 -0.433594 0.640624 -0.84375 c -0.054687 -0.410157 -0.433593 -0.699219 -0.84375 -0.644531 c -1.480468 0.203124 -3.320312 -0.78125 -4.125 -1.90625 c -0.144531 -0.199219 -0.378906 -0.316407 -0.625 -0.3125 z m 0 0" fill="#222222"/>
</svg>
