<?xml version="1.0" encoding="UTF-8"?>
<svg height="16px" viewBox="0 0 16 16" width="16px" xmlns="http://www.w3.org/2000/svg" xmlns:xlink="http://www.w3.org/1999/xlink">
    <filter id="a" height="100%" width="100%" x="0%" y="0%">
        <feColorMatrix color-interpolation-filters="sRGB" values="0 0 0 0 1 0 0 0 0 1 0 0 0 0 1 0 0 0 1 0"/>
    </filter>
    <mask id="b">
        <g filter="url(#a)">
            <path d="m -1.6 -1.6 h 19.2 v 19.2 h -19.2 z" fill-opacity="0.5"/>
        </g>
    </mask>
    <clipPath id="c">
        <path d="m 0 0 h 1600 v 1200 h -1600 z"/>
    </clipPath>
    <mask id="d">
        <g filter="url(#a)">
            <path d="m -1.6 -1.6 h 19.2 v 19.2 h -19.2 z" fill-opacity="0.7"/>
        </g>
    </mask>
    <clipPath id="e">
        <path d="m 0 0 h 1600 v 1200 h -1600 z"/>
    </clipPath>
    <mask id="f">
        <g filter="url(#a)">
            <path d="m -1.6 -1.6 h 19.2 v 19.2 h -19.2 z" fill-opacity="0.35"/>
        </g>
    </mask>
    <clipPath id="g">
        <path d="m 0 0 h 1600 v 1200 h -1600 z"/>
    </clipPath>
    <path d="m 6.007812 4.832031 l 0.527344 -0.878906 l -4.003906 2.160156 l 0.03125 -0.019531 c -2.6015625 1.289062 -1.347656 5.195312 1.628906 4.554688 l -0.023437 0.003906 l 3.03125 -0.582032 l -1.191407 -0.984374 v 2.28125 l 0.503907 -0.867188 l -1.585938 0.90625 l -0.015625 0.011719 c -1.886718 1.1875 -1.042968 3.558593 1.183594 3.558593 l 4.820312 0.007813 c 2.1875 0 2.832032 -2.378906 1.230469 -3.53125 l -0.015625 -0.011719 l -0.050781 -0.03125 l -1.589844 -0.914062 l 0.5 0.871094 v -2.28125 l -1.195312 0.980468 l 2.972656 0.601563 l -0.058594 -0.011719 c 2.867188 0.769531 4.542969 -2.898438 1.765625 -4.503906 l -0.007812 -0.003906 l -3.992188 -2.191407 l 0.519532 0.878907 v -2.039063 c 0 -3.769531 -4.980469 -3.738281 -4.980469 0 z m 2 -2.035156 c 0 -1.058594 0.980469 -1.15625 0.980469 0 v 2.628906 l 4.503907 2.472657 l -0.019532 -0.011719 c 0.964844 0.558593 0.144532 0.941406 -0.25 0.835937 l -0.027344 -0.007812 l -4.207031 -0.847656 v 4.078124 l 2.066407 1.183594 l -0.058594 -0.035156 l 0.007812 0.003906 l -0.03125 -0.023437 c 0.015625 0.011719 0.027344 0.023437 0.039063 0.035156 c 0.003906 0.007813 0.011719 0.015625 0.015625 0.019531 c 0.003906 0.007813 0.003906 0.011719 0.003906 0.015625 c 0.003906 0 0.003906 0.003907 0.003906 0.003907 v -0.003907 s 0.09375 -0.191406 0.09375 -0.191406 s -0.003906 0.003906 -0.011718 0.003906 c -0.011719 0.003907 -0.027344 0.007813 -0.054688 0.015625 c -0.035156 0.003906 -0.085938 0.011719 -0.148438 0.011719 l -4.820312 -0.007813 c -0.070312 0 -0.128906 -0.003906 -0.175781 -0.015624 c -0.039063 -0.003907 -0.066407 -0.011719 -0.085938 -0.019532 c -0.015625 -0.007812 -0.027343 -0.011718 -0.03125 -0.015625 c 0 0 -0.007812 -0.003906 -0.007812 -0.003906 s 0.007812 0.007813 0.007812 0.007813 s 0.050781 0.285156 0.050781 0.285156 s 0.003907 -0.003906 0.003907 -0.003906 c 0.003906 -0.007813 0.011719 -0.019532 0.027343 -0.03125 c 0.019532 -0.019532 0.046876 -0.042969 0.089844 -0.066407 l -0.035156 0.019531 l 2.070312 -1.1875 v -4.070312 l -4.230468 0.816406 h -0.007813 c -0.851562 0.183594 -0.6875 -0.625 -0.320312 -0.804687 l 0.015625 -0.007813 l 4.542968 -2.449218 z m 0 0" fill="#222222"/>
    <g mask="url(#b)">
        <g clip-path="url(#c)" transform="matrix(1 0 0 1 -760 -100)">
            <path d="m 550 182 c -0.351562 0.003906 -0.695312 0.101562 -1 0.28125 v 3.4375 c 0.304688 0.179688 0.648438 0.277344 1 0.28125 c 1.105469 0 2 -0.894531 2 -2 s -0.894531 -2 -2 -2 z m 0 5 c -0.339844 0 -0.679688 0.058594 -1 0.175781 v 6.824219 h 4 v -4 c 0 -1.65625 -1.34375 -3 -3 -3 z m 0 0"/>
        </g>
    </g>
    <g mask="url(#d)">
        <g clip-path="url(#e)" transform="matrix(1 0 0 1 -760 -100)">
            <path d="m 569 182 v 4 c 1.105469 0 2 -0.894531 2 -2 s -0.894531 -2 -2 -2 z m 0 5 v 7 h 3 v -4 c 0 -1.65625 -1.34375 -3 -3 -3 z m 0 0"/>
        </g>
    </g>
    <g mask="url(#f)">
        <g clip-path="url(#g)" transform="matrix(1 0 0 1 -760 -100)">
            <path d="m 573 182.269531 v 3.449219 c 0.613281 -0.355469 0.996094 -1.007812 1 -1.71875 c 0 -0.714844 -0.382812 -1.375 -1 -1.730469 z m 0 4.90625 v 6.824219 h 2 v -4 c 0 -1.269531 -0.800781 -2.402344 -2 -2.824219 z m 0 0"/>
        </g>
    </g>
</svg>
