<?xml version="1.0" encoding="UTF-8"?>
<svg height="16px" viewBox="0 0 16 16" width="16px" xmlns="http://www.w3.org/2000/svg" xmlns:xlink="http://www.w3.org/1999/xlink">
    <filter id="a" height="100%" width="100%" x="0%" y="0%">
        <feColorMatrix color-interpolation-filters="sRGB" values="0 0 0 0 1 0 0 0 0 1 0 0 0 0 1 0 0 0 1 0"/>
    </filter>
    <mask id="b">
        <g filter="url(#a)">
            <path d="m -1.6 -1.6 h 19.2 v 19.2 h -19.2 z" fill-opacity="0.5"/>
        </g>
    </mask>
    <clipPath id="c">
        <path d="m 0 0 h 1600 v 1200 h -1600 z"/>
    </clipPath>
    <mask id="d">
        <g filter="url(#a)">
            <path d="m -1.6 -1.6 h 19.2 v 19.2 h -19.2 z" fill-opacity="0.7"/>
        </g>
    </mask>
    <clipPath id="e">
        <path d="m 0 0 h 1600 v 1200 h -1600 z"/>
    </clipPath>
    <mask id="f">
        <g filter="url(#a)">
            <path d="m -1.6 -1.6 h 19.2 v 19.2 h -19.2 z" fill-opacity="0.35"/>
        </g>
    </mask>
    <clipPath id="g">
        <path d="m 0 0 h 1600 v 1200 h -1600 z"/>
    </clipPath>
    <path d="m 11.34375 0.40625 l -0.6875 0.71875 l 2.4375 2.40625 v 2.78125 l 0.15625 0.125 l 0.78125 0.78125 l -0.03125 4.308594 c 0 0.960937 -0.308594 1.503906 -0.992188 1.503906 c -0.613281 0 -1.007812 -0.480469 -1.007812 -1.480469 l 0.003906 -2.082031 c 0 -0.902344 -0.574218 -1.46875 -1.554687 -1.46875 h -0.449219 v -5 c 0 -1.109375 -0.890625 -2 -2 -2 h -5 c -1.109375 0 -2 0.890625 -2 2 v 11 c -0.554688 0 -1 0.445312 -1 1 h 11 c 0 -0.554688 -0.445312 -1 -1 -1 v -5 h 0.417969 c 0.324219 0 0.585937 0.253906 0.585937 0.46875 v 2.082031 c 0 1.667969 0.992188 2.464844 1.996094 2.464844 c 1.289062 0 2 -0.804687 2 -2.464844 l 0.0625 -7.269531 v -0.21875 l -0.15625 -0.15625 z m -7.351562 2.566406 h 3.015624 c 0.550782 0 1 0.445313 1 1 v 2 c 0 0.554688 -0.449218 1 -1 1 h -3.015624 c -0.550782 0 -1 -0.445312 -1 -1 v -2 c 0 -0.554687 0.449218 -1 1 -1 z m 0 0" fill="#222222"/>
    <g mask="url(#b)">
        <g clip-path="url(#c)" transform="matrix(1 0 0 1 -560 -40)">
            <path d="m 550 182 c -0.351562 0.003906 -0.695312 0.101562 -1 0.28125 v 3.4375 c 0.304688 0.179688 0.648438 0.277344 1 0.28125 c 1.105469 0 2 -0.894531 2 -2 s -0.894531 -2 -2 -2 z m 0 5 c -0.339844 0 -0.679688 0.058594 -1 0.175781 v 6.824219 h 4 v -4 c 0 -1.65625 -1.34375 -3 -3 -3 z m 0 0"/>
        </g>
    </g>
    <g mask="url(#d)">
        <g clip-path="url(#e)" transform="matrix(1 0 0 1 -560 -40)">
            <path d="m 569 182 v 4 c 1.105469 0 2 -0.894531 2 -2 s -0.894531 -2 -2 -2 z m 0 5 v 7 h 3 v -4 c 0 -1.65625 -1.34375 -3 -3 -3 z m 0 0"/>
        </g>
    </g>
    <g mask="url(#f)">
        <g clip-path="url(#g)" transform="matrix(1 0 0 1 -560 -40)">
            <path d="m 573 182.269531 v 3.449219 c 0.613281 -0.355469 0.996094 -1.007812 1 -1.71875 c 0 -0.714844 -0.382812 -1.375 -1 -1.730469 z m 0 4.90625 v 6.824219 h 2 v -4 c 0 -1.269531 -0.800781 -2.402344 -2 -2.824219 z m 0 0"/>
        </g>
    </g>
</svg>
