<?xml version="1.0" encoding="UTF-8"?>
<svg height="16px" viewBox="0 0 16 16" width="16px" xmlns="http://www.w3.org/2000/svg" xmlns:xlink="http://www.w3.org/1999/xlink">
    <filter id="a" height="100%" width="100%" x="0%" y="0%">
        <feColorMatrix color-interpolation-filters="sRGB" values="0 0 0 0 1 0 0 0 0 1 0 0 0 0 1 0 0 0 1 0"/>
    </filter>
    <mask id="b">
        <g filter="url(#a)">
            <path d="m -1.6 -1.6 h 19.2 v 19.2 h -19.2 z" fill-opacity="0.5"/>
        </g>
    </mask>
    <clipPath id="c">
        <path d="m 0 0 h 1600 v 1200 h -1600 z"/>
    </clipPath>
    <mask id="d">
        <g filter="url(#a)">
            <path d="m -1.6 -1.6 h 19.2 v 19.2 h -19.2 z" fill-opacity="0.7"/>
        </g>
    </mask>
    <clipPath id="e">
        <path d="m 0 0 h 1600 v 1200 h -1600 z"/>
    </clipPath>
    <mask id="f">
        <g filter="url(#a)">
            <path d="m -1.6 -1.6 h 19.2 v 19.2 h -19.2 z" fill-opacity="0.35"/>
        </g>
    </mask>
    <clipPath id="g">
        <path d="m 0 0 h 1600 v 1200 h -1600 z"/>
    </clipPath>
    <g mask="url(#b)">
        <g clip-path="url(#c)" transform="matrix(1 0 0 1 -96 -936)">
            <path d="m 550 182 c -0.351562 0.003906 -0.695312 0.101562 -1 0.28125 v 3.4375 c 0.304688 0.179688 0.648438 0.277344 1 0.28125 c 1.105469 0 2 -0.894531 2 -2 s -0.894531 -2 -2 -2 z m 0 5 c -0.339844 0 -0.679688 0.058594 -1 0.175781 v 6.824219 h 4 v -4 c 0 -1.65625 -1.34375 -3 -3 -3 z m 0 0"/>
        </g>
    </g>
    <g mask="url(#d)">
        <g clip-path="url(#e)" transform="matrix(1 0 0 1 -96 -936)">
            <path d="m 569 182 v 4 c 1.105469 0 2 -0.894531 2 -2 s -0.894531 -2 -2 -2 z m 0 5 v 7 h 3 v -4 c 0 -1.65625 -1.34375 -3 -3 -3 z m 0 0"/>
        </g>
    </g>
    <g mask="url(#f)">
        <g clip-path="url(#g)" transform="matrix(1 0 0 1 -96 -936)">
            <path d="m 573 182.269531 v 3.449219 c 0.613281 -0.355469 0.996094 -1.007812 1 -1.71875 c 0 -0.714844 -0.382812 -1.375 -1 -1.730469 z m 0 4.90625 v 6.824219 h 2 v -4 c 0 -1.269531 -0.800781 -2.402344 -2 -2.824219 z m 0 0"/>
        </g>
    </g>
    <path d="m 3 0 c -0.726562 0 -1.367188 0.394531 -1.71875 0.980469 c -0.472656 0.007812 -0.921875 0.019531 -1.28125 0.019531 v 2 c 0.332031 0 0.8125 -0.003906 1.265625 -0.011719 c 0.34375 0.605469 0.996094 1.011719 1.734375 1.011719 s 1.386719 -0.40625 1.734375 -1.007812 c 1.171875 0.035156 2.296875 0.128906 3.136719 0.351562 c 0.078125 0.019531 0.148437 0.042969 0.21875 0.0625 c -0.058594 0.1875 -0.089844 0.386719 -0.089844 0.59375 c 0 0.621094 0.289062 1.179688 0.738281 1.546875 c -0.296875 0.472656 -0.75 1.050781 -1.445312 1.746094 c -0.613281 0.613281 -1.117188 1.179687 -1.511719 1.71875 c -0.996094 0.109375 -1.78125 0.964843 -1.78125 1.988281 c 0 0.707031 0.375 1.332031 0.9375 1.6875 c 0.191406 0.4375 0.503906 0.8125 0.859375 1.082031 c 0.53125 0.40625 1.152344 0.644531 1.824219 0.824219 c 1.109375 0.289062 2.402344 0.402344 3.671875 0.445312 c 0.351562 0.574219 0.988281 0.960938 1.707031 0.960938 c 0.726562 0 1.367188 -0.394531 1.71875 -0.980469 c 0.472656 -0.007812 0.921875 -0.019531 1.28125 -0.019531 v -2 c -0.332031 0 -0.8125 0.003906 -1.261719 0.011719 c -0.347656 -0.605469 -1 -1.011719 -1.738281 -1.011719 s -1.386719 0.40625 -1.734375 1.007812 c -1.171875 -0.035156 -2.296875 -0.128906 -3.136719 -0.351562 c -0.277344 -0.070312 -0.515625 -0.160156 -0.710937 -0.25 c 0.359375 -0.359375 0.582031 -0.859375 0.582031 -1.40625 c 0 -0.40625 -0.125 -0.785156 -0.332031 -1.101562 c 0.261719 -0.351563 0.589843 -0.742188 1.039062 -1.191407 c 1.097657 -1.097656 1.851563 -2.050781 2.242188 -2.949219 c 0 0 0.003906 -0.003906 0.003906 -0.003906 c 0.621094 -0.339844 1.046875 -1 1.046875 -1.753906 c 0 -1.097656 -0.902344 -2 -2 -2 c -0.042969 0 -0.085938 0 -0.128906 0.003906 c -0.453125 -0.273437 -0.957032 -0.453125 -1.492188 -0.59375 c -1.109375 -0.292968 -2.398437 -0.40625 -3.671875 -0.445312 c -0.351562 -0.578125 -0.988281 -0.964844 -1.707031 -0.964844 z m 0 1 c 0.558594 0 1 0.441406 1 1 s -0.441406 1 -1 1 s -1 -0.441406 -1 -1 s 0.441406 -1 1 -1 z m 7 2 c 0.558594 0 1 0.441406 1 1 s -0.441406 1 -1 1 s -1 -0.441406 -1 -1 s 0.441406 -1 1 -1 z m -4 7 c 0.558594 0 1 0.441406 1 1 s -0.441406 1 -1 1 s -1 -0.441406 -1 -1 s 0.441406 -1 1 -1 z m 7 3 c 0.558594 0 1 0.441406 1 1 s -0.441406 1 -1 1 s -1 -0.441406 -1 -1 s 0.441406 -1 1 -1 z m 0 0" fill="#222222"/>
</svg>
