<?xml version="1.0" encoding="UTF-8"?>
<svg height="16px" viewBox="0 0 16 16" width="16px" xmlns="http://www.w3.org/2000/svg" xmlns:xlink="http://www.w3.org/1999/xlink">
    <filter id="a" height="100%" width="100%" x="0%" y="0%">
        <feColorMatrix color-interpolation-filters="sRGB" values="0 0 0 0 1 0 0 0 0 1 0 0 0 0 1 0 0 0 1 0"/>
    </filter>
    <mask id="b">
        <g filter="url(#a)">
            <path d="m -1.6 -1.6 h 19.2 v 19.2 h -19.2 z" fill-opacity="0.5"/>
        </g>
    </mask>
    <clipPath id="c">
        <path d="m 0 0 h 1600 v 1200 h -1600 z"/>
    </clipPath>
    <mask id="d">
        <g filter="url(#a)">
            <path d="m -1.6 -1.6 h 19.2 v 19.2 h -19.2 z" fill-opacity="0.7"/>
        </g>
    </mask>
    <clipPath id="e">
        <path d="m 0 0 h 1600 v 1200 h -1600 z"/>
    </clipPath>
    <mask id="f">
        <g filter="url(#a)">
            <path d="m -1.6 -1.6 h 19.2 v 19.2 h -19.2 z" fill-opacity="0.35"/>
        </g>
    </mask>
    <clipPath id="g">
        <path d="m 0 0 h 1600 v 1200 h -1600 z"/>
    </clipPath>
    <g mask="url(#b)">
        <g clip-path="url(#c)" transform="matrix(1 0 0 1 -116 -936)">
            <path d="m 550 182 c -0.351562 0.003906 -0.695312 0.101562 -1 0.28125 v 3.4375 c 0.304688 0.179688 0.648438 0.277344 1 0.28125 c 1.105469 0 2 -0.894531 2 -2 s -0.894531 -2 -2 -2 z m 0 5 c -0.339844 0 -0.679688 0.058594 -1 0.175781 v 6.824219 h 4 v -4 c 0 -1.65625 -1.34375 -3 -3 -3 z m 0 0"/>
        </g>
    </g>
    <g mask="url(#d)">
        <g clip-path="url(#e)" transform="matrix(1 0 0 1 -116 -936)">
            <path d="m 569 182 v 4 c 1.105469 0 2 -0.894531 2 -2 s -0.894531 -2 -2 -2 z m 0 5 v 7 h 3 v -4 c 0 -1.65625 -1.34375 -3 -3 -3 z m 0 0"/>
        </g>
    </g>
    <g mask="url(#f)">
        <g clip-path="url(#g)" transform="matrix(1 0 0 1 -116 -936)">
            <path d="m 573 182.269531 v 3.449219 c 0.613281 -0.355469 0.996094 -1.007812 1 -1.71875 c 0 -0.714844 -0.382812 -1.375 -1 -1.730469 z m 0 4.90625 v 6.824219 h 2 v -4 c 0 -1.269531 -0.800781 -2.402344 -2 -2.824219 z m 0 0"/>
        </g>
    </g>
    <path d="m 12.738281 0 c -0.085937 0.359375 -0.164062 0.707031 -0.25 1.066406 c -0.851562 0.226563 -1.488281 1.011719 -1.488281 1.933594 c 0 0.511719 0.195312 0.980469 0.515625 1.332031 c -0.371094 0.964844 -0.828125 1.917969 -1.410156 2.804688 c -0.210938 0.316406 -0.4375 0.617187 -0.679688 0.910156 c -0.140625 -0.03125 -0.28125 -0.046875 -0.425781 -0.046875 c -1.097656 0 -2 0.902344 -2 2 c 0 0.082031 0.003906 0.160156 0.015625 0.238281 c -0.789063 0.5 -1.695313 0.917969 -2.75 1.21875 c -0.34375 -0.285156 -0.785156 -0.457031 -1.265625 -0.457031 c -0.714844 0 -1.347656 0.382812 -1.699219 0.953125 c -0.417969 0.03125 -0.847656 0.046875 -1.300781 0.046875 v 2 c 0.429688 0 0.84375 -0.015625 1.246094 -0.042969 c 0.339844 0.621094 1 1.042969 1.753906 1.042969 c 1 0 1.835938 -0.746094 1.980469 -1.707031 c 1.199219 -0.371094 2.261719 -0.871094 3.195312 -1.472657 c 0.25 0.117188 0.53125 0.179688 0.824219 0.179688 c 1.097656 0 2 -0.902344 2 -2 c 0 -0.214844 -0.035156 -0.421875 -0.097656 -0.617188 c 0.316406 -0.371093 0.609375 -0.75 0.871094 -1.144531 c 0.703124 -1.066406 1.234374 -2.183593 1.65625 -3.285156 c 0.894531 -0.199219 1.570312 -1 1.570312 -1.953125 c 0 -0.542969 -0.21875 -1.039062 -0.574219 -1.398438 c 0.132813 -0.566406 0.253907 -1.09375 0.367188 -1.601562 z m 0.261719 2 c 0.558594 0 1 0.441406 1 1 s -0.441406 1 -1 1 s -1 -0.441406 -1 -1 s 0.441406 -1 1 -1 z m -4 7 c 0.558594 0 1 0.441406 1 1 s -0.441406 1 -1 1 s -1 -0.441406 -1 -1 s 0.441406 -1 1 -1 z m -6 3 c 0.558594 0 1 0.441406 1 1 s -0.441406 1 -1 1 s -1 -0.441406 -1 -1 s 0.441406 -1 1 -1 z m 0 0" fill="#222222"/>
</svg>
