<?xml version="1.0" encoding="UTF-8"?>
<svg height="16px" viewBox="0 0 16 16" width="16px" xmlns="http://www.w3.org/2000/svg">
    <g fill="#2e3436">
        <path d="m 7 1 h 1 v 13 h -1 z m 0 0"/>
        <path d="m 13 4 v 1 h -11 v -1 z m 0 0"/>
        <path d="m 13 7 v 1 h -11 v -1 z m 0 0"/>
        <path d="m 7.296875 1.027344 c -4.882813 2.726562 -4.882813 10.222656 0 12.917968 l 0.484375 -0.878906 c -4.195312 -2.3125 -4.195312 -8.820312 0.003906 -11.167968 z m 0 0"/>
        <path d="m 13 10 v 1 h -11 v -1 z m 0 0"/>
        <path d="m 7.683594 1.027344 c 4.882812 2.726562 4.882812 10.222656 -0.003906 12.917968 l -0.480469 -0.878906 c 4.195312 -2.3125 4.195312 -8.820312 -0.003907 -11.167968 z m 0 0"/>
        <path d="m 7.5 0 c -4.128906 0 -7.5 3.371094 -7.5 7.5 s 3.371094 7.5 7.5 7.5 s 7.5 -3.371094 7.5 -7.5 s -3.371094 -7.5 -7.5 -7.5 z m 0 2 c 3.050781 0 5.5 2.449219 5.5 5.5 s -2.449219 5.5 -5.5 5.5 s -5.5 -2.449219 -5.5 -5.5 s 2.449219 -5.5 5.5 -5.5 z m 0 0"/>
    </g>
</svg>
