<?xml version="1.0" encoding="UTF-8"?>
<svg height="16px" viewBox="0 0 16 16" width="16px" xmlns="http://www.w3.org/2000/svg" xmlns:xlink="http://www.w3.org/1999/xlink">
    <filter id="a" height="100%" width="100%" x="0%" y="0%">
        <feColorMatrix color-interpolation-filters="sRGB" values="0 0 0 0 1 0 0 0 0 1 0 0 0 0 1 0 0 0 1 0"/>
    </filter>
    <mask id="b">
        <g filter="url(#a)">
            <path d="m -1.6 -1.6 h 19.2 v 19.2 h -19.2 z" fill-opacity="0.5"/>
        </g>
    </mask>
    <clipPath id="c">
        <path d="m 0 0 h 1600 v 1200 h -1600 z"/>
    </clipPath>
    <mask id="d">
        <g filter="url(#a)">
            <path d="m -1.6 -1.6 h 19.2 v 19.2 h -19.2 z" fill-opacity="0.7"/>
        </g>
    </mask>
    <clipPath id="e">
        <path d="m 0 0 h 1600 v 1200 h -1600 z"/>
    </clipPath>
    <mask id="f">
        <g filter="url(#a)">
            <path d="m -1.6 -1.6 h 19.2 v 19.2 h -19.2 z" fill-opacity="0.35"/>
        </g>
    </mask>
    <clipPath id="g">
        <path d="m 0 0 h 1600 v 1200 h -1600 z"/>
    </clipPath>
    <g fill="#222222">
        <path d="m 7.5 11 c -1.929688 0 -3.5 -1.570312 -3.5 -3.5 s 1.570312 -3.5 3.5 -3.5 s 3.5 1.570312 3.5 3.5 s -1.570312 3.5 -3.5 3.5 z m 0 -9 c -3.042969 0 -5.5 2.457031 -5.5 5.5 s 2.457031 5.5 5.5 5.5 s 5.5 -2.457031 5.5 -5.5 s -2.457031 -5.5 -5.5 -5.5 z m 0 0"/>
        <path d="m 3 7 h 9 v 1 h -9 z m 0 0"/>
        <path d="m 4.199219 6.207031 c 2.203125 -0.292969 4.515625 -0.292969 6.714843 0 c 0.273438 0.035157 0.527344 -0.15625 0.5625 -0.429687 c 0.039063 -0.273438 -0.15625 -0.523438 -0.429687 -0.5625 c -2.285156 -0.304688 -4.691406 -0.304688 -6.980469 0 c -0.273437 0.039062 -0.464844 0.289062 -0.425781 0.5625 c 0.035156 0.273437 0.285156 0.464844 0.558594 0.429687 z m 0 0"/>
        <path d="m 4.199219 8.8125 c 2.203125 0.296875 4.515625 0.296875 6.714843 0 c 0.273438 -0.035156 0.527344 0.15625 0.5625 0.429688 c 0.039063 0.273437 -0.15625 0.527343 -0.429687 0.5625 c -2.285156 0.304687 -4.691406 0.304687 -6.980469 0 c -0.273437 -0.035157 -0.464844 -0.289063 -0.425781 -0.5625 c 0.035156 -0.273438 0.285156 -0.464844 0.558594 -0.429688 z m 0 0"/>
        <path d="m 6.976562 10.753906 c -1.339843 -2.074218 -1.339843 -4.230468 0 -6.304687 c 0.097657 -0.148438 0.105469 -0.339844 0.027344 -0.5 c -0.082031 -0.160157 -0.242187 -0.261719 -0.421875 -0.269531 c -0.179687 -0.011719 -0.347656 0.078124 -0.445312 0.226562 c -1.558594 2.410156 -1.558594 4.980469 0 7.390625 c 0.097656 0.152344 0.265625 0.238281 0.445312 0.230469 c 0.179688 -0.011719 0.339844 -0.113282 0.421875 -0.273438 c 0.078125 -0.160156 0.070313 -0.347656 -0.027344 -0.5 z m 0 0"/>
        <path d="m 7.949219 10.753906 c 1.339843 -2.074218 1.339843 -4.230468 0 -6.304687 c -0.097657 -0.148438 -0.109375 -0.339844 -0.027344 -0.5 c 0.082031 -0.15625 0.242187 -0.261719 0.421875 -0.269531 c 0.179688 -0.011719 0.347656 0.078124 0.445312 0.226562 c 1.558594 2.410156 1.558594 4.980469 0 7.390625 c -0.097656 0.152344 -0.265624 0.238281 -0.445312 0.230469 c -0.179688 -0.011719 -0.339844 -0.113282 -0.421875 -0.273438 s -0.070313 -0.347656 0.027344 -0.5 z m 0 0"/>
    </g>
    <g mask="url(#b)">
        <g clip-path="url(#c)" transform="matrix(1 0 0 1 -916 -610)">
            <path d="m 550 182 c -0.351562 0.003906 -0.695312 0.101562 -1 0.28125 v 3.4375 c 0.304688 0.179688 0.648438 0.277344 1 0.28125 c 1.105469 0 2 -0.894531 2 -2 s -0.894531 -2 -2 -2 z m 0 5 c -0.339844 0 -0.679688 0.058594 -1 0.175781 v 6.824219 h 4 v -4 c 0 -1.65625 -1.34375 -3 -3 -3 z m 0 0"/>
        </g>
    </g>
    <g mask="url(#d)">
        <g clip-path="url(#e)" transform="matrix(1 0 0 1 -916 -610)">
            <path d="m 569 182 v 4 c 1.105469 0 2 -0.894531 2 -2 s -0.894531 -2 -2 -2 z m 0 5 v 7 h 3 v -4 c 0 -1.65625 -1.34375 -3 -3 -3 z m 0 0"/>
        </g>
    </g>
    <g mask="url(#f)">
        <g clip-path="url(#g)" transform="matrix(1 0 0 1 -916 -610)">
            <path d="m 573 182.269531 v 3.449219 c 0.613281 -0.355469 0.996094 -1.007812 1 -1.71875 c 0 -0.714844 -0.382812 -1.375 -1 -1.730469 z m 0 4.90625 v 6.824219 h 2 v -4 c 0 -1.269531 -0.800781 -2.402344 -2 -2.824219 z m 0 0"/>
        </g>
    </g>
</svg>
