<?xml version="1.0" encoding="UTF-8"?>
<svg height="16px" viewBox="0 0 16 16" width="16px" xmlns="http://www.w3.org/2000/svg" xmlns:xlink="http://www.w3.org/1999/xlink">
    <filter id="a" height="100%" width="100%" x="0%" y="0%">
        <feColorMatrix color-interpolation-filters="sRGB" values="0 0 0 0 1 0 0 0 0 1 0 0 0 0 1 0 0 0 1 0"/>
    </filter>
    <mask id="b">
        <g filter="url(#a)">
            <path d="m -1.6 -1.6 h 19.2 v 19.2 h -19.2 z" fill-opacity="0.5"/>
        </g>
    </mask>
    <clipPath id="c">
        <path d="m 0 0 h 1600 v 1200 h -1600 z"/>
    </clipPath>
    <mask id="d">
        <g filter="url(#a)">
            <path d="m -1.6 -1.6 h 19.2 v 19.2 h -19.2 z" fill-opacity="0.7"/>
        </g>
    </mask>
    <clipPath id="e">
        <path d="m 0 0 h 1600 v 1200 h -1600 z"/>
    </clipPath>
    <mask id="f">
        <g filter="url(#a)">
            <path d="m -1.6 -1.6 h 19.2 v 19.2 h -19.2 z" fill-opacity="0.35"/>
        </g>
    </mask>
    <clipPath id="g">
        <path d="m 0 0 h 1600 v 1200 h -1600 z"/>
    </clipPath>
    <g fill="#222222">
        <path d="m 12.75 9.929688 c 0.246094 0.328124 0.25 0.785156 0 1.113281 l -1.652344 2.195312 c -0.359375 0.480469 -0.925781 0.761719 -1.527344 0.761719 h -2.546874 c -0.597657 0 -1.164063 -0.28125 -1.527344 -0.761719 l -1.652344 -2.195312 c -0.246094 -0.328125 -0.246094 -0.785157 0.003906 -1.113281 l 1.644532 -2.167969 c 0.363281 -0.480469 0.929687 -0.761719 1.53125 -0.761719 h 2.546874 c 0.601563 0 1.171876 0.28125 1.535157 0.761719 z m -3.179688 -4.929688 h -2.546874 c -1.226563 0 -2.382813 0.574219 -3.125 1.554688 l -1.644532 2.167968 c -0.792968 1.042969 -0.796875 2.476563 -0.007812 3.523438 l 1.652344 2.195312 c 0.742187 0.980469 1.898437 1.558594 3.125 1.558594 h 2.546874 c 1.230469 0 2.386719 -0.578125 3.125 -1.558594 l 1.652344 -2.195312 c 0.789063 -1.046875 0.785156 -2.480469 -0.003906 -3.523438 l -1.644531 -2.167968 c -0.742188 -0.980469 -1.898438 -1.554688 -3.128907 -1.554688 z m 0 0"/>
        <path d="m 2.992188 10 h 10 v 1 h -10 z m 0 0" fill-rule="evenodd"/>
        <path d="m 7.992188 11 v -8 h 1 v 8 z m 0 0" fill-rule="evenodd"/>
        <path d="m 15.082031 0.507812 c -0.066406 -0.011718 -0.132812 -0.011718 -0.195312 0.003907 l -5.179688 1.109375 c -0.28125 -0.390625 -0.734375 -0.621094 -1.214843 -0.621094 c -0.710938 0 -1.320313 0.5 -1.464844 1.195312 l -6.140625 1.316407 c -0.269531 0.058593 -0.441407 0.324219 -0.382813 0.59375 s 0.324219 0.441406 0.59375 0.382812 l 6.066406 -1.300781 c 0.257813 0.5 0.769532 0.8125 1.328126 0.8125 c 0.792968 0 1.449218 -0.621094 1.492187 -1.417969 l 5.113281 -1.09375 c 0.269532 -0.058593 0.441406 -0.324219 0.382813 -0.59375 c -0.042969 -0.199219 -0.199219 -0.351562 -0.398438 -0.386719 z m -6.589843 1.492188 c 0.277343 0 0.5 0.222656 0.5 0.5 s -0.222657 0.5 -0.5 0.5 c -0.277344 0 -0.5 -0.222656 -0.5 -0.5 s 0.222656 -0.5 0.5 -0.5 z m 0 0"/>
    </g>
    <g mask="url(#b)">
        <g clip-path="url(#c)" transform="matrix(1 0 0 1 -720 -120)">
            <path d="m 550 182 c -0.351562 0.003906 -0.695312 0.101562 -1 0.28125 v 3.4375 c 0.304688 0.179688 0.648438 0.277344 1 0.28125 c 1.105469 0 2 -0.894531 2 -2 s -0.894531 -2 -2 -2 z m 0 5 c -0.339844 0 -0.679688 0.058594 -1 0.175781 v 6.824219 h 4 v -4 c 0 -1.65625 -1.34375 -3 -3 -3 z m 0 0"/>
        </g>
    </g>
    <g mask="url(#d)">
        <g clip-path="url(#e)" transform="matrix(1 0 0 1 -720 -120)">
            <path d="m 569 182 v 4 c 1.105469 0 2 -0.894531 2 -2 s -0.894531 -2 -2 -2 z m 0 5 v 7 h 3 v -4 c 0 -1.65625 -1.34375 -3 -3 -3 z m 0 0"/>
        </g>
    </g>
    <g mask="url(#f)">
        <g clip-path="url(#g)" transform="matrix(1 0 0 1 -720 -120)">
            <path d="m 573 182.269531 v 3.449219 c 0.613281 -0.355469 0.996094 -1.007812 1 -1.71875 c 0 -0.714844 -0.382812 -1.375 -1 -1.730469 z m 0 4.90625 v 6.824219 h 2 v -4 c 0 -1.269531 -0.800781 -2.402344 -2 -2.824219 z m 0 0"/>
        </g>
    </g>
</svg>
