<?xml version="1.0" encoding="UTF-8"?>
<svg height="16px" viewBox="0 0 16 16" width="16px" xmlns="http://www.w3.org/2000/svg" xmlns:xlink="http://www.w3.org/1999/xlink">
    <filter id="a" height="100%" width="100%" x="0%" y="0%">
        <feColorMatrix color-interpolation-filters="sRGB" values="0 0 0 0 1 0 0 0 0 1 0 0 0 0 1 0 0 0 1 0"/>
    </filter>
    <mask id="b">
        <g filter="url(#a)">
            <path d="m -1.6 -1.6 h 19.2 v 19.2 h -19.2 z" fill-opacity="0.5"/>
        </g>
    </mask>
    <clipPath id="c">
        <path d="m 0 0 h 1600 v 1200 h -1600 z"/>
    </clipPath>
    <mask id="d">
        <g filter="url(#a)">
            <path d="m -1.6 -1.6 h 19.2 v 19.2 h -19.2 z" fill-opacity="0.7"/>
        </g>
    </mask>
    <clipPath id="e">
        <path d="m 0 0 h 1600 v 1200 h -1600 z"/>
    </clipPath>
    <mask id="f">
        <g filter="url(#a)">
            <path d="m -1.6 -1.6 h 19.2 v 19.2 h -19.2 z" fill-opacity="0.35"/>
        </g>
    </mask>
    <clipPath id="g">
        <path d="m 0 0 h 1600 v 1200 h -1600 z"/>
    </clipPath>
    <g mask="url(#b)">
        <g clip-path="url(#c)" transform="matrix(1 0 0 1 -160 -240)">
            <path d="m 550 182 c -0.351562 0.003906 -0.695312 0.101562 -1 0.28125 v 3.4375 c 0.304688 0.179688 0.648438 0.277344 1 0.28125 c 1.105469 0 2 -0.894531 2 -2 s -0.894531 -2 -2 -2 z m 0 5 c -0.339844 0 -0.679688 0.058594 -1 0.175781 v 6.824219 h 4 v -4 c 0 -1.65625 -1.34375 -3 -3 -3 z m 0 0"/>
        </g>
    </g>
    <g mask="url(#d)">
        <g clip-path="url(#e)" transform="matrix(1 0 0 1 -160 -240)">
            <path d="m 569 182 v 4 c 1.105469 0 2 -0.894531 2 -2 s -0.894531 -2 -2 -2 z m 0 5 v 7 h 3 v -4 c 0 -1.65625 -1.34375 -3 -3 -3 z m 0 0"/>
        </g>
    </g>
    <g mask="url(#f)">
        <g clip-path="url(#g)" transform="matrix(1 0 0 1 -160 -240)">
            <path d="m 573 182.269531 v 3.449219 c 0.613281 -0.355469 0.996094 -1.007812 1 -1.71875 c 0 -0.714844 -0.382812 -1.375 -1 -1.730469 z m 0 4.90625 v 6.824219 h 2 v -4 c 0 -1.269531 -0.800781 -2.402344 -2 -2.824219 z m 0 0"/>
        </g>
    </g>
    <g fill="#222222">
        <path d="m 3.957031 5.988281 c -0.101562 0.003907 -0.203125 0.023438 -0.300781 0.058594 c -0.738281 0.109375 -2.65625 0.691406 -2.65625 3.953125 v 5 h 4 v -4.691406 c 0.101562 0.070312 0.203125 0.136718 0.304688 0.195312 c 0.578124 0.320313 1.15625 0.433594 1.695312 0.476563 v -0.980469 h 1 v -1 c -0.003906 0 -0.003906 0 -0.007812 0 c -0.773438 0.003906 -1.3125 -0.023438 -1.71875 -0.25 c -0.40625 -0.222656 -0.871094 -0.703125 -1.324219 -2.066406 c -0.136719 -0.429688 -0.542969 -0.714844 -0.992188 -0.695313 z m 0 0"/>
        <path d="m 12 1 c -1.105469 0 -2 0.894531 -2 2 s 0.894531 2 2 2 s 2 -0.894531 2 -2 s -0.894531 -2 -2 -2 z m -0.042969 4.988281 c -0.414062 0.015625 -0.777343 0.292969 -0.90625 0.695313 c -0.453125 1.363281 -0.917969 1.84375 -1.324219 2.066406 c -0.40625 0.226562 -0.945312 0.253906 -1.722656 0.25 h -0.003906 v 1 h -1 v 0.980469 c 0.167969 0.011719 0.332031 0.015625 0.492188 0.015625 c 0.003906 0 0.003906 0.003906 0.007812 0.003906 h 0.492188 h 0.011718 h 0.496094 c 0.003906 0 0.003906 -0.003906 0.007812 -0.003906 c 0.671876 -0.007813 1.429688 -0.074219 2.1875 -0.492188 c 0.101563 -0.058594 0.203126 -0.125 0.304688 -0.195312 v 4.691406 h 4 v -5 c 0 -3.261719 -1.917969 -3.84375 -2.652344 -3.953125 c -0.101562 -0.035156 -0.203125 -0.054687 -0.304687 -0.058594 c -0.03125 -0.003906 -0.058594 -0.003906 -0.085938 0 z m 0 0" fill-opacity="0.501961"/>
        <path d="m 4 1 c -1.105469 0 -2 0.894531 -2 2 s 0.894531 2 2 2 s 2 -0.894531 2 -2 s -0.894531 -2 -2 -2 z m 0 0"/>
    </g>
</svg>
