<?xml version="1.0" encoding="UTF-8"?>
<svg height="16px" viewBox="0 0 16 16" width="16px" xmlns="http://www.w3.org/2000/svg" xmlns:xlink="http://www.w3.org/1999/xlink">
    <filter id="a" height="100%" width="100%" x="0%" y="0%">
        <feColorMatrix color-interpolation-filters="sRGB" values="0 0 0 0 1 0 0 0 0 1 0 0 0 0 1 0 0 0 1 0"/>
    </filter>
    <mask id="b">
        <g filter="url(#a)">
            <path d="m -1.6 -1.6 h 19.2 v 19.2 h -19.2 z" fill-opacity="0.5"/>
        </g>
    </mask>
    <clipPath id="c">
        <path d="m 0 0 h 1600 v 1200 h -1600 z"/>
    </clipPath>
    <mask id="d">
        <g filter="url(#a)">
            <path d="m -1.6 -1.6 h 19.2 v 19.2 h -19.2 z" fill-opacity="0.7"/>
        </g>
    </mask>
    <clipPath id="e">
        <path d="m 0 0 h 1600 v 1200 h -1600 z"/>
    </clipPath>
    <mask id="f">
        <g filter="url(#a)">
            <path d="m -1.6 -1.6 h 19.2 v 19.2 h -19.2 z" fill-opacity="0.35"/>
        </g>
    </mask>
    <clipPath id="g">
        <path d="m 0 0 h 1600 v 1200 h -1600 z"/>
    </clipPath>
    <g mask="url(#b)">
        <g clip-path="url(#c)" transform="matrix(1 0 0 1 -196 -876)">
            <path d="m 550 182 c -0.351562 0.003906 -0.695312 0.101562 -1 0.28125 v 3.4375 c 0.304688 0.179688 0.648438 0.277344 1 0.28125 c 1.105469 0 2 -0.894531 2 -2 s -0.894531 -2 -2 -2 z m 0 5 c -0.339844 0 -0.679688 0.058594 -1 0.175781 v 6.824219 h 4 v -4 c 0 -1.65625 -1.34375 -3 -3 -3 z m 0 0"/>
        </g>
    </g>
    <g mask="url(#d)">
        <g clip-path="url(#e)" transform="matrix(1 0 0 1 -196 -876)">
            <path d="m 569 182 v 4 c 1.105469 0 2 -0.894531 2 -2 s -0.894531 -2 -2 -2 z m 0 5 v 7 h 3 v -4 c 0 -1.65625 -1.34375 -3 -3 -3 z m 0 0"/>
        </g>
    </g>
    <g mask="url(#f)">
        <g clip-path="url(#g)" transform="matrix(1 0 0 1 -196 -876)">
            <path d="m 573 182.269531 v 3.449219 c 0.613281 -0.355469 0.996094 -1.007812 1 -1.71875 c 0 -0.714844 -0.382812 -1.375 -1 -1.730469 z m 0 4.90625 v 6.824219 h 2 v -4 c 0 -1.269531 -0.800781 -2.402344 -2 -2.824219 z m 0 0"/>
        </g>
    </g>
    <g fill="#222222">
        <path d="m 8.4375 1.480469 c -0.21875 0.179687 -0.410156 0.410156 -0.546875 0.675781 l -4.65625 9.125 c -0.542969 1.070312 -0.109375 2.386719 0.96875 2.960938 l 0.945313 0.496093 c 1.074218 0.570313 2.371093 0.175781 2.914062 -0.894531 l 4.660156 -9.121094 c 0.542969 -1.070312 0.109375 -2.390625 -0.96875 -2.960937 l -0.945312 -0.496094 c -0.804688 -0.429687 -1.726563 -0.320313 -2.371094 0.214844 z m -1.472656 4.464843 c 0.332031 -0.246093 0.8125 -0.179687 1.0625 0.140626 c 0.253906 0.320312 0.1875 0.789062 -0.140625 1.035156 c -0.332031 0.246094 -0.8125 0.183594 -1.0625 -0.140625 c -0.253907 -0.320313 -0.1875 -0.789063 0.140625 -1.035157 z m -0.992188 1.980469 c 0.328125 -0.246093 0.808594 -0.183593 1.0625 0.136719 c 0.25 0.324219 0.1875 0.792969 -0.144531 1.039062 c -0.328125 0.246094 -0.808594 0.179688 -1.0625 -0.140624 c -0.25 -0.320313 -0.1875 -0.789063 0.144531 -1.035157 z m 3.023438 -1.011719 c 0.328125 -0.246093 0.808594 -0.183593 1.0625 0.140626 c 0.25 0.320312 0.1875 0.789062 -0.144532 1.035156 c -0.328124 0.246094 -0.808593 0.183594 -1.0625 -0.140625 c -0.25 -0.320313 -0.1875 -0.789063 0.144532 -1.035157 z m -0.992188 1.980469 c 0.328125 -0.246093 0.808594 -0.183593 1.0625 0.136719 c 0.25 0.324219 0.183594 0.792969 -0.144531 1.039062 c -0.328125 0.242188 -0.8125 0.179688 -1.0625 -0.140624 c -0.25 -0.320313 -0.1875 -0.789063 0.144531 -1.035157 z m 0 0"/>
        <path d="m 3.59375 3 c -0.839844 -0.035156 -1.609375 0.4375 -1.96875 1.28125 l -0.4375 1 c -0.480469 1.128906 0 2.46875 1.09375 3 l 0.875 0.40625 l 2.4375 -4.90625 l -1.15625 -0.5625 c -0.273438 -0.132812 -0.5625 -0.207031 -0.84375 -0.21875 z m 9.28125 4.28125 l -2.46875 4.90625 l 1.21875 0.59375 c 1.09375 0.53125 2.332031 0.066406 2.8125 -1.0625 l 0.4375 -1 c 0.480469 -1.128906 0 -2.46875 -1.09375 -3 z m 0 0" fill-opacity="0.34902"/>
    </g>
</svg>
