<?xml version="1.0" encoding="UTF-8"?>
<svg height="16px" viewBox="0 0 16 16" width="16px" xmlns="http://www.w3.org/2000/svg" xmlns:xlink="http://www.w3.org/1999/xlink">
    <filter id="a" height="100%" width="100%" x="0%" y="0%">
        <feColorMatrix color-interpolation-filters="sRGB" values="0 0 0 0 1 0 0 0 0 1 0 0 0 0 1 0 0 0 1 0"/>
    </filter>
    <mask id="b">
        <g filter="url(#a)">
            <path d="m -1.6 -1.6 h 19.2 v 19.2 h -19.2 z" fill-opacity="0.5"/>
        </g>
    </mask>
    <clipPath id="c">
        <path d="m 0 0 h 1600 v 1200 h -1600 z"/>
    </clipPath>
    <mask id="d">
        <g filter="url(#a)">
            <path d="m -1.6 -1.6 h 19.2 v 19.2 h -19.2 z" fill-opacity="0.7"/>
        </g>
    </mask>
    <clipPath id="e">
        <path d="m 0 0 h 1600 v 1200 h -1600 z"/>
    </clipPath>
    <mask id="f">
        <g filter="url(#a)">
            <path d="m -1.6 -1.6 h 19.2 v 19.2 h -19.2 z" fill-opacity="0.35"/>
        </g>
    </mask>
    <clipPath id="g">
        <path d="m 0 0 h 1600 v 1200 h -1600 z"/>
    </clipPath>
    <path d="m 8.59375 1 c 0.613281 0.007812 1.234375 0.089844 1.847656 0.253906 c 3.273438 0.878906 5.558594 3.855469 5.558594 7.246094 s -2.285156 6.367188 -5.558594 7.242188 c -3.273437 0.878906 -6.742187 -0.558594 -8.4375 -3.492188 c -0.277344 -0.480469 -0.109375 -1.089844 0.367188 -1.367188 c 0.476562 -0.273437 1.089844 -0.109374 1.367187 0.367188 c 1.246094 2.160156 3.777344 3.207031 6.1875 2.5625 c 2.40625 -0.644531 4.074219 -2.820312 4.074219 -5.3125 c 0 -2.496094 -1.667969 -4.667969 -4.074219 -5.3125 c -2.410156 -0.644531 -4.941406 0.402344 -6.1875 2.5625 c -0.058593 0.085938 -0.125 0.164062 -0.203125 0.226562 l 0.019532 0.015626 l 0.007812 0.007812 l -2.5625 1 l 1 -2.3125 l 0.015625 0.011719 l 0.011719 0.011719 c 1.277344 -2.179688 3.53125 -3.519532 5.953125 -3.691407 c 0.203125 -0.015625 0.40625 -0.019531 0.613281 -0.019531 z m 0 0" fill="#222222"/>
    <path d="m 8.5 5 c -0.277344 0 -0.5 0.222656 -0.5 0.5 v 3.207031 l 2.144531 2.148438 c 0.195313 0.191406 0.511719 0.191406 0.707031 0 c 0.195313 -0.195313 0.195313 -0.515625 0 -0.710938 l -1.851562 -1.851562 v -2.792969 c 0 -0.277344 -0.222656 -0.5 -0.5 -0.5 z m 0 0"/>
    <path d="m 1 2 c -0.550781 0 -1 0.449219 -1 1 v 4 c 0 0.550781 0.449219 1 1 1 h 4 c 0.550781 0 1 -0.449219 1 -1 s -0.449219 -1 -1 -1 h -3 v -3 c 0 -0.550781 -0.449219 -1 -1 -1 z m 0 0" fill="#222222"/>
    <g mask="url(#b)">
        <g clip-path="url(#c)" transform="matrix(1 0 0 1 -540 -400)">
            <path d="m 550 182 c -0.351562 0.003906 -0.695312 0.101562 -1 0.28125 v 3.4375 c 0.304688 0.179688 0.648438 0.277344 1 0.28125 c 1.105469 0 2 -0.894531 2 -2 s -0.894531 -2 -2 -2 z m 0 5 c -0.339844 0 -0.679688 0.058594 -1 0.175781 v 6.824219 h 4 v -4 c 0 -1.65625 -1.34375 -3 -3 -3 z m 0 0"/>
        </g>
    </g>
    <g mask="url(#d)">
        <g clip-path="url(#e)" transform="matrix(1 0 0 1 -540 -400)">
            <path d="m 569 182 v 4 c 1.105469 0 2 -0.894531 2 -2 s -0.894531 -2 -2 -2 z m 0 5 v 7 h 3 v -4 c 0 -1.65625 -1.34375 -3 -3 -3 z m 0 0"/>
        </g>
    </g>
    <g mask="url(#f)">
        <g clip-path="url(#g)" transform="matrix(1 0 0 1 -540 -400)">
            <path d="m 573 182.269531 v 3.449219 c 0.613281 -0.355469 0.996094 -1.007812 1 -1.71875 c 0 -0.714844 -0.382812 -1.375 -1 -1.730469 z m 0 4.90625 v 6.824219 h 2 v -4 c 0 -1.269531 -0.800781 -2.402344 -2 -2.824219 z m 0 0"/>
        </g>
    </g>
</svg>
