<?xml version="1.0" encoding="UTF-8"?>
<svg height="16px" viewBox="0 0 16 16" width="16px" xmlns="http://www.w3.org/2000/svg" xmlns:xlink="http://www.w3.org/1999/xlink">
    <filter id="a" height="100%" width="100%" x="0%" y="0%">
        <feColorMatrix color-interpolation-filters="sRGB" values="0 0 0 0 1 0 0 0 0 1 0 0 0 0 1 0 0 0 1 0"/>
    </filter>
    <mask id="b">
        <g filter="url(#a)">
            <path d="m -1.6 -1.6 h 19.2 v 19.2 h -19.2 z" fill-opacity="0.5"/>
        </g>
    </mask>
    <clipPath id="c">
        <path d="m 0 0 h 1600 v 1200 h -1600 z"/>
    </clipPath>
    <mask id="d">
        <g filter="url(#a)">
            <path d="m -1.6 -1.6 h 19.2 v 19.2 h -19.2 z" fill-opacity="0.7"/>
        </g>
    </mask>
    <clipPath id="e">
        <path d="m 0 0 h 1600 v 1200 h -1600 z"/>
    </clipPath>
    <mask id="f">
        <g filter="url(#a)">
            <path d="m -1.6 -1.6 h 19.2 v 19.2 h -19.2 z" fill-opacity="0.35"/>
        </g>
    </mask>
    <clipPath id="g">
        <path d="m 0 0 h 1600 v 1200 h -1600 z"/>
    </clipPath>
    <path d="m 3.851562 0.0117188 c -0.105468 0.015625 -0.203124 0.046875 -0.300781 0.0937502 c -0.492187 0.246093 -0.691406 0.847656 -0.445312 1.339843 l 3.21875 6.4375 l 1.117187 -2.238281 l -2.546875 -5.09375 c -0.195312 -0.386719 -0.613281 -0.6054685 -1.042969 -0.5390622 z m 5.824219 10.1054692 l -1.117187 2.238281 l 1.546875 3.09375 c 0.171875 0.332031 0.519531 0.542969 0.894531 0.539062 v 0.011719 h 3.5 v -3 h -3.382812 z m 5.324219 2.882812 v 3 h 1 v -3 z m 0 0" fill="#222222"/>
    <path d="m 12.148438 0.0117188 c -0.429688 -0.0664063 -0.847657 0.1523432 -1.042969 0.5390622 l -6.222657 12.449219 h -3.484374 v 3 h 3.601562 v -0.011719 c 0.375 0.003907 0.722656 -0.207031 0.894531 -0.539062 l 7 -14 c 0.246094 -0.496094 0.046875 -1.097657 -0.445312 -1.34375 c -0.097657 -0.0468752 -0.195313 -0.0781252 -0.300781 -0.0937502 z m -12.148438 12.9882812 v 3 h 1 v -3 z m 0 0" fill="#222222"/>
    <g mask="url(#b)">
        <g clip-path="url(#c)" transform="matrix(1 0 0 1 -856 -350)">
            <path d="m 550 182 c -0.351562 0.003906 -0.695312 0.101562 -1 0.28125 v 3.4375 c 0.304688 0.179688 0.648438 0.277344 1 0.28125 c 1.105469 0 2 -0.894531 2 -2 s -0.894531 -2 -2 -2 z m 0 5 c -0.339844 0 -0.679688 0.058594 -1 0.175781 v 6.824219 h 4 v -4 c 0 -1.65625 -1.34375 -3 -3 -3 z m 0 0"/>
        </g>
    </g>
    <g mask="url(#d)">
        <g clip-path="url(#e)" transform="matrix(1 0 0 1 -856 -350)">
            <path d="m 569 182 v 4 c 1.105469 0 2 -0.894531 2 -2 s -0.894531 -2 -2 -2 z m 0 5 v 7 h 3 v -4 c 0 -1.65625 -1.34375 -3 -3 -3 z m 0 0"/>
        </g>
    </g>
    <g mask="url(#f)">
        <g clip-path="url(#g)" transform="matrix(1 0 0 1 -856 -350)">
            <path d="m 573 182.269531 v 3.449219 c 0.613281 -0.355469 0.996094 -1.007812 1 -1.71875 c 0 -0.714844 -0.382812 -1.375 -1 -1.730469 z m 0 4.90625 v 6.824219 h 2 v -4 c 0 -1.269531 -0.800781 -2.402344 -2 -2.824219 z m 0 0"/>
        </g>
    </g>
</svg>
