<?xml version="1.0" encoding="UTF-8"?>
<svg height="16px" viewBox="0 0 16 16" width="16px" xmlns="http://www.w3.org/2000/svg" xmlns:xlink="http://www.w3.org/1999/xlink">
    <filter id="a" height="100%" width="100%" x="0%" y="0%">
        <feColorMatrix color-interpolation-filters="sRGB" values="0 0 0 0 1 0 0 0 0 1 0 0 0 0 1 0 0 0 1 0"/>
    </filter>
    <mask id="b">
        <g filter="url(#a)">
            <path d="m -1.6 -1.6 h 19.2 v 19.2 h -19.2 z" fill-opacity="0.5"/>
        </g>
    </mask>
    <clipPath id="c">
        <path d="m 0 0 h 1600 v 1200 h -1600 z"/>
    </clipPath>
    <mask id="d">
        <g filter="url(#a)">
            <path d="m -1.6 -1.6 h 19.2 v 19.2 h -19.2 z" fill-opacity="0.7"/>
        </g>
    </mask>
    <clipPath id="e">
        <path d="m 0 0 h 1600 v 1200 h -1600 z"/>
    </clipPath>
    <mask id="f">
        <g filter="url(#a)">
            <path d="m -1.6 -1.6 h 19.2 v 19.2 h -19.2 z" fill-opacity="0.35"/>
        </g>
    </mask>
    <clipPath id="g">
        <path d="m 0 0 h 1600 v 1200 h -1600 z"/>
    </clipPath>
    <path d="m 2 15 c 0 0.550781 0.449219 1 1 1 h 10 c 0.550781 0 1 -0.449219 1 -1 v -4 c 0 -2.042969 -1.945312 -3.964844 -3.945312 -4.015625 l -2.050782 -0.054687 c -0.011718 0 -0.019531 0 -0.027344 0 c -0.640624 0 -1.171874 -0.53125 -1.171874 -1.171876 c 0 -0.644531 0.53125 -1.171874 1.171874 -1.171874 c 0.496094 0 0.921876 0.292968 1.082032 0.746093 c 0.140625 0.402344 0.519531 0.667969 0.941406 0.667969 h 3 c 0.550781 0 1 -0.449219 1 -1 v -4 c 0 -0.550781 -0.449219 -1 -1 -1 h -10 c -0.550781 0 -1 0.449219 -1 1 z m 11 -13 l -1 -1 v 4 l 1 -1 h -3 l 0.941406 0.667969 c -0.453125 -1.28125 -1.625 -2.082031 -2.964844 -2.082031 c -1.757812 0 -3.171874 1.414062 -3.171874 3.171874 c 0 1.753907 1.414062 3.171876 3.171874 3.171876 h -0.027343 l 2.050781 0.054687 c 0.945312 0.023437 2 1.058594 2 2.015625 v 4 l 1 -1 h -10 l 1 1 v -14 l -1 1 z m 0 0"/>
    <g mask="url(#b)">
        <g clip-path="url(#c)" transform="matrix(1 0 0 1 -600 -261)">
            <path d="m 550 182 c -0.351562 0.003906 -0.695312 0.101562 -1 0.28125 v 3.4375 c 0.304688 0.179688 0.648438 0.277344 1 0.28125 c 1.105469 0 2 -0.894531 2 -2 s -0.894531 -2 -2 -2 z m 0 5 c -0.339844 0 -0.679688 0.058594 -1 0.175781 v 6.824219 h 4 v -4 c 0 -1.65625 -1.34375 -3 -3 -3 z m 0 0"/>
        </g>
    </g>
    <g mask="url(#d)">
        <g clip-path="url(#e)" transform="matrix(1 0 0 1 -600 -261)">
            <path d="m 569 182 v 4 c 1.105469 0 2 -0.894531 2 -2 s -0.894531 -2 -2 -2 z m 0 5 v 7 h 3 v -4 c 0 -1.65625 -1.34375 -3 -3 -3 z m 0 0"/>
        </g>
    </g>
    <g mask="url(#f)">
        <g clip-path="url(#g)" transform="matrix(1 0 0 1 -600 -261)">
            <path d="m 573 182.269531 v 3.449219 c 0.613281 -0.355469 0.996094 -1.007812 1 -1.71875 c 0 -0.714844 -0.382812 -1.375 -1 -1.730469 z m 0 4.90625 v 6.824219 h 2 v -4 c 0 -1.269531 -0.800781 -2.402344 -2 -2.824219 z m 0 0"/>
        </g>
    </g>
</svg>
