<?xml version="1.0" encoding="UTF-8"?>
<svg height="16px" viewBox="0 0 16 16" width="16px" xmlns="http://www.w3.org/2000/svg" xmlns:xlink="http://www.w3.org/1999/xlink">
    <filter id="a" height="100%" width="100%" x="0%" y="0%">
        <feColorMatrix color-interpolation-filters="sRGB" values="0 0 0 0 1 0 0 0 0 1 0 0 0 0 1 0 0 0 1 0"/>
    </filter>
    <mask id="b">
        <g filter="url(#a)">
            <path d="m -1.6 -1.6 h 19.2 v 19.2 h -19.2 z" fill-opacity="0.5"/>
        </g>
    </mask>
    <clipPath id="c">
        <path d="m 0 0 h 1600 v 1200 h -1600 z"/>
    </clipPath>
    <mask id="d">
        <g filter="url(#a)">
            <path d="m -1.6 -1.6 h 19.2 v 19.2 h -19.2 z" fill-opacity="0.7"/>
        </g>
    </mask>
    <clipPath id="e">
        <path d="m 0 0 h 1600 v 1200 h -1600 z"/>
    </clipPath>
    <mask id="f">
        <g filter="url(#a)">
            <path d="m -1.6 -1.6 h 19.2 v 19.2 h -19.2 z" fill-opacity="0.35"/>
        </g>
    </mask>
    <clipPath id="g">
        <path d="m 0 0 h 1600 v 1200 h -1600 z"/>
    </clipPath>
    <g mask="url(#b)">
        <g clip-path="url(#c)" transform="matrix(1 0 0 1 -180 -456)">
            <path d="m 550 182 c -0.351562 0.003906 -0.695312 0.101562 -1 0.28125 v 3.4375 c 0.304688 0.179688 0.648438 0.277344 1 0.28125 c 1.105469 0 2 -0.894531 2 -2 s -0.894531 -2 -2 -2 z m 0 5 c -0.339844 0 -0.679688 0.058594 -1 0.175781 v 6.824219 h 4 v -4 c 0 -1.65625 -1.34375 -3 -3 -3 z m 0 0"/>
        </g>
    </g>
    <g mask="url(#d)">
        <g clip-path="url(#e)" transform="matrix(1 0 0 1 -180 -456)">
            <path d="m 569 182 v 4 c 1.105469 0 2 -0.894531 2 -2 s -0.894531 -2 -2 -2 z m 0 5 v 7 h 3 v -4 c 0 -1.65625 -1.34375 -3 -3 -3 z m 0 0"/>
        </g>
    </g>
    <g mask="url(#f)">
        <g clip-path="url(#g)" transform="matrix(1 0 0 1 -180 -456)">
            <path d="m 573 182.269531 v 3.449219 c 0.613281 -0.355469 0.996094 -1.007812 1 -1.71875 c 0 -0.714844 -0.382812 -1.375 -1 -1.730469 z m 0 4.90625 v 6.824219 h 2 v -4 c 0 -1.269531 -0.800781 -2.402344 -2 -2.824219 z m 0 0"/>
        </g>
    </g>
    <g fill="#2e3436">
        <path d="m 6.988281 5.996094 c 0 0.550781 -0.449219 1 -1 1 c -0.554687 0 -1 -0.449219 -1 -1 c 0 -0.554688 0.445313 -1 1 -1 c 0.550781 0 1 0.445312 1 1 z m 0 0"/>
        <path d="m 11.96875 3 c 0.570312 0 1.03125 0.460938 1.03125 1.03125 v 7.9375 c 0 0.570312 -0.460938 1.03125 -1.03125 1.03125 h -7.9375 c -0.570312 0 -1.03125 -0.460938 -1.03125 -1.03125 v -7.9375 c 0 -0.570312 0.460938 -1.03125 1.03125 -1.03125 z m -10.96875 1.03125 v 7.9375 c 0 1.679688 1.351562 3.03125 3.03125 3.03125 h 7.9375 c 1.679688 0 3.03125 -1.351562 3.03125 -3.03125 v -7.9375 c 0 -1.679688 -1.351562 -3.03125 -3.03125 -3.03125 h -7.9375 c -1.679688 0 -3.03125 1.351562 -3.03125 3.03125 z m 0 0"/>
        <path d="m 2.820312 12.359375 l 2.320313 -2.25 c 0.175781 -0.171875 0.464844 -0.167969 0.636719 0.007813 l 3.863281 3.980468 l 0.71875 -0.695312 l -3.863281 -3.980469 c -0.5625 -0.578125 -1.476563 -0.59375 -2.054688 -0.03125 l -2.316406 2.25 z m 0 0"/>
        <path d="m 7.136719 11.109375 l 2.097656 -2.015625 c 0.175781 -0.167969 0.460937 -0.164062 0.628906 0.007812 l 3.78125 3.8125 l 0.710938 -0.703124 l -3.78125 -3.8125 c -0.558594 -0.5625 -1.460938 -0.574219 -2.035157 -0.023438 l -2.097656 2.015625 z m 0 0"/>
    </g>
</svg>
