<?xml version="1.0" encoding="UTF-8"?>
<svg height="16px" viewBox="0 0 16 16" width="16px" xmlns="http://www.w3.org/2000/svg">
    <g fill="#2e3436" fill-opacity="0.35">
        <path d="m 5.972656 5.023438 c -0.550781 0 -1 0.449218 -1 1 c 0 0.554687 0.449219 1 1 1 c 0.550782 0 1 -0.445313 1 -1 c 0 -0.550782 -0.449218 -1 -1 -1 z m 3.5 3 l -2 2 l -1.5 -1 l -2 2 v 0.5 c 0 0.5 0.5 0.5 0.5 0.5 h 7 s 0.472656 -0.03125 0.5 -0.5 v -1 z m 0 0"/>
        <path d="m 3.878906 0.992188 h -0.101562 c -0.015625 0.003906 -0.035156 0.003906 -0.050782 0.003906 l -0.082031 0.007812 l 0.152344 1.996094 l 0.058594 -0.007812 l 0.050781 -0.003907 v 0.003907 h 2 v -2 h -2 v 1 z m 4.027344 0 v 2 h 2 v -2 z m 4.023438 0 l -0.050782 2 h 0.019532 l 0.050781 0.003906 l 0.046875 0.007812 l 0.050781 0.007813 l 0.09375 0.023437 l 0.042969 0.015625 l 0.128906 0.058594 l 0.039062 0.023437 l 0.042969 0.023438 l 0.035157 0.027344 l 0.039062 0.03125 l 0.070312 0.0625 l 0.0625 0.070312 l 0.027344 0.035156 l 0.027344 0.039063 l 0.023438 0.039063 l 0.003906 0.007812 l 1.738281 -0.996094 l -0.019531 -0.027344 c -0.007813 -0.015624 -0.015625 -0.027343 -0.023438 -0.042968 l -0.050781 -0.078125 c -0.007813 -0.015625 -0.019531 -0.027344 -0.027344 -0.042969 l -0.054687 -0.074219 c -0.011719 -0.015625 -0.019532 -0.027343 -0.027344 -0.039062 l -0.058594 -0.074219 c -0.011718 -0.015625 -0.023437 -0.027344 -0.03125 -0.039062 l -0.0625 -0.070313 c -0.011718 -0.011719 -0.023437 -0.023437 -0.03125 -0.035156 l -0.066406 -0.070313 c -0.011719 -0.011718 -0.023438 -0.023437 -0.035156 -0.03125 l -0.066406 -0.066406 c -0.011719 -0.011719 -0.023438 -0.023438 -0.035157 -0.03125 l -0.074219 -0.0625 c -0.011718 -0.011719 -0.023437 -0.023438 -0.035156 -0.03125 l -0.074218 -0.058594 c -0.015626 -0.011718 -0.027344 -0.019531 -0.039063 -0.027344 l -0.078125 -0.058593 c -0.011719 -0.007813 -0.027344 -0.015625 -0.039062 -0.023438 l -0.082032 -0.054687 c -0.011718 -0.007813 -0.027344 -0.015625 -0.039062 -0.023438 l -0.085938 -0.046875 c -0.011718 -0.007812 -0.027344 -0.015625 -0.039062 -0.023437 l -0.085938 -0.042969 c -0.015625 -0.007813 -0.03125 -0.015625 -0.046875 -0.023437 l -0.085937 -0.039063 c -0.015625 -0.007813 -0.03125 -0.011719 -0.046875 -0.019531 l -0.089844 -0.035156 c -0.015625 -0.003907 -0.03125 -0.011719 -0.042969 -0.015626 l -0.09375 -0.03125 c -0.015625 -0.003906 -0.03125 -0.011718 -0.046875 -0.015624 l -0.09375 -0.023438 c -0.015625 -0.007812 -0.03125 -0.011719 -0.046875 -0.015625 l -0.097656 -0.019531 c -0.015625 -0.003906 -0.03125 -0.007813 -0.046875 -0.011719 l -0.097656 -0.015625 c -0.019531 -0.003906 -0.035157 -0.007812 -0.050781 -0.007812 l -0.101563 -0.011719 c -0.015625 -0.003907 -0.03125 -0.007813 -0.046875 -0.007813 l -0.101562 -0.007812 c -0.019532 0 -0.035157 0 -0.050782 -0.003906 z m -10.679688 1.628906 l -0.015625 0.03125 c -0.007813 0.015625 -0.015625 0.03125 -0.023437 0.046875 l -0.039063 0.085937 c -0.007813 0.015625 -0.011719 0.03125 -0.019531 0.046875 l -0.035156 0.089844 c -0.007813 0.015625 -0.011719 0.03125 -0.015626 0.042969 l -0.03125 0.09375 c -0.003906 0.015625 -0.011718 0.03125 -0.015624 0.046875 l -0.027344 0.09375 c -0.003906 0.015625 -0.007813 0.03125 -0.011719 0.046875 l -0.019531 0.097656 c -0.003906 0.015625 -0.007813 0.03125 -0.011719 0.046875 l -0.019531 0.097656 c 0 0.019531 -0.003906 0.035157 -0.007813 0.050781 l -0.011719 0.097657 c 0 0.019531 -0.003906 0.035156 -0.003906 0.050781 l -0.007812 0.101562 c 0 0.019532 -0.003906 0.035157 -0.003906 0.050782 v 0.101562 c 0 0.007813 -0.003907 0.015625 -0.003907 0.023438 v 1.078125 h 2 v -1.0625 l 0.003907 -0.066407 l 0.003906 -0.050781 l 0.003906 -0.046875 l 0.011719 -0.050781 l 0.023437 -0.09375 l 0.015625 -0.042969 l 0.019531 -0.042968 l 0.015626 -0.042969 l 0.007812 -0.011719 z m 11.570312 2.300781 v 2 h 2 v -2 z m -11.890624 2.121094 v 2 h 2 v -2 z m 11.890624 1.878906 v 2 h 2 v -2 z m -11.890624 2.121094 v 0.863281 v 0.027344 l 0.003906 0.101562 v 0.050782 l 0.007812 0.097656 c 0.003906 0.019531 0.003906 0.035156 0.007813 0.050781 l 0.011719 0.097656 c 0 0.019531 0.003906 0.035157 0.007812 0.050781 l 0.015625 0.097657 c 0.003906 0.019531 0.007813 0.035156 0.011719 0.050781 l 0.019531 0.09375 c 0.003906 0.019531 0.007813 0.035156 0.011719 0.046875 l 0.027344 0.097656 c 0.007812 0.015625 0.011718 0.03125 0.015624 0.046875 l 0.03125 0.09375 c 0.003907 0.015625 0.011719 0.03125 0.015626 0.046875 l 0.035156 0.085938 c 0.007812 0.015625 0.015625 0.03125 0.019531 0.046875 l 0.039063 0.085937 c 0.007812 0.015625 0.015624 0.03125 0.023437 0.046875 l 0.042969 0.082032 c 0.007812 0.015624 0.015625 0.03125 0.023437 0.046874 l 0.046875 0.078126 c 0.007813 0.015624 0.015625 0.03125 0.023438 0.042968 l 0.035156 0.050782 l 1.683594 -1.078126 l -0.019532 -0.03125 l -0.023437 -0.039062 l -0.023437 -0.042969 l -0.015626 -0.042969 l -0.019531 -0.042968 l -0.015625 -0.046875 l -0.023437 -0.09375 l -0.007813 -0.046875 l -0.007812 -0.050782 l -0.003906 -0.050781 v -0.914062 z m 11.773437 1.335937 l -0.023437 0.035156 l -0.023438 0.042969 l -0.027344 0.035157 l -0.027344 0.039062 l -0.03125 0.03125 l -0.03125 0.035156 l -0.070312 0.0625 l -0.039062 0.03125 l -0.035157 0.027344 l -0.042969 0.023438 l -0.039062 0.023437 l -0.128906 0.058594 l -0.042969 0.015625 l -0.09375 0.023437 l -0.050781 0.011719 l -0.046875 0.003906 l -0.050781 0.003906 h 0.015624 l 0.050782 2 h 0.007812 c 0.015625 0 0.03125 -0.003906 0.050782 -0.003906 l 0.101562 -0.007812 c 0.015625 0 0.03125 -0.003906 0.046875 -0.003906 l 0.101563 -0.011719 c 0.015624 -0.003907 0.03125 -0.007813 0.050781 -0.011719 l 0.097656 -0.015625 c 0.015625 -0.003906 0.03125 -0.007813 0.046875 -0.011719 l 0.097656 -0.019531 c 0.015625 -0.003906 0.03125 -0.007813 0.046875 -0.011719 l 0.09375 -0.027344 c 0.015625 -0.003906 0.03125 -0.011718 0.046875 -0.015624 l 0.09375 -0.03125 c 0.011719 -0.003907 0.027344 -0.007813 0.042969 -0.015626 l 0.089844 -0.035156 c 0.015625 -0.007812 0.03125 -0.011718 0.046875 -0.019531 l 0.085937 -0.039063 c 0.015625 -0.007812 0.03125 -0.015624 0.046875 -0.023437 l 0.082032 -0.042969 c 0.015624 -0.007812 0.03125 -0.015625 0.042968 -0.023437 l 0.082032 -0.046875 c 0.015624 -0.007813 0.03125 -0.015625 0.042968 -0.023438 l 0.078125 -0.054687 c 0.015625 -0.007813 0.03125 -0.015625 0.042969 -0.023438 l 0.074219 -0.054687 c 0.015625 -0.011719 0.027343 -0.019532 0.042969 -0.03125 l 0.074218 -0.058594 c 0.011719 -0.007812 0.023438 -0.019531 0.035156 -0.03125 l 0.074219 -0.0625 c 0.011719 -0.007812 0.023438 -0.019531 0.035157 -0.03125 l 0.066406 -0.066406 c 0.011718 -0.007813 0.023437 -0.019532 0.035156 -0.03125 l 0.066406 -0.070313 c 0.007813 -0.011719 0.019532 -0.023437 0.03125 -0.035156 l 0.0625 -0.070313 c 0.007813 -0.011718 0.019532 -0.023437 0.03125 -0.039062 l 0.058594 -0.074219 c 0.007812 -0.011719 0.015625 -0.023437 0.023438 -0.039062 l 0.058593 -0.074219 c 0.007813 -0.015625 0.015625 -0.027344 0.023438 -0.042969 l 0.054687 -0.078125 c 0.007813 -0.015625 0.015625 -0.027344 0.023438 -0.042968 l 0.03125 -0.054688 z m -8.765625 0.503906 v 2 h 2 v -2 z m 4 0 v 2 h 2 v -2 z m 0 0"/>
    </g>
</svg>
