<?xml version="1.0" encoding="UTF-8"?>
<svg height="16px" viewBox="0 0 16 16" width="16px" xmlns="http://www.w3.org/2000/svg" xmlns:xlink="http://www.w3.org/1999/xlink">
    <filter id="a" height="100%" width="100%" x="0%" y="0%">
        <feColorMatrix color-interpolation-filters="sRGB" values="0 0 0 0 1 0 0 0 0 1 0 0 0 0 1 0 0 0 1 0"/>
    </filter>
    <mask id="b">
        <g filter="url(#a)">
            <path d="m -1.6 -1.6 h 19.2 v 19.2 h -19.2 z" fill-opacity="0.5"/>
        </g>
    </mask>
    <clipPath id="c">
        <path d="m 0 0 h 1600 v 1200 h -1600 z"/>
    </clipPath>
    <mask id="d">
        <g filter="url(#a)">
            <path d="m -1.6 -1.6 h 19.2 v 19.2 h -19.2 z" fill-opacity="0.7"/>
        </g>
    </mask>
    <clipPath id="e">
        <path d="m 0 0 h 1600 v 1200 h -1600 z"/>
    </clipPath>
    <mask id="f">
        <g filter="url(#a)">
            <path d="m -1.6 -1.6 h 19.2 v 19.2 h -19.2 z" fill-opacity="0.35"/>
        </g>
    </mask>
    <clipPath id="g">
        <path d="m 0 0 h 1600 v 1200 h -1600 z"/>
    </clipPath>
    <g mask="url(#b)">
        <g clip-path="url(#c)" transform="matrix(1 0 0 1 -160 -456)">
            <path d="m 550 182 c -0.351562 0.003906 -0.695312 0.101562 -1 0.28125 v 3.4375 c 0.304688 0.179688 0.648438 0.277344 1 0.28125 c 1.105469 0 2 -0.894531 2 -2 s -0.894531 -2 -2 -2 z m 0 5 c -0.339844 0 -0.679688 0.058594 -1 0.175781 v 6.824219 h 4 v -4 c 0 -1.65625 -1.34375 -3 -3 -3 z m 0 0"/>
        </g>
    </g>
    <g mask="url(#d)">
        <g clip-path="url(#e)" transform="matrix(1 0 0 1 -160 -456)">
            <path d="m 569 182 v 4 c 1.105469 0 2 -0.894531 2 -2 s -0.894531 -2 -2 -2 z m 0 5 v 7 h 3 v -4 c 0 -1.65625 -1.34375 -3 -3 -3 z m 0 0"/>
        </g>
    </g>
    <g mask="url(#f)">
        <g clip-path="url(#g)" transform="matrix(1 0 0 1 -160 -456)">
            <path d="m 573 182.269531 v 3.449219 c 0.613281 -0.355469 0.996094 -1.007812 1 -1.71875 c 0 -0.714844 -0.382812 -1.375 -1 -1.730469 z m 0 4.90625 v 6.824219 h 2 v -4 c 0 -1.269531 -0.800781 -2.402344 -2 -2.824219 z m 0 0"/>
        </g>
    </g>
    <g fill="#2e3436">
        <path d="m 9.460938 7.046875 c -0.476563 0.003906 -0.953126 0.226563 -1.238282 0.667969 l -0.984375 1.507812 c -0.316406 0.484375 -0.855469 0.777344 -1.4375 0.777344 h -3.332031 v 1 h 3.332031 c 0.917969 0 1.773438 -0.464844 2.273438 -1.230469 l 0.988281 -1.507812 c 0.199219 -0.3125 0.613281 -0.316407 0.820312 -0.007813 l 1.03125 1.519532 c 0.511719 0.757812 1.371094 1.210937 2.285157 1.210937 h 0.269531 v -1 h -0.269531 c -0.585938 0 -1.132813 -0.289063 -1.460938 -0.773437 l -1.027343 -1.519532 c -0.292969 -0.433594 -0.773438 -0.648437 -1.25 -0.644531 z m 0 0"/>
        <path d="m 5.453125 3.886719 c -0.859375 0 -1.566406 0.707031 -1.566406 1.566406 s 0.707031 1.566406 1.566406 1.566406 s 1.566406 -0.707031 1.566406 -1.566406 s -0.707031 -1.566406 -1.566406 -1.566406 z m 0 0.996093 c 0.320313 0 0.570313 0.25 0.570313 0.570313 s -0.25 0.570313 -0.570313 0.570313 s -0.570313 -0.25 -0.570313 -0.570313 s 0.25 -0.570313 0.570313 -0.570313 z m 0 0"/>
        <path d="m 11.96875 3 c 0.570312 0 1.03125 0.460938 1.03125 1.03125 v 7.9375 c 0 0.570312 -0.460938 1.03125 -1.03125 1.03125 h -7.9375 c -0.570312 0 -1.03125 -0.460938 -1.03125 -1.03125 v -7.9375 c 0 -0.570312 0.460938 -1.03125 1.03125 -1.03125 z m -10.96875 1.03125 v 7.9375 c 0 1.679688 1.351562 3.03125 3.03125 3.03125 h 7.9375 c 1.679688 0 3.03125 -1.351562 3.03125 -3.03125 v -7.9375 c 0 -1.679688 -1.351562 -3.03125 -3.03125 -3.03125 h -7.9375 c -1.679688 0 -3.03125 1.351562 -3.03125 3.03125 z m 0 0"/>
    </g>
</svg>
