<?xml version="1.0" encoding="UTF-8"?>
<svg height="16px" viewBox="0 0 16 16" width="16px" xmlns="http://www.w3.org/2000/svg" xmlns:xlink="http://www.w3.org/1999/xlink">
    <filter id="a" height="100%" width="100%" x="0%" y="0%">
        <feColorMatrix color-interpolation-filters="sRGB" values="0 0 0 0 1 0 0 0 0 1 0 0 0 0 1 0 0 0 1 0"/>
    </filter>
    <mask id="b">
        <g filter="url(#a)">
            <path d="m -1.6 -1.6 h 19.2 v 19.2 h -19.2 z" fill-opacity="0.5"/>
        </g>
    </mask>
    <clipPath id="c">
        <path d="m 0 0 h 1600 v 1200 h -1600 z"/>
    </clipPath>
    <mask id="d">
        <g filter="url(#a)">
            <path d="m -1.6 -1.6 h 19.2 v 19.2 h -19.2 z" fill-opacity="0.7"/>
        </g>
    </mask>
    <clipPath id="e">
        <path d="m 0 0 h 1600 v 1200 h -1600 z"/>
    </clipPath>
    <mask id="f">
        <g filter="url(#a)">
            <path d="m -1.6 -1.6 h 19.2 v 19.2 h -19.2 z" fill-opacity="0.35"/>
        </g>
    </mask>
    <clipPath id="g">
        <path d="m 0 0 h 1600 v 1200 h -1600 z"/>
    </clipPath>
    <g mask="url(#b)">
        <g clip-path="url(#c)" transform="matrix(1 0 0 1 -336 -956)">
            <path d="m 550 182 c -0.351562 0.003906 -0.695312 0.101562 -1 0.28125 v 3.4375 c 0.304688 0.179688 0.648438 0.277344 1 0.28125 c 1.105469 0 2 -0.894531 2 -2 s -0.894531 -2 -2 -2 z m 0 5 c -0.339844 0 -0.679688 0.058594 -1 0.175781 v 6.824219 h 4 v -4 c 0 -1.65625 -1.34375 -3 -3 -3 z m 0 0"/>
        </g>
    </g>
    <g mask="url(#d)">
        <g clip-path="url(#e)" transform="matrix(1 0 0 1 -336 -956)">
            <path d="m 569 182 v 4 c 1.105469 0 2 -0.894531 2 -2 s -0.894531 -2 -2 -2 z m 0 5 v 7 h 3 v -4 c 0 -1.65625 -1.34375 -3 -3 -3 z m 0 0"/>
        </g>
    </g>
    <g mask="url(#f)">
        <g clip-path="url(#g)" transform="matrix(1 0 0 1 -336 -956)">
            <path d="m 573 182.269531 v 3.449219 c 0.613281 -0.355469 0.996094 -1.007812 1 -1.71875 c 0 -0.714844 -0.382812 -1.375 -1 -1.730469 z m 0 4.90625 v 6.824219 h 2 v -4 c 0 -1.269531 -0.800781 -2.402344 -2 -2.824219 z m 0 0"/>
        </g>
    </g>
    <path d="m 4.492188 1 c -0.621094 0 -1.199219 0.363281 -1.519532 0.957031 l -2.710937 5 c -0.3476565 0.640625 -0.3476565 1.445313 0 2.085938 l 2.710937 5 c 0.320313 0.59375 0.898438 0.957031 1.519532 0.957031 h 7.082031 c 0.625 0 1.207031 -0.371094 1.527343 -0.976562 l 2.648438 -5 c 0.332031 -0.628907 0.332031 -1.417969 0 -2.046876 l -2.648438 -5 c -0.320312 -0.605468 -0.902343 -0.976562 -1.527343 -0.976562 z m 0.75 3 h 5.644531 c 0.191406 0 0.371093 0.113281 0.476562 0.304688 l 1.777344 3.277343 c 0.113281 0.214844 0.117187 0.492188 0.003906 0.707031 l -1.777343 3.394532 c -0.101563 0.195312 -0.285157 0.316406 -0.480469 0.316406 h -5.644531 c -0.199219 0 -0.382813 -0.125 -0.484376 -0.324219 l -1.714843 -3.394531 c -0.109375 -0.210938 -0.109375 -0.480469 0.003906 -0.6875 l 1.71875 -3.28125 c 0.101563 -0.195312 0.28125 -0.3125 0.476563 -0.3125 z m 0.4375 1 l -1.496094 2.949219 l 1.566406 3.050781 h 4.699219 l 1.550781 -3.050781 l -1.609375 -2.949219 z m 0 0"/>
</svg>
