<?xml version="1.0" encoding="UTF-8"?>
<svg height="16px" viewBox="0 0 16 16" width="16px" xmlns="http://www.w3.org/2000/svg">
    <path d="m 28 0.5 c -4.117188 0 -7.5 3.382812 -7.5 7.5 s 3.382812 7.5 7.5 7.5 c 4.117187 0 7.5 -3.382812 7.5 -7.5 s -3.382813 -7.5 -7.5 -7.5 z m 0 0" fill="none" stroke="#2e3436" stroke-opacity="0.25"/>
    <path d="m 33 8 c 0 2.761719 -2.238282 5 -5 5 c -2.761719 0 -5 -2.238281 -5 -5 s 2.238281 -5 5 -5 c 2.761718 0 5 2.238281 5 5 z m 0 0" fill="none" stroke="#2e3436" stroke-linecap="round" stroke-opacity="0.5" stroke-width="2"/>
    <path d="m 4.199219 0 c -1.203125 0 -2.199219 1 -2.199219 2.199219 v 11.601562 c 0 1.199219 0.996094 2.199219 2.199219 2.199219 h 7.605469 c 1.203124 0 2.195312 -1 2.195312 -2.199219 v -11.601562 c 0 -1.199219 -0.992188 -2.199219 -2.195312 -2.199219 z m 0 2 h 1.824219 c 0.113281 0.570312 0.617187 1 1.222656 1 h 1.511718 c 0.605469 0 1.105469 -0.429688 1.21875 -1 h 1.828126 c 0.125 0 0.195312 0.070312 0.195312 0.199219 v 11.542969 c 0 0.132812 -0.070312 0.203124 -0.195312 0.203124 h -7.605469 c -0.125 0 -0.199219 -0.070312 -0.199219 -0.203124 v -11.542969 c 0 -0.128907 0.074219 -0.199219 0.199219 -0.199219 z m 0 0" fill="#2e3436"/>
</svg>
