<?xml version="1.0" encoding="UTF-8"?>
<svg height="16px" viewBox="0 0 16 16" width="16px" xmlns="http://www.w3.org/2000/svg" xmlns:xlink="http://www.w3.org/1999/xlink">
    <filter id="a" height="100%" width="100%" x="0%" y="0%">
        <feColorMatrix color-interpolation-filters="sRGB" values="0 0 0 0 1 0 0 0 0 1 0 0 0 0 1 0 0 0 1 0"/>
    </filter>
    <mask id="b">
        <g filter="url(#a)">
            <path d="m -1.6 -1.6 h 19.2 v 19.2 h -19.2 z" fill-opacity="0.5"/>
        </g>
    </mask>
    <clipPath id="c">
        <path d="m 0 0 h 1600 v 1200 h -1600 z"/>
    </clipPath>
    <mask id="d">
        <g filter="url(#a)">
            <path d="m -1.6 -1.6 h 19.2 v 19.2 h -19.2 z" fill-opacity="0.7"/>
        </g>
    </mask>
    <clipPath id="e">
        <path d="m 0 0 h 1600 v 1200 h -1600 z"/>
    </clipPath>
    <mask id="f">
        <g filter="url(#a)">
            <path d="m -1.6 -1.6 h 19.2 v 19.2 h -19.2 z" fill-opacity="0.35"/>
        </g>
    </mask>
    <clipPath id="g">
        <path d="m 0 0 h 1600 v 1200 h -1600 z"/>
    </clipPath>
    <path d="m 10.902344 0 h -5.800782 c -0.265624 0 -0.519531 0.105469 -0.707031 0.292969 l -4.101562 4.101562 c -0.1875 0.1875 -0.292969 0.441407 -0.292969 0.707031 v 5.796876 c 0 0.265624 0.105469 0.523437 0.292969 0.710937 l 4.101562 4.097656 c 0.1875 0.1875 0.441407 0.292969 0.707031 0.292969 h 5.796876 c 0.265624 0 0.523437 -0.105469 0.710937 -0.292969 l 4.101563 -4.101562 c 0.183593 -0.183594 0.289062 -0.441407 0.289062 -0.703125 v -5.800782 c 0 -0.265624 -0.105469 -0.519531 -0.292969 -0.707031 l -4.097656 -4.101562 c -0.1875 -0.1875 -0.445313 -0.292969 -0.707031 -0.292969 z m -0.417969 2 l 3.515625 3.515625 v 4.96875 l -3.515625 3.515625 h -4.96875 l -3.515625 -3.515625 v -4.96875 l 3.515625 -3.515625 z m 0 0" fill="#222222"/>
    <path d="m 6.996094 4 h 2 v 3 l -0.25 2 h -1.46875 l -0.28125 -2 z m 1 5.75 c 0.6875 0 1.25 0.558594 1.25 1.25 s -0.5625 1.25 -1.25 1.25 c -0.691406 0 -1.25 -0.558594 -1.25 -1.25 s 0.558594 -1.25 1.25 -1.25 z m 0 0" fill="#222222"/>
    <g mask="url(#b)">
        <g clip-path="url(#c)" transform="matrix(1 0 0 1 -996 -200)">
            <path d="m 550 182 c -0.351562 0.003906 -0.695312 0.101562 -1 0.28125 v 3.4375 c 0.304688 0.179688 0.648438 0.277344 1 0.28125 c 1.105469 0 2 -0.894531 2 -2 s -0.894531 -2 -2 -2 z m 0 5 c -0.339844 0 -0.679688 0.058594 -1 0.175781 v 6.824219 h 4 v -4 c 0 -1.65625 -1.34375 -3 -3 -3 z m 0 0"/>
        </g>
    </g>
    <g mask="url(#d)">
        <g clip-path="url(#e)" transform="matrix(1 0 0 1 -996 -200)">
            <path d="m 569 182 v 4 c 1.105469 0 2 -0.894531 2 -2 s -0.894531 -2 -2 -2 z m 0 5 v 7 h 3 v -4 c 0 -1.65625 -1.34375 -3 -3 -3 z m 0 0"/>
        </g>
    </g>
    <g mask="url(#f)">
        <g clip-path="url(#g)" transform="matrix(1 0 0 1 -996 -200)">
            <path d="m 573 182.269531 v 3.449219 c 0.613281 -0.355469 0.996094 -1.007812 1 -1.71875 c 0 -0.714844 -0.382812 -1.375 -1 -1.730469 z m 0 4.90625 v 6.824219 h 2 v -4 c 0 -1.269531 -0.800781 -2.402344 -2 -2.824219 z m 0 0"/>
        </g>
    </g>
</svg>
