<?xml version="1.0" encoding="UTF-8"?>
<svg height="16px" viewBox="0 0 16 16" width="16px" xmlns="http://www.w3.org/2000/svg" xmlns:xlink="http://www.w3.org/1999/xlink">
    <filter id="a" height="100%" width="100%" x="0%" y="0%">
        <feColorMatrix color-interpolation-filters="sRGB" values="0 0 0 0 1 0 0 0 0 1 0 0 0 0 1 0 0 0 1 0"/>
    </filter>
    <mask id="b">
        <g filter="url(#a)">
            <path d="m -1.6 -1.6 h 19.2 v 19.2 h -19.2 z" fill-opacity="0.5"/>
        </g>
    </mask>
    <clipPath id="c">
        <path d="m 0 0 h 1600 v 1200 h -1600 z"/>
    </clipPath>
    <mask id="d">
        <g filter="url(#a)">
            <path d="m -1.6 -1.6 h 19.2 v 19.2 h -19.2 z" fill-opacity="0.7"/>
        </g>
    </mask>
    <clipPath id="e">
        <path d="m 0 0 h 1600 v 1200 h -1600 z"/>
    </clipPath>
    <mask id="f">
        <g filter="url(#a)">
            <path d="m -1.6 -1.6 h 19.2 v 19.2 h -19.2 z" fill-opacity="0.35"/>
        </g>
    </mask>
    <clipPath id="g">
        <path d="m 0 0 h 1600 v 1200 h -1600 z"/>
    </clipPath>
    <g mask="url(#b)">
        <g clip-path="url(#c)" transform="matrix(1 0 0 1 -180 -496)">
            <path d="m 550 182 c -0.351562 0.003906 -0.695312 0.101562 -1 0.28125 v 3.4375 c 0.304688 0.179688 0.648438 0.277344 1 0.28125 c 1.105469 0 2 -0.894531 2 -2 s -0.894531 -2 -2 -2 z m 0 5 c -0.339844 0 -0.679688 0.058594 -1 0.175781 v 6.824219 h 4 v -4 c 0 -1.65625 -1.34375 -3 -3 -3 z m 0 0"/>
        </g>
    </g>
    <g mask="url(#d)">
        <g clip-path="url(#e)" transform="matrix(1 0 0 1 -180 -496)">
            <path d="m 569 182 v 4 c 1.105469 0 2 -0.894531 2 -2 s -0.894531 -2 -2 -2 z m 0 5 v 7 h 3 v -4 c 0 -1.65625 -1.34375 -3 -3 -3 z m 0 0"/>
        </g>
    </g>
    <g mask="url(#f)">
        <g clip-path="url(#g)" transform="matrix(1 0 0 1 -180 -496)">
            <path d="m 573 182.269531 v 3.449219 c 0.613281 -0.355469 0.996094 -1.007812 1 -1.71875 c 0 -0.714844 -0.382812 -1.375 -1 -1.730469 z m 0 4.90625 v 6.824219 h 2 v -4 c 0 -1.269531 -0.800781 -2.402344 -2 -2.824219 z m 0 0"/>
        </g>
    </g>
    <g fill="#2e3436">
        <path d="m 8 3 c -0.554688 0 -1 0.445312 -1 1 v 1 c 0 0.554688 0.445312 1 1 1 s 1 -0.445312 1 -1 v -1 c 0 -0.554688 -0.445312 -1 -1 -1 z m -5 2.050781 c -0.238281 0.007813 -0.476562 0.105469 -0.660156 0.292969 c -0.390625 0.390625 -0.390625 1.019531 0 1.414062 l 0.71875 0.71875 c 0.390625 0.390626 1.023437 0.390626 1.414062 0 c 0.390625 -0.394531 0.390625 -1.023437 0 -1.414062 l -0.71875 -0.71875 c -0.207031 -0.210938 -0.480468 -0.308594 -0.753906 -0.292969 z m 9.949219 0 c -0.253907 0 -0.511719 0.097657 -0.707031 0.292969 l -0.71875 0.71875 c -0.390626 0.390625 -0.390626 1.023438 0 1.414062 c 0.390624 0.390626 1.023437 0.390626 1.414062 0 l 0.71875 -0.71875 c 0.390625 -0.390624 0.390625 -1.023437 0 -1.414062 c -0.195312 -0.195312 -0.449219 -0.292969 -0.707031 -0.292969 z m -11.949219 4.949219 c -0.554688 0 -1 0.445312 -1 1 s 0.445312 1 1 1 h 0.972656 c 0.554688 0 1 -0.445312 1 -1 s -0.445312 -1 -1 -1 z m 12.984375 0 c -0.554687 0 -1 0.445312 -1 1 s 0.445313 1 1 1 h 1.015625 c 0.554688 0 1 -0.445312 1 -1 s -0.445312 -1 -1 -1 z m 0 0"/>
        <path d="m 5.5 10 c -0.277344 0 -0.5 0.222656 -0.5 0.5 v 1.5 h 6 v -1.5 c 0 -0.277344 -0.222656 -0.5 -0.5 -0.5 h -0.5 s -1.332031 0 -2 0 s -2 0 -2 0 z m 0 0"/>
    </g>
</svg>
