<?xml version="1.0" encoding="UTF-8"?>
<svg height="16px" viewBox="0 0 16 16" width="16px" xmlns="http://www.w3.org/2000/svg" xmlns:xlink="http://www.w3.org/1999/xlink">
    <filter id="a" height="100%" width="100%" x="0%" y="0%">
        <feColorMatrix color-interpolation-filters="sRGB" values="0 0 0 0 1 0 0 0 0 1 0 0 0 0 1 0 0 0 1 0"/>
    </filter>
    <mask id="b">
        <g filter="url(#a)">
            <path d="m -1.6 -1.6 h 19.2 v 19.2 h -19.2 z" fill-opacity="0.5"/>
        </g>
    </mask>
    <clipPath id="c">
        <path d="m 0 0 h 1600 v 1200 h -1600 z"/>
    </clipPath>
    <mask id="d">
        <g filter="url(#a)">
            <path d="m -1.6 -1.6 h 19.2 v 19.2 h -19.2 z" fill-opacity="0.7"/>
        </g>
    </mask>
    <clipPath id="e">
        <path d="m 0 0 h 1600 v 1200 h -1600 z"/>
    </clipPath>
    <mask id="f">
        <g filter="url(#a)">
            <path d="m -1.6 -1.6 h 19.2 v 19.2 h -19.2 z" fill-opacity="0.35"/>
        </g>
    </mask>
    <clipPath id="g">
        <path d="m 0 0 h 1600 v 1200 h -1600 z"/>
    </clipPath>
    <g mask="url(#b)">
        <g clip-path="url(#c)" transform="matrix(1 0 0 1 -76 -876)">
            <path d="m 550 182 c -0.351562 0.003906 -0.695312 0.101562 -1 0.28125 v 3.4375 c 0.304688 0.179688 0.648438 0.277344 1 0.28125 c 1.105469 0 2 -0.894531 2 -2 s -0.894531 -2 -2 -2 z m 0 5 c -0.339844 0 -0.679688 0.058594 -1 0.175781 v 6.824219 h 4 v -4 c 0 -1.65625 -1.34375 -3 -3 -3 z m 0 0"/>
        </g>
    </g>
    <g mask="url(#d)">
        <g clip-path="url(#e)" transform="matrix(1 0 0 1 -76 -876)">
            <path d="m 569 182 v 4 c 1.105469 0 2 -0.894531 2 -2 s -0.894531 -2 -2 -2 z m 0 5 v 7 h 3 v -4 c 0 -1.65625 -1.34375 -3 -3 -3 z m 0 0"/>
        </g>
    </g>
    <g mask="url(#f)">
        <g clip-path="url(#g)" transform="matrix(1 0 0 1 -76 -876)">
            <path d="m 573 182.269531 v 3.449219 c 0.613281 -0.355469 0.996094 -1.007812 1 -1.71875 c 0 -0.714844 -0.382812 -1.375 -1 -1.730469 z m 0 4.90625 v 6.824219 h 2 v -4 c 0 -1.269531 -0.800781 -2.402344 -2 -2.824219 z m 0 0"/>
        </g>
    </g>
    <g fill="#222222">
        <path d="m 10.875 10.0625 c -0.8125 0.148438 -1.105469 1.160156 -0.5 1.71875 l 3 3 c 0.957031 0.9375 2.363281 -0.5 1.40625 -1.4375 l -3 -3 c -0.234375 -0.238281 -0.574219 -0.347656 -0.90625 -0.28125 z m 0 0"/>
        <path d="m 6.570312 0.0625 c -3.578124 0 -6.4999995 2.921875 -6.4999995 6.5 s 2.9218755 6.5 6.4999995 6.5 c 3.578126 0 6.5 -2.921875 6.5 -6.5 s -2.921874 -6.5 -6.5 -6.5 z m 0 2 c 2.5 0 4.5 2.003906 4.5 4.5 c 0 2.5 -2 4.5 -4.5 4.5 c -2.496093 0 -4.5 -2 -4.5 -4.5 c 0 -2.496094 2.003907 -4.5 4.5 -4.5 z m 0 0"/>
        <path d="m 4.75 4 c -0.460938 0 -0.917969 0.183594 -1.242188 0.507812 c -0.328124 0.324219 -0.515624 0.78125 -0.507812 1.242188 c 0.007812 0.472656 0.222656 0.933594 0.578125 1.246094 l 2.921875 2.542968 l 3 -2.65625 c 0.304688 -0.292968 0.488281 -0.710937 0.5 -1.132812 c 0.015625 -0.460938 -0.171875 -0.921875 -0.5 -1.246094 c -0.328125 -0.324218 -0.789062 -0.507812 -1.25 -0.503906 c -0.386719 0.003906 -0.769531 0.136719 -1.074219 0.371094 c -0.304687 0.238281 -0.53125 0.574218 -0.628906 0.945312 l -0.046875 0.078125 l -0.039062 -0.078125 c -0.101563 -0.371094 -0.328126 -0.710937 -0.632813 -0.945312 c -0.304687 -0.238282 -0.691406 -0.371094 -1.078125 -0.371094 z m 0 0"/>
    </g>
</svg>
