<?xml version="1.0" encoding="UTF-8"?>
<svg height="16px" viewBox="0 0 16 16" width="16px" xmlns="http://www.w3.org/2000/svg" xmlns:xlink="http://www.w3.org/1999/xlink">
    <filter id="a" height="100%" width="100%" x="0%" y="0%">
        <feColorMatrix color-interpolation-filters="sRGB" values="0 0 0 0 1 0 0 0 0 1 0 0 0 0 1 0 0 0 1 0"/>
    </filter>
    <mask id="b">
        <g filter="url(#a)">
            <path d="m -1.6 -1.6 h 19.2 v 19.2 h -19.2 z" fill-opacity="0.5"/>
        </g>
    </mask>
    <clipPath id="c">
        <path d="m 0 0 h 1600 v 1200 h -1600 z"/>
    </clipPath>
    <mask id="d">
        <g filter="url(#a)">
            <path d="m -1.6 -1.6 h 19.2 v 19.2 h -19.2 z" fill-opacity="0.7"/>
        </g>
    </mask>
    <clipPath id="e">
        <path d="m 0 0 h 1600 v 1200 h -1600 z"/>
    </clipPath>
    <mask id="f">
        <g filter="url(#a)">
            <path d="m -1.6 -1.6 h 19.2 v 19.2 h -19.2 z" fill-opacity="0.35"/>
        </g>
    </mask>
    <clipPath id="g">
        <path d="m 0 0 h 1600 v 1200 h -1600 z"/>
    </clipPath>
    <g mask="url(#b)">
        <g clip-path="url(#c)" transform="matrix(1 0 0 1 -400 -40)">
            <path d="m 550 182 c -0.351562 0.003906 -0.695312 0.101562 -1 0.28125 v 3.4375 c 0.304688 0.179688 0.648438 0.277344 1 0.28125 c 1.105469 0 2 -0.894531 2 -2 s -0.894531 -2 -2 -2 z m 0 5 c -0.339844 0 -0.679688 0.058594 -1 0.175781 v 6.824219 h 4 v -4 c 0 -1.65625 -1.34375 -3 -3 -3 z m 0 0"/>
        </g>
    </g>
    <g mask="url(#d)">
        <g clip-path="url(#e)" transform="matrix(1 0 0 1 -400 -40)">
            <path d="m 569 182 v 4 c 1.105469 0 2 -0.894531 2 -2 s -0.894531 -2 -2 -2 z m 0 5 v 7 h 3 v -4 c 0 -1.65625 -1.34375 -3 -3 -3 z m 0 0"/>
        </g>
    </g>
    <g mask="url(#f)">
        <g clip-path="url(#g)" transform="matrix(1 0 0 1 -400 -40)">
            <path d="m 573 182.269531 v 3.449219 c 0.613281 -0.355469 0.996094 -1.007812 1 -1.71875 c 0 -0.714844 -0.382812 -1.375 -1 -1.730469 z m 0 4.90625 v 6.824219 h 2 v -4 c 0 -1.269531 -0.800781 -2.402344 -2 -2.824219 z m 0 0"/>
        </g>
    </g>
    <path d="m 1.5 1 c -0.132812 0 -0.261719 0.050781 -0.355469 0.144531 c -0.191406 0.195313 -0.191406 0.515625 0 0.710938 l 13 13 c 0.195313 0.191406 0.515625 0.191406 0.710938 0 c 0.191406 -0.195313 0.191406 -0.515625 0 -0.710938 l -1.898438 -1.894531 c 1.363281 -1.074219 2.339844 -2.558594 2.78125 -4.238281 c -0.90625 -3.535157 -4.089843 -6.007813 -7.738281 -6.011719 c -1.457031 0.003906 -2.882812 0.410156 -4.125 1.167969 l -2.019531 -2.023438 c -0.09375 -0.09375 -0.222657 -0.144531 -0.355469 -0.144531 z m 6.5 3 c 2.210938 0 4 1.789062 4 4 c 0 0.890625 -0.300781 1.75 -0.84375 2.449219 l -1.4375 -1.4375 c 0.179688 -0.304688 0.28125 -0.652344 0.28125 -1.011719 c 0 -1.105469 -0.894531 -2 -2 -2 c -0.359375 0 -0.707031 0.097656 -1.011719 0.28125 l -1.4375 -1.4375 c 0.695313 -0.546875 1.558594 -0.84375 2.449219 -0.84375 z m -5.785156 0.507812 c -0.230469 0.242188 -0.445313 0.5 -0.640625 0.773438 l 2.4375 2.4375 c 0.03125 -0.394531 0.117187 -0.785156 0.261719 -1.152344 z m -1.253906 1.746094 c -0.167969 0.316406 -0.316407 0.636719 -0.441407 0.96875 l 6.574219 6.5625 c 0.40625 0.214844 1.445312 0.121094 1.394531 0.121094 l -2.113281 -2.234375 c -0.902344 -0.402344 -1.628906 -1.128906 -2.03125 -2.03125 z m 7.539062 0.746094 c 0.277344 0 0.5 0.222656 0.5 0.5 c 0 0.214844 -0.136719 0.394531 -0.324219 0.46875 l -0.644531 -0.640625 c 0.074219 -0.191406 0.253906 -0.328125 0.46875 -0.328125 z m -2.476562 1.316406 c 0.128906 0.867188 0.8125 1.550782 1.679687 1.679688 z m -5.511719 0.484375 c 0.78125 2.105469 2.410156 3.785157 4.488281 4.628907 c -0.015625 -0.109376 -0.066406 -0.207032 -0.144531 -0.285157 z m 8.9375 2.941407 c -0.367188 0.144531 -0.757813 0.234374 -1.148438 0.261718 l 1.738281 1.742188 c 0.324219 -0.089844 0.648438 -0.195313 0.960938 -0.324219 c -0.019531 -0.105469 -0.070312 -0.203125 -0.144531 -0.277344 z m 0 0" fill="#222222"/>
</svg>
