<?xml version="1.0" encoding="UTF-8"?>
<svg height="16px" viewBox="0 0 16 16" width="16px" xmlns="http://www.w3.org/2000/svg" xmlns:xlink="http://www.w3.org/1999/xlink">
    <filter id="a" height="100%" width="100%" x="0%" y="0%">
        <feColorMatrix color-interpolation-filters="sRGB" values="0 0 0 0 1 0 0 0 0 1 0 0 0 0 1 0 0 0 1 0"/>
    </filter>
    <mask id="b">
        <g filter="url(#a)">
            <path d="m -1.6 -1.6 h 19.2 v 19.2 h -19.2 z" fill-opacity="0.5"/>
        </g>
    </mask>
    <clipPath id="c">
        <path d="m 0 0 h 1600 v 1200 h -1600 z"/>
    </clipPath>
    <mask id="d">
        <g filter="url(#a)">
            <path d="m -1.6 -1.6 h 19.2 v 19.2 h -19.2 z" fill-opacity="0.7"/>
        </g>
    </mask>
    <clipPath id="e">
        <path d="m 0 0 h 1600 v 1200 h -1600 z"/>
    </clipPath>
    <mask id="f">
        <g filter="url(#a)">
            <path d="m -1.6 -1.6 h 19.2 v 19.2 h -19.2 z" fill-opacity="0.35"/>
        </g>
    </mask>
    <clipPath id="g">
        <path d="m 0 0 h 1600 v 1200 h -1600 z"/>
    </clipPath>
    <g mask="url(#b)">
        <g clip-path="url(#c)" transform="matrix(1 0 0 1 -20 -780)">
            <path d="m 550 182 c -0.351562 0.003906 -0.695312 0.101562 -1 0.28125 v 3.4375 c 0.304688 0.179688 0.648438 0.277344 1 0.28125 c 1.105469 0 2 -0.894531 2 -2 s -0.894531 -2 -2 -2 z m 0 5 c -0.339844 0 -0.679688 0.058594 -1 0.175781 v 6.824219 h 4 v -4 c 0 -1.65625 -1.34375 -3 -3 -3 z m 0 0"/>
        </g>
    </g>
    <g mask="url(#d)">
        <g clip-path="url(#e)" transform="matrix(1 0 0 1 -20 -780)">
            <path d="m 569 182 v 4 c 1.105469 0 2 -0.894531 2 -2 s -0.894531 -2 -2 -2 z m 0 5 v 7 h 3 v -4 c 0 -1.65625 -1.34375 -3 -3 -3 z m 0 0"/>
        </g>
    </g>
    <g mask="url(#f)">
        <g clip-path="url(#g)" transform="matrix(1 0 0 1 -20 -780)">
            <path d="m 573 182.269531 v 3.449219 c 0.613281 -0.355469 0.996094 -1.007812 1 -1.71875 c 0 -0.714844 -0.382812 -1.375 -1 -1.730469 z m 0 4.90625 v 6.824219 h 2 v -4 c 0 -1.269531 -0.800781 -2.402344 -2 -2.824219 z m 0 0"/>
        </g>
    </g>
    <path d="m 12.5 0 c -0.828125 0 -1.5 0.671875 -1.5 1.5 c 0 0.546875 0.296875 1.046875 0.773438 1.3125 l -2.25 2.25 c -0.132813 0.109375 -0.070313 0.214844 -0.015626 0.3125 c 0.148438 0.234375 0.304688 0.4375 0.460938 0.59375 c 0.171875 0.171875 0.410156 0.347656 0.6875 0.519531 c 0.171875 0.125 0.304688 -0.03125 0.304688 -0.03125 l 2.230468 -2.230469 c 0.261719 0.476563 0.761719 0.773438 1.308594 0.773438 c 0.828125 0 1.5 -0.671875 1.5 -1.5 s -0.671875 -1.5 -1.5 -1.5 c -0.5 0 -0.5 -0.5 -0.5 -0.5 c 0 -0.828125 -0.671875 -1.5 -1.5 -1.5 z m -4.710938 2.402344 c -0.328124 -0.019532 -0.640624 0.261718 -0.722656 0.667968 c -0.144531 0.71875 -0.164062 1.132813 -1.066406 1.929688 c -0.558594 0.492188 -3 0.738281 -3 2 c 0 0 0 2 2 4 s 4 2 4 2 c 1 0 1.507812 -2.441406 2 -3 c 0.796875 -0.902344 0.851562 -0.417969 2.066406 -0.929688 c 0.472656 -0.203124 0.832032 -0.800781 0.644532 -1.277343 c -0.234376 -0.601563 -1.296876 -1.101563 -1.835938 -1.015625 c -0.523438 0.085937 -1.125 1.003906 -1.398438 0.839844 c -0.648437 -0.382813 -0.800781 -0.488282 -1.175781 -0.859376 c -0.164062 -0.164062 -0.890625 -0.824218 -0.90625 -1.371093 c -0.019531 -0.523438 0.886719 -0.785157 0.78125 -1.363281 c -0.113281 -0.644532 -0.679687 -1.582032 -1.386719 -1.621094 z m -4.140624 8.535156 l -0.835938 0.835938 c -0.265625 -0.476563 -0.765625 -0.773438 -1.3125 -0.773438 c -0.828125 0 -1.5 0.671875 -1.5 1.5 s 0.671875 1.5 1.5 1.5 c 0.5 0 0.5 0.335938 0.5 0.5 c 0 0.828125 0.671875 1.5 1.5 1.5 s 1.5 -0.671875 1.5 -1.5 c 0 -0.546875 -0.296875 -1.046875 -0.773438 -1.3125 l 0.835938 -0.835938 c -0.246094 -0.191406 -0.5 -0.414062 -0.75 -0.664062 s -0.472656 -0.503906 -0.664062 -0.75 z m 0 0" fill="#222222"/>
</svg>
