<?xml version="1.0" encoding="UTF-8"?>
<svg height="16px" viewBox="0 0 16 16" width="16px" xmlns="http://www.w3.org/2000/svg" xmlns:xlink="http://www.w3.org/1999/xlink">
    <filter id="a" height="100%" width="100%" x="0%" y="0%">
        <feColorMatrix color-interpolation-filters="sRGB" values="0 0 0 0 1 0 0 0 0 1 0 0 0 0 1 0 0 0 1 0"/>
    </filter>
    <mask id="b">
        <g filter="url(#a)">
            <path d="m -1.6 -1.6 h 19.2 v 19.2 h -19.2 z" fill-opacity="0.5"/>
        </g>
    </mask>
    <clipPath id="c">
        <path d="m 0 0 h 1600 v 1200 h -1600 z"/>
    </clipPath>
    <mask id="d">
        <g filter="url(#a)">
            <path d="m -1.6 -1.6 h 19.2 v 19.2 h -19.2 z" fill-opacity="0.7"/>
        </g>
    </mask>
    <clipPath id="e">
        <path d="m 0 0 h 1600 v 1200 h -1600 z"/>
    </clipPath>
    <mask id="f">
        <g filter="url(#a)">
            <path d="m -1.6 -1.6 h 19.2 v 19.2 h -19.2 z" fill-opacity="0.35"/>
        </g>
    </mask>
    <clipPath id="g">
        <path d="m 0 0 h 1600 v 1200 h -1600 z"/>
    </clipPath>
    <g mask="url(#b)">
        <g clip-path="url(#c)" transform="matrix(1 0 0 1 -260 -260)">
            <path d="m 550 182 c -0.351562 0.003906 -0.695312 0.101562 -1 0.28125 v 3.4375 c 0.304688 0.179688 0.648438 0.277344 1 0.28125 c 1.105469 0 2 -0.894531 2 -2 s -0.894531 -2 -2 -2 z m 0 5 c -0.339844 0 -0.679688 0.058594 -1 0.175781 v 6.824219 h 4 v -4 c 0 -1.65625 -1.34375 -3 -3 -3 z m 0 0"/>
        </g>
    </g>
    <g mask="url(#d)">
        <g clip-path="url(#e)" transform="matrix(1 0 0 1 -260 -260)">
            <path d="m 569 182 v 4 c 1.105469 0 2 -0.894531 2 -2 s -0.894531 -2 -2 -2 z m 0 5 v 7 h 3 v -4 c 0 -1.65625 -1.34375 -3 -3 -3 z m 0 0"/>
        </g>
    </g>
    <g mask="url(#f)">
        <g clip-path="url(#g)" transform="matrix(1 0 0 1 -260 -260)">
            <path d="m 573 182.269531 v 3.449219 c 0.613281 -0.355469 0.996094 -1.007812 1 -1.71875 c 0 -0.714844 -0.382812 -1.375 -1 -1.730469 z m 0 4.90625 v 6.824219 h 2 v -4 c 0 -1.269531 -0.800781 -2.402344 -2 -2.824219 z m 0 0"/>
        </g>
    </g>
    <path d="m 14 16 c 1.109375 0 2 -0.890625 2 -2 v -8.113281 c 0 -3.257813 -2.628906 -5.886719 -5.886719 -5.886719 h -0.152343 h 0.007812 c -3.28125 -0.0351562 -5.960938 2.589844 -5.996094 5.875 v 0.011719 l 0.027344 2.125 l 1.417969 -0.921875 l -1.300781 -0.59375 c -1.355469 -0.621094 -2.945313 -0.097656 -3.671876 1.203125 l -0.058593 0.105469 c -0.691407 1.238281 -0.3593752 2.777343 0.78125 3.621093 l 2.40625 1.78125 c 0.25 0.1875 0.398437 0.480469 0.398437 0.792969 v 0.003906 v 0.011719 c 0.015625 1.117187 0.925782 2 2.042969 1.984375 h -0.015625 z m -8.027344 -2.011719 v 0.011719 c 0 -0.945312 -0.449218 -1.835938 -1.210937 -2.398438 l -2.40625 -1.78125 c -0.316407 -0.238281 -0.417969 -0.691406 -0.222657 -1.039062 l 0.058594 -0.105469 c 0.210938 -0.382812 0.699219 -0.542969 1.09375 -0.359375 l 2.734375 1.25 l -0.046875 -3.695312 v 0.023437 c 0.023438 -2.167969 1.808594 -3.917969 3.976563 -3.894531 h 0.003906 h 0.160156 c 2.140625 0 3.886719 1.746094 3.886719 3.886719 v 8.113281 h -8.015625 z m 0 0"/>
</svg>
