<?xml version="1.0" encoding="UTF-8"?>
<svg height="16px" viewBox="0 0 16 16" width="16px" xmlns="http://www.w3.org/2000/svg" xmlns:xlink="http://www.w3.org/1999/xlink">
    <filter id="a" height="100%" width="100%" x="0%" y="0%">
        <feColorMatrix color-interpolation-filters="sRGB" values="0 0 0 0 1 0 0 0 0 1 0 0 0 0 1 0 0 0 1 0"/>
    </filter>
    <mask id="b">
        <g filter="url(#a)">
            <path d="m -1.6 -1.6 h 19.2 v 19.2 h -19.2 z" fill-opacity="0.5"/>
        </g>
    </mask>
    <clipPath id="c">
        <path d="m 0 0 h 1600 v 1200 h -1600 z"/>
    </clipPath>
    <mask id="d">
        <g filter="url(#a)">
            <path d="m -1.6 -1.6 h 19.2 v 19.2 h -19.2 z" fill-opacity="0.7"/>
        </g>
    </mask>
    <clipPath id="e">
        <path d="m 0 0 h 1600 v 1200 h -1600 z"/>
    </clipPath>
    <mask id="f">
        <g filter="url(#a)">
            <path d="m -1.6 -1.6 h 19.2 v 19.2 h -19.2 z" fill-opacity="0.35"/>
        </g>
    </mask>
    <clipPath id="g">
        <path d="m 0 0 h 1600 v 1200 h -1600 z"/>
    </clipPath>
    <g mask="url(#b)">
        <g clip-path="url(#c)" transform="matrix(1 0 0 1 -40 -1094)">
            <path d="m 550 182 c -0.351562 0.003906 -0.695312 0.101562 -1 0.28125 v 3.4375 c 0.304688 0.179688 0.648438 0.277344 1 0.28125 c 1.105469 0 2 -0.894531 2 -2 s -0.894531 -2 -2 -2 z m 0 5 c -0.339844 0 -0.679688 0.058594 -1 0.175781 v 6.824219 h 4 v -4 c 0 -1.65625 -1.34375 -3 -3 -3 z m 0 0"/>
        </g>
    </g>
    <g mask="url(#d)">
        <g clip-path="url(#e)" transform="matrix(1 0 0 1 -40 -1094)">
            <path d="m 569 182 v 4 c 1.105469 0 2 -0.894531 2 -2 s -0.894531 -2 -2 -2 z m 0 5 v 7 h 3 v -4 c 0 -1.65625 -1.34375 -3 -3 -3 z m 0 0"/>
        </g>
    </g>
    <g mask="url(#f)">
        <g clip-path="url(#g)" transform="matrix(1 0 0 1 -40 -1094)">
            <path d="m 573 182.269531 v 3.449219 c 0.613281 -0.355469 0.996094 -1.007812 1 -1.71875 c 0 -0.714844 -0.382812 -1.375 -1 -1.730469 z m 0 4.90625 v 6.824219 h 2 v -4 c 0 -1.269531 -0.800781 -2.402344 -2 -2.824219 z m 0 0"/>
        </g>
    </g>
    <path d="m 0.917969 8.003906 c 0 3.914063 3.164062 7.078125 7.078125 7.078125 c 3.605468 -0.007812 6.617187 -2.703125 7.023437 -6.285156 c 0.042969 -0.378906 -0.136719 -0.75 -0.457031 -0.957031 c -0.324219 -0.203125 -0.738281 -0.207032 -1.0625 -0.003906 c -0.609375 0.375 -1.316406 0.578124 -2.03125 0.578124 c -2.140625 0 -3.882812 -1.742187 -3.882812 -3.882812 c 0 -0.714844 0.203124 -1.421875 0.578124 -2.03125 c 0.203126 -0.324219 0.199219 -0.738281 -0.003906 -1.0625 c -0.207031 -0.320312 -0.578125 -0.5 -0.957031 -0.457031 c -3.582031 0.40625 -6.277344 3.417969 -6.285156 7.023437 z m 4.667969 -3.472656 c 0 3.253906 2.628906 5.882812 5.886718 5.882812 c 1.085938 0 2.152344 -0.304687 3.078125 -0.878906 l -1.519531 -0.960937 c -0.289062 2.554687 -2.464844 4.503906 -5.035156 4.507812 c -2.796875 0 -5.078125 -2.28125 -5.078125 -5.078125 c 0.003906 -2.570312 1.953125 -4.746094 4.507812 -5.035156 l -0.960937 -1.519531 c -0.574219 0.925781 -0.875 1.992187 -0.878906 3.082031 z m 0 0" fill="#222222"/>
</svg>
