<?xml version="1.0" encoding="UTF-8"?>
<svg height="16px" viewBox="0 0 16 16" width="16px" xmlns="http://www.w3.org/2000/svg" xmlns:xlink="http://www.w3.org/1999/xlink">
    <filter id="a" height="100%" width="100%" x="0%" y="0%">
        <feColorMatrix color-interpolation-filters="sRGB" values="0 0 0 0 1 0 0 0 0 1 0 0 0 0 1 0 0 0 1 0"/>
    </filter>
    <mask id="b">
        <g filter="url(#a)">
            <path d="m -1.6 -1.6 h 19.2 v 19.2 h -19.2 z" fill-opacity="0.5"/>
        </g>
    </mask>
    <clipPath id="c">
        <path d="m 0 0 h 1600 v 1200 h -1600 z"/>
    </clipPath>
    <mask id="d">
        <g filter="url(#a)">
            <path d="m -1.6 -1.6 h 19.2 v 19.2 h -19.2 z" fill-opacity="0.7"/>
        </g>
    </mask>
    <clipPath id="e">
        <path d="m 0 0 h 1600 v 1200 h -1600 z"/>
    </clipPath>
    <mask id="f">
        <g filter="url(#a)">
            <path d="m -1.6 -1.6 h 19.2 v 19.2 h -19.2 z" fill-opacity="0.35"/>
        </g>
    </mask>
    <clipPath id="g">
        <path d="m 0 0 h 1600 v 1200 h -1600 z"/>
    </clipPath>
    <g mask="url(#b)">
        <g clip-path="url(#c)" transform="matrix(1 0 0 1 -40 -316)">
            <path d="m 550 182 c -0.351562 0.003906 -0.695312 0.101562 -1 0.28125 v 3.4375 c 0.304688 0.179688 0.648438 0.277344 1 0.28125 c 1.105469 0 2 -0.894531 2 -2 s -0.894531 -2 -2 -2 z m 0 5 c -0.339844 0 -0.679688 0.058594 -1 0.175781 v 6.824219 h 4 v -4 c 0 -1.65625 -1.34375 -3 -3 -3 z m 0 0"/>
        </g>
    </g>
    <g mask="url(#d)">
        <g clip-path="url(#e)" transform="matrix(1 0 0 1 -40 -316)">
            <path d="m 569 182 v 4 c 1.105469 0 2 -0.894531 2 -2 s -0.894531 -2 -2 -2 z m 0 5 v 7 h 3 v -4 c 0 -1.65625 -1.34375 -3 -3 -3 z m 0 0"/>
        </g>
    </g>
    <g mask="url(#f)">
        <g clip-path="url(#g)" transform="matrix(1 0 0 1 -40 -316)">
            <path d="m 573 182.269531 v 3.449219 c 0.613281 -0.355469 0.996094 -1.007812 1 -1.71875 c 0 -0.714844 -0.382812 -1.375 -1 -1.730469 z m 0 4.90625 v 6.824219 h 2 v -4 c 0 -1.269531 -0.800781 -2.402344 -2 -2.824219 z m 0 0"/>
        </g>
    </g>
    <path d="m 3.496094 4.007812 c -1.933594 0 -3.50000025 1.566407 -3.50000025 3.5 c 0 1.933594 1.56640625 3.5 3.50000025 3.5 c 1.351562 0 2.578125 -0.777343 3.160156 -2 h 2.683594 c 0.578125 1.222657 1.804687 2 3.15625 2 c 1.933594 0 3.5 -1.566406 3.5 -3.5 c 0 -1.933593 -1.566406 -3.5 -3.5 -3.5 c -0.136719 0.003907 -0.269532 0.011719 -0.402344 0.027344 c -0.046875 -0.011718 -0.089844 -0.027344 -0.140625 -0.027344 h -7.914063 c -0.046874 0 -0.089843 0.015626 -0.132812 0.027344 c -0.136719 -0.015625 -0.273438 -0.027344 -0.410156 -0.027344 z m 7.5 1 c 0.550781 0 1 0.449219 1 1 c 0 0.554688 -0.449219 1 -1 1 c -0.550782 0 -1 -0.445312 -1 -1 c 0 -0.550781 0.449218 -1 1 -1 z m -7.867188 1 h 0.734375 c 0.074219 0 0.132813 0.058594 0.132813 0.132813 v 0.867187 h 0.867187 c 0.074219 0 0.132813 0.058594 0.132813 0.132813 v 0.734375 c 0 0.074219 -0.058594 0.132812 -0.132813 0.132812 h -0.867187 v 0.867188 c 0 0.074219 -0.058594 0.132812 -0.132813 0.132812 h -0.734375 c -0.074218 0 -0.132812 -0.058593 -0.132812 -0.132812 v -0.867188 h -0.867188 c -0.074218 0 -0.132812 -0.058593 -0.132812 -0.132812 v -0.734375 c 0 -0.074219 0.058594 -0.132813 0.132812 -0.132813 h 0.867188 v -0.867187 c 0 -0.074219 0.058594 -0.132813 0.132812 -0.132813 z m 9.867188 1 c 0.550781 0 1 0.449219 1 1 c 0 0.554688 -0.449219 1 -1 1 c -0.550782 0 -1 -0.445312 -1 -1 c 0 -0.550781 0.449218 -1 1 -1 z m 0 0" fill="#222222"/>
</svg>
