<?xml version="1.0" encoding="UTF-8"?>
<svg height="16px" viewBox="0 0 16 16" width="16px" xmlns="http://www.w3.org/2000/svg" xmlns:xlink="http://www.w3.org/1999/xlink">
    <filter id="a" height="100%" width="100%" x="0%" y="0%">
        <feColorMatrix color-interpolation-filters="sRGB" values="0 0 0 0 1 0 0 0 0 1 0 0 0 0 1 0 0 0 1 0"/>
    </filter>
    <mask id="b">
        <g filter="url(#a)">
            <path d="m -1.6 -1.6 h 19.2 v 19.2 h -19.2 z" fill-opacity="0.5"/>
        </g>
    </mask>
    <clipPath id="c">
        <path d="m 0 0 h 1600 v 1200 h -1600 z"/>
    </clipPath>
    <mask id="d">
        <g filter="url(#a)">
            <path d="m -1.6 -1.6 h 19.2 v 19.2 h -19.2 z" fill-opacity="0.7"/>
        </g>
    </mask>
    <clipPath id="e">
        <path d="m 0 0 h 1600 v 1200 h -1600 z"/>
    </clipPath>
    <mask id="f">
        <g filter="url(#a)">
            <path d="m -1.6 -1.6 h 19.2 v 19.2 h -19.2 z" fill-opacity="0.35"/>
        </g>
    </mask>
    <clipPath id="g">
        <path d="m 0 0 h 1600 v 1200 h -1600 z"/>
    </clipPath>
    <g fill="#222222">
        <path d="m 6 2.042969 c 0 1.105469 -0.894531 2 -2 2 s -2 -0.894531 -2 -2 c 0 -1.101563 0.894531 -2.0000002 2 -2.0000002 s 2 0.8984372 2 2.0000002 z m 0 0"/>
        <path d="m 15 2.042969 c 0 1.105469 -0.894531 2 -2 2 s -2 -0.894531 -2 -2 c 0 -1.101563 0.894531 -2.0000002 2 -2.0000002 s 2 0.8984372 2 2.0000002 z m 0 0"/>
        <path d="m 8 1 v 8.085938 l 1 1 v -9.085938 z m -4.085938 4 l 3.085938 3.085938 v -2.046876 c 0 -0.574218 -0.464844 -1.039062 -1.039062 -1.039062 z m 8.09375 0 c -0.574218 0 -0.945312 0.46875 -1.039062 1.039062 l -0.839844 5.175782 l 1.839844 1.835937 h 0.03125 v 0.035157 l 1.707031 1.707031 c 0.03125 0.03125 0.058594 0.066406 0.085938 0.097656 c 0.121093 -0.089844 0.207031 -0.234375 0.207031 -0.402344 v -1.4375 h 0.960938 c 0.574218 0 1.132812 -0.46875 1.039062 -1.039062 l -0.96875 -5.972657 c -0.09375 -0.570312 -0.464844 -1.039062 -1.039062 -1.039062 z m -10.652343 0.269531 c -0.214844 0.1875 -0.355469 0.460938 -0.355469 0.769531 v 4.421876 c 0 0.5625 0.441406 1.007812 1 1.03125 v 2.515624 c 0 0.550782 0.441406 0.992188 0.992188 0.992188 h 2.015624 c 0.550782 0 0.992188 -0.441406 0.992188 -0.992188 v -2.515624 c 0.421875 -0.015626 0.777344 -0.28125 0.925781 -0.652344 z m 6.644531 6.644531 v 3.085938 h 1 v -2.085938 z m 0 0"/>
        <path d="m 2 1 c -0.265625 0 -0.519531 0.105469 -0.707031 0.292969 c -0.390625 0.390625 -0.390625 1.023437 0 1.414062 l 12 12 c 0.390625 0.390625 1.023437 0.390625 1.414062 0 s 0.390625 -1.023437 0 -1.414062 l -12 -12 c -0.1875 -0.1875 -0.441406 -0.292969 -0.707031 -0.292969 z m 0 0"/>
    </g>
    <g mask="url(#b)">
        <g clip-path="url(#c)" transform="matrix(1 0 0 1 -640 -60)">
            <path d="m 550 182 c -0.351562 0.003906 -0.695312 0.101562 -1 0.28125 v 3.4375 c 0.304688 0.179688 0.648438 0.277344 1 0.28125 c 1.105469 0 2 -0.894531 2 -2 s -0.894531 -2 -2 -2 z m 0 5 c -0.339844 0 -0.679688 0.058594 -1 0.175781 v 6.824219 h 4 v -4 c 0 -1.65625 -1.34375 -3 -3 -3 z m 0 0"/>
        </g>
    </g>
    <g mask="url(#d)">
        <g clip-path="url(#e)" transform="matrix(1 0 0 1 -640 -60)">
            <path d="m 569 182 v 4 c 1.105469 0 2 -0.894531 2 -2 s -0.894531 -2 -2 -2 z m 0 5 v 7 h 3 v -4 c 0 -1.65625 -1.34375 -3 -3 -3 z m 0 0"/>
        </g>
    </g>
    <g mask="url(#f)">
        <g clip-path="url(#g)" transform="matrix(1 0 0 1 -640 -60)">
            <path d="m 573 182.269531 v 3.449219 c 0.613281 -0.355469 0.996094 -1.007812 1 -1.71875 c 0 -0.714844 -0.382812 -1.375 -1 -1.730469 z m 0 4.90625 v 6.824219 h 2 v -4 c 0 -1.269531 -0.800781 -2.402344 -2 -2.824219 z m 0 0"/>
        </g>
    </g>
</svg>
