<?xml version="1.0" encoding="UTF-8"?>
<svg height="16px" viewBox="0 0 16 16" width="16px" xmlns="http://www.w3.org/2000/svg" xmlns:xlink="http://www.w3.org/1999/xlink">
    <filter id="a" height="100%" width="100%" x="0%" y="0%">
        <feColorMatrix color-interpolation-filters="sRGB" values="0 0 0 0 1 0 0 0 0 1 0 0 0 0 1 0 0 0 1 0"/>
    </filter>
    <mask id="b">
        <g filter="url(#a)">
            <path d="m -1.6 -1.6 h 19.2 v 19.2 h -19.2 z" fill-opacity="0.5"/>
        </g>
    </mask>
    <clipPath id="c">
        <path d="m 0 0 h 1600 v 1200 h -1600 z"/>
    </clipPath>
    <mask id="d">
        <g filter="url(#a)">
            <path d="m -1.6 -1.6 h 19.2 v 19.2 h -19.2 z" fill-opacity="0.7"/>
        </g>
    </mask>
    <clipPath id="e">
        <path d="m 0 0 h 1600 v 1200 h -1600 z"/>
    </clipPath>
    <mask id="f">
        <g filter="url(#a)">
            <path d="m -1.6 -1.6 h 19.2 v 19.2 h -19.2 z" fill-opacity="0.35"/>
        </g>
    </mask>
    <clipPath id="g">
        <path d="m 0 0 h 1600 v 1200 h -1600 z"/>
    </clipPath>
    <path d="m 7.664062 0.0078125 c -2.613281 0.1093755 -5.003906 1.4882815 -6.410156 3.6953125 c -1.90625 3 -1.605468 6.898437 0.738282 9.574219 c 2.34375 2.667968 6.171874 3.472656 9.394531 1.96875 c 0.5 -0.230469 0.71875 -0.828125 0.484375 -1.328125 s -0.828125 -0.714844 -1.328125 -0.484375 c -2.417969 1.132812 -5.292969 0.53125 -7.050781 -1.476563 c -1.761719 -2.003906 -1.988282 -4.933593 -0.550782 -7.179687 c 1.429688 -2.253906 4.179688 -3.285156 6.738282 -2.539063 c 2.5625 0.746094 4.324218 3.09375 4.324218 5.761719 c -0.003906 0.011719 -0.003906 0.027344 0 0.039062 v 0.960938 c 0 0.359375 -0.191406 0.683594 -0.5 0.863281 c -0.3125 0.179688 -0.691406 0.179688 -1 0 c -0.3125 -0.175781 -0.503906 -0.507812 -0.5 -0.863281 v -1 c 0 -2.199219 -1.804687 -4 -4 -4 c -2.199218 0 -4 1.800781 -4 4 c 0 2.195312 1.800782 4 4 4 c 1.042969 0 1.988282 -0.417969 2.703125 -1.078125 c 0.222657 0.265625 0.488281 0.496094 0.796875 0.675781 c 0.925782 0.535156 2.070313 0.535156 3 0 c 0.925782 -0.535156 1.496094 -1.527344 1.5 -2.597656 v -1 c -0.003906 -3.554688 -2.351562 -6.683594 -5.761718 -7.683594 c -0.839844 -0.2421872 -1.707032 -0.347656 -2.578126 -0.3085935 z m 0.339844 5.9921875 c 1.113282 0 2 0.882812 2 2 c 0 1.113281 -0.886718 2 -2 2 c -1.117187 0 -2 -0.886719 -2 -2 c 0 -1.117188 0.882813 -2 2 -2 z m 0 0" fill="#222222"/>
    <g mask="url(#b)">
        <g clip-path="url(#c)" transform="matrix(1 0 0 1 -896 -240)">
            <path d="m 550 182 c -0.351562 0.003906 -0.695312 0.101562 -1 0.28125 v 3.4375 c 0.304688 0.179688 0.648438 0.277344 1 0.28125 c 1.105469 0 2 -0.894531 2 -2 s -0.894531 -2 -2 -2 z m 0 5 c -0.339844 0 -0.679688 0.058594 -1 0.175781 v 6.824219 h 4 v -4 c 0 -1.65625 -1.34375 -3 -3 -3 z m 0 0"/>
        </g>
    </g>
    <g mask="url(#d)">
        <g clip-path="url(#e)" transform="matrix(1 0 0 1 -896 -240)">
            <path d="m 569 182 v 4 c 1.105469 0 2 -0.894531 2 -2 s -0.894531 -2 -2 -2 z m 0 5 v 7 h 3 v -4 c 0 -1.65625 -1.34375 -3 -3 -3 z m 0 0"/>
        </g>
    </g>
    <g mask="url(#f)">
        <g clip-path="url(#g)" transform="matrix(1 0 0 1 -896 -240)">
            <path d="m 573 182.269531 v 3.449219 c 0.613281 -0.355469 0.996094 -1.007812 1 -1.71875 c 0 -0.714844 -0.382812 -1.375 -1 -1.730469 z m 0 4.90625 v 6.824219 h 2 v -4 c 0 -1.269531 -0.800781 -2.402344 -2 -2.824219 z m 0 0"/>
        </g>
    </g>
</svg>
