<?xml version="1.0" encoding="UTF-8"?>
<svg height="16px" viewBox="0 0 16 16" width="16px" xmlns="http://www.w3.org/2000/svg" xmlns:xlink="http://www.w3.org/1999/xlink">
    <filter id="a" height="100%" width="100%" x="0%" y="0%">
        <feColorMatrix color-interpolation-filters="sRGB" values="0 0 0 0 1 0 0 0 0 1 0 0 0 0 1 0 0 0 1 0"/>
    </filter>
    <mask id="b">
        <g filter="url(#a)">
            <path d="m -1.6 -1.6 h 19.2 v 19.2 h -19.2 z" fill-opacity="0.5"/>
        </g>
    </mask>
    <clipPath id="c">
        <path d="m 0 0 h 1600 v 1200 h -1600 z"/>
    </clipPath>
    <mask id="d">
        <g filter="url(#a)">
            <path d="m -1.6 -1.6 h 19.2 v 19.2 h -19.2 z" fill-opacity="0.7"/>
        </g>
    </mask>
    <clipPath id="e">
        <path d="m 0 0 h 1600 v 1200 h -1600 z"/>
    </clipPath>
    <mask id="f">
        <g filter="url(#a)">
            <path d="m -1.6 -1.6 h 19.2 v 19.2 h -19.2 z" fill-opacity="0.35"/>
        </g>
    </mask>
    <clipPath id="g">
        <path d="m 0 0 h 1600 v 1200 h -1600 z"/>
    </clipPath>
    <g mask="url(#b)">
        <g clip-path="url(#c)" transform="matrix(1 0 0 1 -1040 -80)">
            <path d="m 550 182 c -0.351562 0.003906 -0.695312 0.101562 -1 0.28125 v 3.4375 c 0.304688 0.179688 0.648438 0.277344 1 0.28125 c 1.105469 0 2 -0.894531 2 -2 s -0.894531 -2 -2 -2 z m 0 5 c -0.339844 0 -0.679688 0.058594 -1 0.175781 v 6.824219 h 4 v -4 c 0 -1.65625 -1.34375 -3 -3 -3 z m 0 0"/>
        </g>
    </g>
    <g mask="url(#d)">
        <g clip-path="url(#e)" transform="matrix(1 0 0 1 -1040 -80)">
            <path d="m 569 182 v 4 c 1.105469 0 2 -0.894531 2 -2 s -0.894531 -2 -2 -2 z m 0 5 v 7 h 3 v -4 c 0 -1.65625 -1.34375 -3 -3 -3 z m 0 0"/>
        </g>
    </g>
    <g mask="url(#f)">
        <g clip-path="url(#g)" transform="matrix(1 0 0 1 -1040 -80)">
            <path d="m 573 182.269531 v 3.449219 c 0.613281 -0.355469 0.996094 -1.007812 1 -1.71875 c 0 -0.714844 -0.382812 -1.375 -1 -1.730469 z m 0 4.90625 v 6.824219 h 2 v -4 c 0 -1.269531 -0.800781 -2.402344 -2 -2.824219 z m 0 0"/>
        </g>
    </g>
    <g fill="#2e3436">
        <path d="m 15 11 c 0 1.644531 -1.355469 3 -3 3 h -9 c -1.644531 0 -3 -1.355469 -3 -3 v -6 c 0 -1.644531 1.355469 -3 3 -3 h 7.5 c 0.265625 0 0.519531 0.105469 0.707031 0.292969 l 3.5 3.5 c 0.1875 0.1875 0.292969 0.441406 0.292969 0.707031 z m -2 0 v -4 h -1.5 c -1 0 -1.5 -0.5 -1.5 -1.5 v -1.5 h -7 c -0.570312 0 -1 0.429688 -1 1 v 6 c 0 0.570312 0.429688 1 1 1 h 9 c 0.570312 0 1 -0.429688 1 -1 z m -8.5 -6.035156 c -0.824219 0 -1.5 0.675781 -1.5 1.5 c 0 0.820312 0.675781 1.5 1.5 1.5 s 1.5 -0.679688 1.5 -1.5 c 0 -0.824219 -0.675781 -1.5 -1.5 -1.5 z m 0 1 c 0.28125 0 0.5 0.21875 0.5 0.5 s -0.21875 0.5 -0.5 0.5 s -0.5 -0.21875 -0.5 -0.5 s 0.21875 -0.5 0.5 -0.5 z m 0 0"/>
        <path d="m 13.382812 9.996094 h -2.417968 c -0.558594 0 -1.097656 -0.195313 -1.523438 -0.550782 l -1.128906 -0.941406 c -0.804688 -0.671875 -1.972656 -0.671875 -2.78125 -0.003906 l -1.09375 0.902344 c -0.449219 0.371094 -1.015625 0.574218 -1.597656 0.574218 h -1.339844 c -0.277344 0 -0.5 0.222657 -0.5 0.5 c 0 0.277344 0.222656 0.5 0.5 0.5 h 1.339844 c 0.816406 0 1.605468 -0.285156 2.234375 -0.804687 l 1.09375 -0.902344 c 0.4375 -0.359375 1.070312 -0.359375 1.503906 0.003907 l 1.128906 0.941406 c 0.609375 0.503906 1.371094 0.78125 2.164063 0.78125 h 2.417968 c 0.277344 0 0.5 -0.222656 0.5 -0.5 c 0 -0.273438 -0.222656 -0.5 -0.5 -0.5 z m 0 0"/>
    </g>
</svg>
