<?xml version="1.0" encoding="UTF-8"?>
<svg height="16px" viewBox="0 0 16 16" width="16px" xmlns="http://www.w3.org/2000/svg" xmlns:xlink="http://www.w3.org/1999/xlink">
    <filter id="a" height="100%" width="100%" x="0%" y="0%">
        <feColorMatrix color-interpolation-filters="sRGB" values="0 0 0 0 1 0 0 0 0 1 0 0 0 0 1 0 0 0 1 0"/>
    </filter>
    <mask id="b">
        <g filter="url(#a)">
            <path d="m -1.6 -1.6 h 19.2 v 19.2 h -19.2 z" fill-opacity="0.5"/>
        </g>
    </mask>
    <clipPath id="c">
        <path d="m 0 0 h 1600 v 1200 h -1600 z"/>
    </clipPath>
    <mask id="d">
        <g filter="url(#a)">
            <path d="m -1.6 -1.6 h 19.2 v 19.2 h -19.2 z" fill-opacity="0.7"/>
        </g>
    </mask>
    <clipPath id="e">
        <path d="m 0 0 h 1600 v 1200 h -1600 z"/>
    </clipPath>
    <mask id="f">
        <g filter="url(#a)">
            <path d="m -1.6 -1.6 h 19.2 v 19.2 h -19.2 z" fill-opacity="0.35"/>
        </g>
    </mask>
    <clipPath id="g">
        <path d="m 0 0 h 1600 v 1200 h -1600 z"/>
    </clipPath>
    <g mask="url(#b)">
        <g clip-path="url(#c)" transform="matrix(1 0 0 1 -200 -240)">
            <path d="m 550 182 c -0.351562 0.003906 -0.695312 0.101562 -1 0.28125 v 3.4375 c 0.304688 0.179688 0.648438 0.277344 1 0.28125 c 1.105469 0 2 -0.894531 2 -2 s -0.894531 -2 -2 -2 z m 0 5 c -0.339844 0 -0.679688 0.058594 -1 0.175781 v 6.824219 h 4 v -4 c 0 -1.65625 -1.34375 -3 -3 -3 z m 0 0"/>
        </g>
    </g>
    <g mask="url(#d)">
        <g clip-path="url(#e)" transform="matrix(1 0 0 1 -200 -240)">
            <path d="m 569 182 v 4 c 1.105469 0 2 -0.894531 2 -2 s -0.894531 -2 -2 -2 z m 0 5 v 7 h 3 v -4 c 0 -1.65625 -1.34375 -3 -3 -3 z m 0 0"/>
        </g>
    </g>
    <g mask="url(#f)">
        <g clip-path="url(#g)" transform="matrix(1 0 0 1 -200 -240)">
            <path d="m 573 182.269531 v 3.449219 c 0.613281 -0.355469 0.996094 -1.007812 1 -1.71875 c 0 -0.714844 -0.382812 -1.375 -1 -1.730469 z m 0 4.90625 v 6.824219 h 2 v -4 c 0 -1.269531 -0.800781 -2.402344 -2 -2.824219 z m 0 0"/>
        </g>
    </g>
    <path d="m 5.5 -0.00390625 c -1.378906 0 -2.5 1.12109425 -2.5 2.50000025 c 0 1.382812 1.121094 2.5 2.5 2.5 s 2.5 -1.117188 2.5 -2.5 c 0 -1.378906 -1.121094 -2.50000025 -2.5 -2.50000025 z m 7 5.00000025 c -1.386719 0 -2.5 1.117187 -2.5 2.5 c 0 1.386718 1.113281 2.5 2.5 2.5 s 2.5 -1.113282 2.5 -2.5 c 0 -1.382813 -1.113281 -2.5 -2.5 -2.5 z m -8.5 1 c -0.265625 0.003906 -0.519531 0.105468 -0.707031 0.292968 l -3 3 c -0.3906252 0.390626 -0.3906252 1.027344 0 1.414063 c 0.390625 0.390625 1.023437 0.390625 1.414062 0 l 1.542969 -1.542969 l -0.25 1.765625 v 4.070313 c 0 0.554687 0.449219 1 1 1 s 1 -0.445313 1 -1 v -2.5 s 0 -0.5 0.5 -0.5 s 0.5 0.5 0.5 0.5 v 2.5 c 0 0.554687 0.449219 1 1 1 s 1 -0.445313 1 -1 v -3.285156 l 0.085938 0.191406 c 0.179687 0.402344 0.597656 0.640625 1.035156 0.585937 c 0.152344 0.292969 0.433594 0.515625 0.878906 0.507813 h 1 v 2 c 0 0.773437 0.835938 1.253906 1.5 0.867187 c 0.667969 0.382813 1.5 -0.097656 1.5 -0.867187 v -0.132813 c 0.867188 0.5 1.847656 -0.441406 1.386719 -1.328125 l -0.949219 -1.8125 c -0.351562 -0.609375 -0.59375 -0.726562 -1.4375 -0.726562 h -3 c -0.042969 0 -0.074219 0.019531 -0.117188 0.023437 l -1.96875 -4.425781 c -0.160156 -0.363281 -0.519531 -0.597656 -0.914062 -0.597656 z m 0 0" fill="#222222"/>
</svg>
