<?xml version="1.0" encoding="UTF-8"?>
<svg height="16px" viewBox="0 0 16 16" width="16px" xmlns="http://www.w3.org/2000/svg" xmlns:xlink="http://www.w3.org/1999/xlink">
    <filter id="a" height="100%" width="100%" x="0%" y="0%">
        <feColorMatrix color-interpolation-filters="sRGB" values="0 0 0 0 1 0 0 0 0 1 0 0 0 0 1 0 0 0 1 0"/>
    </filter>
    <mask id="b">
        <g filter="url(#a)">
            <path d="m -1.6 -1.6 h 19.2 v 19.2 h -19.2 z" fill-opacity="0.5"/>
        </g>
    </mask>
    <clipPath id="c">
        <path d="m 0 0 h 1600 v 1200 h -1600 z"/>
    </clipPath>
    <mask id="d">
        <g filter="url(#a)">
            <path d="m -1.6 -1.6 h 19.2 v 19.2 h -19.2 z" fill-opacity="0.7"/>
        </g>
    </mask>
    <clipPath id="e">
        <path d="m 0 0 h 1600 v 1200 h -1600 z"/>
    </clipPath>
    <mask id="f">
        <g filter="url(#a)">
            <path d="m -1.6 -1.6 h 19.2 v 19.2 h -19.2 z" fill-opacity="0.35"/>
        </g>
    </mask>
    <clipPath id="g">
        <path d="m 0 0 h 1600 v 1200 h -1600 z"/>
    </clipPath>
    <g mask="url(#b)">
        <g clip-path="url(#c)" transform="matrix(1 0 0 1 -136 -956)">
            <path d="m 550 182 c -0.351562 0.003906 -0.695312 0.101562 -1 0.28125 v 3.4375 c 0.304688 0.179688 0.648438 0.277344 1 0.28125 c 1.105469 0 2 -0.894531 2 -2 s -0.894531 -2 -2 -2 z m 0 5 c -0.339844 0 -0.679688 0.058594 -1 0.175781 v 6.824219 h 4 v -4 c 0 -1.65625 -1.34375 -3 -3 -3 z m 0 0"/>
        </g>
    </g>
    <g mask="url(#d)">
        <g clip-path="url(#e)" transform="matrix(1 0 0 1 -136 -956)">
            <path d="m 569 182 v 4 c 1.105469 0 2 -0.894531 2 -2 s -0.894531 -2 -2 -2 z m 0 5 v 7 h 3 v -4 c 0 -1.65625 -1.34375 -3 -3 -3 z m 0 0"/>
        </g>
    </g>
    <g mask="url(#f)">
        <g clip-path="url(#g)" transform="matrix(1 0 0 1 -136 -956)">
            <path d="m 573 182.269531 v 3.449219 c 0.613281 -0.355469 0.996094 -1.007812 1 -1.71875 c 0 -0.714844 -0.382812 -1.375 -1 -1.730469 z m 0 4.90625 v 6.824219 h 2 v -4 c 0 -1.269531 -0.800781 -2.402344 -2 -2.824219 z m 0 0"/>
        </g>
    </g>
    <g fill="#222222">
        <path d="m 2.585938 13.105469 l -1.53125 1.289062 c 0.851562 1.015625 2.117187 1.605469 3.445312 1.605469 h 6.5 v -2 h -6.5 c -0.738281 0 -1.4375 -0.324219 -1.914062 -0.894531 z m 0 0"/>
        <path d="m 5 0 v 2 h 6.5 c 1.21875 0 2.25 0.863281 2.464844 2.066406 l 1.96875 -0.347656 c -0.378906 -2.144531 -2.257813 -3.71875 -4.433594 -3.71875 z m 0 0"/>
        <path d="m 6 7 v 2 h 2 v -2 z m 0 0"/>
        <path d="m 10 7 v 2 h 2 v -2 z m 0 0"/>
        <path d="m 14.257812 8.054688 l -1.214843 -1.585938 l 0.015625 -0.015625 l 0.078125 -0.066406 l 0.074219 -0.066407 l 0.074218 -0.070312 l 0.066406 -0.074219 l 0.066407 -0.078125 l 0.125 -0.15625 l 0.109375 -0.171875 l 0.046875 -0.085937 l 0.046875 -0.089844 l 0.042968 -0.09375 l 0.039063 -0.09375 l 0.035156 -0.089844 l 1.878907 0.6875 l -0.050782 0.132813 l -0.070312 0.167969 l -0.074219 0.167968 l -0.085937 0.160156 l -0.085938 0.15625 l -0.097656 0.15625 l -0.101563 0.148438 l -0.105469 0.148438 l -0.113281 0.140624 l -0.121093 0.136719 l -0.121094 0.132813 l -0.128906 0.125 l -0.136719 0.121094 l -0.140625 0.117187 z m 0 0"/>
        <path d="m 4.484375 7 l 0.03125 2 l -0.089844 0.003906 h -0.070312 l -0.074219 0.007813 l -0.140625 0.015625 l -0.074219 0.011718 l -0.070312 0.011719 l -0.066406 0.015625 l -0.140626 0.039063 l -0.066406 0.019531 l -0.132812 0.046875 l -0.132813 0.054687 l -0.0625 0.03125 l -0.0625 0.035157 l -0.0625 0.03125 l -0.0625 0.035156 l -0.070312 0.046875 l -1.058594 -1.699219 l 0.09375 -0.058593 l 0.109375 -0.0625 l 0.113281 -0.0625 l 0.113281 -0.058594 l 0.117188 -0.054688 l 0.234375 -0.101562 l 0.242187 -0.085938 l 0.121094 -0.035156 l 0.125 -0.035156 l 0.125 -0.03125 l 0.25 -0.054688 l 0.128906 -0.019531 l 0.128907 -0.015625 l 0.257812 -0.023438 l 0.128907 -0.003906 z m -4.074219 2.625 l 1.808594 0.847656 l -0.054688 0.132813 l -0.046874 0.132812 l -0.019532 0.066407 l -0.019531 0.070312 l -0.015625 0.070312 l -0.015625 0.066407 l -0.023437 0.140625 l -0.015626 0.140625 l -0.003906 0.074219 l -0.003906 0.070312 v 0.140625 l 0.003906 0.074219 l 0.003906 0.070312 l 0.007813 0.070313 l 0.011719 0.078125 l -1.9843752 0.261718 l -0.0117188 -0.105468 l -0.015625 -0.128906 l -0.015625 -0.257813 v -0.253906 l 0.00390625 -0.128907 l 0.02343755 -0.257812 l 0.015625 -0.125 l 0.0195312 -0.125 l 0.0234375 -0.125 l 0.0546875 -0.25 l 0.035156 -0.125 l 0.078125 -0.242188 l 0.042969 -0.121093 l 0.050781 -0.117188 l 0.050782 -0.121093 z m 0 0"/>
    </g>
</svg>
