<?xml version="1.0" encoding="UTF-8"?>
<svg height="16px" viewBox="0 0 16 16" width="16px" xmlns="http://www.w3.org/2000/svg" xmlns:xlink="http://www.w3.org/1999/xlink">
    <filter id="a" height="100%" width="100%" x="0%" y="0%">
        <feColorMatrix color-interpolation-filters="sRGB" values="0 0 0 0 1 0 0 0 0 1 0 0 0 0 1 0 0 0 1 0"/>
    </filter>
    <mask id="b">
        <g filter="url(#a)">
            <path d="m -1.6 -1.6 h 19.2 v 19.2 h -19.2 z" fill-opacity="0.5"/>
        </g>
    </mask>
    <clipPath id="c">
        <path d="m 0 0 h 1600 v 1200 h -1600 z"/>
    </clipPath>
    <mask id="d">
        <g filter="url(#a)">
            <path d="m -1.6 -1.6 h 19.2 v 19.2 h -19.2 z" fill-opacity="0.7"/>
        </g>
    </mask>
    <clipPath id="e">
        <path d="m 0 0 h 1600 v 1200 h -1600 z"/>
    </clipPath>
    <mask id="f">
        <g filter="url(#a)">
            <path d="m -1.6 -1.6 h 19.2 v 19.2 h -19.2 z" fill-opacity="0.35"/>
        </g>
    </mask>
    <clipPath id="g">
        <path d="m 0 0 h 1600 v 1200 h -1600 z"/>
    </clipPath>
    <g mask="url(#b)">
        <g clip-path="url(#c)" transform="matrix(1 0 0 1 -156 -956)">
            <path d="m 550 182 c -0.351562 0.003906 -0.695312 0.101562 -1 0.28125 v 3.4375 c 0.304688 0.179688 0.648438 0.277344 1 0.28125 c 1.105469 0 2 -0.894531 2 -2 s -0.894531 -2 -2 -2 z m 0 5 c -0.339844 0 -0.679688 0.058594 -1 0.175781 v 6.824219 h 4 v -4 c 0 -1.65625 -1.34375 -3 -3 -3 z m 0 0"/>
        </g>
    </g>
    <g mask="url(#d)">
        <g clip-path="url(#e)" transform="matrix(1 0 0 1 -156 -956)">
            <path d="m 569 182 v 4 c 1.105469 0 2 -0.894531 2 -2 s -0.894531 -2 -2 -2 z m 0 5 v 7 h 3 v -4 c 0 -1.65625 -1.34375 -3 -3 -3 z m 0 0"/>
        </g>
    </g>
    <g mask="url(#f)">
        <g clip-path="url(#g)" transform="matrix(1 0 0 1 -156 -956)">
            <path d="m 573 182.269531 v 3.449219 c 0.613281 -0.355469 0.996094 -1.007812 1 -1.71875 c 0 -0.714844 -0.382812 -1.375 -1 -1.730469 z m 0 4.90625 v 6.824219 h 2 v -4 c 0 -1.269531 -0.800781 -2.402344 -2 -2.824219 z m 0 0"/>
        </g>
    </g>
    <g fill="#222222">
        <path d="m 3.3125 7.160156 l -0.179688 0.050782 l -0.199218 0.066406 l -0.191406 0.078125 l -0.1875 0.085937 l -0.183594 0.089844 l -0.175782 0.101562 l -0.171874 0.109376 l -0.164063 0.113281 l -0.160156 0.121093 l -0.15625 0.128907 l -0.148438 0.132812 l -0.140625 0.140625 l -0.082031 0.089844 l 1.472656 1.355469 l 0.054688 -0.058594 l 0.078125 -0.078125 l 0.082031 -0.074219 l 0.082031 -0.070312 l 0.089844 -0.070313 l 0.09375 -0.0625 l 0.09375 -0.058594 l 0.097656 -0.054687 l 0.101563 -0.050781 l 0.105469 -0.046875 l 0.105468 -0.042969 l 0.109375 -0.039062 l 0.136719 -0.039063 z m -3.25 3.59375 l -0.015625 0.097656 l -0.0273438 0.203126 l -0.01562495 0.203124 l -0.00390625 0.207032 l 0.00390625 0.207031 l 0.01171875 0.207031 l 0.0234375 0.210938 l 0.03125 0.207031 l 0.0390625 0.203125 l 0.050781 0.203125 l 0.0625 0.195313 l 0.066406 0.191406 l 0.066407 0.164062 l 1.855469 -0.746094 l -0.050782 -0.121093 l -0.039062 -0.109375 l -0.03125 -0.109375 l -0.027344 -0.109375 l -0.023438 -0.113282 l -0.019531 -0.117187 l -0.011719 -0.117187 l -0.007812 -0.117188 v -0.113281 l 0.003906 -0.117188 l 0.007813 -0.113281 l 0.011719 -0.109375 l 0.011718 -0.050781 z m 3.050781 2.828125 l -1.144531 1.636719 l 0.035156 0.027344 l 0.167969 0.105468 l 0.171875 0.097657 l 0.179688 0.09375 l 0.179687 0.085937 l 0.1875 0.074219 l 0.191406 0.070313 l 0.191407 0.058593 l 0.199218 0.050781 l 0.199219 0.042969 l 0.203125 0.03125 l 0.207031 0.023438 l 0.207031 0.015625 l 0.109376 0.003906 l 0.042968 -2 l -0.175781 -0.011719 l -0.113281 -0.011719 l -0.113282 -0.019531 l -0.113281 -0.023437 l -0.105469 -0.027344 l -0.109374 -0.035156 l -0.105469 -0.035156 l -0.101563 -0.042969 l -0.101562 -0.046875 l -0.097656 -0.050782 l -0.097657 -0.054687 l -0.09375 -0.0625 z m 0 0"/>
        <path d="m 12.6875 8.839844 l -0.5625 -1.917969 l 0.136719 -0.039063 l 0.105469 -0.039062 l 0.109374 -0.042969 l 0.105469 -0.046875 l 0.097657 -0.050781 l 0.101562 -0.054687 l 0.09375 -0.0625 l 0.089844 -0.0625 l 0.089844 -0.066407 l 0.085937 -0.070312 l 0.082031 -0.078125 l 0.078125 -0.078125 l 0.050781 -0.054688 l 1.472657 1.351563 l -0.082031 0.089844 l -0.140626 0.140624 l -0.148437 0.136719 l -0.152344 0.125 l -0.160156 0.125 l -0.164063 0.113281 l -0.171874 0.109376 l -0.179688 0.097656 l -0.183594 0.09375 l -0.1875 0.085937 l -0.191406 0.074219 l -0.195312 0.066406 z m 3.25 -3.59375 l -1.972656 -0.332032 l 0.011718 -0.054687 l 0.011719 -0.109375 l 0.007813 -0.113281 l 0.003906 -0.117188 v -0.113281 l -0.007812 -0.117188 l -0.011719 -0.117187 l -0.019531 -0.117187 l -0.023438 -0.113282 l -0.027344 -0.109375 l -0.03125 -0.109375 l -0.039062 -0.109375 l -0.050782 -0.121093 l 1.855469 -0.746094 l 0.066407 0.164062 l 0.066406 0.191406 l 0.0625 0.195313 l 0.050781 0.203125 l 0.039063 0.203125 l 0.03125 0.207031 l 0.023437 0.210938 l 0.015625 0.207031 v 0.207031 l -0.003906 0.207032 l -0.015625 0.203124 l -0.027344 0.203126 z m -3.050781 -2.828125 l -0.09375 -0.058594 l -0.097657 -0.054687 l -0.097656 -0.050782 l -0.101562 -0.046875 l -0.101563 -0.042969 l -0.105469 -0.039062 l -0.105468 -0.03125 l -0.109375 -0.027344 l -0.113281 -0.023437 l -0.113282 -0.019531 l -0.113281 -0.011719 l -0.175781 -0.011719 l 0.042968 -2 l 0.109376 0.00390625 l 0.207031 0.01562495 l 0.207031 0.0234376 l 0.203125 0.03125 l 0.199219 0.0429692 l 0.199218 0.050781 l 0.191407 0.058593 l 0.191406 0.070313 l 0.1875 0.074219 l 0.179687 0.085937 l 0.179688 0.089844 l 0.171875 0.101563 l 0.167969 0.105468 l 0.035156 0.023438 z m 0 0"/>
        <path d="m 4 0 v 2 h 2 v -2 z m 0 0"/>
        <path d="m 8 0 v 2 h 2 v -2 z m 0 0"/>
        <path d="m 4 4 h 1.375 l 2.625 2.5625 l 2.59375 -2.5625 h 1.40625 v 1.46875 l -2.59375 2.53125 l 2.59375 2.59375 v 1.40625 h -1.4375 l -2.5625 -2.59375 l -2.5625 2.59375 h -1.4375 v -1.40625 l 2.5625 -2.59375 l -2.5625 -2.53125 z m 0 0"/>
        <path d="m 6 14 v 2 h 2 v -2 z m 0 0"/>
        <path d="m 10 14 v 2 h 2 v -2 z m 0 0"/>
    </g>
</svg>
