<?xml version="1.0" encoding="UTF-8"?>
<svg height="16px" viewBox="0 0 16 16" width="16px" xmlns="http://www.w3.org/2000/svg" xmlns:xlink="http://www.w3.org/1999/xlink">
    <filter id="a" height="100%" width="100%" x="0%" y="0%">
        <feColorMatrix color-interpolation-filters="sRGB" values="0 0 0 0 1 0 0 0 0 1 0 0 0 0 1 0 0 0 1 0"/>
    </filter>
    <mask id="b">
        <g filter="url(#a)">
            <path d="m -1.6 -1.6 h 19.2 v 19.2 h -19.2 z" fill-opacity="0.5"/>
        </g>
    </mask>
    <clipPath id="c">
        <path d="m 0 0 h 1600 v 1200 h -1600 z"/>
    </clipPath>
    <mask id="d">
        <g filter="url(#a)">
            <path d="m -1.6 -1.6 h 19.2 v 19.2 h -19.2 z" fill-opacity="0.7"/>
        </g>
    </mask>
    <clipPath id="e">
        <path d="m 0 0 h 1600 v 1200 h -1600 z"/>
    </clipPath>
    <mask id="f">
        <g filter="url(#a)">
            <path d="m -1.6 -1.6 h 19.2 v 19.2 h -19.2 z" fill-opacity="0.35"/>
        </g>
    </mask>
    <clipPath id="g">
        <path d="m 0 0 h 1600 v 1200 h -1600 z"/>
    </clipPath>
    <g mask="url(#b)">
        <g clip-path="url(#c)" transform="matrix(1 0 0 1 -240 -160)">
            <path d="m 550 182 c -0.351562 0.003906 -0.695312 0.101562 -1 0.28125 v 3.4375 c 0.304688 0.179688 0.648438 0.277344 1 0.28125 c 1.105469 0 2 -0.894531 2 -2 s -0.894531 -2 -2 -2 z m 0 5 c -0.339844 0 -0.679688 0.058594 -1 0.175781 v 6.824219 h 4 v -4 c 0 -1.65625 -1.34375 -3 -3 -3 z m 0 0"/>
        </g>
    </g>
    <g mask="url(#d)">
        <g clip-path="url(#e)" transform="matrix(1 0 0 1 -240 -160)">
            <path d="m 569 182 v 4 c 1.105469 0 2 -0.894531 2 -2 s -0.894531 -2 -2 -2 z m 0 5 v 7 h 3 v -4 c 0 -1.65625 -1.34375 -3 -3 -3 z m 0 0"/>
        </g>
    </g>
    <g mask="url(#f)">
        <g clip-path="url(#g)" transform="matrix(1 0 0 1 -240 -160)">
            <path d="m 573 182.269531 v 3.449219 c 0.613281 -0.355469 0.996094 -1.007812 1 -1.71875 c 0 -0.714844 -0.382812 -1.375 -1 -1.730469 z m 0 4.90625 v 6.824219 h 2 v -4 c 0 -1.269531 -0.800781 -2.402344 -2 -2.824219 z m 0 0"/>
        </g>
    </g>
    <path d="m 8 0.160156 c -1.738281 0 -2.453125 0.335938 -3.375 1.09375 c -1.574219 1.605469 -1.988281 2.980469 -1.15625 5 c -1.085938 0.742188 -2.4375 3.71875 -2.4375 4.90625 c 0.003906 -0.074218 1.585938 0.953125 1.585938 0.953125 c -0.851563 0.5 -1.21875 1.34375 -0.992188 2.078125 c 0.378906 1.214844 2.113281 1.90625 3.3125 1.90625 c 1.144531 0.042969 1.875 -0.214844 2.09375 -1.03125 c 0.332031 0.054688 0.628906 0.09375 0.96875 0.09375 s 0.636719 -0.042968 0.96875 -0.097656 c 0.21875 0.820312 0.949219 1.078125 2.09375 1.035156 c 1.199219 0 2.933594 -0.691406 3.3125 -1.90625 c 0.226562 -0.734375 -0.140625 -1.578125 -0.992188 -2.078125 c 0 0 1.585938 -1.027343 1.585938 -0.953125 c 0 -1.1875 -1.351562 -4.164062 -2.4375 -4.90625 c 0.832031 -2.019531 0.417969 -3.394531 -1.15625 -5 c -0.921875 -0.757812 -1.636719 -1.09375 -3.375 -1.09375 z m -1 2.078125 c 1.15625 -0.058593 0.566406 1.492188 1 1.492188 v -0.003907 c 0.433594 0.003907 -0.15625 -1.546874 1 -1.488281 c 2.917969 -0.078125 2.417969 3.589844 1.269531 4.195313 c 1.523438 1.222656 2.722657 3.429687 1.949219 4.628906 l -0.289062 0.449219 c -0.398438 -0.050781 -1.308594 -0.289063 -2.011719 0.289062 c -0.449219 0.390625 -0.980469 0.691407 -0.917969 1.949219 c 0.003906 0.09375 0 0.410156 0 0.410156 h -2 s -0.003906 -0.316406 0 -0.410156 c 0.0625 -1.257812 -0.46875 -1.558594 -0.917969 -1.949219 c -0.703125 -0.578125 -1.613281 -0.339843 -2.011719 -0.289062 l -0.289062 -0.449219 c -0.773438 -1.199219 0.425781 -3.40625 1.949219 -4.628906 c -1.148438 -0.605469 -1.648438 -4.273438 1.269531 -4.195313 z m -0.546875 1.921875 c -0.25 0 -0.453125 0.203125 -0.453125 0.453125 v 0.09375 c 0 0.25 0.203125 0.453125 0.453125 0.453125 h 0.09375 c 0.25 0 0.453125 -0.203125 0.453125 -0.453125 v -0.09375 c 0 -0.25 -0.203125 -0.453125 -0.453125 -0.453125 z m 3.046875 0 c -0.277344 0 -0.5 0.222656 -0.5 0.5 s 0.222656 0.5 0.5 0.5 s 0.5 -0.222656 0.5 -0.5 s -0.222656 -0.5 -0.5 -0.5 z m -1.5 1.410156 c -0.714844 0.007813 -2.03125 0.746094 -2.03125 0.746094 c -0.722656 0.433594 1.621094 1.34375 2.03125 1.246094 c 0.410156 0.097656 2.753906 -0.8125 2.03125 -1.246094 c 0 0 -1.316406 -0.738281 -2.03125 -0.746094 z m 0 0" fill="#222222"/>
</svg>
