<?xml version="1.0" encoding="UTF-8"?>
<svg height="16px" viewBox="0 0 16 16" width="16px" xmlns="http://www.w3.org/2000/svg" xmlns:xlink="http://www.w3.org/1999/xlink">
    <filter id="a" height="100%" width="100%" x="0%" y="0%">
        <feColorMatrix color-interpolation-filters="sRGB" values="0 0 0 0 1 0 0 0 0 1 0 0 0 0 1 0 0 0 1 0"/>
    </filter>
    <mask id="b">
        <g filter="url(#a)">
            <path d="m -1.6 -1.6 h 19.2 v 19.2 h -19.2 z" fill-opacity="0.5"/>
        </g>
    </mask>
    <clipPath id="c">
        <path d="m 0 0 h 1600 v 1200 h -1600 z"/>
    </clipPath>
    <mask id="d">
        <g filter="url(#a)">
            <path d="m -1.6 -1.6 h 19.2 v 19.2 h -19.2 z" fill-opacity="0.7"/>
        </g>
    </mask>
    <clipPath id="e">
        <path d="m 0 0 h 1600 v 1200 h -1600 z"/>
    </clipPath>
    <mask id="f">
        <g filter="url(#a)">
            <path d="m -1.6 -1.6 h 19.2 v 19.2 h -19.2 z" fill-opacity="0.35"/>
        </g>
    </mask>
    <clipPath id="g">
        <path d="m 0 0 h 1600 v 1200 h -1600 z"/>
    </clipPath>
    <g mask="url(#b)">
        <g clip-path="url(#c)" transform="matrix(1 0 0 1 -220 -160)">
            <path d="m 550 182 c -0.351562 0.003906 -0.695312 0.101562 -1 0.28125 v 3.4375 c 0.304688 0.179688 0.648438 0.277344 1 0.28125 c 1.105469 0 2 -0.894531 2 -2 s -0.894531 -2 -2 -2 z m 0 5 c -0.339844 0 -0.679688 0.058594 -1 0.175781 v 6.824219 h 4 v -4 c 0 -1.65625 -1.34375 -3 -3 -3 z m 0 0"/>
        </g>
    </g>
    <g mask="url(#d)">
        <g clip-path="url(#e)" transform="matrix(1 0 0 1 -220 -160)">
            <path d="m 569 182 v 4 c 1.105469 0 2 -0.894531 2 -2 s -0.894531 -2 -2 -2 z m 0 5 v 7 h 3 v -4 c 0 -1.65625 -1.34375 -3 -3 -3 z m 0 0"/>
        </g>
    </g>
    <g mask="url(#f)">
        <g clip-path="url(#g)" transform="matrix(1 0 0 1 -220 -160)">
            <path d="m 573 182.269531 v 3.449219 c 0.613281 -0.355469 0.996094 -1.007812 1 -1.71875 c 0 -0.714844 -0.382812 -1.375 -1 -1.730469 z m 0 4.90625 v 6.824219 h 2 v -4 c 0 -1.269531 -0.800781 -2.402344 -2 -2.824219 z m 0 0"/>
        </g>
    </g>
    <g fill="#222222">
        <path d="m 6.429688 5 c -0.238282 0.015625 -0.429688 0.210938 -0.429688 0.457031 v 0.089844 c 0 0.253906 0.203125 0.453125 0.453125 0.453125 h 0.09375 c 0.25 0 0.453125 -0.199219 0.453125 -0.453125 v -0.089844 c 0 -0.253906 -0.203125 -0.457031 -0.453125 -0.457031 h -0.09375 c -0.007813 0 -0.015625 0 -0.023437 0 z m 3.046874 0 c -0.265624 0.015625 -0.476562 0.234375 -0.476562 0.5 c 0 0.277344 0.222656 0.5 0.5 0.5 s 0.5 -0.222656 0.5 -0.5 c 0 -0.273438 -0.222656 -0.5 -0.5 -0.5 c -0.007812 0 -0.015625 0 -0.027344 0 z m -2.433593 1.25 v 0.5 c 0 0.554688 1 1.5 1 1.5 s 1 -0.945312 1 -1.5 v -0.5 z m 0 0"/>
        <path d="m 8.03125 0.00390625 c -1.738281 0 -2.933594 0.51953175 -3.9375 1.49999975 c -0.964844 0.9375 -1.308594 2.175782 -1.53125 3.75 c 0 0 -0.238281 1.296875 0.0625 1.84375 c -0.492188 0.585938 -2.59375 3.21875 -2.59375 4.40625 c 0.367188 1.140625 2.292969 -1.476562 2.625 0.03125 c 0.285156 1.28125 0.855469 1.78125 2.03125 2.5 c -0.933594 0.082032 -1.65625 0.476563 -1.65625 0.96875 c 1.164062 0.714844 1.238281 0.8125 2.4375 0.8125 c 1.105469 0 1.5625 -0.261718 1.5625 -0.8125 c 0 -0.035156 0.007812 -0.0625 0 -0.09375 c 0.332031 0.050782 0.660156 0.09375 1 0.09375 s 0.667969 -0.042968 1 -0.09375 c -0.007812 0.03125 0 0.058594 0 0.09375 c 0 0.550782 0.457031 0.8125 1.5625 0.8125 c 1.199219 0 1.273438 -0.097656 2.4375 -0.8125 c 0 -0.492187 -0.722656 -0.886718 -1.65625 -0.96875 c 1.175781 -0.71875 1.746094 -1.21875 2.03125 -2.5 c 0.332031 -1.507812 2.257812 1.109375 2.625 -0.03125 c 0 -1.1875 -2.101562 -3.820312 -2.59375 -4.40625 c 0.300781 -0.546875 0.0625 -1.84375 0.0625 -1.84375 c -0.222656 -1.574218 -0.566406 -2.8125 -1.53125 -3.75 c -1.003906 -0.980468 -2.199219 -1.49999975 -3.9375 -1.49999975 z m -1.03125 1.90624975 c 0.535156 0.117188 0.597656 1.09375 1.03125 1.09375 s 0.496094 -0.976562 1.03125 -1.09375 c 3.144531 0.144532 3.292969 4.402344 2.53125 5.28125 c 0 0 1.007812 1.859375 0.5625 3.28125 c -0.644531 2.046875 -1.910156 3.03125 -4.125 3.03125 s -3.480469 -0.984375 -4.125 -3.03125 c -0.445312 -1.421875 0.5625 -3.28125 0.5625 -3.28125 c -0.761719 -0.878906 -0.613281 -5.136718 2.53125 -5.28125 z m 0 0"/>
    </g>
</svg>
