<?xml version="1.0" encoding="UTF-8"?>
<svg height="16px" viewBox="0 0 16 16" width="16px" xmlns="http://www.w3.org/2000/svg" xmlns:xlink="http://www.w3.org/1999/xlink">
    <filter id="a" height="100%" width="100%" x="0%" y="0%">
        <feColorMatrix color-interpolation-filters="sRGB" values="0 0 0 0 1 0 0 0 0 1 0 0 0 0 1 0 0 0 1 0"/>
    </filter>
    <mask id="b">
        <g filter="url(#a)">
            <path d="m -1.6 -1.6 h 19.2 v 19.2 h -19.2 z" fill-opacity="0.5"/>
        </g>
    </mask>
    <clipPath id="c">
        <path d="m 0 0 h 1600 v 1200 h -1600 z"/>
    </clipPath>
    <mask id="d">
        <g filter="url(#a)">
            <path d="m -1.6 -1.6 h 19.2 v 19.2 h -19.2 z" fill-opacity="0.7"/>
        </g>
    </mask>
    <clipPath id="e">
        <path d="m 0 0 h 1600 v 1200 h -1600 z"/>
    </clipPath>
    <mask id="f">
        <g filter="url(#a)">
            <path d="m -1.6 -1.6 h 19.2 v 19.2 h -19.2 z" fill-opacity="0.35"/>
        </g>
    </mask>
    <clipPath id="g">
        <path d="m 0 0 h 1600 v 1200 h -1600 z"/>
    </clipPath>
    <g mask="url(#b)">
        <g clip-path="url(#c)" transform="matrix(1 0 0 1 -380 -376)">
            <path d="m 550 182 c -0.351562 0.003906 -0.695312 0.101562 -1 0.28125 v 3.4375 c 0.304688 0.179688 0.648438 0.277344 1 0.28125 c 1.105469 0 2 -0.894531 2 -2 s -0.894531 -2 -2 -2 z m 0 5 c -0.339844 0 -0.679688 0.058594 -1 0.175781 v 6.824219 h 4 v -4 c 0 -1.65625 -1.34375 -3 -3 -3 z m 0 0"/>
        </g>
    </g>
    <g mask="url(#d)">
        <g clip-path="url(#e)" transform="matrix(1 0 0 1 -380 -376)">
            <path d="m 569 182 v 4 c 1.105469 0 2 -0.894531 2 -2 s -0.894531 -2 -2 -2 z m 0 5 v 7 h 3 v -4 c 0 -1.65625 -1.34375 -3 -3 -3 z m 0 0"/>
        </g>
    </g>
    <g mask="url(#f)">
        <g clip-path="url(#g)" transform="matrix(1 0 0 1 -380 -376)">
            <path d="m 573 182.269531 v 3.449219 c 0.613281 -0.355469 0.996094 -1.007812 1 -1.71875 c 0 -0.714844 -0.382812 -1.375 -1 -1.730469 z m 0 4.90625 v 6.824219 h 2 v -4 c 0 -1.269531 -0.800781 -2.402344 -2 -2.824219 z m 0 0"/>
        </g>
    </g>
    <g fill="#222222">
        <path d="m 5 8.03125 h 3 c 1.105469 0 2 0.894531 2 2 v 2 c 0 1.101562 -0.894531 2 -2 2 h -3 c -1.105469 0 -2 -0.898438 -2 -2 v -2 c 0 -1.105469 0.894531 -2 2 -2 z m 0 0" fill-rule="evenodd"/>
        <path d="m 12.546875 9.046875 c -0.273437 -0.097656 -0.589844 -0.039063 -0.796875 0.144531 l -1.539062 1.359375 c -0.28125 0.246094 -0.28125 0.644531 0.003906 0.894531 l 1.539062 1.339844 c 0.207032 0.179688 0.523438 0.234375 0.796875 0.136719 c 0.269531 -0.097656 0.449219 -0.328125 0.449219 -0.585937 v -2.699219 c 0 -0.257813 -0.179688 -0.492188 -0.453125 -0.589844 z m 0 0"/>
        <path d="m 6.996094 0 c -0.554688 0 -1 0.4375 -1 0.984375 v 0.023437 h -0.964844 c -0.558594 0 -1.003906 0.449219 -1.003906 1.003907 v 2.984375 c 0 0.554687 0.449218 1.003906 1.003906 1.003906 h 5.964844 c 0.554687 0 1.003906 -0.449219 1.003906 -1.003906 l -0.003906 -2.984375 c 0 -0.554688 -0.445313 -1.003907 -1.003906 -1.003907 h -0.992188 v -0.023437 c 0.003906 -0.546875 -0.445312 -0.984375 -1 -0.984375 z m 0.957031 1.601562 c 1.039063 0 1.878906 0.839844 1.878906 1.878907 c -0.003906 1.035156 -0.84375 1.871093 -1.878906 1.871093 s -1.871094 -0.839843 -1.875 -1.871093 c 0 -1.039063 0.839844 -1.878907 1.875 -1.878907 z m 0 0" fill-opacity="0.329412" fill-rule="evenodd"/>
        <path d="m 0 8 v 1 h 1 v -1 c 0 -0.550781 0.445312 -1 1 -1 h 1 v -1 h -1 c -1.105469 0 -2 0.894531 -2 2 z m 0 0" fill-rule="evenodd"/>
        <path d="m 0 14 v -1 h 1 v 1 c 0 0.550781 0.445312 1 1 1 h 1 v 1 h -1 c -1.105469 0 -2 -0.894531 -2 -2 z m 0 0" fill-rule="evenodd"/>
        <path d="m 16.003906 8 v 1 h -1 v -1 c 0 -0.550781 -0.449218 -1 -1 -1 h -1.003906 v -1 h 1.003906 c 1.101563 0 2 0.894531 2 2 z m 0 0" fill-rule="evenodd"/>
        <path d="m 16.003906 14 v -1 h -1 v 1 c 0 0.550781 -0.449218 1 -1 1 h -1.003906 v 1 h 1.003906 c 1.101563 0 2 -0.894531 2 -2 z m 0 0" fill-rule="evenodd"/>
    </g>
</svg>
