<?xml version="1.0" encoding="UTF-8"?>
<svg height="16px" viewBox="0 0 16 16" width="16px" xmlns="http://www.w3.org/2000/svg" xmlns:xlink="http://www.w3.org/1999/xlink">
    <filter id="a" height="100%" width="100%" x="0%" y="0%">
        <feColorMatrix color-interpolation-filters="sRGB" values="0 0 0 0 1 0 0 0 0 1 0 0 0 0 1 0 0 0 1 0"/>
    </filter>
    <mask id="b">
        <g filter="url(#a)">
            <path d="m -1.6 -1.6 h 19.2 v 19.2 h -19.2 z" fill-opacity="0.5"/>
        </g>
    </mask>
    <clipPath id="c">
        <path d="m 0 0 h 1600 v 1200 h -1600 z"/>
    </clipPath>
    <mask id="d">
        <g filter="url(#a)">
            <path d="m -1.6 -1.6 h 19.2 v 19.2 h -19.2 z" fill-opacity="0.7"/>
        </g>
    </mask>
    <clipPath id="e">
        <path d="m 0 0 h 1600 v 1200 h -1600 z"/>
    </clipPath>
    <mask id="f">
        <g filter="url(#a)">
            <path d="m -1.6 -1.6 h 19.2 v 19.2 h -19.2 z" fill-opacity="0.35"/>
        </g>
    </mask>
    <clipPath id="g">
        <path d="m 0 0 h 1600 v 1200 h -1600 z"/>
    </clipPath>
    <path d="m 1 3 v 10 c 0 1.375 1.019531 2.027344 1.96875 2.015625 c 0.808594 -0.011719 1.328125 -0.308594 2.023438 -0.707031 l 8.902343 -5.089844 c 0.433594 -0.238281 0.65625 -0.730469 0.65625 -1.222656 c 0 -0.492188 -0.222656 -0.984375 -0.65625 -1.226563 l -8.886719 -5.074219 c -0.75 -0.433593 -1.28125 -0.703124 -1.996093 -0.679687 c -0.96875 0.023437 -2.011719 0.582031 -2.011719 1.984375 z m 1.972656 1.992188 l 0.007813 0.007812 h 0.019531 v 0.023438 l 0.5 0.5 l 0.5 -0.5 v -0.023438 h 0.027344 l 0.003906 -0.007812 l 0.007812 0.007812 h 0.960938 v 0.96875 l 0.019531 0.015625 l -0.527343 0.527344 l 0.488281 0.488281 h 0.019531 v 0.019531 l 0.019531 0.015625 l -0.019531 0.019532 v 0.945312 h -0.941406 l -0.027344 0.027344 l -0.027344 -0.027344 h -0.003906 v -0.003906 l -0.5 -0.496094 l -0.527344 0.527344 l -0.027344 -0.027344 h -0.945312 v -0.945312 l -0.019531 -0.019532 l 0.019531 -0.015625 v -0.019531 h 0.019531 l 0.488281 -0.488281 l -0.527343 -0.523438 l 0.019531 -0.019531 v -0.96875 h 0.964844 z m 3.96875 0 l 0.007813 0.007812 h 0.019531 v 0.023438 l 0.503906 0.5 l 0.496094 -0.496094 v -0.027344 h 0.027344 l 0.003906 -0.007812 l 0.007812 0.007812 h 0.960938 v 0.96875 l 0.019531 0.015625 l -0.527343 0.527344 l 0.492187 0.488281 h 0.015625 v 0.015625 l 0.019531 0.019531 l -0.019531 0.019532 v 0.945312 h -0.941406 l -0.027344 0.027344 l -0.027344 -0.027344 h -0.003906 v -0.003906 l -0.5 -0.496094 l -0.527344 0.527344 l -0.027344 -0.027344 h -0.945312 v -0.945312 l -0.019531 -0.019532 l 0.019531 -0.015625 v -0.019531 h 0.019531 l 0.488281 -0.488281 l -0.527343 -0.523438 l 0.019531 -0.019531 v -0.96875 h 0.964844 z m -4.941406 4.007812 h 7 v 1 h -3 v 1.667969 c 0 0.738281 -0.667969 1.332031 -1.5 1.332031 s -1.5 -0.59375 -1.5 -1.332031 v -1.667969 h -1 z m 0 0" fill="#222222"/>
    <g mask="url(#b)">
        <g clip-path="url(#c)" transform="matrix(1 0 0 1 -540 -1024)">
            <path d="m 550 182 c -0.351562 0.003906 -0.695312 0.101562 -1 0.28125 v 3.4375 c 0.304688 0.179688 0.648438 0.277344 1 0.28125 c 1.105469 0 2 -0.894531 2 -2 s -0.894531 -2 -2 -2 z m 0 5 c -0.339844 0 -0.679688 0.058594 -1 0.175781 v 6.824219 h 4 v -4 c 0 -1.65625 -1.34375 -3 -3 -3 z m 0 0"/>
        </g>
    </g>
    <g mask="url(#d)">
        <g clip-path="url(#e)" transform="matrix(1 0 0 1 -540 -1024)">
            <path d="m 569 182 v 4 c 1.105469 0 2 -0.894531 2 -2 s -0.894531 -2 -2 -2 z m 0 5 v 7 h 3 v -4 c 0 -1.65625 -1.34375 -3 -3 -3 z m 0 0"/>
        </g>
    </g>
    <g mask="url(#f)">
        <g clip-path="url(#g)" transform="matrix(1 0 0 1 -540 -1024)">
            <path d="m 573 182.269531 v 3.449219 c 0.613281 -0.355469 0.996094 -1.007812 1 -1.71875 c 0 -0.714844 -0.382812 -1.375 -1 -1.730469 z m 0 4.90625 v 6.824219 h 2 v -4 c 0 -1.269531 -0.800781 -2.402344 -2 -2.824219 z m 0 0"/>
        </g>
    </g>
</svg>
