<?xml version="1.0" encoding="UTF-8"?>
<svg height="16px" viewBox="0 0 16 16" width="16px" xmlns="http://www.w3.org/2000/svg" xmlns:xlink="http://www.w3.org/1999/xlink">
    <filter id="a" height="100%" width="100%" x="0%" y="0%">
        <feColorMatrix color-interpolation-filters="sRGB" values="0 0 0 0 1 0 0 0 0 1 0 0 0 0 1 0 0 0 1 0"/>
    </filter>
    <mask id="b">
        <g filter="url(#a)">
            <path d="m -1.6 -1.6 h 19.2 v 19.2 h -19.2 z" fill-opacity="0.5"/>
        </g>
    </mask>
    <clipPath id="c">
        <path d="m 0 0 h 1600 v 1200 h -1600 z"/>
    </clipPath>
    <mask id="d">
        <g filter="url(#a)">
            <path d="m -1.6 -1.6 h 19.2 v 19.2 h -19.2 z" fill-opacity="0.7"/>
        </g>
    </mask>
    <clipPath id="e">
        <path d="m 0 0 h 1600 v 1200 h -1600 z"/>
    </clipPath>
    <mask id="f">
        <g filter="url(#a)">
            <path d="m -1.6 -1.6 h 19.2 v 19.2 h -19.2 z" fill-opacity="0.35"/>
        </g>
    </mask>
    <clipPath id="g">
        <path d="m 0 0 h 1600 v 1200 h -1600 z"/>
    </clipPath>
    <g mask="url(#b)">
        <g clip-path="url(#c)" transform="matrix(1 0 0 1 -140 -760)">
            <path d="m 550 182 c -0.351562 0.003906 -0.695312 0.101562 -1 0.28125 v 3.4375 c 0.304688 0.179688 0.648438 0.277344 1 0.28125 c 1.105469 0 2 -0.894531 2 -2 s -0.894531 -2 -2 -2 z m 0 5 c -0.339844 0 -0.679688 0.058594 -1 0.175781 v 6.824219 h 4 v -4 c 0 -1.65625 -1.34375 -3 -3 -3 z m 0 0"/>
        </g>
    </g>
    <g mask="url(#d)">
        <g clip-path="url(#e)" transform="matrix(1 0 0 1 -140 -760)">
            <path d="m 569 182 v 4 c 1.105469 0 2 -0.894531 2 -2 s -0.894531 -2 -2 -2 z m 0 5 v 7 h 3 v -4 c 0 -1.65625 -1.34375 -3 -3 -3 z m 0 0"/>
        </g>
    </g>
    <g mask="url(#f)">
        <g clip-path="url(#g)" transform="matrix(1 0 0 1 -140 -760)">
            <path d="m 573 182.269531 v 3.449219 c 0.613281 -0.355469 0.996094 -1.007812 1 -1.71875 c 0 -0.714844 -0.382812 -1.375 -1 -1.730469 z m 0 4.90625 v 6.824219 h 2 v -4 c 0 -1.269531 -0.800781 -2.402344 -2 -2.824219 z m 0 0"/>
        </g>
    </g>
    <g fill="#222222">
        <path d="m 3 3 v 7.519531 c 0 1.375 1.105469 2.480469 2.480469 2.480469 h 4.039062 c 1.207031 0 2.207031 -0.855469 2.429688 -2 h 0.257812 c 1.53125 0 2.792969 -1.261719 2.792969 -2.792969 v -2.414062 c 0 -1.53125 -1.261719 -2.792969 -2.792969 -2.792969 h -5.207031 v 3.5 c 0 0.832031 -0.667969 1.5 -1.5 1.5 s -1.5 -0.667969 -1.5 -1.5 v -3.5 z m 9 2 h 0.207031 c 0.457031 0 0.792969 0.335938 0.792969 0.792969 v 2.414062 c 0 0.457031 -0.335938 0.792969 -0.792969 0.792969 h -0.207031 z m 0 0"/>
        <path d="m 4.296875 0 c -1.109375 0 -2 0.890625 -2 2 h 2.703125 v 4.5 c 0 0.277344 0.222656 0.5 0.5 0.5 s 0.5 -0.222656 0.5 -0.5 v -4.5 h 6.019531 c -0.34375 -0.597656 -0.980469 -1 -1.722656 -1 c -0.414063 0 -0.800781 0.125 -1.121094 0.339844 c -0.269531 -0.78125 -1.003906 -1.339844 -1.878906 -1.339844 c -0.601563 0 -1.132813 0.269531 -1.5 0.6875 c -0.367187 -0.417969 -0.898437 -0.6875 -1.5 -0.6875 z m 0 0"/>
    </g>
</svg>
