<?xml version="1.0" encoding="UTF-8"?>
<svg height="16px" viewBox="0 0 16 16" width="16px" xmlns="http://www.w3.org/2000/svg" xmlns:xlink="http://www.w3.org/1999/xlink">
    <filter id="a" height="100%" width="100%" x="0%" y="0%">
        <feColorMatrix color-interpolation-filters="sRGB" values="0 0 0 0 1 0 0 0 0 1 0 0 0 0 1 0 0 0 1 0"/>
    </filter>
    <mask id="b">
        <g filter="url(#a)">
            <path d="m -1.6 -1.6 h 19.2 v 19.2 h -19.2 z" fill-opacity="0.5"/>
        </g>
    </mask>
    <clipPath id="c">
        <path d="m 0 0 h 1600 v 1200 h -1600 z"/>
    </clipPath>
    <mask id="d">
        <g filter="url(#a)">
            <path d="m -1.6 -1.6 h 19.2 v 19.2 h -19.2 z" fill-opacity="0.7"/>
        </g>
    </mask>
    <clipPath id="e">
        <path d="m 0 0 h 1600 v 1200 h -1600 z"/>
    </clipPath>
    <mask id="f">
        <g filter="url(#a)">
            <path d="m -1.6 -1.6 h 19.2 v 19.2 h -19.2 z" fill-opacity="0.35"/>
        </g>
    </mask>
    <clipPath id="g">
        <path d="m 0 0 h 1600 v 1200 h -1600 z"/>
    </clipPath>
    <path d="m 2.175781 0 c -1.207031 0 -2.175781 0.96875 -2.175781 2.175781 v 2.648438 c 0 1.207031 0.96875 2.175781 2.175781 2.175781 h 3.648438 c 1.207031 0 2.175781 -0.96875 2.175781 -2.175781 v -0.332031 l 1.851562 1.378906 c 0.214844 0.160156 0.5 0.183594 0.738282 0.066406 c 0.242187 -0.121094 0.390625 -0.367188 0.390625 -0.636719 v -3.601562 c 0.003906 -0.269531 -0.148438 -0.515625 -0.390625 -0.636719 c -0.238282 -0.121094 -0.527344 -0.097656 -0.742188 0.0625 l -1.847656 1.375 v -0.324219 c 0 -1.207031 -0.96875 -2.175781 -2.175781 -2.175781 z m 6.867188 7 c -0.578125 0 -1.042969 0.445312 -1.042969 1 h -0.988281 c -1.113281 0 -2.011719 0.898438 -2.011719 2.011719 v 3.976562 c 0 1.113281 0.898438 2.011719 2.011719 2.011719 h 6.976562 c 1.113281 0 2.011719 -0.898438 2.011719 -2.011719 v -3.976562 c 0 -1.113281 -0.898438 -2.011719 -2.011719 -2.011719 h -0.988281 c 0 -0.554688 -0.464844 -1 -1.042969 -1 z m 1.457031 2 c 1.378906 0 2.5 1.121094 2.5 2.5 s -1.121094 2.5 -2.5 2.5 s -2.5 -1.121094 -2.5 -2.5 s 1.121094 -2.5 2.5 -2.5 z m 0 0" fill="#222222"/>
    <g mask="url(#b)">
        <g clip-path="url(#c)" transform="matrix(1 0 0 1 -640 -884)">
            <path d="m 550 182 c -0.351562 0.003906 -0.695312 0.101562 -1 0.28125 v 3.4375 c 0.304688 0.179688 0.648438 0.277344 1 0.28125 c 1.105469 0 2 -0.894531 2 -2 s -0.894531 -2 -2 -2 z m 0 5 c -0.339844 0 -0.679688 0.058594 -1 0.175781 v 6.824219 h 4 v -4 c 0 -1.65625 -1.34375 -3 -3 -3 z m 0 0"/>
        </g>
    </g>
    <g mask="url(#d)">
        <g clip-path="url(#e)" transform="matrix(1 0 0 1 -640 -884)">
            <path d="m 569 182 v 4 c 1.105469 0 2 -0.894531 2 -2 s -0.894531 -2 -2 -2 z m 0 5 v 7 h 3 v -4 c 0 -1.65625 -1.34375 -3 -3 -3 z m 0 0"/>
        </g>
    </g>
    <g mask="url(#f)">
        <g clip-path="url(#g)" transform="matrix(1 0 0 1 -640 -884)">
            <path d="m 573 182.269531 v 3.449219 c 0.613281 -0.355469 0.996094 -1.007812 1 -1.71875 c 0 -0.714844 -0.382812 -1.375 -1 -1.730469 z m 0 4.90625 v 6.824219 h 2 v -4 c 0 -1.269531 -0.800781 -2.402344 -2 -2.824219 z m 0 0"/>
        </g>
    </g>
</svg>
