<?xml version="1.0" encoding="UTF-8"?>
<svg height="16px" viewBox="0 0 16 16" width="16px" xmlns="http://www.w3.org/2000/svg">
    <g fill="#2e3436">
        <path d="m 4.199219 4.011719 c -1.207031 0 -2.199219 1.003906 -2.199219 2.207031 v 5.574219 c 0 1.199219 0.992188 2.207031 2.199219 2.207031 h 7.582031 c 1.207031 0 2.199219 -1.007812 2.199219 -2.207031 v -5.574219 c 0 -1.203125 -0.992188 -2.207031 -2.199219 -2.207031 z m 0 2 h 7.582031 c 0.121094 0 0.199219 0.070312 0.199219 0.207031 v 5.574219 c 0 0.136719 -0.078125 0.207031 -0.199219 0.207031 h -7.582031 c -0.121094 0 -0.199219 -0.070312 -0.199219 -0.207031 v -5.574219 c 0 -0.136719 0.078125 -0.207031 0.199219 -0.207031 z m 0 0"/>
        <path d="m 5.480469 6.957031 c -0.164063 -0.003906 -0.320313 0.0625 -0.4375 0.179688 c -0.234375 0.230469 -0.234375 0.613281 0 0.84375 l 1.019531 1.019531 l -1.019531 1.019531 c -0.234375 0.230469 -0.234375 0.613281 0 0.84375 c 0.234375 0.234375 0.613281 0.234375 0.847656 0 l 1.441406 -1.4375 c 0.234375 -0.234375 0.234375 -0.617187 0 -0.851562 l -1.441406 -1.4375 c -0.109375 -0.109375 -0.253906 -0.171875 -0.410156 -0.179688 z m 0 0"/>
        <path d="m 8 10 h 3 v 1 h -3 z m 0 0"/>
        <path d="m 11.808594 0.820312 l 0.707031 0.707032 l -3.886719 3.890625 l -0.707031 -0.707031 z m 0 0"/>
        <path d="m 4.140625 0.820312 l -0.707031 0.707032 l 3.890625 3.890625 l 0.707031 -0.707031 z m 0 0"/>
        <path d="m 13.015625 1.027344 c 0 0.554687 -0.445313 1 -1 1 c -0.550781 0 -1 -0.445313 -1 -1 c 0 -0.550782 0.449219 -1.0000002 1 -1.0000002 c 0.554687 0 1 0.4492182 1 1.0000002 z m 0 0"/>
        <path d="m 4.976562 1.027344 c 0 0.554687 -0.449218 1 -1 1 c -0.554687 0 -1 -0.445313 -1 -1 c 0 -0.550782 0.445313 -1.0000002 1 -1.0000002 c 0.550782 0 1 0.4492182 1 1.0000002 z m 0 0"/>
    </g>
</svg>
