<?xml version="1.0" encoding="UTF-8"?>
<svg height="16px" viewBox="0 0 16 16" width="16px" xmlns="http://www.w3.org/2000/svg">
    <g fill="#2e3436">
        <path d="m 2 1 v 6 h 11 v -6 z m 2 2 h 7 v 2 h -7 z m 0 0"/>
        <path d="m 7 8 h 1 v 3 h -1 z m 0 0"/>
        <path d="m 2 9 h 11 v 1 h -11 z m 0 0"/>
        <path d="m 12 9 h 1 v 2 h -1 z m 0 0"/>
        <path d="m 2 9 h 1 v 2 h -1 z m 0 0"/>
        <path d="m 1 12 h 3 v 3 h -3 z m 0 0"/>
        <path d="m 6 12 h 3 v 3 h -3 z m 0 0"/>
        <path d="m 11 12 h 3 v 3 h -3 z m 0 0"/>
    </g>
</svg>
