<?xml version="1.0" encoding="UTF-8"?>
<svg height="16px" viewBox="0 0 16 16" width="16px" xmlns="http://www.w3.org/2000/svg" xmlns:xlink="http://www.w3.org/1999/xlink">
    <filter id="a" height="100%" width="100%" x="0%" y="0%">
        <feColorMatrix color-interpolation-filters="sRGB" values="0 0 0 0 1 0 0 0 0 1 0 0 0 0 1 0 0 0 1 0"/>
    </filter>
    <mask id="b">
        <g filter="url(#a)">
            <path d="m -1.6 -1.6 h 19.2 v 19.2 h -19.2 z" fill-opacity="0.5"/>
        </g>
    </mask>
    <clipPath id="c">
        <path d="m 0 0 h 1600 v 1200 h -1600 z"/>
    </clipPath>
    <mask id="d">
        <g filter="url(#a)">
            <path d="m -1.6 -1.6 h 19.2 v 19.2 h -19.2 z" fill-opacity="0.7"/>
        </g>
    </mask>
    <clipPath id="e">
        <path d="m 0 0 h 1600 v 1200 h -1600 z"/>
    </clipPath>
    <mask id="f">
        <g filter="url(#a)">
            <path d="m -1.6 -1.6 h 19.2 v 19.2 h -19.2 z" fill-opacity="0.35"/>
        </g>
    </mask>
    <clipPath id="g">
        <path d="m 0 0 h 1600 v 1200 h -1600 z"/>
    </clipPath>
    <g mask="url(#b)">
        <g clip-path="url(#c)" transform="matrix(1 0 0 1 -236 -876)">
            <path d="m 550 182 c -0.351562 0.003906 -0.695312 0.101562 -1 0.28125 v 3.4375 c 0.304688 0.179688 0.648438 0.277344 1 0.28125 c 1.105469 0 2 -0.894531 2 -2 s -0.894531 -2 -2 -2 z m 0 5 c -0.339844 0 -0.679688 0.058594 -1 0.175781 v 6.824219 h 4 v -4 c 0 -1.65625 -1.34375 -3 -3 -3 z m 0 0"/>
        </g>
    </g>
    <g mask="url(#d)">
        <g clip-path="url(#e)" transform="matrix(1 0 0 1 -236 -876)">
            <path d="m 569 182 v 4 c 1.105469 0 2 -0.894531 2 -2 s -0.894531 -2 -2 -2 z m 0 5 v 7 h 3 v -4 c 0 -1.65625 -1.34375 -3 -3 -3 z m 0 0"/>
        </g>
    </g>
    <g mask="url(#f)">
        <g clip-path="url(#g)" transform="matrix(1 0 0 1 -236 -876)">
            <path d="m 573 182.269531 v 3.449219 c 0.613281 -0.355469 0.996094 -1.007812 1 -1.71875 c 0 -0.714844 -0.382812 -1.375 -1 -1.730469 z m 0 4.90625 v 6.824219 h 2 v -4 c 0 -1.269531 -0.800781 -2.402344 -2 -2.824219 z m 0 0"/>
        </g>
    </g>
    <path d="m 3 0 v 5 c 0.984375 -0.003906 2.113281 0.019531 3 0 h 2 l -1.8125 -1.8125 v -0.03125 c 0.371094 -0.730469 1.253906 -1.28125 2.375 -1.28125 c 1.722656 0 2.59375 1.351562 2.59375 3.136719 l 0.90625 0.015625 c 0.550781 0.007812 1.027344 -0.546875 0.9375 -1.089844 c 0 -2.253906 -2.0625 -3.9375 -4.4375 -3.9375 c -1.539062 0 -2.949219 0.699219 -3.75 1.8125 z m 3.46875 7 c -0.261719 0 -0.46875 0.230469 -0.46875 0.511719 v 0.976562 c 0 0.28125 0.207031 0.511719 0.46875 0.511719 h 3.0625 c 0.261719 0 0.46875 -0.230469 0.46875 -0.511719 v -0.976562 c 0 -0.28125 -0.207031 -0.511719 -0.46875 -0.511719 z m -2.519531 4 c -0.550781 -0.007812 -1.027344 0.546875 -0.9375 1.085938 c 0 2.257812 2.0625 3.9375 4.4375 3.9375 c 1.539062 0 2.949219 -0.695313 3.75 -1.8125 l 1.8125 1.8125 v -5 c -0.988281 0.007812 -2.117188 -0.015626 -3 0 h -2 l 1.8125 1.8125 v 0.03125 c -0.371094 0.730468 -1.257813 1.28125 -2.375 1.28125 c -1.726563 0 -2.59375 -1.351563 -2.59375 -3.136719 z m 0 0" fill="#222222"/>
</svg>
