<?xml version="1.0" encoding="UTF-8"?>
<svg height="16px" viewBox="0 0 16 16" width="16px" xmlns="http://www.w3.org/2000/svg" xmlns:xlink="http://www.w3.org/1999/xlink">
    <filter id="a" height="100%" width="100%" x="0%" y="0%">
        <feColorMatrix color-interpolation-filters="sRGB" values="0 0 0 0 1 0 0 0 0 1 0 0 0 0 1 0 0 0 1 0"/>
    </filter>
    <mask id="b">
        <g filter="url(#a)">
            <path d="m -1.6 -1.6 h 19.2 v 19.2 h -19.2 z" fill-opacity="0.5"/>
        </g>
    </mask>
    <clipPath id="c">
        <path d="m 0 0 h 1600 v 1200 h -1600 z"/>
    </clipPath>
    <mask id="d">
        <g filter="url(#a)">
            <path d="m -1.6 -1.6 h 19.2 v 19.2 h -19.2 z" fill-opacity="0.7"/>
        </g>
    </mask>
    <clipPath id="e">
        <path d="m 0 0 h 1600 v 1200 h -1600 z"/>
    </clipPath>
    <mask id="f">
        <g filter="url(#a)">
            <path d="m -1.6 -1.6 h 19.2 v 19.2 h -19.2 z" fill-opacity="0.35"/>
        </g>
    </mask>
    <clipPath id="g">
        <path d="m 0 0 h 1600 v 1200 h -1600 z"/>
    </clipPath>
    <g mask="url(#b)">
        <g clip-path="url(#c)" transform="matrix(1 0 0 1 -400 -416)">
            <path d="m 550 182 c -0.351562 0.003906 -0.695312 0.101562 -1 0.28125 v 3.4375 c 0.304688 0.179688 0.648438 0.277344 1 0.28125 c 1.105469 0 2 -0.894531 2 -2 s -0.894531 -2 -2 -2 z m 0 5 c -0.339844 0 -0.679688 0.058594 -1 0.175781 v 6.824219 h 4 v -4 c 0 -1.65625 -1.34375 -3 -3 -3 z m 0 0"/>
        </g>
    </g>
    <g mask="url(#d)">
        <g clip-path="url(#e)" transform="matrix(1 0 0 1 -400 -416)">
            <path d="m 569 182 v 4 c 1.105469 0 2 -0.894531 2 -2 s -0.894531 -2 -2 -2 z m 0 5 v 7 h 3 v -4 c 0 -1.65625 -1.34375 -3 -3 -3 z m 0 0"/>
        </g>
    </g>
    <g mask="url(#f)">
        <g clip-path="url(#g)" transform="matrix(1 0 0 1 -400 -416)">
            <path d="m 573 182.269531 v 3.449219 c 0.613281 -0.355469 0.996094 -1.007812 1 -1.71875 c 0 -0.714844 -0.382812 -1.375 -1 -1.730469 z m 0 4.90625 v 6.824219 h 2 v -4 c 0 -1.269531 -0.800781 -2.402344 -2 -2.824219 z m 0 0"/>
        </g>
    </g>
    <path d="m 1.53125 0.46875 l -1.0625 1.0625 l 14 14 l 1.0625 -1.0625 l -1.945312 -1.945312 c 0.847656 -0.527344 1.414062 -1.449219 1.414062 -2.523438 v -6 c 0 -1.660156 -1.339844 -3 -3 -3 h -8 c -0.554688 0 -1.070312 0.160156 -1.515625 0.421875 z m 2.53125 2.53125 h 0.199219 l -0.097657 0.097656 z m 2.675781 0 h 0.699219 l -1.6875 1.6875 l -0.351562 -0.351562 z m 2.824219 0 h 1.230469 l -3.367188 3.363281 l -0.613281 -0.613281 z m 2.609375 0.035156 c 0.316406 0.054688 0.578125 0.246094 0.714844 0.523438 l -4.132813 4.132812 l -0.617187 -0.617187 z m -11.171875 1.023438 v 5.941406 c 0 1.660156 1.339844 3 3 3 h 5.941406 l -2 -2 h -1.785156 l 0.894531 -0.894531 l -0.355469 -0.355469 l -1.25 1.25 h -1.238281 l 1.867188 -1.867188 l -0.707031 -0.707031 l -2.160157 2.15625 c -0.121093 -0.164062 -0.207031 -0.359375 -0.207031 -0.582031 v -0.4375 l 1.75 -1.75 l -1.0625 -1.0625 l -0.6875 0.6875 v -0.699219 l 0.339844 -0.339843 z m 12 0.09375 v 5.847656 c 0 0.535156 -0.417969 0.960938 -0.949219 0.988281 l -2.941406 -2.941406 z m -5 9.847656 c -5 0 -5 1 -5 1 c 0 1 1 1 1 1 h 8 c 0.328125 0 0.539062 -0.109375 0.6875 -0.253906 l -1.542969 -1.546875 c -0.730469 -0.113281 -1.71875 -0.199219 -3.144531 -0.199219 z m 0 0" fill="#222222"/>
</svg>
