<?xml version="1.0" encoding="UTF-8"?>
<svg height="16px" viewBox="0 0 16 16" width="16px" xmlns="http://www.w3.org/2000/svg" xmlns:xlink="http://www.w3.org/1999/xlink">
    <filter id="a" height="100%" width="100%" x="0%" y="0%">
        <feColorMatrix color-interpolation-filters="sRGB" values="0 0 0 0 1 0 0 0 0 1 0 0 0 0 1 0 0 0 1 0"/>
    </filter>
    <mask id="b">
        <g filter="url(#a)">
            <path d="m -1.6 -1.6 h 19.2 v 19.2 h -19.2 z" fill-opacity="0.5"/>
        </g>
    </mask>
    <clipPath id="c">
        <path d="m 0 0 h 1600 v 1200 h -1600 z"/>
    </clipPath>
    <mask id="d">
        <g filter="url(#a)">
            <path d="m -1.6 -1.6 h 19.2 v 19.2 h -19.2 z" fill-opacity="0.7"/>
        </g>
    </mask>
    <clipPath id="e">
        <path d="m 0 0 h 1600 v 1200 h -1600 z"/>
    </clipPath>
    <mask id="f">
        <g filter="url(#a)">
            <path d="m -1.6 -1.6 h 19.2 v 19.2 h -19.2 z" fill-opacity="0.35"/>
        </g>
    </mask>
    <clipPath id="g">
        <path d="m 0 0 h 1600 v 1200 h -1600 z"/>
    </clipPath>
    <g mask="url(#b)">
        <g clip-path="url(#c)" transform="matrix(1 0 0 1 -320 -376)">
            <path d="m 550 182 c -0.351562 0.003906 -0.695312 0.101562 -1 0.28125 v 3.4375 c 0.304688 0.179688 0.648438 0.277344 1 0.28125 c 1.105469 0 2 -0.894531 2 -2 s -0.894531 -2 -2 -2 z m 0 5 c -0.339844 0 -0.679688 0.058594 -1 0.175781 v 6.824219 h 4 v -4 c 0 -1.65625 -1.34375 -3 -3 -3 z m 0 0"/>
        </g>
    </g>
    <g mask="url(#d)">
        <g clip-path="url(#e)" transform="matrix(1 0 0 1 -320 -376)">
            <path d="m 569 182 v 4 c 1.105469 0 2 -0.894531 2 -2 s -0.894531 -2 -2 -2 z m 0 5 v 7 h 3 v -4 c 0 -1.65625 -1.34375 -3 -3 -3 z m 0 0"/>
        </g>
    </g>
    <g mask="url(#f)">
        <g clip-path="url(#g)" transform="matrix(1 0 0 1 -320 -376)">
            <path d="m 573 182.269531 v 3.449219 c 0.613281 -0.355469 0.996094 -1.007812 1 -1.71875 c 0 -0.714844 -0.382812 -1.375 -1 -1.730469 z m 0 4.90625 v 6.824219 h 2 v -4 c 0 -1.269531 -0.800781 -2.402344 -2 -2.824219 z m 0 0"/>
        </g>
    </g>
    <g fill="#222222">
        <path d="m 1.5 0.46875 l -1.0625 1.0625 l 14 14 l 1.0625 -1.0625 z m 0 0"/>
        <path d="m 6.226562 1.167969 c -1.425781 0.023437 -2.246093 1.316406 -2.570312 2.613281 v 0.039062 l -0.191406 0.65625 l 3.523437 3.523438 h 7.027344 c 0.554687 0 1 -0.445312 1 -1 s -0.445313 -1 -1 -1 h -1 l -0.640625 -2.207031 c -0.195312 -0.847657 -1.046875 -1.738281 -2.140625 -1.738281 c -0.320313 0 -0.632813 0.070312 -0.917969 0.203124 c -0.40625 0.191407 -0.796875 0.128907 -1.097656 -0.207031 c -0.484375 -0.550781 -1.191406 -0.878906 -1.949219 -0.882812 c -0.015625 0 -0.03125 0 -0.042969 0 z m -4.210937 4.832031 c -0.554687 0 -1 0.445312 -1 1 s 0.445313 1 1 1 h 2.847656 l -2 -2 z m 2.5 2.984375 c -1.378906 0 -2.5 1.121094 -2.5 2.5 s 1.121094 2.5 2.5 2.5 c 1.070313 0 2.019531 -0.679687 2.367187 -1.691406 c 0.039063 -0.070313 0.0625 -0.152344 0.066407 -0.234375 c 0.027343 -0.109375 0.042969 -0.222656 0.054687 -0.335938 c 0.078125 -0.246094 0.242188 -0.457031 0.476563 -0.589844 c 0.121093 -0.070312 0.257812 -0.105468 0.394531 -0.125 l -0.785156 -0.785156 c -0.035156 0.015625 -0.074219 0.023438 -0.105469 0.039063 c -0.078125 0.046875 -0.136719 0.105469 -0.207031 0.15625 c -0.414063 -0.875 -1.292969 -1.433594 -2.261719 -1.433594 z m 7 0 c -0.925781 0 -1.777344 0.515625 -2.210937 1.335937 l 0.769531 0.761719 c 0.179687 -0.648437 0.769531 -1.09375 1.441406 -1.09375 c 0.828125 -0.003906 1.5 0.667969 1.496094 1.496094 c 0 0.671875 -0.445313 1.261719 -1.09375 1.441406 l 0.765625 0.769531 c 0.820312 -0.433593 1.332031 -1.285156 1.332031 -2.210937 c 0 -1.378906 -1.121094 -2.5 -2.5 -2.5 z m -7 1.003906 c 0.828125 -0.003906 1.5 0.667969 1.496094 1.496094 c 0.003906 0.027344 0 0.054687 0 0.082031 c -0.019531 0.070313 -0.019531 0.148438 -0.03125 0.226563 c -0.144531 0.691406 -0.753907 1.191406 -1.464844 1.191406 c -0.828125 0 -1.5 -0.671875 -1.5 -1.5 s 0.671875 -1.496094 1.5 -1.496094 z m 0 0"/>
    </g>
</svg>
