<?xml version="1.0" encoding="UTF-8"?>
<svg height="16px" viewBox="0 0 16 16" width="16px" xmlns="http://www.w3.org/2000/svg" xmlns:xlink="http://www.w3.org/1999/xlink">
    <filter id="a" height="100%" width="100%" x="0%" y="0%">
        <feColorMatrix color-interpolation-filters="sRGB" values="0 0 0 0 1 0 0 0 0 1 0 0 0 0 1 0 0 0 1 0"/>
    </filter>
    <mask id="b">
        <g filter="url(#a)">
            <path d="m -1.6 -1.6 h 19.2 v 19.2 h -19.2 z" fill-opacity="0.5"/>
        </g>
    </mask>
    <clipPath id="c">
        <path d="m 0 0 h 1600 v 1200 h -1600 z"/>
    </clipPath>
    <mask id="d">
        <g filter="url(#a)">
            <path d="m -1.6 -1.6 h 19.2 v 19.2 h -19.2 z" fill-opacity="0.7"/>
        </g>
    </mask>
    <clipPath id="e">
        <path d="m 0 0 h 1600 v 1200 h -1600 z"/>
    </clipPath>
    <mask id="f">
        <g filter="url(#a)">
            <path d="m -1.6 -1.6 h 19.2 v 19.2 h -19.2 z" fill-opacity="0.35"/>
        </g>
    </mask>
    <clipPath id="g">
        <path d="m 0 0 h 1600 v 1200 h -1600 z"/>
    </clipPath>
    <path d="m 2.992188 1 c -0.796876 0 -1.558594 0.316406 -2.121094 0.878906 s -0.8789065 1.324219 -0.8789065 2.121094 v 8 c 0 0.519531 0.1367185 1.035156 0.4023435 1.5 c 0.535157 0.925781 1.527344 1.5 2.597657 1.5 h 10 c 1.644531 0 3 -1.355469 3 -3 v -8 c 0 -1.070312 -0.574219 -2.0625 -1.5 -2.597656 c -0.925782 -0.535156 -2.074219 -0.535156 -3 0 c -0.925782 0.535156 -1.5 1.527344 -1.5 2.597656 v 1 h -4 v -4 z m 0 2 h 1 v 6 h -1 c -0.347657 0 -0.683594 0.066406 -1 0.175781 v -5.175781 c 0 -0.265625 0.105468 -0.519531 0.292968 -0.707031 s 0.441406 -0.292969 0.707032 -0.292969 z m 10 0 c 0.171874 0 0.34375 0.046875 0.5 0.136719 c 0.3125 0.175781 0.5 0.503906 0.5 0.863281 v 5.1875 c -0.316407 -0.113281 -0.648438 -0.1875 -1 -0.1875 c -0.351563 0 -0.683594 0.074219 -1 0.1875 v -5.1875 c 0 -0.359375 0.1875 -0.6875 0.5 -0.863281 c 0.15625 -0.089844 0.328124 -0.136719 0.5 -0.136719 z m -7 4 h 4 v 5 c 0 0.351562 0.070312 0.683594 0.183593 1 h -7.183593 c -0.359376 0 -0.6875 -0.1875 -0.867188 -0.5 c -0.175781 -0.3125 -0.175781 -0.6875 0 -1 c 0.179688 -0.3125 0.507812 -0.5 0.867188 -0.5 h 3 z m 7 4 c 0.5625 0 1 0.4375 1 1 s -0.4375 1 -1 1 s -1 -0.4375 -1 -1 s 0.4375 -1 1 -1 z m 0 0" fill="#222222"/>
    <g mask="url(#b)">
        <g clip-path="url(#c)" transform="matrix(1 0 0 1 -620 -240)">
            <path d="m 550 182 c -0.351562 0.003906 -0.695312 0.101562 -1 0.28125 v 3.4375 c 0.304688 0.179688 0.648438 0.277344 1 0.28125 c 1.105469 0 2 -0.894531 2 -2 s -0.894531 -2 -2 -2 z m 0 5 c -0.339844 0 -0.679688 0.058594 -1 0.175781 v 6.824219 h 4 v -4 c 0 -1.65625 -1.34375 -3 -3 -3 z m 0 0"/>
        </g>
    </g>
    <g mask="url(#d)">
        <g clip-path="url(#e)" transform="matrix(1 0 0 1 -620 -240)">
            <path d="m 569 182 v 4 c 1.105469 0 2 -0.894531 2 -2 s -0.894531 -2 -2 -2 z m 0 5 v 7 h 3 v -4 c 0 -1.65625 -1.34375 -3 -3 -3 z m 0 0"/>
        </g>
    </g>
    <g mask="url(#f)">
        <g clip-path="url(#g)" transform="matrix(1 0 0 1 -620 -240)">
            <path d="m 573 182.269531 v 3.449219 c 0.613281 -0.355469 0.996094 -1.007812 1 -1.71875 c 0 -0.714844 -0.382812 -1.375 -1 -1.730469 z m 0 4.90625 v 6.824219 h 2 v -4 c 0 -1.269531 -0.800781 -2.402344 -2 -2.824219 z m 0 0"/>
        </g>
    </g>
</svg>
