<?xml version="1.0" encoding="UTF-8"?>
<svg height="16px" viewBox="0 0 16 16" width="16px" xmlns="http://www.w3.org/2000/svg">
    <g fill="#2e3436">
        <path d="m 0 3 h 1 v 1 h -1 z m 0 0"/>
        <path d="m 12 3 h 1 v 1 h -1 z m 0 0"/>
        <path d="m 14 3 h 1 v 1 h -1 z m 0 0"/>
        <path d="m 0 5 h 1 v 1 h -1 z m 0 0"/>
        <path d="m 10 3 h 1 v 1 h -1 z m 0 0"/>
        <path d="m 2 3 h 1 v 1 h -1 z m 0 0"/>
        <path d="m 4 3 h 1 v 1 h -1 z m 0 0"/>
        <path d="m 6 3 h 1 v 1 h -1 z m 0 0"/>
        <path d="m 8 3 h 1 v 1 h -1 z m 0 0"/>
        <path d="m 0 7 h 1 v 1 h -1 z m 0 0"/>
        <path d="m 0 9 h 1 v 1 h -1 z m 0 0"/>
        <path d="m 2 13 h 1 v 1 h -1 z m 0 0"/>
        <path d="m 4 13 h 1 v 1 h -1 z m 0 0"/>
        <path d="m 6 13 h 1 v 1 h -1 z m 0 0"/>
        <path d="m 8 13 h 1 v 1 h -1 z m 0 0"/>
        <path d="m 10 13 h 1 v 1 h -1 z m 0 0"/>
        <path d="m 12 13 h 1 v 1 h -1 z m 0 0"/>
        <path d="m 14 13 h 1 v 1 h -1 z m 0 0"/>
        <path d="m 14 11 h 1 v 1 h -1 z m 0 0"/>
        <path d="m 14 9 h 1 v 1 h -1 z m 0 0"/>
        <path d="m 14 7 h 1 v 1 h -1 z m 0 0"/>
        <path d="m 14 5 h 1 v 1 h -1 z m 0 0"/>
        <path d="m 3 6 h 9 v 5 h -9 z m 0 0"/>
        <path d="m 0 11 h 1 v 1 h -1 z m 0 0"/>
        <path d="m 0 13 h 1 v 1 h -1 z m 0 0"/>
    </g>
</svg>
