<?xml version="1.0" encoding="UTF-8"?>
<svg height="16px" viewBox="0 0 16 16" width="16px" xmlns="http://www.w3.org/2000/svg" xmlns:xlink="http://www.w3.org/1999/xlink">
    <filter id="a" height="100%" width="100%" x="0%" y="0%">
        <feColorMatrix color-interpolation-filters="sRGB" values="0 0 0 0 1 0 0 0 0 1 0 0 0 0 1 0 0 0 1 0"/>
    </filter>
    <mask id="b">
        <g filter="url(#a)">
            <path d="m -1.6 -1.6 h 19.2 v 19.2 h -19.2 z" fill-opacity="0.5"/>
        </g>
    </mask>
    <clipPath id="c">
        <path d="m 0 0 h 1600 v 1200 h -1600 z"/>
    </clipPath>
    <mask id="d">
        <g filter="url(#a)">
            <path d="m -1.6 -1.6 h 19.2 v 19.2 h -19.2 z" fill-opacity="0.7"/>
        </g>
    </mask>
    <clipPath id="e">
        <path d="m 0 0 h 1600 v 1200 h -1600 z"/>
    </clipPath>
    <mask id="f">
        <g filter="url(#a)">
            <path d="m -1.6 -1.6 h 19.2 v 19.2 h -19.2 z" fill-opacity="0.35"/>
        </g>
    </mask>
    <clipPath id="g">
        <path d="m 0 0 h 1600 v 1200 h -1600 z"/>
    </clipPath>
    <g fill="#222222">
        <path d="m 9.984375 12.496094 c 0 1.929687 -1.566406 3.492187 -3.492187 3.492187 c -1.929688 0 -3.492188 -1.5625 -3.492188 -3.492187 c 0 -1.929688 1.5625 -3.492188 3.492188 -3.492188 c 1.925781 0 3.492187 1.5625 3.492187 3.492188 z m 0 0"/>
        <path d="m 9 8 h 6 c 0.207031 0 0.398438 -0.109375 0.5 -0.289062 c 0.105469 -0.179688 0.105469 -0.398438 0.003906 -0.578126 l -3.007812 -5.265624 c -0.101563 -0.175782 -0.292969 -0.285157 -0.496094 -0.285157 s -0.394531 0.109375 -0.496094 0.285157 l -3.007812 5.265624 c -0.101563 0.179688 -0.101563 0.398438 0.003906 0.578126 c 0.101562 0.179687 0.292969 0.289062 0.5 0.289062 z m 0 0"/>
        <path d="m 0.292969 3.375 l 3.082031 -3.082031 c 0.390625 -0.3906252 1.023438 -0.3906252 1.414062 0 l 3.089844 3.082031 c 0.1875 0.1875 0.292969 0.441406 0.292969 0.707031 s -0.105469 0.519531 -0.292969 0.707031 l -3.085937 3.085938 c -0.390625 0.390625 -1.023438 0.390625 -1.414063 0 l -3.085937 -3.085938 c -0.3906252 -0.390624 -0.3906252 -1.023437 0 -1.414062 z m 0 0"/>
    </g>
    <g mask="url(#b)">
        <g clip-path="url(#c)" transform="matrix(1 0 0 1 -720 -480)">
            <path d="m 550 182 c -0.351562 0.003906 -0.695312 0.101562 -1 0.28125 v 3.4375 c 0.304688 0.179688 0.648438 0.277344 1 0.28125 c 1.105469 0 2 -0.894531 2 -2 s -0.894531 -2 -2 -2 z m 0 5 c -0.339844 0 -0.679688 0.058594 -1 0.175781 v 6.824219 h 4 v -4 c 0 -1.65625 -1.34375 -3 -3 -3 z m 0 0"/>
        </g>
    </g>
    <g mask="url(#d)">
        <g clip-path="url(#e)" transform="matrix(1 0 0 1 -720 -480)">
            <path d="m 569 182 v 4 c 1.105469 0 2 -0.894531 2 -2 s -0.894531 -2 -2 -2 z m 0 5 v 7 h 3 v -4 c 0 -1.65625 -1.34375 -3 -3 -3 z m 0 0"/>
        </g>
    </g>
    <g mask="url(#f)">
        <g clip-path="url(#g)" transform="matrix(1 0 0 1 -720 -480)">
            <path d="m 573 182.269531 v 3.449219 c 0.613281 -0.355469 0.996094 -1.007812 1 -1.71875 c 0 -0.714844 -0.382812 -1.375 -1 -1.730469 z m 0 4.90625 v 6.824219 h 2 v -4 c 0 -1.269531 -0.800781 -2.402344 -2 -2.824219 z m 0 0"/>
        </g>
    </g>
</svg>
