<?xml version="1.0" encoding="UTF-8"?>
<svg height="16px" viewBox="0 0 16 16" width="16px" xmlns="http://www.w3.org/2000/svg" xmlns:xlink="http://www.w3.org/1999/xlink">
    <filter id="a" height="100%" width="100%" x="0%" y="0%">
        <feColorMatrix color-interpolation-filters="sRGB" values="0 0 0 0 1 0 0 0 0 1 0 0 0 0 1 0 0 0 1 0"/>
    </filter>
    <mask id="b">
        <g filter="url(#a)">
            <path d="m -1.6 -1.6 h 19.2 v 19.2 h -19.2 z" fill-opacity="0.5"/>
        </g>
    </mask>
    <clipPath id="c">
        <path d="m 0 0 h 1600 v 1200 h -1600 z"/>
    </clipPath>
    <mask id="d">
        <g filter="url(#a)">
            <path d="m -1.6 -1.6 h 19.2 v 19.2 h -19.2 z" fill-opacity="0.7"/>
        </g>
    </mask>
    <clipPath id="e">
        <path d="m 0 0 h 1600 v 1200 h -1600 z"/>
    </clipPath>
    <mask id="f">
        <g filter="url(#a)">
            <path d="m -1.6 -1.6 h 19.2 v 19.2 h -19.2 z" fill-opacity="0.35"/>
        </g>
    </mask>
    <clipPath id="g">
        <path d="m 0 0 h 1600 v 1200 h -1600 z"/>
    </clipPath>
    <g mask="url(#b)">
        <g clip-path="url(#c)" transform="matrix(1 0 0 1 -316 -936)">
            <path d="m 550 182 c -0.351562 0.003906 -0.695312 0.101562 -1 0.28125 v 3.4375 c 0.304688 0.179688 0.648438 0.277344 1 0.28125 c 1.105469 0 2 -0.894531 2 -2 s -0.894531 -2 -2 -2 z m 0 5 c -0.339844 0 -0.679688 0.058594 -1 0.175781 v 6.824219 h 4 v -4 c 0 -1.65625 -1.34375 -3 -3 -3 z m 0 0"/>
        </g>
    </g>
    <g mask="url(#d)">
        <g clip-path="url(#e)" transform="matrix(1 0 0 1 -316 -936)">
            <path d="m 569 182 v 4 c 1.105469 0 2 -0.894531 2 -2 s -0.894531 -2 -2 -2 z m 0 5 v 7 h 3 v -4 c 0 -1.65625 -1.34375 -3 -3 -3 z m 0 0"/>
        </g>
    </g>
    <g mask="url(#f)">
        <g clip-path="url(#g)" transform="matrix(1 0 0 1 -316 -936)">
            <path d="m 573 182.269531 v 3.449219 c 0.613281 -0.355469 0.996094 -1.007812 1 -1.71875 c 0 -0.714844 -0.382812 -1.375 -1 -1.730469 z m 0 4.90625 v 6.824219 h 2 v -4 c 0 -1.269531 -0.800781 -2.402344 -2 -2.824219 z m 0 0"/>
        </g>
    </g>
    <path d="m 1.65625 11.714844 l 2.34375 -2.292969 v -6.421875 l -1.707031 0.707031 l 3 3 l -0.292969 -0.707031 v 5.414062 l 3.707031 -3.707031 l -1.707031 -0.707031 v 3.496094 c 0 1.386718 1.117188 2.503906 2.507812 2.503906 c 1.386719 -0.003906 2.496094 -1.121094 2.492188 -2.503906 v -1.988282 c 0 -0.273437 0.234375 -0.507812 0.503906 -0.507812 c 0.269532 0.003906 0.496094 0.230469 0.496094 0.507812 v 3.492188 c 0 1.109375 0.890625 2 2 2 c 0.550781 0 1 -0.449219 1 -1 s -0.449219 -1 -1 -1 v -3.484375 c 0.007812 -1.386719 -1.097656 -2.507813 -2.492188 -2.515625 c -1.390624 0 -2.507812 1.117188 -2.507812 2.507812 v 1.992188 c 0 0.269531 -0.226562 0.5 -0.496094 0.5 c -0.273437 0 -0.503906 -0.230469 -0.503906 -0.503906 v -5.910156 l -3.707031 3.707031 l 1.707031 0.707031 v -3.414062 l -5 -5 v 8.414062 l 0.300781 -0.714844 l -2.042969 2 c -0.394531 0.386719 -0.402343 1.019532 -0.015624 1.414063 c 0.386718 0.394531 1.019531 0.402343 1.414062 0.015625 z m 0 0"/>
    <g fill="#222222" fill-rule="evenodd">
        <path d="m 7.980469 1 h 1.019531 v 1 h -1.019531 z m 0 0"/>
        <path d="m 7.980469 3 h 1.019531 v 1 h -1.019531 z m 0 0"/>
        <path d="m 8 5 h 1.019531 v 1 h -1.019531 z m 0 0"/>
        <path d="m 7.980469 12 h 1.019531 v 1 h -1.019531 z m 0 0"/>
        <path d="m 7.980469 14 h 1.019531 v 1 h -1.019531 z m 0 0"/>
    </g>
</svg>
