<?xml version="1.0" encoding="UTF-8"?>
<svg height="16px" viewBox="0 0 16 16" width="16px" xmlns="http://www.w3.org/2000/svg">
    <g fill="none" stroke="#2e3436">
        <path d="m 8.5 8 c 0 0.277344 -0.222657 0.5 -0.5 0.5 c -0.277344 0 -0.5 -0.222656 -0.5 -0.5 s 0.222656 -0.5 0.5 -0.5 c 0.277343 0 0.5 0.222656 0.5 0.5 z m 0 0" stroke-linecap="round"/>
        <path d="m 8 0.5 c -4.117188 0 -7.5 3.382812 -7.5 7.5 s 3.382812 7.5 7.5 7.5 c 4.117187 0 7.5 -3.382812 7.5 -7.5 s -3.382813 -7.5 -7.5 -7.5 z m 0 0" stroke-opacity="0.25"/>
        <g stroke-linecap="round">
            <path d="m 13 8 c 0 2.761719 -2.238282 5 -5 5 c -2.761719 0 -5 -2.238281 -5 -5 s 2.238281 -5 5 -5 c 2.761718 0 5 2.238281 5 5 z m 0 0" stroke-opacity="0.5" stroke-width="2"/>
            <path d="m 10.5 8 c 0 1.378906 -1.121094 2.5 -2.5 2.5 c -1.378907 0 -2.5 -1.121094 -2.5 -2.5 s 1.121093 -2.5 2.5 -2.5 c 1.378906 0 2.5 1.121094 2.5 2.5 z m 0 0" stroke-opacity="0.75"/>
        </g>
    </g>
</svg>
