<?xml version="1.0" encoding="UTF-8"?>
<svg height="16px" viewBox="0 0 16 16" width="16px" xmlns="http://www.w3.org/2000/svg" xmlns:xlink="http://www.w3.org/1999/xlink">
    <filter id="a" height="100%" width="100%" x="0%" y="0%">
        <feColorMatrix color-interpolation-filters="sRGB" values="0 0 0 0 1 0 0 0 0 1 0 0 0 0 1 0 0 0 1 0"/>
    </filter>
    <mask id="b">
        <g filter="url(#a)">
            <path d="m -1.6 -1.6 h 19.2 v 19.2 h -19.2 z" fill-opacity="0.5"/>
        </g>
    </mask>
    <clipPath id="c">
        <path d="m 0 0 h 1600 v 1200 h -1600 z"/>
    </clipPath>
    <mask id="d">
        <g filter="url(#a)">
            <path d="m -1.6 -1.6 h 19.2 v 19.2 h -19.2 z" fill-opacity="0.7"/>
        </g>
    </mask>
    <clipPath id="e">
        <path d="m 0 0 h 1600 v 1200 h -1600 z"/>
    </clipPath>
    <mask id="f">
        <g filter="url(#a)">
            <path d="m -1.6 -1.6 h 19.2 v 19.2 h -19.2 z" fill-opacity="0.35"/>
        </g>
    </mask>
    <clipPath id="g">
        <path d="m 0 0 h 1600 v 1200 h -1600 z"/>
    </clipPath>
    <g mask="url(#b)">
        <g clip-path="url(#c)" transform="matrix(1 0 0 1 -220 -356)">
            <path d="m 550 182 c -0.351562 0.003906 -0.695312 0.101562 -1 0.28125 v 3.4375 c 0.304688 0.179688 0.648438 0.277344 1 0.28125 c 1.105469 0 2 -0.894531 2 -2 s -0.894531 -2 -2 -2 z m 0 5 c -0.339844 0 -0.679688 0.058594 -1 0.175781 v 6.824219 h 4 v -4 c 0 -1.65625 -1.34375 -3 -3 -3 z m 0 0"/>
        </g>
    </g>
    <g mask="url(#d)">
        <g clip-path="url(#e)" transform="matrix(1 0 0 1 -220 -356)">
            <path d="m 569 182 v 4 c 1.105469 0 2 -0.894531 2 -2 s -0.894531 -2 -2 -2 z m 0 5 v 7 h 3 v -4 c 0 -1.65625 -1.34375 -3 -3 -3 z m 0 0"/>
        </g>
    </g>
    <g mask="url(#f)">
        <g clip-path="url(#g)" transform="matrix(1 0 0 1 -220 -356)">
            <path d="m 573 182.269531 v 3.449219 c 0.613281 -0.355469 0.996094 -1.007812 1 -1.71875 c 0 -0.714844 -0.382812 -1.375 -1 -1.730469 z m 0 4.90625 v 6.824219 h 2 v -4 c 0 -1.269531 -0.800781 -2.402344 -2 -2.824219 z m 0 0"/>
        </g>
    </g>
    <g fill="#222222">
        <path d="m 11.5 10.933594 c -2.5 0 -2.5 0.5 -2.5 0.5 c 0 0.5 0.5 0.5 0.5 0.5 h 4 c 0.5 0 0.5 -0.5 0.5 -0.5 s 0 -0.5 -2.5 -0.5 z m 0 0"/>
        <path d="m 9.1875 2 c -1.195312 0 -2.1875 0.992188 -2.1875 2.1875 v 3.644531 c 0 1.195313 0.992188 2.191407 2.1875 2.191407 h 4.625 c 1.195312 0 2.1875 -0.996094 2.1875 -2.191407 v -3.644531 c 0 -1.195312 -0.992188 -2.1875 -2.1875 -2.1875 z m 0 2 h 4.625 c 0.121094 0 0.1875 0.066406 0.1875 0.1875 v 3.644531 c 0 0.121094 -0.066406 0.191407 -0.1875 0.191407 h -4.625 c -0.121094 0 -0.1875 -0.070313 -0.1875 -0.191407 v -3.644531 c 0 -0.121094 0.066406 -0.1875 0.1875 -0.1875 z m 0 0"/>
        <path d="m 11.46875 12.96875 l -3 3 h 6 z m 0 0"/>
        <path d="m 1.914062 5 c -0.507812 0 -0.914062 0.40625 -0.914062 0.914062 v 3.171876 c 0 0.507812 0.40625 0.914062 0.914062 0.914062 h 3.171876 c 0.507812 0 0.914062 -0.40625 0.914062 -0.914062 v -3.171876 c 0 -0.507812 -0.40625 -0.914062 -0.914062 -0.914062 z m 0.085938 2 h 3 v 2 h -3 z m 0 0"/>
    </g>
</svg>
