<?xml version="1.0" encoding="UTF-8"?>
<svg height="16px" viewBox="0 0 16 16" width="16px" xmlns="http://www.w3.org/2000/svg" xmlns:xlink="http://www.w3.org/1999/xlink">
    <filter id="a" height="100%" width="100%" x="0%" y="0%">
        <feColorMatrix color-interpolation-filters="sRGB" values="0 0 0 0 1 0 0 0 0 1 0 0 0 0 1 0 0 0 1 0"/>
    </filter>
    <mask id="b">
        <g filter="url(#a)">
            <path d="m -1.6 -1.6 h 19.2 v 19.2 h -19.2 z" fill-opacity="0.5"/>
        </g>
    </mask>
    <clipPath id="c">
        <path d="m 0 0 h 1600 v 1200 h -1600 z"/>
    </clipPath>
    <mask id="d">
        <g filter="url(#a)">
            <path d="m -1.6 -1.6 h 19.2 v 19.2 h -19.2 z" fill-opacity="0.7"/>
        </g>
    </mask>
    <clipPath id="e">
        <path d="m 0 0 h 1600 v 1200 h -1600 z"/>
    </clipPath>
    <mask id="f">
        <g filter="url(#a)">
            <path d="m -1.6 -1.6 h 19.2 v 19.2 h -19.2 z" fill-opacity="0.35"/>
        </g>
    </mask>
    <clipPath id="g">
        <path d="m 0 0 h 1600 v 1200 h -1600 z"/>
    </clipPath>
    <g fill="#222222">
        <path d="m 13.003906 1 c -1.648437 0 -3.003906 1.351562 -3.015625 2.996094 h -0.507812 c -0.1875 0 -0.34375 0.097656 -0.449219 0.273437 l -0.5625 1.128907 l -1.550781 -3.101563 c -0.058594 -0.117187 -0.164063 -0.207031 -0.289063 -0.25 s -0.261718 -0.035156 -0.382812 0.023437 c -0.246094 0.125 -0.347656 0.425782 -0.222656 0.671876 l 2 4 c 0.203124 0.355468 0.679687 0.371093 0.894531 0 l 0.871093 -1.746094 h 0.378907 c 0.414062 1.175781 1.527343 2.035156 2.835937 2.035156 c 1.652344 0 3.015625 -1.363281 3.015625 -3.015625 s -1.363281 -3.015625 -3.015625 -3.015625 z m -12.339844 1.019531 c -0.125 -0.042969 -0.261718 -0.035156 -0.382812 0.023438 c -0.2460938 0.125 -0.3476562 0.425781 -0.2226562 0.671875 l 1.9648442 4.027344 c 0.121093 0.25 0.421874 0.347656 0.671874 0.222656 c 0.246094 -0.121094 0.34375 -0.421875 0.222657 -0.667969 l -1.964844 -4.027344 c -0.058594 -0.117187 -0.164063 -0.207031 -0.289063 -0.25 z m 1.964844 0.027344 c -0.125 -0.042969 -0.261718 -0.035156 -0.382812 0.023437 c -0.246094 0.125 -0.347656 0.425782 -0.222656 0.671876 l 2 4 c 0.125 0.246093 0.421874 0.347656 0.671874 0.222656 c 0.246094 -0.121094 0.34375 -0.421875 0.222657 -0.667969 l -2 -4 c -0.058594 -0.117187 -0.164063 -0.207031 -0.289063 -0.25 z m 2 0 c -0.125 -0.042969 -0.261718 -0.035156 -0.382812 0.023437 c -0.246094 0.125 -0.347656 0.425782 -0.222656 0.671876 l 2 4 c 0.125 0.246093 0.421874 0.347656 0.671874 0.222656 c 0.246094 -0.121094 0.34375 -0.421875 0.222657 -0.667969 l -2 -4 c -0.058594 -0.117187 -0.164063 -0.207031 -0.289063 -0.25 z m 8.375 0.964844 c 0.566406 0 1.007813 0.4375 1.007813 1.003906 s -0.441407 1.003906 -1.007813 1.003906 s -1.003906 -0.4375 -1.003906 -1.003906 s 0.4375 -1.003906 1.003906 -1.003906 z m 0 0"/>
        <path d="m 11.003906 9 c -1.648437 0 -3.003906 1.351562 -3.015625 2.996094 h -0.507812 c -0.238281 0 -0.445313 0.171875 -0.492188 0.40625 l -0.257812 0.847656 l -1.730469 -3.273438 h -5 v 4 l 0.519531 0.003907 c 0.304688 0 0.476563 -0.199219 0.476563 -0.523438 l 0.003906 -0.480469 l 2 3 h 4 l 0.894531 -2.980468 h 0.273438 c 0.414062 1.175781 1.527343 2.035156 2.835937 2.035156 c 1.652344 0 3.015625 -1.363281 3.015625 -3.015625 s -1.363281 -3.015625 -3.015625 -3.015625 z m 0 2.011719 c 0.566406 0 1.007813 0.4375 1.007813 1.003906 s -0.441407 1.003906 -1.007813 1.003906 s -1.003906 -0.4375 -1.003906 -1.003906 s 0.4375 -1.003906 1.003906 -1.003906 z m 0 0"/>
        <path d="m 0.5 1.976562 c 0.277344 0 0.5 0.226563 0.5 0.5 v 3 c 0 0.277344 -0.222656 0.5 -0.5 0.5 s -0.5 0.007813 -0.5 0.007813 v -3.507813 c 0 -0.273437 0.222656 -0.5 0.5 -0.5 z m 0 0"/>
    </g>
    <g mask="url(#b)">
        <g clip-path="url(#c)" transform="matrix(1 0 0 1 -620 -844)">
            <path d="m 550 182 c -0.351562 0.003906 -0.695312 0.101562 -1 0.28125 v 3.4375 c 0.304688 0.179688 0.648438 0.277344 1 0.28125 c 1.105469 0 2 -0.894531 2 -2 s -0.894531 -2 -2 -2 z m 0 5 c -0.339844 0 -0.679688 0.058594 -1 0.175781 v 6.824219 h 4 v -4 c 0 -1.65625 -1.34375 -3 -3 -3 z m 0 0"/>
        </g>
    </g>
    <g mask="url(#d)">
        <g clip-path="url(#e)" transform="matrix(1 0 0 1 -620 -844)">
            <path d="m 569 182 v 4 c 1.105469 0 2 -0.894531 2 -2 s -0.894531 -2 -2 -2 z m 0 5 v 7 h 3 v -4 c 0 -1.65625 -1.34375 -3 -3 -3 z m 0 0"/>
        </g>
    </g>
    <g mask="url(#f)">
        <g clip-path="url(#g)" transform="matrix(1 0 0 1 -620 -844)">
            <path d="m 573 182.269531 v 3.449219 c 0.613281 -0.355469 0.996094 -1.007812 1 -1.71875 c 0 -0.714844 -0.382812 -1.375 -1 -1.730469 z m 0 4.90625 v 6.824219 h 2 v -4 c 0 -1.269531 -0.800781 -2.402344 -2 -2.824219 z m 0 0"/>
        </g>
    </g>
</svg>
