<?xml version="1.0" encoding="UTF-8"?>
<svg height="16px" viewBox="0 0 16 16" width="16px" xmlns="http://www.w3.org/2000/svg" xmlns:xlink="http://www.w3.org/1999/xlink">
    <filter id="a" height="100%" width="100%" x="0%" y="0%">
        <feColorMatrix color-interpolation-filters="sRGB" values="0 0 0 0 1 0 0 0 0 1 0 0 0 0 1 0 0 0 1 0"/>
    </filter>
    <mask id="b">
        <g filter="url(#a)">
            <path d="m -1.6 -1.6 h 19.2 v 19.2 h -19.2 z" fill-opacity="0.5"/>
        </g>
    </mask>
    <clipPath id="c">
        <path d="m 0 0 h 1600 v 1200 h -1600 z"/>
    </clipPath>
    <mask id="d">
        <g filter="url(#a)">
            <path d="m -1.6 -1.6 h 19.2 v 19.2 h -19.2 z" fill-opacity="0.7"/>
        </g>
    </mask>
    <clipPath id="e">
        <path d="m 0 0 h 1600 v 1200 h -1600 z"/>
    </clipPath>
    <mask id="f">
        <g filter="url(#a)">
            <path d="m -1.6 -1.6 h 19.2 v 19.2 h -19.2 z" fill-opacity="0.35"/>
        </g>
    </mask>
    <clipPath id="g">
        <path d="m 0 0 h 1600 v 1200 h -1600 z"/>
    </clipPath>
    <path d="m 7 2.933594 c -4.042969 0 -5.894531 3.613281 -5.894531 3.613281 l 1.785156 0.902344 s 1.25 -2.515625 4.109375 -2.515625 c 2.054688 0 3.097656 1.394531 3.484375 2.074218 h -0.910156 c -1.332031 0 -1.574219 1.253907 -1.574219 2.035157 l 6 -0.046875 l 0.042969 -6 c -1.042969 0 -2.03125 0.523437 -2.03125 1.667968 v 0.929688 l -0.0625 0.0625 c -0.757813 -1.089844 -2.316407 -2.722656 -4.949219 -2.722656 z m 0 0" fill="#222222"/>
    <path d="m 2.382812 8.996094 c -0.683593 0 -1.265624 0.582031 -1.265624 1.265625 v 3.46875 c 0 0.683593 0.582031 1.265625 1.265624 1.265625 h 3.46875 c 0.683594 0 1.265626 -0.582032 1.265626 -1.265625 v -3.46875 c 0 -0.683594 -0.582032 -1.265625 -1.265626 -1.265625 z m 0.734376 2 h 2 v 2 h -2 z m 0 0" fill="#222222"/>
    <g mask="url(#b)">
        <g clip-path="url(#c)" transform="matrix(1 0 0 1 -720 -724)">
            <path d="m 550 182 c -0.351562 0.003906 -0.695312 0.101562 -1 0.28125 v 3.4375 c 0.304688 0.179688 0.648438 0.277344 1 0.28125 c 1.105469 0 2 -0.894531 2 -2 s -0.894531 -2 -2 -2 z m 0 5 c -0.339844 0 -0.679688 0.058594 -1 0.175781 v 6.824219 h 4 v -4 c 0 -1.65625 -1.34375 -3 -3 -3 z m 0 0"/>
        </g>
    </g>
    <g mask="url(#d)">
        <g clip-path="url(#e)" transform="matrix(1 0 0 1 -720 -724)">
            <path d="m 569 182 v 4 c 1.105469 0 2 -0.894531 2 -2 s -0.894531 -2 -2 -2 z m 0 5 v 7 h 3 v -4 c 0 -1.65625 -1.34375 -3 -3 -3 z m 0 0"/>
        </g>
    </g>
    <g mask="url(#f)">
        <g clip-path="url(#g)" transform="matrix(1 0 0 1 -720 -724)">
            <path d="m 573 182.269531 v 3.449219 c 0.613281 -0.355469 0.996094 -1.007812 1 -1.71875 c 0 -0.714844 -0.382812 -1.375 -1 -1.730469 z m 0 4.90625 v 6.824219 h 2 v -4 c 0 -1.269531 -0.800781 -2.402344 -2 -2.824219 z m 0 0"/>
        </g>
    </g>
</svg>
