<?xml version="1.0" encoding="UTF-8"?>
<svg height="16px" viewBox="0 0 16 16" width="16px" xmlns="http://www.w3.org/2000/svg" xmlns:xlink="http://www.w3.org/1999/xlink">
    <filter id="a" height="100%" width="100%" x="0%" y="0%">
        <feColorMatrix color-interpolation-filters="sRGB" values="0 0 0 0 1 0 0 0 0 1 0 0 0 0 1 0 0 0 1 0"/>
    </filter>
    <mask id="b">
        <g filter="url(#a)">
            <path d="m -1.6 -1.6 h 19.2 v 19.2 h -19.2 z" fill-opacity="0.5"/>
        </g>
    </mask>
    <clipPath id="c">
        <path d="m 0 0 h 1600 v 1200 h -1600 z"/>
    </clipPath>
    <mask id="d">
        <g filter="url(#a)">
            <path d="m -1.6 -1.6 h 19.2 v 19.2 h -19.2 z" fill-opacity="0.7"/>
        </g>
    </mask>
    <clipPath id="e">
        <path d="m 0 0 h 1600 v 1200 h -1600 z"/>
    </clipPath>
    <mask id="f">
        <g filter="url(#a)">
            <path d="m -1.6 -1.6 h 19.2 v 19.2 h -19.2 z" fill-opacity="0.35"/>
        </g>
    </mask>
    <clipPath id="g">
        <path d="m 0 0 h 1600 v 1200 h -1600 z"/>
    </clipPath>
    <g fill="#2e3436">
        <path d="m 3 0 c -1.644531 0 -3 1.355469 -3 3 v 10 c 0 1.644531 1.355469 3 3 3 h 10 c 1.644531 0 3 -1.355469 3 -3 v -10 c 0 -1.644531 -1.355469 -3 -3 -3 z m 0 2 h 10 c 0.570312 0 1 0.429688 1 1 v 10 c 0 0.570312 -0.429688 1 -1 1 h -10 c -0.570312 0 -1 -0.429688 -1 -1 v -10 c 0 -0.570312 0.429688 -1 1 -1 z m 0 0"/>
        <path d="m 9.03125 7.082031 l -2.507812 2.433594 l -0.523438 -0.460937 c -0.308594 -0.273438 -0.785156 -0.242188 -1.058594 0.070312 c -0.273437 0.308594 -0.242187 0.785156 0.070313 1.058594 l 1.042969 0.917968 c 0.296874 0.257813 0.738281 0.246094 1.019531 -0.027343 l 3 -2.917969 c 0.296875 -0.289062 0.304687 -0.761719 0.015625 -1.058594 c -0.289063 -0.296875 -0.761719 -0.304687 -1.058594 -0.015625 z m 0 0"/>
        <path d="m 8 5.996094 l -3.015625 0.011718 c -1.089844 0.003907 -1.984375 0.902344 -1.984375 1.996094 v 3.019532 c 0 1.09375 0.894531 1.992187 1.984375 1.992187 h 2.988281 c 1.09375 0 1.988282 -0.898437 1.988282 -1.992187 v -0.464844 h -1 v 0.464844 c 0 0.554687 -0.4375 0.992187 -0.988282 0.992187 h -2.988281 c -0.550781 0 -0.984375 -0.4375 -0.984375 -0.992187 v -3.019532 c 0 -0.554687 0.433594 -0.992187 0.988281 -0.996094 l 3.011719 -0.011718 z m 0 0"/>
        <path d="m 2.996094 2.953125 h 6.023437 v 1.105469 h -6.023437 z m 0 0"/>
        <path d="m 9.960938 2.953125 h 3.003906 v 1.105469 h -3.003906 z m 0 0"/>
        <path d="m 9.960938 4.953125 h 3.003906 v 1.046875 h -3.003906 z m 0 0"/>
    </g>
    <g mask="url(#b)">
        <g clip-path="url(#c)" transform="matrix(1 0 0 1 -956 -240)">
            <path d="m 550 182 c -0.351562 0.003906 -0.695312 0.101562 -1 0.28125 v 3.4375 c 0.304688 0.179688 0.648438 0.277344 1 0.28125 c 1.105469 0 2 -0.894531 2 -2 s -0.894531 -2 -2 -2 z m 0 5 c -0.339844 0 -0.679688 0.058594 -1 0.175781 v 6.824219 h 4 v -4 c 0 -1.65625 -1.34375 -3 -3 -3 z m 0 0"/>
        </g>
    </g>
    <g mask="url(#d)">
        <g clip-path="url(#e)" transform="matrix(1 0 0 1 -956 -240)">
            <path d="m 569 182 v 4 c 1.105469 0 2 -0.894531 2 -2 s -0.894531 -2 -2 -2 z m 0 5 v 7 h 3 v -4 c 0 -1.65625 -1.34375 -3 -3 -3 z m 0 0"/>
        </g>
    </g>
    <g mask="url(#f)">
        <g clip-path="url(#g)" transform="matrix(1 0 0 1 -956 -240)">
            <path d="m 573 182.269531 v 3.449219 c 0.613281 -0.355469 0.996094 -1.007812 1 -1.71875 c 0 -0.714844 -0.382812 -1.375 -1 -1.730469 z m 0 4.90625 v 6.824219 h 2 v -4 c 0 -1.269531 -0.800781 -2.402344 -2 -2.824219 z m 0 0"/>
        </g>
    </g>
</svg>
