<?xml version="1.0" encoding="UTF-8"?>
<svg height="16px" viewBox="0 0 16 16" width="16px" xmlns="http://www.w3.org/2000/svg" xmlns:xlink="http://www.w3.org/1999/xlink">
    <filter id="a" height="100%" width="100%" x="0%" y="0%">
        <feColorMatrix color-interpolation-filters="sRGB" values="0 0 0 0 1 0 0 0 0 1 0 0 0 0 1 0 0 0 1 0"/>
    </filter>
    <mask id="b">
        <g filter="url(#a)">
            <path d="m -1.6 -1.6 h 19.2 v 19.2 h -19.2 z" fill-opacity="0.5"/>
        </g>
    </mask>
    <clipPath id="c">
        <path d="m 0 0 h 1600 v 1200 h -1600 z"/>
    </clipPath>
    <mask id="d">
        <g filter="url(#a)">
            <path d="m -1.6 -1.6 h 19.2 v 19.2 h -19.2 z" fill-opacity="0.7"/>
        </g>
    </mask>
    <clipPath id="e">
        <path d="m 0 0 h 1600 v 1200 h -1600 z"/>
    </clipPath>
    <mask id="f">
        <g filter="url(#a)">
            <path d="m -1.6 -1.6 h 19.2 v 19.2 h -19.2 z" fill-opacity="0.35"/>
        </g>
    </mask>
    <clipPath id="g">
        <path d="m 0 0 h 1600 v 1200 h -1600 z"/>
    </clipPath>
    <path d="m 8.703125 0.0234375 c -0.550781 0.0039063 -1.109375 0.1679685 -1.617187 0.4414065 c -0.902344 0.484375 -1.714844 1.308594 -2.3125 2.375 c -0.601563 1.066406 -0.882813 2.191406 -0.828126 3.214844 c 0.023438 0.476562 0.128907 1.082031 0.324219 1.496093 c 0.398438 0.535157 0.273438 0.664063 -0.082031 1.21875 l -3.304688 5.414063 l 1.320313 0.839844 l 3.125 -5.519532 c 0.375 -0.648437 0.65625 -0.679687 1.332031 -0.660156 c 0.46875 -0.039062 1.082032 -0.160156 1.515625 -0.390625 c 0.902344 -0.484375 1.714844 -1.308594 2.3125 -2.375 c 0.601563 -1.066406 0.882813 -2.191406 0.828125 -3.21875 c -0.054687 -1.023437 -0.480468 -2.015625 -1.371094 -2.519531 c -0.390624 -0.222656 -0.8125 -0.3164065 -1.242187 -0.3164065 z m 0.476563 1.6796875 c 0.3125 0.179687 0.542968 0.574219 0.578124 1.238281 c 0.035157 0.664063 -0.164062 1.53125 -0.628906 2.363282 c -0.46875 0.832031 -0.984375 1.355468 -1.570312 1.671874 c -0.582032 0.3125 -1.230469 0.320313 -1.542969 0.144532 c -0.3125 -0.179688 -0.5 -0.671875 -0.535156 -1.335938 c -0.035157 -0.667968 0.1875 -1.34375 0.652343 -2.171875 c 0.46875 -0.832031 1.105469 -1.449219 1.691407 -1.765625 c 0.550781 -0.328125 0.851562 -0.242187 1.355469 -0.144531 z m 0 0" fill="#222222"/>
    <path d="m 12 10 c -1.09375 0 -2 0.90625 -2 2 s 0.90625 2 2 2 s 2 -0.90625 2 -2 s -0.90625 -2 -2 -2 z m 0 0" fill="#222222"/>
    <g mask="url(#b)">
        <g clip-path="url(#c)" transform="matrix(1 0 0 1 -936 -350)">
            <path d="m 550 182 c -0.351562 0.003906 -0.695312 0.101562 -1 0.28125 v 3.4375 c 0.304688 0.179688 0.648438 0.277344 1 0.28125 c 1.105469 0 2 -0.894531 2 -2 s -0.894531 -2 -2 -2 z m 0 5 c -0.339844 0 -0.679688 0.058594 -1 0.175781 v 6.824219 h 4 v -4 c 0 -1.65625 -1.34375 -3 -3 -3 z m 0 0"/>
        </g>
    </g>
    <g mask="url(#d)">
        <g clip-path="url(#e)" transform="matrix(1 0 0 1 -936 -350)">
            <path d="m 569 182 v 4 c 1.105469 0 2 -0.894531 2 -2 s -0.894531 -2 -2 -2 z m 0 5 v 7 h 3 v -4 c 0 -1.65625 -1.34375 -3 -3 -3 z m 0 0"/>
        </g>
    </g>
    <g mask="url(#f)">
        <g clip-path="url(#g)" transform="matrix(1 0 0 1 -936 -350)">
            <path d="m 573 182.269531 v 3.449219 c 0.613281 -0.355469 0.996094 -1.007812 1 -1.71875 c 0 -0.714844 -0.382812 -1.375 -1 -1.730469 z m 0 4.90625 v 6.824219 h 2 v -4 c 0 -1.269531 -0.800781 -2.402344 -2 -2.824219 z m 0 0"/>
        </g>
    </g>
</svg>
