<?xml version="1.0" encoding="UTF-8"?>
<svg height="16px" viewBox="0 0 16 16" width="16px" xmlns="http://www.w3.org/2000/svg">
    <g fill="#2e3436">
        <path d="m 6 2.042969 c 0 1.105469 -0.894531 2 -2 2 s -2 -0.894531 -2 -2 c 0 -1.101563 0.894531 -2.0000002 2 -2.0000002 s 2 0.8984372 2 2.0000002 z m 0 0"/>
        <path d="m 15 2.042969 c 0 1.105469 -0.894531 2 -2 2 s -2 -0.894531 -2 -2 c 0 -1.101563 0.894531 -2.0000002 2 -2.0000002 s 2 0.8984372 2 2.0000002 z m 0 0"/>
        <path d="m 2.039062 5 h 3.921876 c 0.574218 0 1.039062 0.464844 1.039062 1.039062 v 4.421876 c 0 0.574218 -0.464844 1.039062 -1.039062 1.039062 h -3.921876 c -0.574218 0 -1.039062 -0.464844 -1.039062 -1.039062 v -4.421876 c 0 -0.574218 0.464844 -1.039062 1.039062 -1.039062 z m 0 0"/>
        <path d="m 2.992188 8.5 h 2.015624 c 0.546876 0 0.992188 0.445312 0.992188 0.992188 v 4.515624 c 0 0.546876 -0.445312 0.992188 -0.992188 0.992188 h -2.015624 c -0.546876 0 -0.992188 -0.445312 -0.992188 -0.992188 v -4.515624 c 0 -0.546876 0.445312 -0.992188 0.992188 -0.992188 z m 0 0"/>
        <path d="m 12.507812 8.5 h 0.984376 c 0.28125 0 0.507812 0.226562 0.507812 0.507812 v 5.484376 c 0 0.28125 -0.226562 0.507812 -0.507812 0.507812 h -0.984376 c -0.28125 0 -0.507812 -0.226562 -0.507812 -0.507812 v -5.484376 c 0 -0.28125 0.226562 -0.507812 0.507812 -0.507812 z m 0 0"/>
        <path d="m 12.007812 5 h 1.984376 c 0.574218 0 0.945312 0.472656 1.039062 1.039062 l 0.96875 5.972657 c 0.09375 0.570312 -0.464844 1.042969 -1.039062 1.042969 h -3.921876 c -0.574218 0 -1.132812 -0.472657 -1.039062 -1.042969 l 0.96875 -5.972657 c 0.09375 -0.566406 0.464844 -1.039062 1.039062 -1.039062 z m 0 0"/>
        <path d="m 8 1 h 1 v 14 h -1 z m 0 0"/>
    </g>
</svg>
