<?xml version="1.0" encoding="UTF-8"?>
<svg height="16px" viewBox="0 0 16 16" width="16px" xmlns="http://www.w3.org/2000/svg" xmlns:xlink="http://www.w3.org/1999/xlink">
    <filter id="a" height="100%" width="100%" x="0%" y="0%">
        <feColorMatrix color-interpolation-filters="sRGB" values="0 0 0 0 1 0 0 0 0 1 0 0 0 0 1 0 0 0 1 0"/>
    </filter>
    <mask id="b">
        <g filter="url(#a)">
            <path d="m -1.6 -1.6 h 19.2 v 19.2 h -19.2 z" fill-opacity="0.5"/>
        </g>
    </mask>
    <clipPath id="c">
        <path d="m 0 0 h 1600 v 1200 h -1600 z"/>
    </clipPath>
    <mask id="d">
        <g filter="url(#a)">
            <path d="m -1.6 -1.6 h 19.2 v 19.2 h -19.2 z" fill-opacity="0.7"/>
        </g>
    </mask>
    <clipPath id="e">
        <path d="m 0 0 h 1600 v 1200 h -1600 z"/>
    </clipPath>
    <mask id="f">
        <g filter="url(#a)">
            <path d="m -1.6 -1.6 h 19.2 v 19.2 h -19.2 z" fill-opacity="0.35"/>
        </g>
    </mask>
    <clipPath id="g">
        <path d="m 0 0 h 1600 v 1200 h -1600 z"/>
    </clipPath>
    <g mask="url(#b)">
        <g clip-path="url(#c)" transform="matrix(1 0 0 1 -176 -916)">
            <path d="m 550 182 c -0.351562 0.003906 -0.695312 0.101562 -1 0.28125 v 3.4375 c 0.304688 0.179688 0.648438 0.277344 1 0.28125 c 1.105469 0 2 -0.894531 2 -2 s -0.894531 -2 -2 -2 z m 0 5 c -0.339844 0 -0.679688 0.058594 -1 0.175781 v 6.824219 h 4 v -4 c 0 -1.65625 -1.34375 -3 -3 -3 z m 0 0"/>
        </g>
    </g>
    <g mask="url(#d)">
        <g clip-path="url(#e)" transform="matrix(1 0 0 1 -176 -916)">
            <path d="m 569 182 v 4 c 1.105469 0 2 -0.894531 2 -2 s -0.894531 -2 -2 -2 z m 0 5 v 7 h 3 v -4 c 0 -1.65625 -1.34375 -3 -3 -3 z m 0 0"/>
        </g>
    </g>
    <g mask="url(#f)">
        <g clip-path="url(#g)" transform="matrix(1 0 0 1 -176 -916)">
            <path d="m 573 182.269531 v 3.449219 c 0.613281 -0.355469 0.996094 -1.007812 1 -1.71875 c 0 -0.714844 -0.382812 -1.375 -1 -1.730469 z m 0 4.90625 v 6.824219 h 2 v -4 c 0 -1.269531 -0.800781 -2.402344 -2 -2.824219 z m 0 0"/>
        </g>
    </g>
    <path d="m 3 1 c -1.097656 0 -2 0.902344 -2 2 s 0.902344 2 2 2 v 2 c -1.097656 0 -2 0.902344 -2 2 s 0.902344 2 2 2 s 2 -0.902344 2 -2 h 2 v 2 c -1.097656 0 -2 0.902344 -2 2 s 0.902344 2 2 2 s 2 -0.902344 2 -2 h 2 c 0 1.097656 0.902344 2 2 2 s 2 -0.902344 2 -2 s -0.902344 -2 -2 -2 v -2 c 1.097656 0 2 -0.902344 2 -2 s -0.902344 -2 -2 -2 s -2 0.902344 -2 2 h -2 v -2 c 1.097656 0 2 -0.902344 2 -2 s -0.902344 -2 -2 -2 s -2 0.902344 -2 2 h -2 c 0 -1.097656 -0.902344 -2 -2 -2 z m 0 1 c 0.558594 0 1 0.441406 1 1 c 0 0.015625 -0.007812 0.027344 -0.007812 0.039062 c -0.46875 0.117188 -0.835938 0.484376 -0.953126 0.953126 c -0.011718 0 -0.023437 0.007812 -0.039062 0.007812 c -0.558594 0 -1 -0.441406 -1 -1 s 0.441406 -1 1 -1 z m 6 0 c 0.558594 0 1 0.441406 1 1 s -0.441406 1 -1 1 c -0.015625 0 -0.027344 -0.007812 -0.039062 -0.007812 c -0.117188 -0.46875 -0.484376 -0.835938 -0.953126 -0.953126 c 0 -0.011718 -0.007812 -0.023437 -0.007812 -0.039062 c 0 -0.558594 0.441406 -1 1 -1 z m 4 4 c 0.558594 0 1 0.441406 1 1 s -0.441406 1 -1 1 c -0.105469 0 -0.203125 -0.03125 -0.300781 -0.0625 c -0.160157 -0.257812 -0.378907 -0.476562 -0.636719 -0.636719 c -0.03125 -0.097656 -0.0625 -0.195312 -0.0625 -0.300781 c 0 -0.558594 0.441406 -1 1 -1 z m -10 2 c 0.015625 0 0.027344 0.007812 0.039062 0.007812 c 0.117188 0.46875 0.484376 0.835938 0.953126 0.953126 c 0 0.011718 0.007812 0.023437 0.007812 0.039062 c 0 0.558594 -0.441406 1 -1 1 s -1 -0.441406 -1 -1 s 0.441406 -1 1 -1 z m 5.976562 0 h 2.050782 c 0.101562 0 0.191406 0.027344 0.285156 0.054688 c 0.160156 0.257812 0.375 0.472656 0.632812 0.636718 c 0.027344 0.089844 0.054688 0.179688 0.054688 0.28125 v 2.054688 c 0 0.101562 -0.027344 0.191406 -0.054688 0.285156 c -0.257812 0.160156 -0.472656 0.375 -0.632812 0.632812 c -0.09375 0.027344 -0.183594 0.054688 -0.285156 0.054688 h -2.050782 c -0.105468 0 -0.195312 -0.027344 -0.289062 -0.054688 c -0.160156 -0.257812 -0.375 -0.472656 -0.632812 -0.632812 c -0.027344 -0.09375 -0.054688 -0.183594 -0.054688 -0.285156 v -2.054688 c 0 -0.003906 0.003906 -0.007812 0.003906 -0.011718 c 0.472656 -0.113282 0.84375 -0.484376 0.957032 -0.957032 c 0.003906 -0.003906 0.007812 -0.003906 0.015624 -0.003906 z m -1.976562 4 c 0.109375 0 0.203125 0.03125 0.300781 0.0625 c 0.160157 0.257812 0.378907 0.476562 0.636719 0.636719 c 0.03125 0.097656 0.0625 0.195312 0.0625 0.300781 c 0 0.558594 -0.441406 1 -1 1 s -1 -0.441406 -1 -1 s 0.441406 -1 1 -1 z m 6 0 c 0.558594 0 1 0.441406 1 1 s -0.441406 1 -1 1 s -1 -0.441406 -1 -1 c 0 -0.105469 0.03125 -0.203125 0.0625 -0.300781 c 0.257812 -0.160157 0.476562 -0.378907 0.636719 -0.636719 c 0.097656 -0.03125 0.195312 -0.0625 0.300781 -0.0625 z m 0 0" fill="#222222"/>
</svg>
