<?xml version="1.0" encoding="UTF-8"?>
<svg height="16px" viewBox="0 0 16 16" width="16px" xmlns="http://www.w3.org/2000/svg" xmlns:xlink="http://www.w3.org/1999/xlink">
    <filter id="a" height="100%" width="100%" x="0%" y="0%">
        <feColorMatrix color-interpolation-filters="sRGB" values="0 0 0 0 1 0 0 0 0 1 0 0 0 0 1 0 0 0 1 0"/>
    </filter>
    <mask id="b">
        <g filter="url(#a)">
            <path d="m -1.6 -1.6 h 19.2 v 19.2 h -19.2 z" fill-opacity="0.5"/>
        </g>
    </mask>
    <clipPath id="c">
        <path d="m 0 0 h 1600 v 1200 h -1600 z"/>
    </clipPath>
    <mask id="d">
        <g filter="url(#a)">
            <path d="m -1.6 -1.6 h 19.2 v 19.2 h -19.2 z" fill-opacity="0.7"/>
        </g>
    </mask>
    <clipPath id="e">
        <path d="m 0 0 h 1600 v 1200 h -1600 z"/>
    </clipPath>
    <mask id="f">
        <g filter="url(#a)">
            <path d="m -1.6 -1.6 h 19.2 v 19.2 h -19.2 z" fill-opacity="0.35"/>
        </g>
    </mask>
    <clipPath id="g">
        <path d="m 0 0 h 1600 v 1200 h -1600 z"/>
    </clipPath>
    <g mask="url(#b)">
        <g clip-path="url(#c)" transform="matrix(1 0 0 1 -176 -1044)">
            <path d="m 550 182 c -0.351562 0.003906 -0.695312 0.101562 -1 0.28125 v 3.4375 c 0.304688 0.179688 0.648438 0.277344 1 0.28125 c 1.105469 0 2 -0.894531 2 -2 s -0.894531 -2 -2 -2 z m 0 5 c -0.339844 0 -0.679688 0.058594 -1 0.175781 v 6.824219 h 4 v -4 c 0 -1.65625 -1.34375 -3 -3 -3 z m 0 0"/>
        </g>
    </g>
    <g mask="url(#d)">
        <g clip-path="url(#e)" transform="matrix(1 0 0 1 -176 -1044)">
            <path d="m 569 182 v 4 c 1.105469 0 2 -0.894531 2 -2 s -0.894531 -2 -2 -2 z m 0 5 v 7 h 3 v -4 c 0 -1.65625 -1.34375 -3 -3 -3 z m 0 0"/>
        </g>
    </g>
    <g mask="url(#f)">
        <g clip-path="url(#g)" transform="matrix(1 0 0 1 -176 -1044)">
            <path d="m 573 182.269531 v 3.449219 c 0.613281 -0.355469 0.996094 -1.007812 1 -1.71875 c 0 -0.714844 -0.382812 -1.375 -1 -1.730469 z m 0 4.90625 v 6.824219 h 2 v -4 c 0 -1.269531 -0.800781 -2.402344 -2 -2.824219 z m 0 0"/>
        </g>
    </g>
    <path d="m 3 1 c -0.410156 0 -0.777344 0.25 -0.929688 0.628906 l -1.9999995 5 c -0.046875 0.117188 -0.0703125 0.242188 -0.0703125 0.371094 v 7 h 2 v -3 h 4.003906 l 0.003906 3 h 2 l -0.007812 -7 c 0 -0.128906 -0.027344 -0.253906 -0.074219 -0.371094 l -2 -5 c -0.152343 -0.378906 -0.519531 -0.628906 -0.925781 -0.628906 z m 0.675781 2 h 0.644531 l 1.679688 4.191406 v 1.808594 h -4 v -1.808594 z m 6.324219 1 v 2 h 3 c 0.429688 0 1 0.5 1 1 v 1 h -2 c -0.917969 0 -1.734375 0.378906 -2.25 0.964844 c -0.515625 0.585937 -0.742188 1.324218 -0.738281 2.042968 c 0.007812 0.722657 0.246093 1.449219 0.757812 2.027344 c 0.515625 0.582032 1.320313 0.964844 2.230469 0.964844 h 4 v -7 c 0 -1.632812 -1.320312 -3 -3 -3 z m 2 6 h 2 v 2 h -2 c -0.398438 0 -0.578125 -0.117188 -0.730469 -0.289062 c -0.152343 -0.167969 -0.253906 -0.441407 -0.257812 -0.722657 c 0 -0.277343 0.09375 -0.539062 0.242187 -0.703125 c 0.144532 -0.164062 0.324219 -0.285156 0.746094 -0.285156 z m 0 0" fill="#222222"/>
</svg>
