<?xml version="1.0" encoding="UTF-8"?>
<svg height="16px" viewBox="0 0 16 16" width="16px" xmlns="http://www.w3.org/2000/svg" xmlns:xlink="http://www.w3.org/1999/xlink">
    <filter id="a" height="100%" width="100%" x="0%" y="0%">
        <feColorMatrix color-interpolation-filters="sRGB" values="0 0 0 0 1 0 0 0 0 1 0 0 0 0 1 0 0 0 1 0"/>
    </filter>
    <mask id="b">
        <g filter="url(#a)">
            <path d="m -1.6 -1.6 h 19.2 v 19.2 h -19.2 z" fill-opacity="0.5"/>
        </g>
    </mask>
    <clipPath id="c">
        <path d="m 0 0 h 1600 v 1200 h -1600 z"/>
    </clipPath>
    <mask id="d">
        <g filter="url(#a)">
            <path d="m -1.6 -1.6 h 19.2 v 19.2 h -19.2 z" fill-opacity="0.7"/>
        </g>
    </mask>
    <clipPath id="e">
        <path d="m 0 0 h 1600 v 1200 h -1600 z"/>
    </clipPath>
    <mask id="f">
        <g filter="url(#a)">
            <path d="m -1.6 -1.6 h 19.2 v 19.2 h -19.2 z" fill-opacity="0.35"/>
        </g>
    </mask>
    <clipPath id="g">
        <path d="m 0 0 h 1600 v 1200 h -1600 z"/>
    </clipPath>
    <g mask="url(#b)">
        <g clip-path="url(#c)" transform="matrix(1 0 0 1 -100 -40)">
            <path d="m 550 182 c -0.351562 0.003906 -0.695312 0.101562 -1 0.28125 v 3.4375 c 0.304688 0.179688 0.648438 0.277344 1 0.28125 c 1.105469 0 2 -0.894531 2 -2 s -0.894531 -2 -2 -2 z m 0 5 c -0.339844 0 -0.679688 0.058594 -1 0.175781 v 6.824219 h 4 v -4 c 0 -1.65625 -1.34375 -3 -3 -3 z m 0 0"/>
        </g>
    </g>
    <g mask="url(#d)">
        <g clip-path="url(#e)" transform="matrix(1 0 0 1 -100 -40)">
            <path d="m 569 182 v 4 c 1.105469 0 2 -0.894531 2 -2 s -0.894531 -2 -2 -2 z m 0 5 v 7 h 3 v -4 c 0 -1.65625 -1.34375 -3 -3 -3 z m 0 0"/>
        </g>
    </g>
    <g mask="url(#f)">
        <g clip-path="url(#g)" transform="matrix(1 0 0 1 -100 -40)">
            <path d="m 573 182.269531 v 3.449219 c 0.613281 -0.355469 0.996094 -1.007812 1 -1.71875 c 0 -0.714844 -0.382812 -1.375 -1 -1.730469 z m 0 4.90625 v 6.824219 h 2 v -4 c 0 -1.269531 -0.800781 -2.402344 -2 -2.824219 z m 0 0"/>
        </g>
    </g>
    <g fill="#222222">
        <path d="m 6.007812 1 v 2.984375 h -3.0625 c -0.554687 0.003906 -1 0.449219 -1 1 c 0 0.554687 0.445313 1 1 1 h 12.054688 c -1.15625 -2 -5 -4.984375 -8.992188 -4.984375 z m -1.519531 3.5 h 0.011719 c 0.273438 0 0.5 0.222656 0.5 0.5 s -0.226562 0.5 -0.5 0.5 c -0.277344 0 -0.5 -0.222656 -0.5 -0.5 c 0 -0.273438 0.214844 -0.492188 0.488281 -0.5 z m 0 0"/>
        <path d="m 1 6.984375 v 1 l 1.5 0.015625 c 0.292969 0 0.488281 0.195312 0.488281 0.5 l 0.011719 2 c 0 0.277344 0.222656 0.5 0.5 0.5 s 0.5 -0.222656 0.5 -0.5 v -2 c 0 -0.660156 1 -0.660156 1 0 v 3 c 0 0.277344 0.222656 0.5 0.5 0.5 s 0.5 -0.222656 0.5 -0.5 v -1 c 0 -0.675781 1 -0.671875 1 0 c 0.003906 1.683594 0.015625 3.652344 0.015625 3.941406 c 0 0.273438 0.21875 0.496094 0.492187 0.496094 c 0.269532 0 0.492188 -0.222656 0.492188 -0.496094 c 0 -0.425781 0.019531 -5.089844 0.019531 -5.957031 c 0 -0.246094 0.226563 -0.5 0.5 -0.5 h 0.980469 c 0.257812 0 0.5 0.25 0.5 0.5 v 1 c 0 0.277344 0.222656 0.5 0.5 0.5 s 0.5 -0.222656 0.5 -0.5 v -1 c 0 -0.265625 0.222656 -0.5 0.5 -0.5 c 0.265625 0 0.5 0.230469 0.5 0.5 c 0 0.277344 0.222656 0.5 0.5 0.5 s 0.5 -0.222656 0.5 -0.5 c 0.015625 -0.261719 0.265625 -0.492187 0.5 -0.5 h 1.5 v -1 z m 0 0"/>
    </g>
</svg>
