<?xml version="1.0" encoding="UTF-8"?>
<svg height="16px" viewBox="0 0 16 16" width="16px" xmlns="http://www.w3.org/2000/svg">
    <g fill="#2e3436">
        <path d="m 2 3 h 2 c 0.550781 0 1 0.449219 1 1 s -0.449219 1 -1 1 h -2 c -0.550781 0 -1 -0.449219 -1 -1 s 0.449219 -1 1 -1 z m 0 0"/>
        <path d="m 7 3 h 2 c 0.550781 0 1 0.449219 1 1 s -0.449219 1 -1 1 h -2 c -0.550781 0 -1 -0.449219 -1 -1 s 0.449219 -1 1 -1 z m 0 0"/>
        <path d="m 12 3 h 2 c 0.550781 0 1 0.449219 1 1 s -0.449219 1 -1 1 h -2 c -0.550781 0 -1 -0.449219 -1 -1 s 0.449219 -1 1 -1 z m 0 0"/>
        <path d="m 1 7 h 4 v 1 h -4 z m 0 0"/>
        <path d="m 1 10 h 4 v 1 h -4 z m 0 0"/>
        <path d="m 1 13 h 4 v 1 h -4 z m 0 0"/>
        <path d="m 6 7 h 4 v 1 h -4 z m 0 0"/>
        <path d="m 6 10 h 4 v 1 h -4 z m 0 0"/>
        <path d="m 6 13 h 4 v 1 h -4 z m 0 0"/>
        <path d="m 11 7 h 4 v 1 h -4 z m 0 0"/>
        <path d="m 11 10 h 4 v 1 h -4 z m 0 0"/>
        <path d="m 11 13 h 4 v 1 h -4 z m 0 0"/>
    </g>
</svg>
