<?xml version="1.0" encoding="UTF-8"?>
<svg height="16px" viewBox="0 0 16 16" width="16px" xmlns="http://www.w3.org/2000/svg" xmlns:xlink="http://www.w3.org/1999/xlink">
    <filter id="a" height="100%" width="100%" x="0%" y="0%">
        <feColorMatrix color-interpolation-filters="sRGB" values="0 0 0 0 1 0 0 0 0 1 0 0 0 0 1 0 0 0 1 0"/>
    </filter>
    <mask id="b">
        <g filter="url(#a)">
            <path d="m -1.6 -1.6 h 19.2 v 19.2 h -19.2 z" fill-opacity="0.5"/>
        </g>
    </mask>
    <clipPath id="c">
        <path d="m 0 0 h 1600 v 1200 h -1600 z"/>
    </clipPath>
    <mask id="d">
        <g filter="url(#a)">
            <path d="m -1.6 -1.6 h 19.2 v 19.2 h -19.2 z" fill-opacity="0.7"/>
        </g>
    </mask>
    <clipPath id="e">
        <path d="m 0 0 h 1600 v 1200 h -1600 z"/>
    </clipPath>
    <mask id="f">
        <g filter="url(#a)">
            <path d="m -1.6 -1.6 h 19.2 v 19.2 h -19.2 z" fill-opacity="0.35"/>
        </g>
    </mask>
    <clipPath id="g">
        <path d="m 0 0 h 1600 v 1200 h -1600 z"/>
    </clipPath>
    <g mask="url(#b)">
        <g clip-path="url(#c)" transform="matrix(1 0 0 1 -360 -60)">
            <path d="m 550 182 c -0.351562 0.003906 -0.695312 0.101562 -1 0.28125 v 3.4375 c 0.304688 0.179688 0.648438 0.277344 1 0.28125 c 1.105469 0 2 -0.894531 2 -2 s -0.894531 -2 -2 -2 z m 0 5 c -0.339844 0 -0.679688 0.058594 -1 0.175781 v 6.824219 h 4 v -4 c 0 -1.65625 -1.34375 -3 -3 -3 z m 0 0"/>
        </g>
    </g>
    <g mask="url(#d)">
        <g clip-path="url(#e)" transform="matrix(1 0 0 1 -360 -60)">
            <path d="m 569 182 v 4 c 1.105469 0 2 -0.894531 2 -2 s -0.894531 -2 -2 -2 z m 0 5 v 7 h 3 v -4 c 0 -1.65625 -1.34375 -3 -3 -3 z m 0 0"/>
        </g>
    </g>
    <g mask="url(#f)">
        <g clip-path="url(#g)" transform="matrix(1 0 0 1 -360 -60)">
            <path d="m 573 182.269531 v 3.449219 c 0.613281 -0.355469 0.996094 -1.007812 1 -1.71875 c 0 -0.714844 -0.382812 -1.375 -1 -1.730469 z m 0 4.90625 v 6.824219 h 2 v -4 c 0 -1.269531 -0.800781 -2.402344 -2 -2.824219 z m 0 0"/>
        </g>
    </g>
    <g fill="#222222">
        <path d="m 4.875 1 c -0.550781 0 -1 0.449219 -1 1 v 0.5 c 0 0.128906 0.023438 0.253906 0.074219 0.371094 l 3 7.5 c 0.148437 0.378906 0.515625 0.628906 0.925781 0.628906 h 3.304688 l 1.257812 3.351562 c 0.148438 0.390626 0.519531 0.648438 0.9375 0.648438 h 1.5 c 0.550781 0 1 -0.449219 1 -1 s -0.449219 -1 -1 -1 h -0.804688 l -1.257812 -3.351562 c -0.148438 -0.390626 -0.519531 -0.648438 -0.9375 -0.648438 h -3.324219 l -2.675781 -6.691406 v -0.308594 c 0 -0.550781 -0.449219 -1 -1 -1 z m 0 0"/>
        <path d="m 8 2.125 c 0 1.105469 -0.894531 2 -2 2 s -2 -0.894531 -2 -2 s 0.894531 -2 2 -2 s 2 0.894531 2 2 z m 0 0"/>
        <path d="m 4.25 5.707031 c -1.808594 0.847657 -3.066406 2.683594 -3.066406 4.800781 c 0 2.917969 2.382812 5.304688 5.300781 5.304688 c 1.933594 0 3.582031 -1.066406 4.488281 -2.628906 l -0.488281 -1.226563 h -0.957031 c -0.539063 1.140625 -1.6875 1.925781 -3.042969 1.925781 c -1.875 0 -3.375 -1.5 -3.375 -3.375 c 0 -1.308593 0.742187 -2.421874 1.824219 -2.984374 z m 0 0" fill-opacity="0.34902"/>
        <path d="m 7 6 c -0.550781 0 -1 0.449219 -1 1 s 0.449219 1 1 1 h 4 c 0.550781 0 1 -0.449219 1 -1 s -0.449219 -1 -1 -1 z m 0 0"/>
    </g>
</svg>
