<?xml version="1.0" encoding="UTF-8"?>
<svg height="16px" viewBox="0 0 16 16" width="16px" xmlns="http://www.w3.org/2000/svg" xmlns:xlink="http://www.w3.org/1999/xlink">
    <filter id="a" height="100%" width="100%" x="0%" y="0%">
        <feColorMatrix color-interpolation-filters="sRGB" values="0 0 0 0 1 0 0 0 0 1 0 0 0 0 1 0 0 0 1 0"/>
    </filter>
    <mask id="b">
        <g filter="url(#a)">
            <path d="m -1.6 -1.6 h 19.2 v 19.2 h -19.2 z" fill-opacity="0.5"/>
        </g>
    </mask>
    <clipPath id="c">
        <path d="m 0 0 h 1600 v 1200 h -1600 z"/>
    </clipPath>
    <mask id="d">
        <g filter="url(#a)">
            <path d="m -1.6 -1.6 h 19.2 v 19.2 h -19.2 z" fill-opacity="0.7"/>
        </g>
    </mask>
    <clipPath id="e">
        <path d="m 0 0 h 1600 v 1200 h -1600 z"/>
    </clipPath>
    <mask id="f">
        <g filter="url(#a)">
            <path d="m -1.6 -1.6 h 19.2 v 19.2 h -19.2 z" fill-opacity="0.35"/>
        </g>
    </mask>
    <clipPath id="g">
        <path d="m 0 0 h 1600 v 1200 h -1600 z"/>
    </clipPath>
    <g mask="url(#b)">
        <g clip-path="url(#c)" transform="matrix(1 0 0 1 -60 -316)">
            <path d="m 550 182 c -0.351562 0.003906 -0.695312 0.101562 -1 0.28125 v 3.4375 c 0.304688 0.179688 0.648438 0.277344 1 0.28125 c 1.105469 0 2 -0.894531 2 -2 s -0.894531 -2 -2 -2 z m 0 5 c -0.339844 0 -0.679688 0.058594 -1 0.175781 v 6.824219 h 4 v -4 c 0 -1.65625 -1.34375 -3 -3 -3 z m 0 0"/>
        </g>
    </g>
    <g mask="url(#d)">
        <g clip-path="url(#e)" transform="matrix(1 0 0 1 -60 -316)">
            <path d="m 569 182 v 4 c 1.105469 0 2 -0.894531 2 -2 s -0.894531 -2 -2 -2 z m 0 5 v 7 h 3 v -4 c 0 -1.65625 -1.34375 -3 -3 -3 z m 0 0"/>
        </g>
    </g>
    <g mask="url(#f)">
        <g clip-path="url(#g)" transform="matrix(1 0 0 1 -60 -316)">
            <path d="m 573 182.269531 v 3.449219 c 0.613281 -0.355469 0.996094 -1.007812 1 -1.71875 c 0 -0.714844 -0.382812 -1.375 -1 -1.730469 z m 0 4.90625 v 6.824219 h 2 v -4 c 0 -1.269531 -0.800781 -2.402344 -2 -2.824219 z m 0 0"/>
        </g>
    </g>
    <path d="m 3.785156 2.03125 c -0.242187 0 -0.523437 0.066406 -0.804687 0.21875 c -1.039063 0.546875 -1.992188 2.335938 -2.511719 4.65625 c -0.4414062 1.972656 -0.605469 4.664062 -0.339844 5.75 c 0.226563 0.933594 0.625 1.34375 1.332032 1.34375 c 1.042968 -0.019531 2.359374 -1.183594 3.191406 -2.75 c 0.601562 -0.867188 2 -1.261719 3.347656 -1.21875 c 1.347656 -0.046875 2.746094 0.351562 3.347656 1.21875 c 0.832032 1.566406 2.148438 2.730469 3.191406 2.75 c 0.707032 0 1.105469 -0.410156 1.332032 -1.34375 c 0.265625 -1.085938 0.101562 -3.777344 -0.339844 -5.75 c -0.519531 -2.320312 -1.472656 -4.109375 -2.511719 -4.65625 c -0.566406 -0.304688 -1.039062 -0.296875 -1.453125 0 c -0.527344 0.375 -1.628906 0.78125 -3.566406 0.78125 c -1.9375 0.003906 -3.039062 -0.40625 -3.566406 -0.78125 c -0.207032 -0.148438 -0.40625 -0.21875 -0.648438 -0.21875 z m 0.246094 3 h 0.992188 v 1 h 0.992187 v 1 h -0.992187 v 1 h -0.992188 v -1 h -0.992188 v -1 h 0.992188 z m 7.441406 0 c 0.273438 0 0.496094 0.222656 0.496094 0.5 s -0.222656 0.5 -0.496094 0.5 c -0.273437 0 -0.496094 -0.222656 -0.496094 -0.5 s 0.222657 -0.5 0.496094 -0.5 z m -0.992187 1 c 0.273437 0 0.496093 0.222656 0.496093 0.5 s -0.222656 0.5 -0.496093 0.5 c -0.273438 0 -0.496094 -0.222656 -0.496094 -0.5 s 0.222656 -0.5 0.496094 -0.5 z m 1.984375 0 c 0.273437 0 0.496094 0.222656 0.496094 0.5 s -0.222657 0.5 -0.496094 0.5 c -0.273438 0 -0.496094 -0.222656 -0.496094 -0.5 s 0.222656 -0.5 0.496094 -0.5 z m -0.992188 1 c 0.273438 0 0.496094 0.222656 0.496094 0.5 s -0.222656 0.5 -0.496094 0.5 c -0.273437 0 -0.496094 -0.222656 -0.496094 -0.5 s 0.222657 -0.5 0.496094 -0.5 z m 0 0" fill="#222222"/>
</svg>
